<svg width="62" height="62" viewBox="0 0 62 62" fill="none" xmlns="http://www.w3.org/2000/svg">
<path d="M4.25049 0.193846C2.1919 0.750877 0.569238 2.42197 0.133301 4.45635C-0.0483399 5.34033 -0.0483399 20.3196 0.133301 21.2157C0.520801 23.0685 1.94971 24.6911 3.79033 25.3935C4.15361 25.5388 4.91651 25.6114 6.53916 25.6599L8.7794 25.7325L10.9591 28.6388L13.1388 31.545L13.6474 31.5813L14.156 31.6177L16.372 28.6509L18.588 25.6841L37.8419 25.672C50.363 25.672 57.2775 25.6235 57.6286 25.5388C59.6993 25.0665 61.4915 23.1896 61.879 21.0825C62.0486 20.1985 62.0364 5.44932 61.879 4.58955C61.5884 3.03955 60.4501 1.45322 59.1181 0.750877C57.6165 -0.0483418 59.0939 9.53674e-05 36.2071 9.53674e-05C15.4638 9.53674e-05 15.4274 9.53674e-05 15.161 0.242283C14.8462 0.532909 14.8099 1.1626 15.0642 1.52588C15.2337 1.75595 15.6333 1.75595 36.2919 1.8165L57.338 1.87705L58.0282 2.21611C58.8032 2.5915 59.4814 3.29385 59.8689 4.11728C60.1232 4.66221 60.1232 4.74697 60.1232 12.836V21.0099L59.7841 21.7001C59.3724 22.5478 58.5611 23.2864 57.6892 23.6134C57.0353 23.8556 56.8415 23.8556 37.4786 23.8556H17.9462L17.595 24.1462C17.4134 24.3036 16.4689 25.5024 15.5001 26.8103C14.5314 28.106 13.72 29.1716 13.6837 29.1837C13.6474 29.1837 12.7876 28.0817 11.7825 26.7255C10.7653 25.3692 9.85713 24.1825 9.73604 24.0856C9.57862 23.9524 8.94893 23.904 7.03565 23.8556C4.62588 23.795 4.5169 23.7829 3.93565 23.4681C3.14854 23.0563 2.39775 22.245 2.10713 21.4821C1.88916 20.9251 1.87705 20.4649 1.87705 12.7755V4.66221L2.21611 3.97197C2.60361 3.18486 3.29385 2.50674 4.10518 2.13135C4.62588 1.90127 4.91651 1.87705 8.14971 1.8165C11.4314 1.75595 11.6614 1.74385 11.8189 1.52588C12.0974 1.12627 12.0368 0.532909 11.6735 0.254393C11.3587 0.0122051 11.2134 9.53674e-05 8.12549 0.0122051C5.71572 0.0122051 4.73486 0.0606422 4.25049 0.193846Z" fill="#B0B0B0"/>
<path d="M12.8724 6.22422C12.6665 6.40586 12.2306 7.14453 11.7704 8.1375L11.0075 9.77227L9.16692 10.0387C7.16887 10.3414 6.78137 10.4746 6.56341 10.959C6.21223 11.7219 6.35755 11.9883 8.00442 13.5625L9.33645 14.834L9.02161 16.5172C8.85208 17.4496 8.71887 18.382 8.71887 18.5758C8.73098 19.1934 9.32434 19.7383 9.97825 19.7383C10.1478 19.7383 11.0318 19.3508 11.9521 18.8664L13.6111 17.9945L15.3185 18.8664C16.2509 19.3508 17.1349 19.7383 17.2923 19.7383C17.7525 19.7383 18.2368 19.4113 18.4185 18.9996C18.5517 18.6484 18.5396 18.382 18.249 16.723L17.922 14.834L19.2419 13.5625C20.8888 11.9883 21.0341 11.7219 20.6829 10.959C20.465 10.4746 20.0532 10.3293 18.0673 10.0387L16.2388 9.76016L15.4517 8.10117C14.9673 7.09609 14.5314 6.34531 14.3376 6.18789C13.9017 5.84883 13.3083 5.86094 12.8724 6.22422ZM14.3376 9.90547C14.7493 10.7289 15.1005 11.2617 15.27 11.3586C15.5122 11.4797 17.7161 11.8672 18.1884 11.8672C18.2611 11.8672 17.8251 12.3758 17.2197 13.0055C15.9603 14.2891 15.9724 14.2164 16.2872 15.9844C16.5657 17.5586 16.6384 17.5102 15.2337 16.7594C14.5435 16.4082 13.829 16.1055 13.6353 16.1055C13.4294 16.1055 12.7271 16.3961 12.0247 16.7715C10.6079 17.5223 10.6806 17.5707 10.9591 15.9844C11.274 14.2164 11.2861 14.2891 10.0267 13.0055C9.42122 12.3758 8.98528 11.8672 9.05794 11.8672C9.5302 11.8672 11.7341 11.4797 11.9763 11.3586C12.1458 11.2617 12.497 10.7289 12.9087 9.90547C13.272 9.17891 13.5868 8.59766 13.6232 8.59766C13.6595 8.59766 13.9743 9.17891 14.3376 9.90547Z" fill="#B0B0B0"/>
<path d="M30.3462 6.12726C30.0798 6.27257 29.8134 6.72062 29.1595 8.06476C28.6993 9.0214 28.2755 9.80851 28.2149 9.80851C27.6458 9.80851 24.5821 10.3534 24.3642 10.4987C24.0009 10.7167 23.7224 11.3706 23.8192 11.7581C23.8556 11.9155 24.5095 12.6784 25.2724 13.4534L26.6649 14.8702L26.3501 16.7472C26.011 18.8058 26.0231 19.0359 26.5923 19.4839C27.113 19.8956 27.5126 19.8109 29.3169 18.8542L30.988 17.9823L32.6712 18.8542C34.427 19.7745 34.8509 19.8835 35.3474 19.5444C35.9286 19.1327 35.9649 18.7694 35.6259 16.7351L35.3231 14.8823L36.7278 13.4534C38.0841 12.0851 38.1446 12.0003 38.1446 11.5159C38.1446 10.6925 37.7208 10.3655 36.4493 10.1839C35.8802 10.0991 35.0204 9.97804 34.536 9.90538L33.652 9.77218L32.756 8.00421C32.0899 6.66007 31.7993 6.1878 31.545 6.07882C31.1333 5.88507 30.77 5.89718 30.3462 6.12726ZM31.6903 9.86905C32.0415 10.5593 32.4532 11.2132 32.6106 11.3101C32.756 11.4191 33.4825 11.5886 34.2091 11.6976C34.9477 11.8066 35.5653 11.9155 35.6017 11.9519C35.638 11.9882 35.1899 12.4605 34.6087 13.0054C34.0274 13.5503 33.531 14.1316 33.4825 14.3011C33.4462 14.4585 33.5188 15.2214 33.652 15.9843C33.7974 16.7351 33.9063 17.3769 33.9063 17.4011C33.9063 17.4253 33.3251 17.1468 32.6106 16.7714C31.8962 16.4081 31.1575 16.1054 30.9759 16.1054C30.7942 16.1054 30.0798 16.4081 29.3774 16.7835C28.663 17.1589 28.0938 17.4132 28.0938 17.3526C28.0938 17.2921 28.2028 16.6503 28.336 15.9237C28.4692 15.1972 28.5419 14.4948 28.5056 14.3495C28.4692 14.2163 27.9485 13.6109 27.3431 13.0054L26.2653 11.9034L27.6821 11.7097C28.4692 11.6007 29.2321 11.4191 29.3895 11.3222C29.547 11.2132 29.9587 10.5593 30.3099 9.86905C30.6489 9.16671 30.9638 8.59757 31.0001 8.59757C31.0364 8.59757 31.3513 9.16671 31.6903 9.86905Z" fill="#B0B0B0"/>
<path d="M47.6749 6.17567C47.469 6.33309 46.9968 7.10809 46.5003 8.11317L45.6647 9.77216L44.3569 9.96591C43.6425 10.087 42.7948 10.2081 42.4679 10.2444C41.5475 10.3776 41.039 11.0315 41.2206 11.8307C41.269 12.0487 41.814 12.6663 42.6737 13.5018L44.0542 14.8339L43.7636 16.4686C43.3761 18.6604 43.3882 18.939 43.8241 19.387C44.369 19.9319 44.7323 19.8593 46.6819 18.8663L48.3893 17.9944L50.0483 18.8663C51.7679 19.7745 52.0948 19.8593 52.664 19.5565C53.3179 19.2296 53.3663 18.8542 52.9909 16.7229L52.664 14.8339L53.9839 13.5624C55.3038 12.2909 55.5823 11.9397 55.5823 11.5643C55.5823 11.189 55.2069 10.5714 54.9163 10.4382C54.7468 10.3534 53.8022 10.1839 52.8093 10.0386L51.0171 9.77216L50.1815 8.08895C49.7214 7.15653 49.2491 6.32098 49.1401 6.212C48.789 5.89716 48.0624 5.87294 47.6749 6.17567ZM49.0675 9.88114C49.4065 10.5835 49.794 11.2253 49.9393 11.3222C50.0725 11.4069 50.8354 11.5765 51.6225 11.6975L53.0393 11.9034L51.9495 13.0175C50.7022 14.289 50.7143 14.2526 51.0413 16.1054C51.1382 16.6745 51.2229 17.2073 51.2229 17.2921C51.2229 17.3768 50.7143 17.171 49.9757 16.7714C49.2612 16.396 48.571 16.1054 48.3651 16.1054C48.1714 16.1054 47.4448 16.4081 46.7546 16.7714C46.0643 17.1347 45.4831 17.4374 45.471 17.4374C45.4589 17.4374 45.5436 16.8561 45.6768 16.1296C46.0038 14.2768 45.9796 14.1921 44.7202 12.9327C44.139 12.3515 43.7272 11.8671 43.812 11.8671C44.2358 11.8671 46.4034 11.4917 46.6698 11.3706C46.8878 11.2616 47.1784 10.8378 47.6507 9.90536C48.0261 9.19091 48.353 8.59755 48.3893 8.59755C48.4257 8.59755 48.7284 9.1788 49.0675 9.88114Z" fill="#B0B0B0"/>
<path d="M11.6854 34.8751C4.28658 36.0376 -0.88412 42.8915 0.133068 50.2055C0.835412 55.2915 4.44401 59.6509 9.28776 61.2735C11.3706 61.9637 13.4897 62.1454 15.6573 61.8184C18.6362 61.3704 20.9854 60.1716 23.2014 57.9555C24.485 56.672 25.0663 55.8606 25.8292 54.3712C28.0694 49.927 27.5729 44.3567 24.5698 40.3001C23.71 39.1497 21.9663 37.5391 20.8038 36.8247C18.6725 35.5048 16.5655 34.8872 14.0467 34.8145C13.1506 34.7903 12.085 34.8145 11.6854 34.8751ZM16.6018 36.97C17.7643 37.2727 19.3628 37.9993 20.3315 38.6653C20.6221 38.8591 21.2276 39.3798 21.6878 39.8036C25.5506 43.4606 26.5194 49.152 24.0491 53.8384C23.7585 54.3712 23.3225 55.0977 23.0561 55.4368C22.6081 56.0423 22.5839 56.0665 22.4749 55.8001C21.5303 53.354 20.1741 51.6829 18.2729 50.5567C17.8733 50.3266 17.51 50.1329 17.4616 50.1329C17.4131 50.1329 17.3042 50.0845 17.2073 50.0239C17.0741 49.9391 17.1588 49.7938 17.5948 49.3337C20.4647 46.3427 18.9995 41.3173 14.9549 40.2637C11.5401 39.3798 8.11315 42.0438 8.11315 45.5919C8.11315 46.9481 8.64596 48.3044 9.59049 49.3458L10.1233 49.927L9.37252 50.3145C7.32604 51.3802 5.80026 53.0876 4.96471 55.2309L4.63776 56.0665L4.11705 55.3762C3.41471 54.4317 2.4944 52.4821 2.16744 51.2227C1.93736 50.3751 1.88893 49.8665 1.88893 48.377C1.87682 46.7544 1.91315 46.4274 2.21588 45.3618C2.83346 43.1216 3.88697 41.3778 5.60651 39.7673C7.39869 38.0841 9.33619 37.1516 12.1092 36.643C12.2788 36.6188 13.0901 36.6067 13.9256 36.6309C15.0518 36.6552 15.7299 36.7399 16.6018 36.97ZM14.7733 42.1044C15.621 42.3708 16.5897 43.2669 16.9651 44.1024C17.3526 44.9864 17.3526 46.1973 16.9772 47.045C16.626 47.8079 15.9721 48.486 15.1971 48.8977C14.3374 49.3458 12.9206 49.3579 12.0487 48.922C10.7772 48.3044 9.92955 46.9723 9.92955 45.604C9.92955 43.0852 12.3635 41.3294 14.7733 42.1044ZM15.1971 51.2833C16.6018 51.5739 17.7159 52.2036 18.8299 53.3298C19.9077 54.4196 20.4405 55.3278 20.7917 56.7083L21.0096 57.5317L20.5858 57.895C19.9077 58.4641 17.5948 59.5419 16.4081 59.8446C14.8702 60.2321 12.3999 60.2321 10.8378 59.8446C9.67526 59.554 7.65299 58.6337 6.80533 58.004C6.21197 57.5559 6.17565 57.3137 6.52682 56.2966C7.81041 52.5548 11.3948 50.4841 15.1971 51.2833Z" fill="#B0B0B0"/>
<path d="M33.3371 36.0861C31.8719 36.3041 30.8789 37.5392 30.8789 39.1619C30.8789 40.5545 31.7145 41.8138 32.8164 42.1166C33.2402 42.2377 36.4371 42.2619 46.6332 42.2377L59.9051 42.2013L60.4863 41.838C60.8859 41.5837 61.1766 41.2689 61.443 40.8087C61.782 40.2154 61.8184 40.0338 61.8184 39.174C61.8184 38.3142 61.782 38.1326 61.443 37.5392C60.9828 36.7158 60.2805 36.2435 59.2754 36.0861C58.4156 35.9408 34.2938 35.9529 33.3371 36.0861ZM59.7113 38.2416C60.1836 38.7744 60.2078 39.5373 59.7477 40.0701L59.4328 40.4455H46.3789H33.3371L33.0223 40.1306C32.2352 39.3435 32.6227 38.1084 33.7246 37.8662C33.8578 37.8298 39.6824 37.8177 46.6574 37.8298L59.3602 37.842L59.7113 38.2416Z" fill="#B0B0B0"/>
<path d="M33.4099 45.2894C32.6591 45.4226 32.211 45.6648 31.7024 46.2339C31.1696 46.8273 30.9517 47.4448 30.9517 48.3773C30.9517 49.3218 31.1696 49.9273 31.7146 50.5327C32.6106 51.5378 31.4481 51.4651 46.4153 51.4651C60.8376 51.4651 60.0505 51.5015 60.8982 50.787C62.2181 49.673 62.206 47.1058 60.8739 45.9312C60.2685 45.3984 59.6872 45.2409 58.2946 45.2409C56.8415 45.2288 56.5509 45.3741 56.5509 46.137C56.5509 46.8152 56.8173 46.9847 57.895 46.9847C59.1302 46.9847 59.663 47.1542 59.9415 47.6265C60.0747 47.8444 60.1837 48.1714 60.1837 48.353C60.1837 48.7769 59.8931 49.3581 59.5903 49.5277C59.4329 49.6124 55.0493 49.6487 46.379 49.6487H33.3978L33.0466 49.2976C32.3442 48.5952 32.6712 47.3843 33.6399 47.1058C33.9306 47.0331 37.4786 46.9847 43.6786 46.9847H53.2692L53.4509 46.7183C53.7052 46.355 53.6931 45.8585 53.4146 45.5195L53.1845 45.2288L43.5696 45.2167C38.2899 45.2046 33.7126 45.2409 33.4099 45.2894Z" fill="#B0B0B0"/>
<path d="M33.3977 54.4922C31.9566 54.7344 31 55.9816 31 57.5801C31 58.8637 31.6055 59.9051 32.6227 60.3773C33.2039 60.6438 33.3855 60.668 35.3836 60.668C37.4543 60.668 37.527 60.6559 37.7086 60.4016C37.9629 60.0383 37.9508 59.5418 37.6723 59.2027C37.4422 58.9242 37.3695 58.9121 35.4562 58.8758C33.5187 58.8395 33.4824 58.8273 33.1555 58.5246C32.441 57.8344 32.6832 56.6477 33.6035 56.3328C33.9668 56.2117 36.7398 56.1875 46.7664 56.2117L59.4812 56.248L59.8324 56.6477C60.2926 57.1684 60.3289 57.9434 59.893 58.452L59.6023 58.791L50.3992 58.8516C41.5715 58.9121 41.184 58.9242 40.9418 59.1422C40.6148 59.4449 40.5906 60.1836 40.9055 60.4742C41.1113 60.6559 41.8984 60.668 50.5809 60.6438L60.0262 60.6074L60.6074 60.2441C62.5328 59.0453 62.4117 55.8242 60.4016 54.7707L59.7598 54.4316L46.8633 54.4195C39.7672 54.4074 33.7125 54.4438 33.3977 54.4922Z" fill="#B0B0B0"/>
</svg>
