<svg width="62" height="62" viewBox="0 0 62 62" fill="none" xmlns="http://www.w3.org/2000/svg">
<path d="M3.69328 0.206055C2.90617 0.496681 2.36124 0.884182 1.92531 1.48965C1.36828 2.26465 1.21085 2.99121 1.21085 4.81973C1.21085 6.26074 1.18663 6.47871 0.968666 6.78145C0.823354 6.9752 0.569057 7.44746 0.387416 7.83496L0.060463 8.53731L0.0241349 29.0627C-8.38824e-05 47.2994 0.0120255 49.7334 0.181557 50.908C0.569057 53.5357 1.6589 56.1877 3.19679 58.1979C3.62062 58.7549 3.63273 58.7912 3.63273 59.8932C3.63273 61.1525 3.76593 61.5764 4.25031 61.8307C4.67414 62.0486 5.0132 62.0486 5.43703 61.8307C5.9214 61.5764 6.0546 61.1525 6.0546 59.8932C6.0546 58.7912 6.06671 58.7549 6.49054 58.1979C8.01632 56.1998 9.10617 53.56 9.49367 50.9564C9.6632 49.8424 9.68742 47.4689 9.68742 32.1021V14.5314H10.414C11.2616 14.5314 11.7581 14.7373 11.964 15.1975C12.073 15.4275 12.1093 17.0744 12.1093 21.3248C12.1093 27.6338 12.1093 27.6459 12.7753 27.9486C13.4171 28.2393 14.1558 27.9971 14.398 27.4037C14.5069 27.1494 14.5312 25.4178 14.5069 20.9494C14.4706 15.0279 14.4585 14.8221 14.2163 14.2771C13.5745 12.8967 12.4726 12.2186 10.7652 12.1338L9.71164 12.0854L9.6632 10.3053C9.62687 8.69473 9.59054 8.47676 9.29992 7.83496C9.11828 7.44746 8.86398 6.9873 8.73078 6.80566C8.53703 6.51504 8.48859 6.21231 8.45226 4.60176C8.40382 2.51895 8.27062 2.04668 7.51984 1.1748C6.66007 0.193947 4.94054 -0.241989 3.69328 0.206055ZM5.43703 2.5916C5.88507 2.83379 6.0546 3.25762 6.0546 4.15371V4.9045H4.84367H3.63273V4.11739C3.64484 3.25762 3.81437 2.83379 4.25031 2.5916C4.6257 2.38574 5.02531 2.38574 5.43703 2.5916ZM6.1757 7.67754C6.42999 7.83496 6.75695 8.18613 6.91437 8.44043C7.18078 8.85215 7.20499 9.07012 7.24132 10.499L7.28976 12.1096H4.85578H2.42179V10.7412C2.42179 10.0025 2.48234 9.1791 2.55499 8.9248C2.71242 8.36777 3.47531 7.55645 4.02023 7.39902C4.66203 7.20528 5.65499 7.32637 6.1757 7.67754ZM7.26554 31.0002V47.4689H4.84367H2.42179V31.0002V14.5314H4.84367H7.26554V31.0002ZM7.10812 50.5811C6.9507 52.0947 5.87296 54.9646 5.08585 55.9455L4.84367 56.2482L4.60148 55.9455C3.81437 54.9646 2.73663 52.0947 2.57921 50.5811L2.50656 49.8908H4.84367H7.18078L7.10812 50.5811Z" fill="#B0B0B0"/>
<path d="M21.5909 8.8884C19.3991 9.42122 17.5463 11.3345 17.0862 13.5384C16.9893 13.9865 16.953 19.7989 16.953 33.2404V52.3126H15.0155C12.9084 52.3126 12.5573 52.3974 12.2788 52.9302C11.8913 53.6931 12.2182 55.6306 13.0295 57.2775C13.5018 58.2341 13.7803 58.6095 14.6401 59.4693C15.512 60.3411 15.8752 60.6075 16.8319 61.0677C18.8541 62.0607 17.9338 62.0122 34.9354 61.9759L49.951 61.9396L50.6412 61.6611C52.1912 61.0314 53.3295 60.0021 54.0561 58.5368C54.7584 57.1321 54.7342 57.9435 54.7342 38.5927V20.8282H57.8827C61.358 20.8282 61.6002 20.7798 61.8666 20.1259C61.9756 19.8716 61.9998 18.7696 61.9756 16.0935L61.9393 12.4122L61.5518 11.6009C61.019 10.4747 60.3409 9.77239 59.2389 9.22747L58.3186 8.77942L40.2756 8.7552C26.1198 8.74309 22.0873 8.76731 21.5909 8.8884ZM52.6393 11.7704L52.3729 12.4122L52.3123 34.5724L52.2518 56.7325L51.9127 57.4228C51.4526 58.3552 50.5565 59.1544 49.6725 59.4087C47.953 59.9173 46.1245 59.0575 45.3616 57.4107C45.1557 56.9384 45.1073 56.563 45.0709 55.0978C45.0588 54.129 44.9741 53.1845 44.9014 53.0029C44.6229 52.2763 45.2284 52.3126 31.7264 52.3126H19.3748V33.3251C19.3748 12.4849 19.3385 13.6716 20.1014 12.6181C20.501 12.0611 21.1791 11.5646 21.8815 11.3103C22.2569 11.1771 25.0905 11.1529 37.6237 11.1407H52.9178L52.6393 11.7704ZM58.4881 11.5525C58.7424 11.7099 59.0694 12.0611 59.2268 12.3154C59.5053 12.7634 59.5174 12.8724 59.5537 15.5849L59.5901 18.4064H57.1682H54.7342V15.8271C54.7342 14.3982 54.7948 13.054 54.8674 12.7997C55.0248 12.2427 55.7877 11.4314 56.3326 11.274C56.9744 11.0802 57.9674 11.2013 58.4881 11.5525ZM42.6491 55.9696C42.7217 57.3138 42.9881 58.2946 43.533 59.1181L43.8358 59.5782H31.8717C18.842 59.5782 19.278 59.6025 17.8006 58.888C16.4928 58.2583 15.0518 56.4661 14.7248 55.0614L14.6522 54.7345H28.6143H42.5885L42.6491 55.9696Z" fill="#B0B0B0"/>
<path d="M30.2854 16.1786C28.4206 16.675 26.8464 18.334 26.4104 20.2352C26.2167 21.0465 26.253 22.645 26.471 23.3836C27.1128 25.5391 28.2511 26.859 32.9374 30.8793C35.4319 33.0227 35.6862 33.1559 36.3522 32.8047C36.885 32.5262 41.6561 28.3122 42.746 27.1618C43.9448 25.9024 44.5018 25.1032 45.0225 23.8317C45.301 23.1657 45.3374 22.8993 45.3374 21.7368C45.3374 20.6348 45.2889 20.2715 45.0467 19.6782C44.4776 18.1887 43.6057 17.1958 42.3221 16.5418C40.2635 15.5126 37.9991 15.9122 36.3522 17.5954L35.8315 18.1282L35.1897 17.4985C33.8698 16.1786 32.0776 15.6942 30.2854 16.1786ZM32.5257 18.5883C33.4218 18.9637 34.221 19.884 34.5843 20.9739C34.8022 21.6399 35.2866 22.0395 35.8678 22.0395C36.3038 22.0395 36.8487 21.5188 37.103 20.8407C37.5632 19.6297 38.3987 18.77 39.3553 18.5157C41.3413 17.9829 43.1577 19.7872 42.9518 22.0758C42.8065 23.6985 41.644 25.1516 37.987 28.2879L35.8194 30.1407L33.8819 28.4817C30.5639 25.6602 29.4136 24.4129 28.9171 23.1051C28.6749 22.4512 28.6264 21.2645 28.8202 20.5622C29.2561 19.0243 31.1452 18.0071 32.5257 18.5883Z" fill="#B0B0B0"/>
<path d="M24.8361 37.9508C23.7826 38.532 24.2307 40.2031 25.4295 40.2031C26.0471 40.2031 26.6404 39.6098 26.6404 39.0043C26.6404 38.0961 25.6354 37.5027 24.8361 37.9508Z" fill="#B0B0B0"/>
<path d="M29.6801 37.951C28.8688 38.399 28.893 39.6826 29.7285 40.058C30.1766 40.2639 46.3547 40.2639 46.8027 40.058C47.1539 39.9006 47.4687 39.392 47.4687 38.9924C47.4687 38.5928 47.1539 38.0842 46.8027 37.9268C46.3184 37.7088 30.0797 37.733 29.6801 37.951Z" fill="#B0B0B0"/>
<path d="M24.8361 45.2164C23.7826 45.7977 24.2307 47.4688 25.4295 47.4688C26.0471 47.4688 26.6404 46.8754 26.6404 46.2699C26.6404 45.3617 25.6354 44.7684 24.8361 45.2164Z" fill="#B0B0B0"/>
<path d="M29.6801 45.2166C28.8688 45.6646 28.893 46.9482 29.7285 47.3236C30.1766 47.5295 46.3547 47.5295 46.8027 47.3236C47.1539 47.1662 47.4687 46.6576 47.4687 46.258C47.4687 45.8584 47.1539 45.3498 46.8027 45.1924C46.3184 44.9744 30.0797 44.9986 29.6801 45.2166Z" fill="#B0B0B0"/>
</svg>
