<svg width="12" height="13" viewBox="0 0 12 13" fill="none" xmlns="http://www.w3.org/2000/svg">
<path d="M8.13266 0.0384703C8.02036 0.0587902 7.8332 0.107051 7.71823 0.150231C7.25301 0.320413 7.40541 0.185792 4.01515 3.40146C2.19436 5.12613 0.825422 6.4444 0.7666 6.52568C0.713126 6.60188 0.640936 6.72888 0.608851 6.81016C0.574093 6.8889 0.424366 7.50105 0.277312 8.16907C-0.0355115 9.56862 -0.0515538 9.71594 0.0714367 10.0461C0.154322 10.2671 0.298702 10.4805 0.461798 10.6177C0.686389 10.8056 1.07408 10.9453 1.36551 10.9453C1.46711 10.9453 3.7558 10.5262 4.14884 10.4348C4.22103 10.417 4.36808 10.3636 4.4777 10.3154C4.67556 10.2265 4.73438 10.1731 7.83855 7.22672C11.17 4.06186 11.1486 4.08472 11.317 3.69864C11.4374 3.4167 11.4855 3.20079 11.5015 2.86805C11.5229 2.34735 11.3946 1.89268 11.1005 1.47866C10.9106 1.20688 10.1032 0.442333 9.87859 0.320413C9.35989 0.0384703 8.7289 -0.0631304 8.13266 0.0384703ZM8.77168 1.32118C9.04707 1.36944 9.19679 1.46596 9.61657 1.87236C10.0363 2.27877 10.1192 2.40069 10.1727 2.68263C10.2075 2.87821 10.1567 3.14745 10.047 3.32272C10.0043 3.39384 8.78772 4.57494 6.93484 6.34788L3.89216 9.2562L2.63285 9.45686C1.94303 9.56862 1.37086 9.65244 1.36551 9.64736C1.36016 9.64228 1.46711 9.10126 1.60347 8.44847L1.84945 7.2572L4.88143 4.37682C7.53642 1.85204 7.93213 1.48628 8.07384 1.42024C8.32249 1.30086 8.50965 1.27546 8.77168 1.32118Z" fill="#2C2C2C"/>
<path d="M0.419889 11.7912C0.0108117 11.9334 -0.117526 12.4668 0.181929 12.7919C0.224708 12.8402 0.31294 12.9037 0.371762 12.9342L0.481384 12.9901L5.655 12.9977C11.4142 13.0028 11.0051 13.0155 11.2217 12.83C11.2832 12.7792 11.3527 12.6903 11.3794 12.6345C11.4382 12.5125 11.4463 12.2738 11.3928 12.1544C11.3366 12.0249 11.1896 11.8826 11.0425 11.8191L10.9088 11.7582L5.70848 11.7607C1.77546 11.7607 0.486731 11.7683 0.419889 11.7912Z" fill="#2C2C2C"/>
</svg>
