<svg width="42" height="42" viewBox="0 0 42 42" fill="none" xmlns="http://www.w3.org/2000/svg">
<path d="M19.236 0.0821152C16.8981 0.328209 14.9621 0.886021 12.8375 1.92782C9.25277 3.68328 6.22582 6.71024 4.47035 10.295C3.59262 12.0915 3.13324 13.5106 2.7723 15.545C2.60004 16.4802 2.59184 16.8329 2.56723 22.5751C2.54262 26.6438 2.55902 28.7766 2.61645 29.0884C2.89535 30.5977 4.0766 31.7872 5.56957 32.0743C5.81566 32.1153 6.38168 32.1563 6.84105 32.1563H7.66957L7.94848 32.6895C8.62113 34.002 10.2207 34.7977 11.6809 34.5516C13.2559 34.2973 14.47 33.1243 14.7653 31.5903C14.8801 30.9997 14.8801 20.8442 14.7653 20.2536C14.47 18.7196 13.2559 17.5466 11.6809 17.2923C10.2207 17.0462 8.62113 17.8419 7.94848 19.1462L7.67777 19.6712L6.56215 19.7122C5.95512 19.7368 5.34809 19.786 5.21684 19.8188L4.97895 19.8763L5.02816 18.3259C5.07738 16.7098 5.20043 15.7583 5.53676 14.4376C6.94769 8.91688 11.4594 4.40516 16.9801 2.99422C18.4977 2.60868 19.3016 2.51024 20.9996 2.51024C22.6977 2.51024 23.5016 2.60868 25.0192 2.99422C30.5399 4.40516 35.0516 8.91688 36.4625 14.4376C36.7989 15.7583 36.9219 16.7098 36.9711 18.3259L37.0203 19.8763L36.7825 19.8188C36.6512 19.786 36.0442 19.7368 35.4371 19.7122L34.3215 19.6712L34.0508 19.1462C33.3782 17.8419 31.7786 17.0462 30.3184 17.2923C28.7434 17.5466 27.5293 18.7196 27.234 20.2536C27.1192 20.8442 27.1192 30.9997 27.234 31.5903C27.5211 33.0833 28.7106 34.2563 30.2282 34.5434C30.7121 34.6337 31.4832 34.6091 31.7621 34.4942C32.1231 34.3466 31.4094 35.6098 30.8434 36.1266C30.4332 36.4958 29.695 36.8649 29.1371 36.988C28.8828 37.0372 27.8493 37.0782 26.5942 37.0782H24.486L24.2071 36.545C23.5344 35.2325 21.9348 34.4368 20.4746 34.6829C18.8504 34.9454 17.6446 36.1513 17.3739 37.7673C16.9801 40.1626 19.1868 42.3446 21.5903 41.9345C22.7059 41.7376 23.7149 41.0239 24.2071 40.0805L24.4778 39.5555L26.9879 39.5145C29.6211 39.4817 29.777 39.4571 30.7614 39.047C32.1641 38.4563 33.4438 37.1766 34.0426 35.7657C34.3789 34.97 34.461 34.5188 34.5102 33.3294L34.5594 32.1563H35.2731C35.6668 32.1563 36.1836 32.1153 36.4297 32.0743C37.9227 31.7872 39.1039 30.5977 39.3828 29.0884C39.4403 28.7766 39.4567 26.6438 39.4321 22.5751C39.4075 16.8329 39.3993 16.4802 39.227 15.545C38.6364 12.2063 37.3485 9.34344 35.3305 6.84969C34.6907 6.05399 33.3125 4.68407 32.525 4.05243C30.0641 2.08368 27.1028 0.771175 23.9118 0.237972C22.7961 0.0493011 20.2942 -0.0327301 19.236 0.0821152ZM11.7301 19.8516C11.9434 19.9583 12.1157 20.1305 12.2223 20.3438C12.3782 20.6555 12.3864 20.8196 12.3864 25.922C12.3864 31.0243 12.3782 31.1884 12.2223 31.5001C12.0336 31.8692 11.5661 32.1563 11.1559 32.1563C10.7457 32.1563 10.2782 31.8692 10.0895 31.5001C9.93363 31.1884 9.92543 31.0243 9.92543 25.922C9.92543 20.8196 9.93363 20.6555 10.0895 20.3438C10.393 19.745 11.1067 19.5317 11.7301 19.8516ZM31.4176 19.8516C31.6309 19.9583 31.8032 20.1305 31.9098 20.3438C32.0657 20.6555 32.0739 20.8196 32.0739 25.922C32.0739 31.0243 32.0657 31.1884 31.9098 31.5001C31.7211 31.8692 31.2536 32.1563 30.8434 32.1563C30.4332 32.1563 29.9657 31.8692 29.777 31.5001C29.6211 31.1884 29.6129 31.0243 29.6129 25.922C29.6129 20.8196 29.6211 20.6555 29.777 20.3438C30.0805 19.745 30.7942 19.5317 31.4176 19.8516ZM7.46449 25.922V29.6954H6.72621C5.80746 29.6954 5.42191 29.5313 5.16762 29.0391C5.01176 28.7356 5.00355 28.5634 5.00355 25.922C5.00355 23.2805 5.01176 23.1083 5.16762 22.8048C5.42191 22.3126 5.78285 22.1567 6.7098 22.1485H7.46449V25.922ZM36.3395 22.3126C36.5528 22.4192 36.725 22.5915 36.8317 22.8048C36.9875 23.1083 36.9957 23.2805 36.9957 25.922C36.9957 28.5634 36.9875 28.7356 36.8317 29.0391C36.5774 29.5313 36.1918 29.6954 35.2731 29.6954H34.5348V25.922V22.1485H35.2731C35.8555 22.1485 36.0852 22.1813 36.3395 22.3126ZM21.5739 37.2423C21.943 37.4309 22.2301 37.8985 22.2301 38.3087C22.2301 38.9321 21.6231 39.5391 20.9996 39.5391C20.3762 39.5391 19.7692 38.9321 19.7692 38.3087C19.7692 37.9149 20.0563 37.4309 20.409 37.2505C20.8028 37.0372 21.1719 37.0372 21.5739 37.2423Z" fill="#F3F3F3"/>
</svg>
