<svg width="66" height="66" viewBox="0 0 66 66" fill="none" xmlns="http://www.w3.org/2000/svg">
<circle cx="33" cy="33" r="33" fill="#F3F3F3"/>
<path fill-rule="evenodd" clip-rule="evenodd" d="M21.5768 35.5386C22.2778 35.5386 22.8461 36.1068 22.8461 36.8078V41.8847C22.8461 42.2213 22.9798 42.5442 23.2178 42.7822C23.4559 43.0202 23.7787 43.154 24.1153 43.154H41.8845C42.2212 43.154 42.544 43.0202 42.782 42.7822C43.02 42.5442 43.1538 42.2213 43.1538 41.8847V36.8078C43.1538 36.1068 43.722 35.5386 44.423 35.5386C45.124 35.5386 45.6922 36.1068 45.6922 36.8078V41.8847C45.6922 42.8946 45.2911 43.8631 44.577 44.5772C43.8629 45.2913 42.8944 45.6924 41.8845 45.6924H24.1153C23.1054 45.6924 22.1369 45.2913 21.4229 44.5772C20.7088 43.8631 20.3076 42.8946 20.3076 41.8847V36.8078C20.3076 36.1068 20.8759 35.5386 21.5768 35.5386Z" fill="#898989"/>
<path fill-rule="evenodd" clip-rule="evenodd" d="M32.1027 20.6794C32.5983 20.1837 33.402 20.1837 33.8976 20.6794L40.2438 27.0255C40.7395 27.5212 40.7395 28.3248 40.2438 28.8205C39.7481 29.3161 38.9445 29.3161 38.4488 28.8205L33.0001 23.3718L27.5515 28.8205C27.0558 29.3161 26.2522 29.3161 25.7565 28.8205C25.2608 28.3248 25.2608 27.5212 25.7565 27.0255L32.1027 20.6794Z" fill="#898989"/>
<path fill-rule="evenodd" clip-rule="evenodd" d="M33.0002 20.3076C33.7012 20.3076 34.2694 20.8759 34.2694 21.5768V36.8076C34.2694 37.5086 33.7012 38.0768 33.0002 38.0768C32.2992 38.0768 31.731 37.5086 31.731 36.8076V21.5768C31.731 20.8759 32.2992 20.3076 33.0002 20.3076Z" fill="#898989"/>
</svg>
