<svg width="293" height="263" viewBox="0 0 293 263" fill="none" xmlns="http://www.w3.org/2000/svg">
<path d="M73.8114 38.4401C71.3628 37.0399 69.1658 35.108 67.4043 32.6769C60.7497 23.4856 62.8371 10.6173 72.0663 3.93422C75.7339 1.27992 79.9777 0.000106812 84.1783 0.000106812C90.5476 0.000106812 96.8153 2.93988 100.825 8.47711C105.269 14.615 105.815 22.3912 102.94 28.8714H99.264C102.42 23.1569 102.225 15.9016 98.1628 10.2899C94.782 5.62122 89.4829 3.14008 84.1026 3.14008C80.5581 3.14008 76.9785 4.21691 73.8899 6.45318C66.1137 12.0838 64.3496 22.9661 69.9585 30.7126C71.1314 32.3333 72.5357 33.6902 74.0942 34.7711C74.0644 34.8807 74.0374 34.9917 74.0117 35.1039L73.0051 34.3815L71.5644 36.3824L72.6805 37.186L73.9453 35.4273C73.8574 35.9021 73.8114 36.3905 73.8114 36.8897V38.4401ZM74.5907 33.4372C73.2703 32.4781 72.0784 31.297 71.0705 29.9063C65.908 22.774 67.5329 12.7521 74.6962 7.56664C77.5413 5.50624 80.8382 4.5146 84.104 4.5146C89.0581 4.5146 93.9378 6.7982 97.0494 11.0962C100.95 16.4819 100.978 23.5168 97.6717 28.8714H92.3414L91.5839 27.7985C92.7 26.765 93.6551 25.5135 94.0203 24.0795C94.3058 22.9512 94.3369 21.2142 92.8623 19.3472C91.7584 17.9497 90.5056 17.4655 89.238 17.4655C87.5591 17.4655 85.8546 18.3164 84.4476 19.0198C82.8106 19.837 81.7365 20.2821 80.9275 20.2821C80.1888 20.2821 79.672 19.9114 79.1511 19.1146C78.8521 18.6573 78.7791 18.2285 78.9171 17.7225C79.4136 15.8813 82.5184 13.7315 84.3583 12.8116C85.0279 12.4693 85.3107 11.6468 84.9725 10.9677C84.7317 10.486 84.246 10.206 83.7414 10.206C83.5357 10.206 83.3274 10.2534 83.1299 10.3508C82.5279 10.6497 77.2464 13.3758 76.2628 17.0028C75.9233 18.2596 76.1248 19.5109 76.8499 20.6176C78.0283 22.4223 79.4447 23.0216 80.8733 23.0216C82.5887 23.0216 84.3217 22.1558 85.6759 21.4794C87.3237 20.6555 88.3844 20.2158 89.1785 20.2158C89.7994 20.2158 90.2581 20.485 90.7045 21.0505C91.5501 22.122 91.481 22.9039 91.3552 23.4004C91.0846 24.4705 90.1309 25.4973 89.0351 26.3578C88.9999 26.378 88.9647 26.401 88.9296 26.424C88.8484 26.4795 88.7754 26.539 88.7118 26.604C87.4807 27.5131 86.1413 28.2058 85.4162 28.5196C85.2227 28.6021 85.059 28.7239 84.9291 28.8714H81.8298C78.6371 28.8714 75.8813 30.737 74.5907 33.4372Z" fill="url(#paint0_linear_422_3965)"/>
<path d="M74.6969 7.56654C67.5335 12.752 65.9087 22.7739 71.0712 29.9062C76.235 37.0384 86.2638 38.6212 93.4258 33.4358C100.589 28.2489 102.215 18.227 97.0501 11.0961C91.8876 3.96387 81.8589 2.38106 74.6969 7.56654ZM94.2334 34.5478C86.4558 40.1784 75.5668 38.4589 69.9592 30.7125C64.3503 22.966 66.1144 12.0837 73.8906 6.45308C81.6668 0.82251 92.5559 2.54474 98.1635 10.2898C103.772 18.0363 102.008 28.9186 94.2334 34.5478Z" fill="#E69104"/>
<path d="M90.1841 28.9392C88.4931 30.1635 86.8345 30.9022 86.5003 31.0456C85.8036 31.3446 84.996 31.0226 84.697 30.3245C84.398 29.6278 84.7172 28.8229 85.4167 28.5198C86.8656 27.8948 90.7618 25.7532 91.3557 23.4006C91.4815 22.9041 91.5505 22.1222 90.705 21.0507C89.6877 19.7628 88.6121 20.0131 85.6764 21.4796C83.1966 22.7188 79.4465 24.5911 76.8504 20.6178C76.1253 19.5111 75.9237 18.2598 76.2633 17.003C77.2468 13.376 82.5283 10.6499 83.1304 10.351C83.8095 10.0127 84.6334 10.2887 84.973 10.9679C85.3112 11.647 85.0284 12.4695 84.3588 12.8118C82.5189 13.7317 79.414 15.8814 78.9176 17.7227C78.7796 18.2286 78.8526 18.6575 79.1516 19.1148C80.2433 20.7855 81.3176 20.5826 84.4481 19.02C86.917 17.7862 90.2978 16.0979 92.8628 19.3474C94.3374 21.2144 94.3063 22.9514 94.0208 24.0797C93.5094 26.0928 91.8319 27.746 90.1841 28.9392Z" fill="#E69104"/>
<path d="M92.5606 31.5351C91.9424 31.9775 91.0685 31.8354 90.6315 31.2158L88.6008 28.341C88.1625 27.72 88.2559 26.8745 88.9296 26.424C89.5505 25.987 90.4082 26.1345 90.8466 26.7541L92.8758 29.6289C93.3115 30.2444 93.1721 31.0981 92.5606 31.5351Z" fill="#E69104"/>
<path d="M104.312 19.3419L101.867 19.6598L101.689 18.2961L104.136 17.9782L104.312 19.3419Z" fill="#E69104"/>
<path d="M103.568 26.0508L101.151 25.5556L101.427 24.2095L103.844 24.7033L103.568 26.0508Z" fill="#E69104"/>
<path d="M100.611 31.8894L98.6083 30.45L99.4092 29.3325L101.414 30.7733L100.611 31.8894Z" fill="#E69104"/>
<path d="M96.2975 36.5786L94.8391 34.59L95.9471 33.7769L97.4069 35.7655L96.2975 36.5786Z" fill="#E69104"/>
<path d="M91.6843 39.3114L90.3789 39.7402L89.6064 37.3984L90.9119 36.9669L91.6843 39.3114Z" fill="#E69104"/>
<path d="M85.3947 40.5927L84.0202 40.5967L84.008 38.1304L85.3839 38.1237L85.3947 40.5927Z" fill="#E69104"/>
<path d="M78.5827 39.8943L77.2732 39.4736L78.0226 37.125L79.3335 37.5417L78.5827 39.8943Z" fill="#E69104"/>
<path d="M72.6809 37.186L71.5648 36.3824L73.0056 34.3816L74.1217 35.1825L72.6809 37.186Z" fill="#E69104"/>
<path d="M67.2129 25.9977L64.8698 26.7716L64.4395 25.4661L66.7813 24.6923L67.2129 25.9977Z" fill="#E69104"/>
<path d="M66.3289 20.5866L63.86 20.5974L63.8559 19.2229L66.3208 19.2121L66.3289 20.5866Z" fill="#E69104"/>
<path d="M68.0731 33.0463L67.2655 31.9356L69.2569 30.4813L70.0686 31.5919L68.0731 33.0463Z" fill="#E69104"/>
<path d="M224.863 252.768C288.193 222.074 233.298 139.64 258.725 106.06C286.755 69.0388 248.843 33.7307 185.963 45.3423C124.359 56.7198 85.3369 84.1205 62.6752 105.494C9.96805 155.209 60.554 216.773 104.396 215.895C121.164 215.558 136.891 226.232 153.035 236.905C174.986 251.418 197.708 265.93 224.863 252.768Z" fill="#F3F3F3"/>
<path d="M106.097 214.27C122.888 214.27 138.341 224.491 154.686 235.304C177.516 250.408 201.126 266.022 229.264 252.384C268.087 233.567 263.462 196.518 258.987 160.688C256.071 137.339 253.318 115.283 263.952 101.239C274.666 87.0871 276.444 72.6076 268.954 60.4644C257.03 41.1334 225.865 32.9758 189.553 39.6791C139.026 49.0098 96.3493 69.8288 62.7093 101.557C33.1738 129.417 38.381 157.096 44.1116 171.116C54.3744 196.215 80.6509 214.778 105.271 214.277C105.546 214.273 105.822 214.27 106.097 214.27ZM207.324 259.001C188.053 259.001 170.789 247.579 153.939 236.433C137.507 225.562 121.989 215.302 105.298 215.63C80.2206 216.126 53.3219 197.219 42.8603 171.627C36.9956 157.287 31.6586 128.986 61.7826 100.574C95.6148 68.6626 138.519 47.7272 189.307 38.3479C226.173 31.5417 257.887 39.9429 270.106 59.7555C277.909 72.406 276.107 87.4281 265.03 102.056C254.729 115.662 257.45 137.451 260.33 160.521C264.652 195.133 269.548 234.361 229.853 253.602C222.009 257.403 214.524 259.001 207.324 259.001Z" fill="#FCCA19"/>
<path d="M160.454 112.431L160.572 112.445C161.024 112.464 161.405 112.115 161.423 111.662C163.693 57.9006 202.882 22.7792 203.279 22.4301C203.618 22.1325 203.649 21.6144 203.35 21.2762C203.054 20.9393 202.537 20.9028 202.196 21.2031C201.796 21.5562 162.087 57.1417 159.79 111.593C159.771 112.004 160.06 112.358 160.454 112.431Z" fill="#FCCA19"/>
<path d="M171.977 68.0106C171.977 68.0106 182.36 63.6557 191.633 65.8284C202.248 68.3177 208.221 75.6826 208.221 75.6826C208.221 75.6826 196.106 80.0807 187.559 78.0839C179.011 76.0871 171.977 68.0106 171.977 68.0106Z" fill="#FCCA19"/>
<path d="M182.514 46.9833C182.514 46.9833 190.995 43.4496 198.504 45.0568C207.1 46.8953 211.871 52.6165 211.871 52.6165C211.871 52.6165 201.985 56.2016 195.062 54.7243C188.141 53.2483 182.514 46.9833 182.514 46.9833Z" fill="#FCCA19"/>
<path d="M172.085 19.3416C172.085 19.3416 179.26 24.2471 181.751 31.033C184.605 38.7997 182.357 45.5369 182.357 45.5369C182.357 45.5369 174.425 39.5424 172.124 33.2909C169.822 27.038 172.085 19.3416 172.085 19.3416Z" fill="#FCCA19"/>
<path d="M192.132 33.954C192.132 33.954 197.444 29.4003 203.259 28.8916C209.915 28.3085 214.713 31.4796 214.713 31.4796C214.713 31.4796 208.394 36.3905 203.036 36.864C197.677 37.3361 192.132 33.954 192.132 33.954Z" fill="#FCCA19"/>
<path d="M186.261 10.4644C186.261 10.4644 191.359 15.2548 192.491 20.9828C193.787 27.5374 191.152 32.6484 191.152 32.6484C191.152 32.6484 185.587 26.8947 184.54 21.6186C183.493 16.3425 186.261 10.4644 186.261 10.4644Z" fill="#FCCA19"/>
<path d="M201.297 23.2867C201.297 23.2867 202.535 18.2799 206.1 15.1994C210.181 11.6752 214.899 11.061 214.899 11.061C214.899 11.061 213.179 16.7457 209.894 19.5854C206.611 22.425 201.297 23.2867 201.297 23.2867Z" fill="#FCCA19"/>
<path d="M96.0496 161.613C97.9937 158.759 101.886 158.02 104.743 159.967C107.598 161.912 108.335 165.804 106.388 168.66C104.444 171.515 100.552 172.252 97.696 170.307C94.8401 168.361 94.1029 164.469 96.0496 161.613Z" fill="#6B8EC6"/>
<path d="M94.7946 183.299C96.7413 180.444 100.633 179.706 103.488 181.652C106.343 183.597 107.08 187.491 105.134 190.345C103.189 193.201 99.2969 193.938 96.441 191.991C93.5851 190.046 92.8492 186.154 94.7946 183.299Z" fill="#6B8EC6"/>
<path d="M164.625 204.953C167.329 207.106 167.777 211.041 165.626 213.744C163.475 216.448 159.539 216.898 156.836 214.745C154.131 212.594 153.684 208.659 155.834 205.954C157.986 203.25 161.922 202.802 164.625 204.953Z" fill="#6B8EC6"/>
<path d="M250.993 231.895L256.47 247.491L262.528 244.461L257.116 228.055L250.993 231.895Z" fill="#FF9583"/>
<path d="M214.798 230.615L213.751 248.267L220.003 247.675L223.745 229.142L214.798 230.615Z" fill="#FF9583"/>
<path d="M165.454 246.977H163.579L165.321 244.785C166.279 245.366 167.234 245.935 168.198 246.495C167.341 246.806 166.417 246.977 165.454 246.977Z" fill="#689BF9"/>
<path d="M168.197 246.495C167.234 245.935 166.279 245.366 165.321 244.785L165.835 244.14C166.91 244.808 167.993 245.468 169.075 246.114C168.791 246.257 168.499 246.384 168.197 246.495ZM170.36 245.299C169.131 244.573 167.906 243.83 166.685 243.073L173.471 234.543V238.958C173.471 241.537 172.253 243.833 170.36 245.299Z" fill="#6097F8"/>
<path d="M169.076 246.114C167.994 245.469 166.912 244.808 165.836 244.14L166.686 243.073C167.907 243.83 169.132 244.573 170.361 245.299C169.962 245.609 169.531 245.883 169.076 246.114Z" fill="#5891F5"/>
<path d="M129.835 222.714C124.876 220.209 119.89 218.21 114.833 217.037L115.124 216.611C119.23 217.489 123.29 218.912 127.334 220.722L129.835 222.714ZM123.509 217.68C121.005 216.743 118.487 215.972 115.948 215.401L118.426 211.765C119.039 211.791 119.654 211.804 120.27 211.804C122.573 211.804 124.9 211.623 127.239 211.237L122.654 216.999L123.509 217.68ZM96.9946 215.469C89.0763 214.416 81.1391 211.501 73.8121 207.141V206.767C80.9362 210.94 88.611 213.806 96.3168 215.008L96.9946 215.469ZM93.5813 213.143C86.7832 211.713 80.0717 208.992 73.8121 205.233V199.672L93.5813 213.143Z" fill="#6097F8"/>
<path d="M73.8121 95.6968V91.7519C101.732 68.6776 135.141 52.3676 173.471 43.1006V47.933C127.671 58.4974 95.4456 77.9446 73.8121 95.6968Z" fill="#689BF9"/>
<path d="M95.8974 130.839L73.8121 115.789V95.6968C95.4456 77.9447 127.671 58.4974 173.471 47.933V60.4157C169.378 68.564 165.707 77.8202 163.186 88.0315C133.419 95.5196 107.206 118.162 95.8974 130.839Z" fill="#6097F8"/>
<path d="M73.8121 90V38.44C76.9412 40.2285 80.4803 41.1539 84.0518 41.1539C88.2524 41.1539 92.4977 39.8741 96.1666 37.2184C99.2322 34.9984 101.51 32.0952 102.94 28.8714H165.454C167.961 28.8714 170.2 30.0226 171.671 31.8246C171.797 32.3197 171.947 32.8095 172.124 33.2911C172.453 34.184 172.896 35.0728 173.416 35.9386C173.452 36.2511 173.471 36.5677 173.471 36.8897V41.7086C135.199 50.9161 101.794 67.1043 73.8121 90Z" fill="#689BF9"/>
<path d="M84.0521 41.1539C80.4805 41.1539 76.9415 40.2286 73.8123 38.4401V36.8897C73.8123 36.3905 73.8583 35.9021 73.9462 35.4273L74.1221 35.1825L74.0125 35.104C74.0382 34.9917 74.0653 34.8808 74.095 34.7712C77.028 36.8045 80.5062 37.8624 84.0182 37.8624C87.5641 37.8624 91.1437 36.7842 94.2336 34.548C96.3765 32.9962 98.0636 31.0454 99.2649 28.8714H102.941C101.511 32.0953 99.2324 34.9984 96.1668 37.2185C92.4979 39.8741 88.2527 41.1539 84.0521 41.1539ZM85.3846 38.1236L84.0088 38.1303L84.0209 40.5965L85.3955 40.5925L85.3846 38.1236ZM78.0237 37.1251L77.2743 39.4737L78.5838 39.8944L79.3346 37.5418L78.0237 37.1251ZM90.9124 36.9669L89.6069 37.3984L90.3794 39.7402L91.6848 39.3113L90.9124 36.9669ZM95.9477 33.7768L94.8397 34.5899L96.2981 36.5786L97.4075 35.7655L95.9477 33.7768ZM99.4097 29.3327L98.6088 30.4502L100.611 31.8896L101.415 30.7735L99.4097 29.3327ZM84.0182 36.4879C80.6672 36.4879 77.35 35.4436 74.5915 33.4373C75.8822 30.737 78.638 28.8714 81.8307 28.8714H84.93C84.5878 29.2583 84.4809 29.8197 84.6974 30.3243C84.9206 30.8452 85.4266 31.1563 85.9596 31.1563C86.1409 31.1563 86.3249 31.1212 86.5007 31.0454C86.7835 30.9237 88.0091 30.3785 89.4026 29.4748L90.6324 31.2158C90.8975 31.5919 91.325 31.7922 91.7566 31.7922C92.0366 31.7922 92.318 31.7097 92.5615 31.5352C93.173 31.0982 93.3123 30.2445 92.8767 29.6289L92.3423 28.8714H97.6726C96.6012 30.6071 95.1793 32.1656 93.426 33.4359C90.5809 35.4963 87.284 36.4879 84.0182 36.4879Z" fill="url(#paint1_linear_422_3965)"/>
<path d="M84.0177 37.8623C80.5057 37.8623 77.0275 36.8044 74.0945 34.7711C74.2216 34.3084 74.388 33.8633 74.591 33.4372C77.3494 35.4434 80.6666 36.4878 84.0177 36.4878C87.2835 36.4878 90.5804 35.4962 93.4254 33.4358C95.1787 32.1654 96.6006 30.607 97.672 28.8713H99.2643C98.063 31.0453 96.3759 32.9961 94.233 34.5478C91.1431 36.7841 87.5635 37.8623 84.0177 37.8623Z" fill="#5F729C"/>
<path d="M85.9592 31.1561C85.4261 31.1561 84.9202 30.845 84.6969 30.3241C84.4805 29.8195 84.5873 29.2581 84.9296 28.8712H88.976L89.4021 29.4746C88.0087 30.3783 86.783 30.9235 86.5003 31.0452C86.3244 31.121 86.1404 31.1561 85.9592 31.1561Z" fill="#5F729C"/>
<path d="M91.7563 31.7924C91.3248 31.7924 90.8973 31.5921 90.6321 31.216L89.4023 29.4749L88.9762 28.8716H92.3421L92.8765 29.6291C93.3121 30.2447 93.1727 31.0984 92.5612 31.5353C92.3177 31.7098 92.0364 31.7924 91.7563 31.7924Z" fill="#5F729C"/>
<path d="M100.611 31.8894L98.6083 30.45L99.4092 29.3325L101.414 30.7733L100.611 31.8894Z" fill="#5F729C"/>
<path d="M96.2975 36.5786L94.8391 34.59L95.9471 33.7769L97.4069 35.7655L96.2975 36.5786Z" fill="#5F729C"/>
<path d="M90.3789 39.7402L89.6064 37.3984L90.9119 36.9669L91.6843 39.3114L90.3789 39.7402Z" fill="#5F729C"/>
<path d="M84.0202 40.5967L84.008 38.1304L85.3839 38.1237L85.3947 40.5927L84.0202 40.5967Z" fill="#5F729C"/>
<path d="M78.5827 39.8943L77.2732 39.4736L78.0226 37.125L79.3335 37.5417L78.5827 39.8943Z" fill="#5F729C"/>
<path d="M73.9458 35.4272C73.9648 35.319 73.9878 35.2108 74.0122 35.1039L74.1218 35.1824L73.9458 35.4272Z" fill="#5F729C"/>
<path d="M164.975 87.5999C167.146 79.0552 170.125 71.1992 173.471 64.1224V67.4559C172.52 67.7819 171.976 68.0105 171.976 68.0105C171.976 68.0105 172.513 68.6274 173.471 69.5623V86.224C171.198 86.4256 168.943 86.7543 166.716 87.2183C166.136 87.3401 165.553 87.4673 164.975 87.5999Z" fill="#6097F8"/>
<path d="M127.334 220.722C123.29 218.912 119.23 217.489 115.124 216.611L115.948 215.401C118.487 215.972 121.005 216.743 123.509 217.679L127.334 220.722ZM96.3168 215.008C88.611 213.806 80.9362 210.94 73.8121 206.767V205.233C80.0717 208.991 86.7832 211.713 93.5813 213.143L96.3168 215.008ZM73.8121 91.7518V89.9999C101.794 67.1042 135.199 50.916 173.471 41.7085V43.1005C135.141 52.3676 101.732 68.6776 73.8121 91.7518Z" fill="#5891F5"/>
<path d="M163.186 88.0315C165.707 77.8202 169.378 68.5639 173.471 60.4157V64.1225C170.126 71.1993 167.147 79.0553 164.975 87.5999C164.376 87.7379 163.782 87.8813 163.186 88.0315Z" fill="#2F76F4"/>
<path d="M173.471 69.5623C172.514 68.6274 171.977 68.0105 171.977 68.0105C171.977 68.0105 172.52 67.7819 173.471 67.4559V69.5623Z" fill="#2F76F4"/>
<path d="M173.416 35.9386C172.896 35.0728 172.452 34.184 172.123 33.2911C171.946 32.8095 171.796 32.3197 171.67 31.8246C172.608 32.9745 173.233 34.3882 173.416 35.9386Z" fill="#2F76F4"/>
<path d="M120.271 211.804C119.654 211.804 119.039 211.79 118.427 211.765L138.453 182.378L129.218 176.085L139.707 160.692L95.8976 130.838C107.206 118.162 133.419 95.5195 163.186 88.0314C163.782 87.8813 164.376 87.7379 164.976 87.5999C165.553 87.4673 166.136 87.3401 166.717 87.2184C168.944 86.7543 171.199 86.4256 173.472 86.224V153.128L127.239 211.237C124.9 211.623 122.573 211.804 120.271 211.804Z" fill="url(#paint2_linear_422_3965)"/>
<path d="M129.218 176.085L126.638 174.327L135.968 160.636L73.8121 118.281V115.789L95.8974 130.838L139.707 160.692L129.218 176.085Z" fill="#6096F6"/>
<path d="M126.639 174.328L125.719 173.701L127.537 171.032C129.9 167.565 129.005 162.839 125.539 160.476L91.4725 137.088C90.5985 132.978 88.4299 129.41 85.022 127.087C82.4354 125.324 79.4442 124.488 76.3421 124.488C75.5047 124.488 74.6606 124.549 73.8123 124.67V118.282L135.968 160.637L126.639 174.328Z" fill="url(#paint3_linear_422_3965)"/>
<path d="M125.718 173.701L90.4139 149.643C91.9629 145.369 92.2998 140.985 91.4719 137.087L125.538 160.475C129.004 162.839 129.9 167.564 127.536 171.032L125.718 173.701Z" fill="#689BF9"/>
<path d="M90.4143 149.643L73.8121 138.329V124.669C74.6603 124.549 75.5045 124.488 76.3419 124.488C79.444 124.488 82.4351 125.324 85.0218 127.087C88.4296 129.41 90.5983 132.977 91.4722 137.087C92.3002 140.985 91.9633 145.369 90.4143 149.643Z" fill="#5A94F6"/>
<path d="M109.906 224.268L96.9946 215.469L96.3168 215.008L93.5813 213.143L73.8121 199.672V197.178L108.486 220.807L134.712 182.321L73.8121 140.821V138.329L90.4143 149.643L125.718 173.701L126.638 174.327L129.218 176.085L138.453 182.378L118.426 211.765L115.948 215.401L115.124 216.611L114.833 217.037L109.906 224.268Z" fill="#6096F6"/>
<path d="M108.486 220.807L73.8123 197.178V190.923L103.659 211.415C105.066 212.374 106.666 212.832 108.251 212.832C110.86 212.832 113.425 211.584 115.007 209.265L126.283 192.717C128.646 189.249 127.751 184.524 124.283 182.162L90.217 158.772C89.3444 154.662 87.1758 151.095 83.7666 148.772C81.1813 147.011 78.1901 146.175 75.088 146.175C74.6646 146.175 74.2398 146.189 73.8123 146.221V140.821L134.712 182.321L108.486 220.807Z" fill="url(#paint4_linear_422_3965)"/>
<path d="M108.25 212.832C106.666 212.832 105.066 212.373 103.659 211.414L73.8121 190.923V187.198C78.405 185.529 82.7909 182.178 86.0256 177.431C90.1031 171.446 91.4492 164.569 90.2167 158.772L124.283 182.162C127.75 184.524 128.646 189.249 126.282 192.716L115.006 209.265C113.425 211.583 110.86 212.832 108.25 212.832ZM99.9708 180.565C97.9713 180.565 96.0056 181.522 94.7948 183.299C92.8494 186.154 93.5854 190.046 96.4413 191.991C97.5195 192.727 98.7465 193.079 99.96 193.079C101.96 193.079 103.924 192.123 105.135 190.345C107.08 187.49 106.343 183.597 103.488 181.651C102.41 180.917 101.184 180.565 99.9708 180.565Z" fill="#689BF9"/>
<path d="M99.9597 193.079C98.7462 193.079 97.5192 192.728 96.441 191.992C93.5851 190.046 92.8492 186.154 94.7946 183.3C96.0054 181.522 97.971 180.565 99.9706 180.565C101.184 180.565 102.41 180.917 103.488 181.652C106.343 183.597 107.08 187.491 105.134 190.345C103.924 192.123 101.959 193.079 99.9597 193.079Z" fill="#3271E4"/>
<path d="M73.8121 187.198V146.22C74.2396 146.189 74.6643 146.174 75.0878 146.174C78.1899 146.174 81.1811 147.011 83.7664 148.772C87.1756 151.095 89.3442 154.662 90.2167 158.772C91.4492 164.569 90.1031 171.446 86.0256 177.431C82.7909 182.178 78.405 185.529 73.8121 187.198Z" fill="#5A94F6"/>
<path d="M163.58 246.977H160.331L129.835 222.713L127.334 220.722L123.51 217.679L122.655 216.999L127.239 211.237L173.472 153.128V156.434L126.208 215.838L162.653 244.834L173.472 231.236V234.543L166.686 243.072L165.836 244.14L165.322 244.785L163.58 246.977Z" fill="#689BF9"/>
<path d="M162.653 244.834L126.208 215.838L173.472 156.434V163.234C170.034 164.048 166.997 165.838 164.8 168.598C162.3 171.739 161.272 175.66 161.571 179.724L135.933 211.716C133.124 215.247 133.71 220.384 137.239 223.192L152.91 235.66C154.307 236.772 155.976 237.312 157.634 237.312C159.87 237.312 162.083 236.33 163.584 234.445L173.472 222.106V231.236L162.653 244.834Z" fill="url(#paint5_linear_422_3965)"/>
<path d="M157.634 237.312C155.976 237.312 154.307 236.772 152.91 235.66L137.239 223.192C133.71 220.384 133.124 215.247 135.933 211.716L161.571 179.724C162.012 185.728 165.35 192.046 171.126 196.641C171.889 197.249 172.673 197.809 173.472 198.32V222.106L163.584 234.445C162.083 236.33 159.87 237.312 157.634 237.312ZM160.734 203.592C158.895 203.592 157.071 204.401 155.834 205.954C153.685 208.659 154.131 212.594 156.837 214.745C157.987 215.661 159.361 216.106 160.726 216.106C162.568 216.106 164.391 215.297 165.626 213.744C167.777 211.041 167.33 207.106 164.625 204.953C163.475 204.037 162.101 203.592 160.734 203.592Z" fill="#689BF9"/>
<path d="M160.726 216.106C159.361 216.106 157.986 215.661 156.836 214.745C154.131 212.594 153.684 208.659 155.834 205.954C157.07 204.401 158.894 203.592 160.734 203.592C162.1 203.592 163.475 204.037 164.625 204.953C167.329 207.106 167.777 211.041 165.626 213.744C164.391 215.297 162.567 216.106 160.726 216.106Z" fill="#3271E4"/>
<path d="M173.471 198.32C172.673 197.809 171.888 197.249 171.125 196.641C165.35 192.046 162.011 185.728 161.57 179.724C161.271 175.66 162.299 171.739 164.8 168.598C166.997 165.838 170.034 164.048 173.471 163.234V198.32Z" fill="#5A94F6"/>
<path d="M165.454 246.977H81.8304C77.4026 246.977 73.8121 243.386 73.8121 238.958V36.8896C73.8121 32.4603 77.4026 28.8712 81.8304 28.8712H165.454C169.882 28.8712 173.471 32.4603 173.471 36.8896V238.958C173.471 243.386 169.882 246.977 165.454 246.977Z" fill="#F3F3F3"/>
<path d="M173.47 238.83C173.47 243.324 169.828 246.981 165.319 246.981H81.9627C77.4536 246.981 73.8104 243.324 73.8104 238.83V37.0235C73.8104 32.5131 77.4536 28.8713 81.9627 28.8713H165.319C169.828 28.8713 173.47 32.5131 173.47 37.0235V238.83ZM166.254 24.4041H81.0278C74.8561 24.4041 69.8655 29.407 69.8655 35.5787V239.709C69.8655 245.867 74.8561 250.872 81.0278 250.872H166.254C172.427 250.872 177.429 245.867 177.429 239.709V35.5787C177.429 29.407 172.427 24.4041 166.254 24.4041Z" fill="#2C2C2C"/>
<path d="M225.552 76.6676C225.552 76.6676 222.492 79.6195 222.703 83.8661C222.915 88.1141 222.833 83.8188 226.153 84.6859C229.474 85.5504 230.202 86.2526 230.202 86.2526L232.779 82.6256C232.779 82.6256 233.304 78.4601 231.15 77.1654C228.995 75.8694 225.552 76.6676 225.552 76.6676Z" fill="#FEB3A2"/>
<path d="M224.992 94.1235L224.697 97.8533C224.697 97.8533 231.563 102.055 236.476 96.0175C236.357 95.958 235.647 95.4263 235.233 93.5323C234.818 91.6383 234.995 89.2099 234.995 89.2099L234.237 87.37C234.237 87.37 237.114 85.9996 236.449 83.6822C235.65 80.9021 232.579 85.4531 232.579 85.4531C232.579 85.4531 232.864 93.236 230.735 93.8286C228.603 94.4198 224.992 94.1235 224.992 94.1235Z" fill="#FEB3A2"/>
<path d="M161.853 83.7241L158.473 73.966C156.628 74.7615 157.82 78.471 157.82 78.471C157.82 78.471 153.169 71.4294 151.812 71.474C150.454 71.5187 155.448 79.5181 155.448 79.5181C155.448 79.5181 148.568 71.7202 147.492 72.766C146.417 73.8117 153.669 81.1483 153.669 81.1483C153.669 81.1483 147.276 75.5515 146.588 76.5486C145.902 77.5443 152.338 83.2628 152.338 83.2628C152.338 83.2628 146.419 79.8603 147.604 81.523C148.789 83.1843 157.081 89.908 157.081 89.908L159.179 92.082L164.2 86.7139L161.853 83.7241Z" fill="#FEB3A2"/>
<path d="M83.624 139.562H163.567C166.386 139.562 168.672 141.848 168.672 144.667V210.392C168.672 213.211 166.386 215.496 163.567 215.496H83.624C80.8046 215.496 78.5197 213.211 78.5197 210.392V144.667C78.5197 141.848 80.8046 139.562 83.624 139.562Z" fill="white"/>
<path d="M83.6243 139.9C80.997 139.9 78.8582 142.039 78.8582 144.667V210.392C78.8582 213.019 80.997 215.158 83.6243 215.158H163.567C166.196 215.158 168.335 213.019 168.335 210.392V144.667C168.335 142.039 166.196 139.9 163.567 139.9H83.6243ZM163.567 215.834H83.6243C80.6237 215.834 78.1818 213.392 78.1818 210.392V144.667C78.1818 141.665 80.6237 139.223 83.6243 139.223H163.567C166.569 139.223 169.011 141.665 169.011 144.667V210.392C169.011 213.392 166.569 215.834 163.567 215.834Z" fill="#2C2C2C"/>
<path d="M82.18 46.4165H147.523C150 46.4165 152.006 48.4241 152.006 50.8998C152.006 53.3769 150 55.3845 147.523 55.3845H82.18C79.7042 55.3845 77.6953 53.3769 77.6953 50.8998C77.6953 48.4241 79.7042 46.4165 82.18 46.4165Z" fill="white"/>
<path d="M82.1803 46.7546C79.894 46.7546 78.0338 48.6134 78.0338 50.8997C78.0338 53.1861 79.894 55.0462 82.1803 55.0462H147.523C149.808 55.0462 151.668 53.1861 151.668 50.8997C151.668 48.6134 149.808 46.7546 147.523 46.7546H82.1803ZM147.523 55.7227H82.1803C79.5206 55.7227 77.3574 53.5595 77.3574 50.8997C77.3574 48.2414 79.5206 46.0782 82.1803 46.0782H147.523C150.183 46.0782 152.345 48.2414 152.345 50.8997C152.345 53.5595 150.183 55.7227 147.523 55.7227Z" fill="#2C2C2C"/>
<path d="M161.483 46.2324H164.047C166.876 46.2324 169.173 48.4132 169.173 51.1026C169.173 53.7921 166.876 55.9729 164.047 55.9729H161.483C158.653 55.9729 156.359 53.7921 156.359 51.1026C156.359 48.4132 158.653 46.2324 161.483 46.2324Z" fill="white"/>
<path d="M161.483 46.5705C158.844 46.5705 156.697 48.6038 156.697 51.1026C156.697 53.6013 158.844 55.6346 161.483 55.6346H164.047C166.687 55.6346 168.835 53.6013 168.835 51.1026C168.835 48.6038 166.687 46.5705 164.047 46.5705H161.483ZM164.047 56.311H161.483C158.472 56.311 156.021 53.9747 156.021 51.1026C156.021 48.2304 158.472 45.8941 161.483 45.8941H164.047C167.06 45.8941 169.511 48.2304 169.511 51.1026C169.511 53.9747 167.06 56.311 164.047 56.311Z" fill="#2C2C2C"/>
<path d="M77.1414 68.0674H172.39V71.8784H77.1414V68.0674Z" fill="#898989"/>
<path d="M77.4832 95.2206H172.732V99.0303H77.4832V95.2206Z" fill="#898989"/>
<path d="M77.0086 118.794H172.256V122.605H77.0086V118.794Z" fill="#898989"/>
<path d="M84.7482 77.252H91.7736V95.1381H84.7482V77.252Z" fill="#2C2C2C"/>
<path d="M96.476 103.819H102.811V119.304H96.476V103.819Z" fill="#2C2C2C"/>
<path d="M96.6355 77.5807H103.66V95.4668H96.6355V77.5807Z" fill="#2C2C2C"/>
<path d="M91.6991 77.0099H95.5628V95.1313H91.6991V77.0099Z" fill="#898989"/>
<path d="M102.745 103.61H106.229V119.299H102.745V103.61Z" fill="#898989"/>
<path d="M103.586 77.3386H107.45V95.4614H103.586V77.3386Z" fill="#898989"/>
<path d="M84.7551 77.3073L91.6993 77.3804L93.3335 73.8156L87.2444 74.0009L84.7551 77.3073Z" fill="#898989"/>
<path d="M96.4829 103.867L102.745 103.93L104.22 100.844L98.726 101.005L96.4829 103.867Z" fill="#898989"/>
<path d="M96.6425 77.6362L103.587 77.7106L105.221 74.1445L99.1304 74.3311L96.6425 77.6362Z" fill="#898989"/>
<path d="M93.1478 73.9645L91.5514 77.4183L95.4517 77.3805L93.1478 73.9645Z" fill="#B4B4B4"/>
<path d="M104.053 100.973L102.613 103.963L106.129 103.93L104.053 100.973Z" fill="#B4B4B4"/>
<path d="M105.036 74.2932L103.44 77.7471L107.34 77.7105L105.036 74.2932Z" fill="#B4B4B4"/>
<path d="M87.1461 73.1149H93.311V74.043H87.1461V73.1149Z" fill="#B4B4B4"/>
<path d="M98.64 100.238H104.198V101.042H98.64V100.238Z" fill="#B4B4B4"/>
<path d="M99.0314 73.445H105.198V74.373H99.0314V73.445Z" fill="#B4B4B4"/>
<path d="M87.9982 75.5486C87.9982 74.9926 88.5055 74.5421 89.1319 74.5421C89.7583 74.5421 90.2656 74.9926 90.2656 75.5486C90.2656 76.106 89.7583 76.5565 89.1319 76.5565C88.5055 76.5565 87.9982 76.106 87.9982 75.5486Z" fill="#DFDFDF"/>
<path d="M99.407 102.345C99.407 101.863 99.8656 101.472 100.43 101.472C100.994 101.472 101.451 101.863 101.451 102.345C101.451 102.826 100.994 103.217 100.43 103.217C99.8656 103.217 99.407 102.826 99.407 102.345Z" fill="#DFDFDF"/>
<path d="M99.8855 75.8786C99.8855 75.3212 100.393 74.8707 101.019 74.8707C101.644 74.8707 102.152 75.3212 102.152 75.8786C102.152 76.4346 101.644 76.8851 101.019 76.8851C100.393 76.8851 99.8855 76.4346 99.8855 75.8786Z" fill="#DFDFDF"/>
<path d="M87.7386 75.1403C87.7386 74.5437 88.2337 74.0593 88.8439 74.0593C89.4554 74.0593 89.9505 74.5437 89.9505 75.1403C89.9505 75.7369 89.4554 76.2198 88.8439 76.2198C88.2337 76.2198 87.7386 75.7369 87.7386 75.1403Z" fill="#DFDFDF"/>
<path d="M99.1721 101.99C99.1721 101.474 99.6199 101.056 100.171 101.056C100.721 101.056 101.168 101.474 101.168 101.99C101.168 102.507 100.721 102.927 100.171 102.927C99.6199 102.927 99.1721 102.507 99.1721 101.99Z" fill="#DFDFDF"/>
<path d="M99.624 75.4689C99.624 74.8723 100.119 74.3879 100.731 74.3879C101.341 74.3879 101.836 74.8723 101.836 75.4689C101.836 76.0655 101.341 76.5498 100.731 76.5498C100.119 76.5498 99.624 76.0655 99.624 75.4689Z" fill="#DFDFDF"/>
<path d="M109.381 77.3127H116.406V95.1987H109.381V77.3127Z" fill="#2C2C2C"/>
<path d="M116.333 77.3385H120.026V95.1921H116.333V77.3385Z" fill="#898989"/>
<path d="M109.389 77.367L116.333 77.4414L117.967 73.8766L111.877 74.0633L109.389 77.367Z" fill="#898989"/>
<path d="M117.781 74.0254L116.184 77.4792L120.084 77.4414L117.781 74.0254Z" fill="#B4B4B4"/>
<path d="M111.779 73.1758H117.944V74.1039H111.779V73.1758Z" fill="#B4B4B4"/>
<path d="M112.632 75.6097C112.632 75.0537 113.139 74.6018 113.766 74.6018C114.391 74.6018 114.898 75.0537 114.898 75.6097C114.898 76.1671 114.391 76.6162 113.766 76.6162C113.139 76.6162 112.632 76.1671 112.632 75.6097Z" fill="#DFDFDF"/>
<path d="M112.371 75.2009C112.371 74.603 112.868 74.12 113.477 74.12C114.088 74.12 114.583 74.603 114.583 75.2009C114.583 75.7976 114.088 76.2805 113.477 76.2805C112.868 76.2805 112.371 75.7976 112.371 75.2009Z" fill="#DFDFDF"/>
<path d="M148.466 70.2264L154.85 73.1567L147.389 89.4126L141.005 86.4837L148.466 70.2264Z" fill="#2C2C2C"/>
<path d="M154.63 73.1977L158.138 74.8089L150.837 90.9877L147.326 89.3778L154.63 73.1977Z" fill="#898989"/>
<path d="M148.449 70.2792L154.73 73.2433L157.702 70.6851L152.089 68.3135L148.449 70.2792Z" fill="#898989"/>
<path d="M157.471 70.7433L154.581 73.2149L158.138 74.8086L157.471 70.7433Z" fill="#B4B4B4"/>
<path d="M152.37 67.468L157.972 70.0384L157.584 70.8826L151.982 68.3108L152.37 67.468Z" fill="#B4B4B4"/>
<path d="M152.129 70.0345C152.361 69.5285 153.009 69.331 153.579 69.5921C154.148 69.8532 154.422 70.4755 154.189 70.9801C153.958 71.4847 153.308 71.6836 152.739 71.4225C152.171 71.1614 151.897 70.5405 152.129 70.0345Z" fill="#DFDFDF"/>
<path d="M152.062 69.5542C152.312 69.0117 152.964 68.779 153.518 69.0334C154.075 69.2891 154.323 69.9344 154.075 70.4769C153.825 71.0193 153.173 71.2534 152.617 70.9977C152.062 70.7434 151.815 70.0967 152.062 69.5542Z" fill="#DFDFDF"/>
<path d="M259.457 185.806L266.481 185.789L266.528 203.675L259.502 203.694L259.457 185.806Z" fill="#2C2C2C"/>
<path d="M266.298 185.919L270.159 185.909L270.318 203.66L266.455 203.669L266.298 185.919Z" fill="#898989"/>
<path d="M259.465 185.863L266.41 185.919L268.034 182.35L261.944 182.55L259.465 185.863Z" fill="#898989"/>
<path d="M267.849 182.498L266.261 185.955L270.16 185.909L267.849 182.498Z" fill="#B4B4B4"/>
<path d="M261.843 181.664L268.008 181.649L268.01 182.577L261.846 182.593L261.843 181.664Z" fill="#B4B4B4"/>
<path d="M262.702 184.096C262.7 183.54 263.206 183.087 263.833 183.086C264.459 183.084 264.968 183.533 264.969 184.089C264.97 184.647 264.464 185.099 263.838 185.1C263.212 185.101 262.703 184.652 262.702 184.096Z" fill="#DFDFDF"/>
<path d="M262.44 183.688C262.439 183.091 262.934 182.605 263.544 182.604C264.155 182.603 264.652 183.084 264.653 183.681C264.655 184.279 264.161 184.765 263.548 184.766C262.939 184.767 262.443 184.284 262.44 183.688Z" fill="#DFDFDF"/>
<path d="M84.7343 111.545H94.414L93.348 118.576L85.5001 118.582L84.7343 111.545Z" fill="#898989"/>
<path d="M84.9335 103.27H94.6131L93.5471 110.3L85.7005 110.305L84.9335 103.27Z" fill="#898989"/>
<path d="M84.5954 110.345L94.2954 110.406L95.1639 111.637H83.7999L84.5954 110.345Z" fill="#B4B4B4"/>
<path d="M84.7956 102.07L94.4942 102.131L95.3627 103.364H84.0001L84.7956 102.07Z" fill="#B4B4B4"/>
<path d="M110.909 111.545H120.591L119.522 118.576L111.676 118.582L110.909 111.545Z" fill="#898989"/>
<path d="M111.109 103.27H120.789L119.723 110.3L111.875 110.305L111.109 103.27Z" fill="#898989"/>
<path d="M110.771 110.345L120.471 110.406L121.339 111.637H109.975L110.771 110.345Z" fill="#B4B4B4"/>
<path d="M110.969 102.07L120.669 102.131L121.538 103.364H110.174L110.969 102.07Z" fill="#B4B4B4"/>
<path d="M93.662 179.157C93.662 162.148 107.48 148.359 124.526 148.359C141.569 148.359 155.387 162.148 155.387 179.157C155.387 196.168 141.569 209.956 124.526 209.956C107.48 209.956 93.662 196.168 93.662 179.157Z" fill="#FCCA19"/>
<path d="M30.7523 224.576H93.3366V263H30.7523V224.576Z" fill="#898989"/>
<path d="M68.1295 224.178H94.3235V262.602H68.1295V224.178Z" fill="#B4B4B4"/>
<path d="M159.061 91.3487L164.74 85.9387C164.74 85.9387 179.886 98.8313 184.393 102.437C188.901 106.043 210.897 101.536 215.856 99.2818C220.816 97.028 223.789 97.2079 223.789 97.2079C223.789 97.2079 225.862 99.823 229.83 99.3711C233.796 98.922 236.591 96.0363 236.591 96.0363C236.591 96.0363 248.04 97.6598 251.195 101.625C254.352 105.593 262.193 127.138 263.094 131.737C263.996 136.335 263.817 160.674 263.817 160.674L255.071 160.224C255.071 160.224 253.72 139.309 253.72 136.695C253.72 134.08 248.4 126.687 248.4 126.687C248.4 126.687 247.861 149.586 248.311 152.381C248.762 155.176 250.654 155.086 250.293 157.971C249.933 160.854 249.842 161.306 247.318 162.298C244.795 163.289 240.918 167.165 237.943 165.723C234.966 164.282 232.264 161.755 228.297 161.486C224.329 161.215 216.397 163.469 214.955 161.306C213.512 159.142 213.061 159.864 214.503 157.701C215.947 155.536 210.882 120.622 210.882 120.622C210.882 120.622 190.161 120.108 185.566 117.493C180.967 114.878 159.061 91.3487 159.061 91.3487Z" fill="#FCCA19"/>
<path d="M225.669 84.5045C225.669 84.5045 223.982 84.1108 222.858 84.6168C221.734 85.1227 219.823 86.6961 219.15 88.6631C218.475 90.6316 218.024 92.2618 220.048 93.3846C222.072 94.5088 220.666 94.2842 225.219 94.8457C229.772 95.4085 230.917 94.9282 231.987 93.1127C233.056 91.2972 232.694 85.6842 232.694 85.6842C232.694 85.6842 234.831 82.2561 235.786 82.762C236.742 83.268 236.798 84.3354 236.292 85.235C235.786 86.1347 234.156 87.1466 234.156 87.1466L234.831 89.1137C234.831 89.1137 235.111 88.72 237.135 87.2589C239.158 85.7965 242.815 85.3919 243.412 82.5036C244.007 79.6166 241.125 79.3893 241.125 79.3893C241.125 79.3893 243.592 76.1925 242.187 74.2823C240.782 72.3707 238.892 73.9982 236.915 73.0891C235.36 72.3721 235.284 65.8081 229.32 66.5291C225.903 66.9431 229.101 71.2682 229.101 71.2682C229.101 71.2682 227.581 70.7338 225.106 72.0258C222.633 73.3191 220.554 78.602 223.588 79.1648C223.952 79.0525 223.859 77.8606 225.961 77.0124C228.064 76.1642 229.891 76.3184 231.016 77.1071C232.138 77.8931 233.369 79.8196 232.458 82.693C231.628 85.3094 229.822 85.925 229.822 85.925L225.669 84.5045Z" fill="#2C2C2C"/>
<path d="M215.811 161.839C215.811 161.839 216.482 164.339 215.936 167.075C215.391 169.81 213.946 197.945 213.719 204.273C213.492 210.599 214.175 234.003 214.175 234.003L211.188 236.257L225.188 238.466C225.188 238.466 227.94 237.483 227.065 235.674C226.187 233.864 224.373 233.649 224.94 231.101C225.506 228.555 228.314 222.451 227.735 219.082C227.156 215.711 225.7 209.675 226.286 206.456C226.869 203.239 231.489 178.497 231.133 178.207C237.443 207.363 252.638 240.161 252.638 240.161C252.638 240.161 257.838 236.816 259.705 237.27C261.569 237.723 263.342 238.187 263.342 238.187C263.342 238.187 264.166 237.043 263.593 235.39C263.021 233.738 260.751 231.42 259.977 228.838C259.202 226.253 259.107 226.265 259.107 226.265C259.107 226.265 259.176 219.383 258.519 216.976C257.859 214.571 254.913 205.553 254.217 201.148C253.519 196.74 249.484 179.068 250.134 176.415C250.784 173.762 248.809 160.72 248.809 160.72C248.809 160.72 244.454 164.37 241.005 163.43C237.558 162.491 233.338 160.684 228.814 160.344C224.289 160.005 215.811 161.839 215.811 161.839Z" fill="#2C2C2C"/>
<path d="M246.855 177.111C246.687 177.111 246.515 177.08 246.35 177.013C245.656 176.735 245.321 175.947 245.599 175.254L248.87 167.112C249.075 166.601 249.569 166.266 250.12 166.263L264.706 166.203C265.212 166.203 265.676 166.485 265.908 166.934L270.043 174.929C270.385 175.593 270.127 176.409 269.462 176.753C268.797 177.098 267.981 176.835 267.639 176.172L263.883 168.912L251.04 168.964L248.109 176.262C247.898 176.791 247.389 177.111 246.855 177.111Z" fill="#09030F"/>
<path d="M234.554 175.847H282.612V181.561H234.554V175.847Z" fill="#BBBBBB"/>
<path d="M274.31 196.744L269.406 196.723L270.303 190.459L275.138 190.403L274.31 196.744ZM272.008 203.734L268.386 203.848L269.012 199.472L273.95 199.492L273.547 202.572L272.008 203.734ZM243.646 203.365L242.881 199.357L248.515 199.381L249.102 204.449L244.827 204.583L243.646 203.365ZM247.516 190.727L248.199 196.631L242.356 196.605L241.249 190.8L247.516 190.727ZM258.122 190.602L258.117 196.674L250.968 196.643L250.279 190.694L258.122 190.602ZM258.11 204.169L251.861 204.363L251.286 199.393L258.114 199.423L258.11 204.169ZM260.863 199.435L266.236 199.458L265.595 203.935L260.859 204.082L260.863 199.435ZM267.52 190.493L266.63 196.712L260.866 196.686L260.871 190.57L267.52 190.493ZM278.089 189.038L279.236 180.262L276.51 179.907L275.498 187.649L270.698 187.706L271.759 180.295L269.035 179.904L267.914 187.738L260.874 187.821L260.88 180.352L258.131 180.349L258.125 187.852L249.962 187.948L249.02 179.813L246.289 180.13L247.198 187.98L240.726 188.056L239.099 179.536L236.399 180.05L239.907 198.434L239.903 199.343L240.08 199.344L241.022 204.284C241.073 204.547 241.199 204.791 241.387 204.983L243.276 206.933C243.536 207.199 243.891 207.349 244.263 207.349L272.53 206.469C272.814 206.46 273.089 206.364 273.314 206.193L275.664 204.419C275.958 204.197 276.151 203.866 276.199 203.5L277.916 190.371L278.105 190.368L278.089 189.038Z" fill="#BBBBBB"/>
<path d="M40.0902 227.137H46.3052V233.555H40.0902V227.137Z" fill="#DFDFDF"/>
<path d="M48.241 227.136H54.4574V233.555H48.241V227.136Z" fill="#DFDFDF"/>
<path d="M77.4039 224.264L77.7841 234.537L79.9432 232.976L81.7791 235.131L83.6947 233.375L85.77 234.813L85.5833 224.318L77.4039 224.264Z" fill="#DFDFDF"/>
<path d="M39.3649 197.523H77.5762V224.264H39.3649V197.523Z" fill="#B4B4B4"/>
<path d="M39.3649 197.523H56.3784L56.3837 224.264H39.3649V197.523Z" fill="#898989"/>
<path d="M67.4656 204.584H100.915V224.264H67.4656V204.584Z" fill="#B4B4B4"/>
<path d="M67.4656 204.584H77.3049V224.264H67.4656V204.584Z" fill="#898989"/>
<path d="M67.6941 187.039H80.695L77.5767 197.523H65.0182L67.6941 187.039Z" fill="#898989"/>
<path d="M37.5565 187.039H54.4578L56.3788 197.523H39.3653L37.5565 187.039Z" fill="#696969"/>
<path d="M253.901 135.941L253.797 135.924L253.57 135.678C252.639 131.551 241.661 119.725 241.551 119.606C241.423 119.469 241.431 119.255 241.567 119.128C241.704 119.002 241.919 119.009 242.045 119.146C242.486 119.618 252.46 130.368 254.078 135.011C256.312 133.24 258.103 133.525 258.187 133.543C258.37 133.574 258.493 133.75 258.462 133.934C258.428 134.116 258.264 134.249 258.071 134.208C258.049 134.206 256.273 133.946 254.126 135.856L253.901 135.941Z" fill="#09030F"/>
<path d="M229.105 99.5066C226.126 99.5066 223.724 98.0523 223.611 97.9819C223.451 97.8845 223.402 97.6762 223.5 97.5179C223.596 97.3582 223.804 97.3082 223.965 97.407C223.995 97.4245 226.948 99.2022 230.191 98.7585C233.487 98.3093 236.693 96.0433 236.724 96.0203C236.874 95.9134 237.086 95.9472 237.196 96.0987C237.304 96.2516 237.27 96.4626 237.118 96.5709C236.982 96.6683 233.746 98.956 230.284 99.4281C229.884 99.4822 229.49 99.5066 229.105 99.5066Z" fill="#09030F"/>
<path d="M236.169 158.577C233.081 158.577 232.005 157.844 231.664 157.488C230.597 157.487 224.433 157.477 219.052 157.38C215.223 157.311 214.541 156.72 214.375 156.214C214.265 155.881 214.426 155.579 214.598 155.39C214.532 154.337 214.156 148.264 213.958 144.617C213.836 142.353 212.948 136.19 212.163 130.753C211.569 126.626 211.006 122.728 210.866 121.133C210.541 117.453 211.086 114.284 211.11 114.15C211.142 113.967 211.311 113.836 211.501 113.875C211.685 113.907 211.809 114.083 211.776 114.267C211.771 114.3 211.223 117.486 211.539 121.073C211.679 122.65 212.24 126.539 212.833 130.656C213.619 136.108 214.51 142.286 214.635 144.579C214.85 148.582 215.284 155.506 215.284 155.506L215.151 155.796L215.016 156.003C215.026 156.028 215.275 156.635 219.065 156.704C224.943 156.81 231.756 156.812 231.825 156.812C231.95 156.812 232.063 156.879 232.123 156.988C232.123 156.988 232.878 157.937 236.69 157.894C236.874 157.891 237.028 158.04 237.034 158.223C237.039 158.411 236.89 158.565 236.705 158.57C236.52 158.575 236.341 158.577 236.169 158.577Z" fill="#09030F"/>
<path d="M220.821 244.535C221.503 244.478 223.995 248.534 223.42 250.787C223.083 252.108 220.802 251.712 217.857 252.055C214.911 252.399 212.539 253.496 210.508 253.446C208.478 253.395 202.094 252.747 202.094 252.747L202.306 251.042C202.306 251.042 205.472 250.98 206.757 250.072C208.041 249.164 213.378 245.054 213.378 245.054C213.569 245.293 214.973 246.34 216.47 246.986C217.968 247.632 218.151 247.468 218.851 247.089C220.11 246.41 219.743 244.624 220.821 244.535Z" fill="#2C2C2C"/>
<path d="M262.625 243.01C263.249 242.787 266.597 245.966 266.622 248.22C266.636 249.542 264.399 249.741 261.726 250.8C259.05 251.857 257.102 253.477 255.186 253.937C253.27 254.397 247.124 255.385 247.124 255.385L246.898 253.734C246.898 253.734 249.849 252.885 250.826 251.713C251.804 250.542 255.778 245.357 255.778 245.357C256.017 245.532 257.683 246.244 259.979 245.402C261.281 244.926 261.635 243.363 262.625 243.01Z" fill="#2C2C2C"/>
<path d="M60.9477 74.3757C60.9463 78.9795 57.2138 82.7079 52.6114 82.7065C48.0076 82.7038 44.2778 78.9727 44.2805 74.3703C44.2819 69.7679 48.0144 66.038 52.6168 66.0394C57.2206 66.0408 60.9504 69.7733 60.9477 74.3757Z" fill="#FCCA19"/>
<path d="M283.081 121.5C283.08 126.102 279.346 129.832 274.745 129.831C270.141 129.828 266.413 126.095 266.414 121.493C266.417 116.891 270.148 113.161 274.751 113.162C279.353 113.165 283.083 116.896 283.081 121.5Z" fill="#DFDFDF"/>
<path d="M32.705 182.308C32.7037 184.307 31.0802 185.929 29.0807 185.928C27.0785 185.927 25.4578 184.305 25.4591 182.304C25.4591 180.304 27.0812 178.682 29.0834 178.683C31.083 178.683 32.705 180.307 32.705 182.308Z" fill="#DFDFDF"/>
<path d="M252.389 35.1784C251.51 36.0443 250.287 36.5935 248.953 36.5935C247.647 36.5935 246.438 36.0862 245.517 35.1784C244.597 34.2585 244.1 33.0341 244.1 31.7422C244.1 30.4367 244.597 29.2137 245.517 28.3059C246.438 27.3846 247.661 26.876 248.953 26.876C251.634 26.876 253.819 29.0608 253.806 31.7422C253.806 33.0747 253.256 34.2991 252.389 35.1784ZM253.366 27.3292C252.184 26.1616 250.617 25.5015 248.953 25.5015C247.29 25.5015 245.724 26.1468 244.541 27.3292C243.372 28.5115 242.727 30.0646 242.727 31.7422C242.712 33.4048 243.372 34.9728 244.541 36.1403C245.724 37.3227 247.29 37.9694 248.953 37.9694C250.617 37.9694 252.184 37.3227 253.366 36.1403C254.533 34.9728 255.18 33.4048 255.18 31.7422C255.195 30.0782 254.533 28.5115 253.366 27.3292Z" fill="#2C2C2C"/>
<path d="M43.1975 187.039L44.4448 193.079H45.6854L44.6558 187.039H43.1975Z" fill="#DFDFDF"/>
<path d="M44.9375 187.039L46.1861 193.079H47.4254L46.3945 187.039H44.9375Z" fill="#DFDFDF"/>
<path d="M123.445 193.972L123.215 193.959C122.625 193.887 122.103 193.547 121.797 193.036L106.87 167.995C106.329 167.086 106.625 165.909 107.536 165.366C108.446 164.825 109.62 165.12 110.164 166.032L123.82 188.94L158.613 153.576C159.359 152.821 160.57 152.813 161.325 153.554C162.08 154.297 162.089 155.511 161.348 156.267L124.813 193.4C124.449 193.768 123.956 193.972 123.445 193.972Z" fill="#2C2C2C"/>
<path d="M30.146 252.572C29.0258 251.817 28.0477 251.03 27.1737 250.229L37.3418 246.828L50.6931 255.384C48.4514 255.862 37.8329 257.746 30.146 252.572ZM20.5935 236.097L36.9211 246.559L26.845 249.927C20.7207 244.101 20.5462 237.571 20.5935 236.097ZM36.108 237.548L37.1253 246.229L20.9912 235.89C23.0286 235.714 30.2948 235.3 36.108 237.548ZM37.5502 246.501L36.5193 237.714C37.308 238.04 38.0642 238.419 38.7731 238.856L40.5927 248.45L37.5502 246.501ZM50.8501 255.022L41.0459 248.74L39.2264 239.149C39.3684 239.245 39.5213 239.329 39.6579 239.429C47.2271 244.98 50.1899 252.974 50.8501 255.022ZM51.3682 255.503L51.3777 255.423C51.3533 255.325 48.7017 245.579 39.8879 239.116C39.6322 238.927 39.3535 238.765 39.0816 238.596L39.0004 238.543C38.1927 238.044 37.3323 237.621 36.4286 237.262L36.2663 237.198C29.3681 234.529 20.4934 235.549 20.3865 235.56L20.2648 235.636C20.2106 235.831 19.311 245.747 29.9282 252.894C34.1802 255.757 39.3156 256.496 43.4783 256.496C47.8656 256.496 51.1748 255.676 51.2383 255.661L51.3493 255.58L51.3682 255.503Z" fill="#2C2C2C"/>
<path d="M228.091 57.7966L225.226 57.7479L225.231 56.7887L228.118 56.8387L228.091 57.7966ZM219.507 57.9075L219.457 56.9497L222.34 56.8279L222.372 57.7857L219.507 57.9075ZM233.797 58.1618L230.943 57.9305L231.009 56.9754L233.885 57.2067L233.797 58.1618ZM213.798 58.3878L213.697 57.4354L216.567 57.154L216.651 58.1091L213.798 58.3878ZM239.464 58.914L236.631 58.4879L236.763 57.5382L239.617 57.967L239.464 58.914ZM208.121 59.1643L207.97 58.2173L210.826 57.7898L210.958 58.7395L208.121 59.1643ZM245.058 60.0775C245.058 60.0775 243.354 59.6743 242.736 59.5417L242.266 59.4416L242.466 58.5041C242.466 58.5041 244.19 58.8816 244.818 59.0344L245.283 59.1454L245.058 60.0775ZM202.488 60.2236L202.292 59.2847L205.121 58.7179L205.302 59.6595L202.488 60.2236ZM196.912 61.5521L196.671 60.624L199.467 59.9219L199.693 60.8527L196.912 61.5521ZM250.539 61.6766L247.807 60.8202L248.083 59.9016L250.839 60.7661L250.539 61.6766ZM191.408 63.1539L191.12 62.2394L193.883 61.3979L194.153 62.3178L191.408 63.1539ZM255.857 63.7369L255.417 63.5476C254.841 63.2973 254.254 63.0565 253.661 62.8211L253.215 62.6452L253.566 61.7537L254.013 61.9296C254.616 62.1677 255.21 62.4139 255.797 62.6668L256.237 62.8562L255.857 63.7369ZM186.025 65.0857L185.657 64.201L186.1 64.0183C186.1 64.0183 186.738 63.7532 187.919 63.327L188.37 63.1633L188.696 64.0657L188.244 64.2281C187.097 64.6434 186.468 64.9031 186.468 64.9031L186.025 65.0857ZM260.965 66.2735L260.546 66.0422C259.994 65.7405 259.434 65.4456 258.864 65.1574L258.435 64.941L258.868 64.086L259.297 64.3011C259.876 64.5947 260.446 64.895 261.006 65.2021L261.427 65.4321L260.965 66.2735ZM265.807 69.2864L265.411 69.0171C264.891 68.6627 264.361 68.315 263.822 67.9727L263.418 67.7171L263.932 66.9067L264.337 67.1637C264.884 67.5114 265.422 67.8645 265.951 68.2244L266.347 68.4949L265.807 69.2864ZM270.326 72.7645L269.958 72.4574C269.473 72.0529 268.981 71.6539 268.479 71.2602L268.103 70.9653L268.693 70.2104L269.07 70.5066C269.58 70.9044 270.082 71.3102 270.573 71.7215L270.94 72.0286L270.326 72.7645ZM274.472 76.6743L274.138 76.3307C273.696 75.8815 273.245 75.4351 272.786 74.994L272.44 74.6626L273.103 73.9699L273.449 74.3014C273.916 74.7505 274.375 75.2037 274.821 75.661L275.157 76.0033L274.472 76.6743ZM278.22 80.9723L277.919 80.5989C277.525 80.1078 277.121 79.6195 276.706 79.1365L276.393 78.7726L277.121 78.1475L277.432 78.5115C277.856 79.0025 278.266 79.499 278.667 79.9982L278.968 80.373L278.22 80.9723ZM281.545 85.6085L281.281 85.2094C280.933 84.6832 280.575 84.1583 280.208 83.6374L279.932 83.2451L280.717 82.6931L280.993 83.0855C281.365 83.6144 281.729 84.1461 282.082 84.6805L282.346 85.0809L281.545 85.6085ZM284.437 90.5316L284.21 90.1095C283.91 89.5534 283.601 89.0001 283.282 88.4468L283.042 88.0315L283.873 87.5526L284.113 87.9693C284.436 88.5294 284.75 89.0921 285.053 89.6549L285.28 90.077L284.437 90.5316ZM286.89 95.6873L286.701 95.2476C286.449 94.67 286.189 94.0896 285.919 93.5106L285.716 93.0763L286.584 92.6718L286.787 93.1047C287.06 93.6932 287.327 94.2803 287.58 94.8661L287.771 95.3058L286.89 95.6873ZM288.907 101.032L287.952 98.3321L288.852 98.0007L289.017 98.4512C289.243 99.06 289.456 99.6674 289.661 100.271L289.813 100.724L288.907 101.032ZM290.485 106.526L289.751 103.756L290.674 103.499C290.674 103.499 291.081 104.976 291.21 105.479L291.414 106.291L290.485 106.526ZM291.518 112.13L291.452 111.655C291.364 111.03 291.266 110.404 291.157 109.776L291.073 109.304L292.017 109.139L292.1 109.611C292.212 110.249 292.312 110.887 292.401 111.521L292.468 111.996L291.518 112.13ZM291.973 117.813L291.954 117.334C291.932 116.704 291.898 116.072 291.851 115.436L291.817 114.957L292.774 114.89L292.807 115.367C292.855 116.014 292.888 116.658 292.913 117.299L292.93 117.778L291.973 117.813ZM292.818 123.575L291.862 123.518L291.891 123.039C291.929 122.409 291.955 121.776 291.973 121.139L291.986 120.66L292.944 120.685L292.932 121.164C292.914 121.812 292.886 122.456 292.848 123.096L292.818 123.575ZM292.176 129.331L291.227 129.189L291.298 128.716C291.391 128.094 291.476 127.464 291.553 126.83L291.61 126.354L292.561 126.467L292.504 126.944C292.427 127.588 292.341 128.226 292.246 128.858L292.176 129.331ZM291.035 135.011L290.102 134.791L290.723 131.995L291.661 132.191L291.563 132.661C291.431 133.297 291.035 135.011 291.035 135.011ZM289.445 140.579L288.531 140.288L289.37 137.547L290.29 137.818L289.445 140.579ZM287.443 146.011L286.553 145.654L287.592 142.983L288.489 143.319L287.443 146.011ZM285.061 151.29L284.199 150.87L285.425 148.277L286.296 148.677L285.061 151.29ZM282.316 156.388L281.487 155.908L282.892 153.409L283.732 153.869L282.316 156.388ZM279.336 160.973L278.566 160.404L278.85 160.018C278.85 160.018 279.181 159.569 279.727 158.741L279.992 158.341L280.793 158.868L280.527 159.269C279.959 160.13 279.621 160.588 279.621 160.588L279.336 160.973Z" fill="#2C2C2C"/>
<path d="M49.4482 88.3588L49.4292 87.401L49.9081 87.3915C50.2517 87.3834 50.5791 87.378 50.9322 87.3807C51.238 87.3807 52.323 87.3969 52.323 87.3969L52.308 88.3547C52.308 88.3547 51.1771 88.3385 50.8483 88.3399C50.5439 88.3399 49.4482 88.3588 49.4482 88.3588ZM57.9927 88.7836L57.5165 88.7281C56.9105 88.6578 56.2787 88.5928 55.6252 88.5387L55.1477 88.4981L55.2275 87.543L55.7051 87.5823C56.3694 87.6391 57.0106 87.704 57.6288 87.7757L58.1037 87.8312L57.9927 88.7836ZM43.7662 88.8242L43.6458 87.8745L44.1206 87.8122C44.7686 87.7297 45.4098 87.6594 46.043 87.6012L46.5206 87.5579L46.6072 88.5117L46.1296 88.5563C45.5086 88.6131 44.8795 88.6808 44.2423 88.7633L43.7662 88.8242ZM63.6085 89.782L63.1417 89.6765C62.5857 89.5534 61.962 89.4235 61.2788 89.2963L60.8067 89.2084L60.9826 88.2654L61.4534 88.3534C62.1487 88.4832 62.7832 88.6145 63.3501 88.7417L63.8181 88.8458L63.6085 89.782ZM38.1843 89.9389L37.9502 89.0109L38.4143 88.8932C39.0474 88.7322 39.6778 88.5861 40.3015 88.4562L40.7709 88.3588L40.9658 89.2963L40.4963 89.3951C39.8861 89.5223 39.2693 89.6656 38.6497 89.8212L38.1843 89.9389ZM32.7918 91.7409L32.4387 90.8494L32.8852 90.6735C33.4926 90.4327 34.0973 90.2095 34.7007 89.9998L35.1539 89.8442L35.4691 90.7493L35.0159 90.9062C34.4247 91.1119 33.8322 91.331 33.2369 91.565L32.7918 91.7409ZM27.6875 94.2369L27.218 93.4009L27.6361 93.1668C28.2056 92.8462 28.7766 92.5432 29.3502 92.2564L29.779 92.0412L30.2079 92.9003L29.779 93.1141C29.2189 93.3941 28.6602 93.6904 28.1055 94.0029L27.6875 94.2369ZM22.9661 97.3999L22.3897 96.6342L22.7712 96.346C23.2934 95.9524 23.817 95.5749 24.3459 95.2124L24.741 94.9418L25.2821 95.7332L24.8871 96.0038C24.3716 96.3569 23.8589 96.7262 23.3503 97.1104L22.9661 97.3999ZM18.7032 101.16L18.0308 100.475L18.3731 100.139C18.8385 99.6808 19.308 99.2398 19.7842 98.8109L20.1413 98.4903L20.7812 99.2033L20.4254 99.5239C19.9613 99.9419 19.5014 100.375 19.0441 100.823L18.7032 101.16ZM14.9369 105.422L14.1874 104.823L14.4877 104.45C14.8962 103.94 15.3076 103.444 15.7256 102.961L16.038 102.599L16.7632 103.227L16.4493 103.589C16.0394 104.063 15.6349 104.548 15.2358 105.049L14.9369 105.422ZM11.621 110.071L10.8255 109.536L12.4571 107.157L13.2417 107.707L11.621 110.071ZM8.62986 114.942L7.79918 114.463L9.26433 111.978L10.0842 112.475L8.62986 114.942ZM6.01887 120.022L5.15029 119.614L5.35592 119.179C5.62514 118.606 5.90792 118.027 6.20284 117.445L6.42064 117.018L7.27561 117.451L7.05921 117.878C6.76699 118.452 6.48967 119.021 6.2218 119.588L6.01887 120.022ZM3.86376 125.305L2.96273 124.978L3.12642 124.527C3.34423 123.929 3.57152 123.329 3.81368 122.723L3.99092 122.278L4.8811 122.631L4.70387 123.076C4.46848 123.674 4.24255 124.266 4.02745 124.855L3.86376 125.305ZM2.24846 130.769L1.31632 130.538L1.43265 130.073C1.58688 129.456 1.75327 128.833 1.93185 128.206L2.06178 127.744L2.9844 128.006L2.85315 128.467C2.67727 129.085 2.51363 129.698 2.36346 130.304L2.24846 130.769ZM1.25542 136.373L0.303071 136.254L0.36391 135.778C0.445081 135.146 0.537085 134.507 0.645314 133.862L0.725111 133.389L1.67079 133.547L1.59231 134.02C1.48544 134.652 1.39344 135.278 1.31632 135.898L1.25542 136.373ZM0 142.054V141.499C0 140.886 0.0135338 140.266 0.039238 139.637L0.0609048 139.158L1.01867 139.199L0.99839 139.678C0.972685 140.292 0.959152 140.9 0.959152 141.499V141.979L0 142.054ZM0.461344 147.845L0.39641 147.37C0.31118 146.74 0.238113 146.097 0.17994 145.445L0.135285 144.968L1.09041 144.882L1.13367 145.36C1.19185 145.997 1.26221 146.625 1.34744 147.243L1.41105 147.718L0.461344 147.845ZM1.69648 153.526L1.56794 153.063C1.39883 152.45 1.24054 151.824 1.09173 151.185L0.984848 150.717L1.91969 150.502L2.02796 150.97C2.17001 151.595 2.32693 152.208 2.49333 152.807L2.6191 153.27L1.69648 153.526ZM3.6825 158.99L3.49304 158.549C3.24276 157.966 3.00201 157.366 2.76932 156.75L2.60021 156.3L3.49714 155.962L3.66757 156.411C3.89485 157.015 4.13159 157.601 4.37511 158.171L4.56317 158.611L3.6825 158.99ZM6.36112 164.147L6.11763 163.734C5.79836 163.193 5.4804 162.629 5.16925 162.043L4.94333 161.62L5.79018 161.171L6.01478 161.594C6.32052 162.166 6.63031 162.718 6.94282 163.247L7.18637 163.66L6.36112 164.147ZM9.67832 168.923L9.38476 168.545C9.01137 168.063 8.62306 167.544 8.22803 166.987L7.95072 166.596L8.73264 166.041L9.01001 166.432C9.39693 166.977 9.77436 167.486 10.141 167.955L10.4359 168.334L9.67832 168.923ZM13.6801 173.191L13.3189 172.877C13.2959 172.858 12.7628 172.394 11.9118 171.497L11.5804 171.149L12.2758 170.489L12.6059 170.837C13.423 171.696 13.9465 172.153 13.9465 172.153L14.3091 172.468L13.6801 173.191Z" fill="#2C2C2C"/>
<path d="M256.147 162.884L256.216 160.183L263.24 160.539L263.203 163.299C263.203 163.299 264.821 172.953 259.088 173.052C253.356 173.152 252.133 168.956 252.133 168.956C252.133 168.956 254.442 169.243 254.361 167.556C254.489 166.935 253.613 165.934 251.893 166.268C252.378 162.835 256.147 162.884 256.147 162.884Z" fill="#FEB3A2"/>
<path d="M173.21 34.8524H74.077C74.8792 31.2011 78.8241 28.4521 82.3186 28.8295L165.547 28.82C169.38 28.8714 172.547 31.8356 173.21 34.8524Z" fill="#DFDFDF"/>
<path d="M159.818 30.511C159.614 30.511 159.449 30.6761 159.449 30.879V32.792C159.449 32.9949 159.614 33.1599 159.818 33.1599H165.147C165.35 33.1599 165.516 32.9949 165.516 32.792V30.879C165.516 30.6761 165.35 30.511 165.147 30.511H159.818ZM165.147 33.5333H159.818C159.408 33.5333 159.076 33.2005 159.076 32.792V30.879C159.076 30.4705 159.408 30.1377 159.818 30.1377H165.147C165.557 30.1377 165.89 30.4705 165.89 30.879V32.792C165.89 33.2005 165.557 33.5333 165.147 33.5333Z" fill="white"/>
<path d="M163.886 32.9041H160.085C159.841 32.9041 159.653 32.7012 159.653 32.4576V31.213C159.653 30.9695 159.841 30.7666 160.085 30.7666H162.533L163.886 32.9041Z" fill="white"/>
<path d="M166.285 31.5703V31.9964L166.153 32.1344H165.704V31.4323H166.153L166.285 31.5703Z" fill="white"/>
<path d="M87.3677 31.2943L86.8469 31.8435C86.3707 31.3876 85.7227 31.1103 85.0097 31.1103C84.2859 31.1103 83.6257 31.3998 83.1468 31.8706L82.6178 31.3268C83.2361 30.722 84.0789 30.3527 85.0097 30.3527C85.9229 30.3527 86.7535 30.7085 87.3677 31.2943Z" fill="white"/>
<path d="M86.5895 32.1127L86.0646 32.6687C85.79 32.4049 85.418 32.2466 85.0094 32.2466C84.5941 32.2466 84.2167 32.413 83.9407 32.6836L83.4036 32.1343C83.8189 31.7312 84.3844 31.4823 85.0094 31.4823C85.6236 31.4823 86.1796 31.7218 86.5895 32.1127Z" fill="white"/>
<path d="M85.7967 32.9503L85.0093 33.7795L84.2111 32.9611C84.4168 32.7595 84.6995 32.6364 85.0093 32.6364C85.3137 32.6364 85.591 32.7554 85.7967 32.9503Z" fill="white"/>
<path d="M93.5946 33.7795H94.6376V30.0903H93.5946V33.7795Z" fill="white"/>
<path d="M92.0449 33.7795H93.0879V30.9074H92.0449V33.7795Z" fill="white"/>
<path d="M90.6062 33.7795H91.6505V31.5974H90.6062V33.7795Z" fill="white"/>
<path d="M89.1912 33.7795H90.2343V32.6878H89.1912V33.7795Z" fill="white"/>
<defs>
<linearGradient id="paint0_linear_422_3965" x1="85.0252" y1="7.88047" x2="80.2474" y2="74.5557" gradientUnits="userSpaceOnUse">
<stop stop-color="#FFD875"/>
<stop offset="1" stop-color="#E9B500"/>
</linearGradient>
<linearGradient id="paint1_linear_422_3965" x1="85.0261" y1="7.88058" x2="80.2483" y2="74.5557" gradientUnits="userSpaceOnUse">
<stop stop-color="#688CC6"/>
<stop offset="1" stop-color="#607F9B"/>
</linearGradient>
<linearGradient id="paint2_linear_422_3965" x1="214.754" y1="88.8553" x2="117.86" y2="179.782" gradientUnits="userSpaceOnUse">
<stop stop-color="#5E95F6"/>
<stop offset="1" stop-color="#4A89F4"/>
</linearGradient>
<linearGradient id="paint3_linear_422_3965" x1="115.664" y1="175.061" x2="15.1463" y2="106.362" gradientUnits="userSpaceOnUse">
<stop stop-color="#5E95F6"/>
<stop offset="1" stop-color="#4A89F4"/>
</linearGradient>
<linearGradient id="paint4_linear_422_3965" x1="107.773" y1="188.081" x2="1.62272" y2="128.453" gradientUnits="userSpaceOnUse">
<stop stop-color="#5E95F6"/>
<stop offset="1" stop-color="#4A89F4"/>
</linearGradient>
<linearGradient id="paint5_linear_422_3965" x1="126.208" y1="185.108" x2="234.624" y2="185.108" gradientUnits="userSpaceOnUse">
<stop stop-color="#5E95F6"/>
<stop offset="1" stop-color="#4A89F4"/>
</linearGradient>
</defs>
</svg>
