<svg width="10" height="8" viewBox="0 0 10 8" fill="none" xmlns="http://www.w3.org/2000/svg">
<path fill-rule="evenodd" clip-rule="evenodd" d="M9.64016 0.231804C9.21588 -0.12176 8.58532 -0.0644363 8.23175 0.359841L4.6338 4.67739C4.28708 5.09345 4.09217 5.32379 3.93655 5.46534C3.93453 5.46717 3.93255 5.46897 3.9306 5.47072C3.92851 5.46915 3.92637 5.46754 3.92419 5.4659C3.7564 5.33902 3.54143 5.12727 3.15847 4.74431L1.70708 3.29292C1.31656 2.90239 0.683393 2.90239 0.292869 3.29292C-0.0976562 3.68344 -0.0976562 4.31661 0.292869 4.70713L1.74426 6.15852C1.75788 6.17215 1.77149 6.18576 1.78507 6.19935C2.11157 6.52597 2.42567 6.84018 2.71791 7.06117C3.04528 7.30871 3.47399 7.54148 4.02341 7.51656C4.57282 7.49164 4.9787 7.22101 5.28231 6.94485C5.55334 6.69831 5.83769 6.35696 6.13328 6.00213C6.14558 5.98736 6.1579 5.97257 6.17024 5.95776L9.7682 1.64021C10.1218 1.21593 10.0644 0.585368 9.64016 0.231804Z" fill="white"/>
</svg>
