<svg width="8" height="6" viewBox="0 0 8 6" fill="none" xmlns="http://www.w3.org/2000/svg">
<path fill-rule="evenodd" clip-rule="evenodd" d="M7.71213 0.184989C7.37271 -0.0971699 6.86826 -0.0514229 6.58541 0.287168L3.70705 3.73275C3.42968 4.06479 3.27375 4.24861 3.14925 4.36157C3.14764 4.36304 3.14605 4.36447 3.1445 4.36587C3.14282 4.36462 3.14111 4.36333 3.13937 4.36202C3.00513 4.26077 2.83316 4.09178 2.52679 3.78616L1.36568 2.62789C1.05326 2.31623 0.546733 2.31623 0.234315 2.62789C-0.078104 2.93954 -0.078104 3.44484 0.234315 3.75649L1.39542 4.91476C1.40632 4.92564 1.41721 4.9365 1.42808 4.94734C1.68927 5.208 1.94055 5.45876 2.17434 5.63511C2.43624 5.83266 2.77921 6.01842 3.21874 5.99853C3.65826 5.97865 3.98297 5.76267 4.22586 5.54228C4.44268 5.34554 4.67016 5.07313 4.90663 4.78995C4.91647 4.77817 4.92633 4.76636 4.9362 4.75454L7.81456 1.30896C8.09741 0.970366 8.05155 0.467149 7.71213 0.184989Z" fill="white"/>
</svg>
