<svg width="15" height="16" viewBox="0 0 15 16" fill="none" xmlns="http://www.w3.org/2000/svg">
<path fill-rule="evenodd" clip-rule="evenodd" d="M5.83333 11.6665C5.3731 11.6665 5 11.2934 5 10.8332L5 8.33317C5 7.87293 5.3731 7.49984 5.83333 7.49984C6.29357 7.49984 6.66667 7.87293 6.66667 8.33317L6.66667 10.8332C6.66667 11.2934 6.29357 11.6665 5.83333 11.6665Z" fill="#000"/>
<path fill-rule="evenodd" clip-rule="evenodd" d="M9.16732 11.6665C8.70708 11.6665 8.33398 11.2934 8.33398 10.8332L8.33398 8.33317C8.33398 7.87293 8.70708 7.49984 9.16732 7.49984C9.62755 7.49984 10.0007 7.87293 10.0007 8.33317L10.0007 10.8332C10.0007 11.2934 9.62756 11.6665 9.16732 11.6665Z" fill="#000"/>
<path fill-rule="evenodd" clip-rule="evenodd" d="M0.8552 5.01409C0.657717 5.00062 0.399686 5.00016 0 5.00016V3.3335C0.00891358 3.3335 0.0177978 3.3335 0.0266526 3.3335C0.0445462 3.3335 0.0623196 3.3335 0.0799725 3.3335H14.92C14.9377 3.3335 14.9555 3.3335 14.9733 3.3335L15 3.3335V5.00016C14.6003 5.00016 14.3423 5.00062 14.1448 5.01409C13.9548 5.02705 13.8824 5.04923 13.8478 5.0636C13.6436 5.14818 13.4813 5.3104 13.3968 5.51459C13.3824 5.54927 13.3602 5.62163 13.3473 5.81163C13.3338 6.00911 13.3333 6.26714 13.3333 6.66683L13.3333 11.7217C13.3334 12.4604 13.3334 13.0969 13.2649 13.6067C13.1914 14.1529 13.0258 14.6765 12.6011 15.1013C12.1764 15.526 11.6528 15.6916 11.1065 15.765C10.5968 15.8336 9.96027 15.8335 9.22153 15.8335H5.77847C5.03973 15.8335 4.40322 15.8336 3.89351 15.765C3.34724 15.6916 2.82362 15.526 2.3989 15.1013C1.97418 14.6765 1.80856 14.1529 1.73512 13.6067C1.66659 13.0969 1.66662 12.4604 1.66666 11.7217L1.66667 6.66683C1.66667 6.26714 1.66622 6.00911 1.65274 5.81163C1.63978 5.62163 1.6176 5.54927 1.60323 5.51459C1.51865 5.3104 1.35643 5.14818 1.15224 5.0636C1.11756 5.04923 1.0452 5.02705 0.8552 5.01409ZM11.8107 5.00016H3.18933C3.26749 5.2315 3.29962 5.46487 3.31554 5.69818C3.33335 5.95923 3.33334 6.27463 3.33333 6.64017L3.33333 11.6668C3.33333 12.4761 3.3351 12.9992 3.38692 13.3846C3.43552 13.746 3.51397 13.8593 3.57741 13.9228C3.64085 13.9862 3.75414 14.0646 4.11559 14.1132C4.50101 14.1651 5.0241 14.1668 5.83333 14.1668H9.16667C9.9759 14.1668 10.499 14.1651 10.8844 14.1132C11.2459 14.0646 11.3592 13.9862 11.4226 13.9228C11.486 13.8593 11.5645 13.746 11.6131 13.3846C11.6649 12.9992 11.6667 12.4761 11.6667 11.6668V6.64017C11.6667 6.27463 11.6666 5.95923 11.6845 5.69818C11.7004 5.46487 11.7325 5.2315 11.8107 5.00016Z" fill="#000"/>
<path fill-rule="evenodd" clip-rule="evenodd" d="M8.67272 0.101025C8.31942 0.0332504 7.90882 0 7.50112 0C7.09342 4.96705e-08 6.68283 0.0332505 6.32952 0.101025C6.1529 0.134907 5.97998 0.179406 5.82332 0.238021C5.68102 0.291261 5.48695 0.37965 5.32275 0.532849C4.98624 0.84682 4.96797 1.37414 5.28194 1.71065C5.57821 2.0282 6.06446 2.06237 6.40109 1.8014C6.40301 1.80065 6.4051 1.79985 6.40736 1.799C6.45183 1.78237 6.52907 1.7598 6.64352 1.73785C6.87236 1.69395 7.17504 1.66667 7.50112 1.66667C7.8272 1.66667 8.12988 1.69395 8.35873 1.73785C8.47318 1.7598 8.55042 1.78237 8.59488 1.799C8.59715 1.79985 8.59923 1.80065 8.60116 1.8014C8.93779 2.06237 9.42404 2.0282 9.72031 1.71065C10.0343 1.37414 10.016 0.846819 9.67949 0.532848C9.5153 0.37965 9.32122 0.29126 9.17893 0.23802C9.02227 0.179405 8.84934 0.134907 8.67272 0.101025Z" fill="#000"/>
</svg>
