<svg width="21" height="20" viewBox="0 0 21 20" fill="none" xmlns="http://www.w3.org/2000/svg">
<path fill-rule="evenodd" clip-rule="evenodd" d="M5.84381 5C5.86585 5 5.88796 5.00001 5.91015 5.00001L15.1562 5C16.0276 4.99995 16.7821 4.99991 17.3913 5.07967C18.0461 5.16541 18.6747 5.35808 19.2038 5.84895C19.7329 6.33983 19.9755 6.9555 20.1146 7.60636C20.244 8.21186 20.3067 8.97 20.379 9.84557L20.9305 16.5188C20.9322 16.5393 20.9339 16.5597 20.9356 16.5801C20.9761 17.0698 21.0152 17.5412 20.9941 17.931C20.9705 18.368 20.8659 18.8769 20.4724 19.3081C20.0789 19.7393 19.5847 19.8866 19.1548 19.9466C18.7712 20.0002 18.302 20.0001 17.8148 20C17.7944 20 17.7741 20 17.7537 20H3.24629C3.22591 20 3.20555 20 3.18523 20C2.69795 20.0001 2.22879 20.0002 1.84523 19.9466C1.41533 19.8866 0.921062 19.7393 0.527567 19.3081C0.134071 18.8769 0.0295496 18.368 0.00591173 17.931C-0.0151775 17.5412 0.0238736 17.0697 0.0644314 16.5801C0.066123 16.5597 0.0678172 16.5393 0.0695098 16.5188L0.615516 9.91225C0.617358 9.88996 0.619193 9.86774 0.621022 9.84559C0.693336 8.97001 0.75595 8.21187 0.885374 7.60636C1.02449 6.9555 1.26712 6.33983 1.7962 5.84895C2.32529 5.35808 2.95393 5.16541 3.60874 5.07967C4.21794 4.99991 4.97243 4.99995 5.84381 5ZM3.88241 7.20468C3.45657 7.26044 3.31613 7.35075 3.23519 7.42584C3.15426 7.50093 3.05333 7.63456 2.96287 8.05781C2.86598 8.5111 2.81283 9.12876 2.73337 10.0902L2.18736 16.6967C2.13989 17.2712 2.11587 17.591 2.12795 17.8143C2.12811 17.8172 2.12827 17.82 2.12843 17.8228C2.13117 17.8232 2.13396 17.8236 2.13681 17.824C2.35654 17.8547 2.67462 17.8571 3.24629 17.8571H17.7537C18.3254 17.8571 18.6435 17.8547 18.8632 17.824C18.866 17.8236 18.8688 17.8232 18.8716 17.8228C18.8717 17.82 18.8719 17.8172 18.872 17.8143C18.8841 17.591 18.8601 17.2712 18.8126 16.6967L18.2666 10.0902C18.1872 9.12876 18.134 8.5111 18.0371 8.05781C17.9467 7.63456 17.8457 7.50093 17.7648 7.42584C17.6839 7.35075 17.5434 7.26044 17.1176 7.20468C16.6615 7.14497 16.0467 7.14286 15.0899 7.14286H5.91015C4.95332 7.14286 4.33845 7.14497 3.88241 7.20468Z" fill="#000"/>
<path fill-rule="evenodd" clip-rule="evenodd" d="M6.1 10C5.49249 10 5 9.55228 5 9L5 5C5 2.23858 7.46243 6.1731e-07 10.5 1.15606e-06C13.5376 7.41133e-07 16 2.23858 16 5L16 9C16 9.55228 15.5075 10 14.9 10C14.2925 10 13.8 9.55228 13.8 9L13.8 5C13.8 3.34315 12.3225 2 10.5 2C8.67746 2 7.2 3.34315 7.2 5L7.2 9C7.2 9.55228 6.70751 10 6.1 10Z" fill="#000"/>
</svg>
