<svg width="19" height="19" viewBox="0 0 19 19" fill="none" xmlns="http://www.w3.org/2000/svg">
<path fill-rule="evenodd" clip-rule="evenodd" d="M13.6648 7.49141e-06C13.6839 1.12664e-05 13.7031 1.50413e-05 13.7222 1.50413e-05H15.8333C15.8525 1.50413e-05 15.8716 1.12664e-05 15.8908 7.49141e-06C16.3384 -8.0465e-05 16.7734 -0.000165905 17.1322 0.0480732C17.5367 0.102456 17.9983 0.234951 18.3817 0.618344C18.7651 1.00174 18.8975 1.46331 18.9519 1.8678C19.0002 2.22659 19.0001 2.66162 19 3.10924C19 3.12837 19 3.14751 19 3.16668V5.27778C19 5.29695 19 5.31609 19 5.33522C19.0001 5.78285 19.0002 6.21787 18.9519 6.57666C18.8975 6.98115 18.7651 7.44272 18.3817 7.82612C17.9983 8.20951 17.5367 8.34201 17.1322 8.39639C16.7734 8.44463 16.3384 8.44454 15.8908 8.44445C15.8716 8.44445 15.8525 8.44445 15.8333 8.44445H13.7222C13.7031 8.44445 13.6839 8.44445 13.6648 8.44445C13.2172 8.44454 12.7821 8.44463 12.4233 8.39639C12.0188 8.34201 11.5573 8.20951 11.1739 7.82612C10.7905 7.44272 10.658 6.98115 10.6036 6.57666C10.5554 6.21787 10.5555 5.78284 10.5555 5.33521C10.5556 5.31609 10.5556 5.29695 10.5556 5.27778V3.16668C10.5556 3.14751 10.5556 3.12837 10.5555 3.10925C10.5555 2.66162 10.5554 2.2266 10.6036 1.8678C10.658 1.46331 10.7905 1.00174 11.1739 0.618344C11.5573 0.234951 12.0188 0.102456 12.4233 0.0480732C12.7821 -0.000165905 13.2172 -8.0465e-05 13.6648 7.49141e-06ZM12.697 2.14141C12.6966 2.14392 12.6962 2.14648 12.6959 2.1491C12.6689 2.34986 12.6667 2.63924 12.6667 3.16668V5.27778C12.6667 5.80522 12.6689 6.09461 12.6959 6.29536C12.6962 6.29798 12.6966 6.30054 12.697 6.30305C12.6995 6.3034 12.702 6.30375 12.7046 6.30411C12.9054 6.3311 13.1948 6.33334 13.7222 6.33334H15.8333C16.3608 6.33334 16.6501 6.3311 16.8509 6.30411C16.8535 6.30375 16.8561 6.3034 16.8586 6.30305C16.8589 6.30054 16.8593 6.29798 16.8596 6.29536C16.8866 6.09461 16.8889 5.80522 16.8889 5.27778V3.16668C16.8889 2.63924 16.8866 2.34986 16.8596 2.1491C16.8593 2.14648 16.8589 2.14392 16.8586 2.14141C16.8561 2.14106 16.8535 2.14071 16.8509 2.14036C16.6501 2.11336 16.3608 2.11112 15.8333 2.11112H13.7222C13.1948 2.11112 12.9054 2.11336 12.7046 2.14036C12.702 2.14071 12.6995 2.14106 12.697 2.14141Z" fill="#000"/>
<path fill-rule="evenodd" clip-rule="evenodd" d="M13.6648 10.5557C13.6839 10.5557 13.7031 10.5557 13.7222 10.5557H15.8333C15.8525 10.5557 15.8716 10.5557 15.8908 10.5557C16.3384 10.5556 16.7734 10.5555 17.1322 10.6037C17.5367 10.6581 17.9983 10.7906 18.3817 11.174C18.7651 11.5574 18.8975 12.019 18.9519 12.4235C19.0002 12.7823 19.0001 13.2173 19 13.6649C19 13.684 19 13.7032 19 13.7223V15.8334C19 15.8526 19 15.8718 19 15.8909C19.0001 16.3385 19.0002 16.7735 18.9519 17.1323C18.8975 17.5368 18.7651 17.9984 18.3817 18.3818C17.9983 18.7652 17.5367 18.8977 17.1322 18.9521C16.7734 19.0003 16.3384 19.0002 15.8908 19.0001C15.8716 19.0001 15.8525 19.0001 15.8333 19.0001H13.7222C13.7031 19.0001 13.6839 19.0001 13.6648 19.0001C13.2172 19.0002 12.7821 19.0003 12.4233 18.9521C12.0188 18.8977 11.5573 18.7652 11.1739 18.3818C10.7905 17.9984 10.658 17.5368 10.6036 17.1323C10.5554 16.7735 10.5555 16.3385 10.5555 15.8909C10.5556 15.8718 10.5556 15.8526 10.5556 15.8334V13.7223C10.5556 13.7032 10.5556 13.684 10.5555 13.6649C10.5555 13.2173 10.5554 12.7823 10.6036 12.4235C10.658 12.019 10.7905 11.5574 11.1739 11.174C11.5573 10.7906 12.0188 10.6581 12.4233 10.6037C12.7821 10.5555 13.2172 10.5556 13.6648 10.5557ZM12.697 12.6971C12.6966 12.6996 12.6962 12.7021 12.6959 12.7048C12.6689 12.9055 12.6667 13.1949 12.6667 13.7223V15.8334C12.6667 16.3609 12.6689 16.6503 12.6959 16.851C12.6962 16.8536 12.6966 16.8562 12.697 16.8587C12.6995 16.8591 12.702 16.8594 12.7046 16.8598C12.9054 16.8868 13.1948 16.889 13.7222 16.889H15.8333C16.3608 16.889 16.6501 16.8868 16.8509 16.8598C16.8535 16.8594 16.8561 16.8591 16.8586 16.8587C16.8589 16.8562 16.8593 16.8536 16.8596 16.851C16.8866 16.6503 16.8889 16.3609 16.8889 15.8334V13.7223C16.8889 13.1949 16.8866 12.9055 16.8596 12.7048C16.8593 12.7021 16.8589 12.6996 16.8586 12.6971C16.8561 12.6967 16.8535 12.6964 16.8509 12.696C16.6501 12.669 16.3608 12.6668 15.8333 12.6668H13.7222C13.1948 12.6668 12.9054 12.669 12.7046 12.696C12.702 12.6964 12.6995 12.6967 12.697 12.6971Z" fill="#000"/>
<path fill-rule="evenodd" clip-rule="evenodd" d="M3.10925 10.5557C3.12837 10.5557 3.14751 10.5557 3.16668 10.5557H5.27778C5.29695 10.5557 5.31609 10.5557 5.33521 10.5557C5.78284 10.5556 6.21787 10.5555 6.57666 10.6037C6.98115 10.6581 7.44272 10.7906 7.82612 11.174C8.20951 11.5574 8.34201 12.019 8.39639 12.4235C8.44463 12.7823 8.44454 13.2173 8.44445 13.6649C8.44445 13.684 8.44445 13.7032 8.44445 13.7223V15.8334C8.44445 15.8526 8.44445 15.8718 8.44445 15.8909C8.44454 16.3385 8.44463 16.7735 8.39639 17.1323C8.34201 17.5368 8.20951 17.9984 7.82612 18.3818C7.44272 18.7652 6.98115 18.8977 6.57666 18.9521C6.21787 19.0003 5.78285 19.0002 5.33522 19.0001C5.31609 19.0001 5.29695 19.0001 5.27778 19.0001H3.16668C3.14751 19.0001 3.12837 19.0001 3.10924 19.0001C2.66162 19.0002 2.22659 19.0003 1.8678 18.9521C1.46331 18.8977 1.00174 18.7652 0.618344 18.3818C0.234951 17.9984 0.102456 17.5368 0.0480732 17.1323C-0.000165905 16.7735 -8.0465e-05 16.3385 7.49141e-06 15.8909C1.12664e-05 15.8718 1.50413e-05 15.8526 1.50413e-05 15.8334V13.7223C1.50413e-05 13.7032 1.12664e-05 13.684 7.49141e-06 13.6649C-8.0465e-05 13.2173 -0.000165905 12.7823 0.0480732 12.4235C0.102456 12.019 0.234951 11.5574 0.618344 11.174C1.00174 10.7906 1.46331 10.6581 1.8678 10.6037C2.2266 10.5555 2.66162 10.5556 3.10925 10.5557ZM2.14141 12.6971C2.14106 12.6996 2.14071 12.7021 2.14036 12.7048C2.11336 12.9055 2.11112 13.1949 2.11112 13.7223V15.8334C2.11112 16.3609 2.11336 16.6503 2.14036 16.851C2.14071 16.8536 2.14106 16.8562 2.14141 16.8587C2.14392 16.8591 2.14648 16.8594 2.1491 16.8598C2.34986 16.8868 2.63924 16.889 3.16668 16.889H5.27778C5.80522 16.889 6.09461 16.8868 6.29536 16.8598C6.29798 16.8594 6.30054 16.8591 6.30305 16.8587C6.3034 16.8562 6.30375 16.8536 6.30411 16.851C6.3311 16.6503 6.33334 16.3609 6.33334 15.8334V13.7223C6.33334 13.1949 6.3311 12.9055 6.30411 12.7048C6.30375 12.7021 6.3034 12.6996 6.30305 12.6971C6.30054 12.6967 6.29798 12.6964 6.29536 12.696C6.09461 12.669 5.80522 12.6668 5.27778 12.6668H3.16668C2.63924 12.6668 2.34986 12.669 2.1491 12.696C2.14648 12.6964 2.14392 12.6967 2.14141 12.6971Z" fill="#000"/>
<path fill-rule="evenodd" clip-rule="evenodd" d="M3.10925 7.49141e-06C3.12837 1.12664e-05 3.14751 1.50413e-05 3.16668 1.50413e-05H5.27778C5.29695 1.50413e-05 5.31609 1.12664e-05 5.33521 7.49141e-06C5.78284 -8.0465e-05 6.21787 -0.000165905 6.57666 0.0480732C6.98115 0.102456 7.44272 0.234951 7.82612 0.618344C8.20951 1.00174 8.34201 1.46331 8.39639 1.8678C8.44463 2.22659 8.44454 2.66162 8.44445 3.10924C8.44445 3.12837 8.44445 3.14751 8.44445 3.16668V5.27778C8.44445 5.29695 8.44445 5.31609 8.44445 5.33522C8.44454 5.78285 8.44463 6.21787 8.39639 6.57666C8.34201 6.98115 8.20951 7.44272 7.82612 7.82612C7.44272 8.20951 6.98115 8.34201 6.57666 8.39639C6.21787 8.44463 5.78285 8.44454 5.33522 8.44445C5.31609 8.44445 5.29695 8.44445 5.27778 8.44445H3.16668C3.14751 8.44445 3.12837 8.44445 3.10924 8.44445C2.66162 8.44454 2.22659 8.44463 1.8678 8.39639C1.46331 8.34201 1.00174 8.20951 0.618344 7.82612C0.234951 7.44272 0.102456 6.98115 0.0480732 6.57666C-0.000165905 6.21787 -8.0465e-05 5.78284 7.49141e-06 5.33521C1.12664e-05 5.31609 1.50413e-05 5.29695 1.50413e-05 5.27778V3.16668C1.50413e-05 3.14751 1.12664e-05 3.12837 7.49141e-06 3.10925C-8.0465e-05 2.66162 -0.000165905 2.2266 0.0480732 1.8678C0.102456 1.46331 0.234951 1.00174 0.618344 0.618344C1.00174 0.234951 1.46331 0.102456 1.8678 0.0480732C2.2266 -0.000165905 2.66162 -8.0465e-05 3.10925 7.49141e-06ZM2.14141 2.14141C2.14106 2.14392 2.14071 2.14648 2.14036 2.1491C2.11336 2.34986 2.11112 2.63924 2.11112 3.16668V5.27778C2.11112 5.80522 2.11336 6.09461 2.14036 6.29536C2.14071 6.29798 2.14106 6.30054 2.14141 6.30305C2.14392 6.3034 2.14648 6.30375 2.1491 6.30411C2.34986 6.3311 2.63924 6.33334 3.16668 6.33334H5.27778C5.80522 6.33334 6.09461 6.3311 6.29536 6.30411C6.29798 6.30375 6.30054 6.3034 6.30305 6.30305C6.3034 6.30054 6.30375 6.29798 6.30411 6.29536C6.3311 6.09461 6.33334 5.80522 6.33334 5.27778V3.16668C6.33334 2.63924 6.3311 2.34986 6.30411 2.1491C6.30375 2.14648 6.3034 2.14392 6.30305 2.14141C6.30054 2.14106 6.29798 2.14071 6.29536 2.14036C6.09461 2.11336 5.80522 2.11112 5.27778 2.11112H3.16668C2.63924 2.11112 2.34986 2.11336 2.1491 2.14036C2.14648 2.14071 2.14392 2.14106 2.14141 2.14141Z" fill="#000"/>
</svg>
