<svg width="17" height="20" viewBox="0 0 17 20" fill="none" xmlns="http://www.w3.org/2000/svg">
<path fill-rule="evenodd" clip-rule="evenodd" d="M4.78137 12.8015C4.78137 11.6279 5.73274 10.6765 6.90632 10.6765H10.0937C11.2673 10.6765 12.2187 11.6279 12.2187 12.8015V18.1138C12.2187 18.7006 11.743 19.1763 11.1562 19.1763C10.5694 19.1763 10.0937 18.7006 10.0937 18.1138V12.8015H6.90632V18.1138C6.90632 18.7006 6.43063 19.1763 5.84384 19.1763C5.25706 19.1763 4.78137 18.7006 4.78137 18.1138V12.8015Z" fill="#000"/>
<path fill-rule="evenodd" clip-rule="evenodd" d="M7.31143 2.58537C6.73766 2.96433 6.05349 3.54818 5.04276 4.41452L3.98029 5.32521C2.81118 6.3273 2.49125 6.63145 2.31957 7.00473C2.14789 7.378 2.12517 7.81884 2.12517 9.35865V13.8639C2.12517 14.8957 2.12742 15.5626 2.19349 16.054C2.25545 16.5149 2.35548 16.6593 2.43636 16.7402C2.51724 16.8211 2.66168 16.9211 3.12252 16.983C3.61392 17.0491 4.28084 17.0514 5.31258 17.0514H11.6874C12.7192 17.0514 13.3861 17.0491 13.8775 16.983C14.3383 16.9211 14.4828 16.8211 14.5636 16.7402C14.6445 16.6593 14.7445 16.5149 14.8065 16.054C14.8726 15.5626 14.8748 14.8957 14.8748 13.8639V9.35865C14.8748 7.81884 14.8521 7.378 14.6804 7.00473C14.5087 6.63145 14.1888 6.3273 13.0197 5.32521L11.9572 4.41452C10.9465 3.54818 10.2623 2.96433 9.68857 2.58537C9.13966 2.22284 8.80238 2.12494 8.5 2.12494C8.19762 2.12494 7.86034 2.22284 7.31143 2.58537ZM6.14035 0.81225C6.87608 0.32633 7.62328 0 8.5 0C9.37672 0 10.1239 0.32633 10.8596 0.81225C11.5578 1.27338 12.3426 1.9461 13.2885 2.75688L14.4026 3.71183C14.454 3.75591 14.5048 3.79939 14.555 3.84231C15.5012 4.65194 16.2202 5.26709 16.611 6.1168C17.0018 6.96652 17.001 7.9127 16.9999 9.15802C16.9998 9.22405 16.9998 9.29091 16.9998 9.35865L16.9998 13.9339C16.9998 14.8758 16.9999 15.6873 16.9125 16.3372C16.8189 17.0336 16.6077 17.7012 16.0662 18.2427C15.5247 18.7842 14.8571 18.9954 14.1606 19.089C13.5108 19.1764 12.6992 19.1764 11.7573 19.1763H5.24267C4.30079 19.1764 3.48925 19.1764 2.83937 19.089C2.1429 18.9954 1.4753 18.7842 0.933797 18.2427C0.392295 17.7012 0.181134 17.0336 0.0874967 16.3372C0.000123807 15.6873 0.00016928 14.8758 0.000222223 13.9339L0.000224756 9.35865C0.000224756 9.29091 0.000167127 9.22404 0.000110258 9.15801C-0.000962649 7.9127 -0.00177781 6.96652 0.389035 6.1168C0.779847 5.26709 1.49877 4.65194 2.44499 3.84232C2.49515 3.79939 2.54596 3.75591 2.5974 3.71183L3.65987 2.80114C3.67713 2.78634 3.69435 2.77158 3.71151 2.75687C4.65737 1.94609 5.44215 1.27338 6.14035 0.81225Z" fill="#000"/>
</svg>
