<svg width="19" height="21" viewBox="0 0 19 21" fill="none" xmlns="http://www.w3.org/2000/svg">
<path fill-rule="evenodd" clip-rule="evenodd" d="M11.5389 18.7572C10.884 19.511 10.0042 20.002 9.0171 20.002C8.03001 20.002 7.15022 19.511 6.49527 18.7572C5.84491 18.0086 5.41545 17.009 5.22415 15.9381C5.12927 15.4069 5.48295 14.8994 6.01413 14.8045C6.54531 14.7096 7.05284 15.0633 7.14773 15.5945C7.29041 16.3933 7.59691 17.0458 7.97033 17.4756C8.33916 17.9001 8.71374 18.0479 9.0171 18.0479C9.32046 18.0479 9.69504 17.9001 10.0639 17.4756C10.4373 17.0458 10.7438 16.3933 10.8865 15.5945C10.9814 15.0633 11.4889 14.7096 12.0201 14.8045C12.5512 14.8994 12.9049 15.4069 12.81 15.9381C12.6187 17.009 12.1893 18.0086 11.5389 18.7572Z" fill="#000"/>
<path fill-rule="evenodd" clip-rule="evenodd" d="M2.62144 6.18597C2.98353 2.92711 5.73809 0.46167 9.01699 0.46167C12.2959 0.46167 15.0505 2.92712 15.4126 6.18597L15.6645 8.45289C15.7747 9.41352 16.0874 10.3399 16.5819 11.1708L17.1975 12.1969C17.4335 12.5901 17.6473 12.9464 17.7897 13.2487C17.9344 13.556 18.0891 13.9723 18.0147 14.4444C17.941 14.9109 17.7009 15.3351 17.3387 15.6382C16.9723 15.945 16.5357 16.0265 16.1977 16.0605C15.8652 16.0939 15.4497 16.0939 14.9911 16.0939H3.04289C2.58429 16.0939 2.16882 16.0939 1.83627 16.0605C1.49833 16.0265 1.06173 15.945 0.695282 15.6382C0.333079 15.3351 0.0929523 14.9109 0.0193353 14.4444C-0.0551443 13.9723 0.099586 13.556 0.244299 13.2487C0.386702 12.9464 0.600486 12.5901 0.836457 12.1969L1.4521 11.1708C1.9466 10.3399 2.25928 9.41352 2.36951 8.45289L2.62144 6.18597ZM9.01699 2.41569C6.73376 2.41569 4.81565 4.13248 4.56351 6.40175L4.31079 8.67566C4.16906 9.91076 3.76705 11.1018 3.13126 12.1701L2.53561 13.1629C2.2684 13.6083 2.10736 13.879 2.01208 14.0813C2.00687 14.0924 2.00209 14.1028 1.99771 14.1125C2.00832 14.1138 2.0197 14.115 2.03187 14.1163C2.25438 14.1386 2.56934 14.1398 3.08871 14.1398H14.9453C15.4646 14.1398 15.7796 14.1386 16.0021 14.1163C16.0143 14.115 16.0257 14.1138 16.0363 14.1125C16.0319 14.1028 16.0271 14.0924 16.0219 14.0813C15.9266 13.879 15.7656 13.6083 15.4984 13.1629L14.9027 12.1701C14.2669 11.1018 13.8649 9.91076 13.7232 8.67566L13.4705 6.40175C13.2183 4.13248 11.3002 2.41569 9.01699 2.41569Z" fill="#000"/>
</svg>
