<svg width="17" height="20" viewBox="0 0 17 20" fill="none" xmlns="http://www.w3.org/2000/svg">
<path fill-rule="evenodd" clip-rule="evenodd" d="M5.04276 4.41452C6.05349 3.54818 6.73766 2.96433 7.31143 2.58537C7.86034 2.22284 8.19762 2.12494 8.5 2.12494C8.80238 2.12494 9.13966 2.22284 9.68857 2.58537C10.2623 2.96433 10.9465 3.54818 11.9572 4.41452L13.0197 5.32521C14.1888 6.3273 14.5087 6.63145 14.6804 7.00473C14.8521 7.378 14.8748 7.81884 14.8748 9.35865V13.8639C14.8748 14.8957 14.8726 15.5626 14.8065 16.054C14.7445 16.5149 14.6445 16.6593 14.5636 16.7402C14.4828 16.8211 14.3383 16.9211 13.8775 16.983C13.4761 17.037 12.9575 17.0484 12.2187 17.0508V12.8015C12.2187 11.6279 11.2673 10.6766 10.0937 10.6766H6.90632C5.73274 10.6766 4.78137 11.6279 4.78137 12.8015V17.0508C4.04249 17.0484 3.52394 17.037 3.12252 16.983C2.66168 16.9211 2.51724 16.8211 2.43636 16.7402C2.35548 16.6593 2.25545 16.5149 2.19349 16.054C2.12742 15.5626 2.12517 14.8957 2.12517 13.8639V9.35865C2.12517 7.81884 2.14789 7.378 2.31957 7.00473C2.49125 6.63145 2.81118 6.3273 3.98029 5.32521L5.04276 4.41452ZM5.83475 19.1763C5.83778 19.1763 5.84081 19.1763 5.84384 19.1763C5.84688 19.1763 5.84991 19.1763 5.85294 19.1763H11.1471C11.1501 19.1763 11.1532 19.1763 11.1562 19.1763C11.1592 19.1763 11.1623 19.1763 11.1653 19.1763H11.7573C12.6992 19.1764 13.5108 19.1764 14.1606 19.089C14.8571 18.9954 15.5247 18.7842 16.0662 18.2427C16.6077 17.7012 16.8189 17.0336 16.9125 16.3372C16.9999 15.6873 16.9998 14.8758 16.9998 13.9339L16.9998 9.35865L16.9999 9.15802C17.001 7.9127 17.0018 6.96652 16.611 6.1168C16.2202 5.26709 15.5012 4.65194 14.555 3.84231L14.4026 3.71183L13.2885 2.75688L13.2885 2.75686C12.3426 1.94609 11.5578 1.27338 10.8596 0.81225C10.1239 0.32633 9.37672 0 8.5 0C7.62328 0 6.87608 0.32633 6.14035 0.81225C5.44215 1.27338 4.65737 1.94609 3.71151 2.75687L3.65987 2.80114L2.5974 3.71183L2.44499 3.84232C1.49877 4.65194 0.779847 5.26709 0.389035 6.1168C-0.00177781 6.96652 -0.000962649 7.9127 0.000110258 9.15802L0.000224756 9.35865L0.000222223 13.9339C0.00016928 14.8758 0.000123807 15.6873 0.0874967 16.3372C0.181134 17.0336 0.392295 17.7012 0.933797 18.2427C1.4753 18.7842 2.1429 18.9954 2.83937 19.089C3.48925 19.1764 4.30079 19.1764 5.24267 19.1763H5.83475ZM10.0937 17.0514H6.90632V12.8015H10.0937V17.0514Z" fill="#898989"/>
</svg>
