<svg width="14" height="15" viewBox="0 0 14 15" fill="none" xmlns="http://www.w3.org/2000/svg">
<path fill-rule="evenodd" clip-rule="evenodd" d="M5.49627 1.4486C6.66013 1.21709 7.86651 1.33591 8.96285 1.79003C10.0592 2.24415 10.9962 3.01317 11.6555 3.99985C12.3148 4.98653 12.6667 6.14655 12.6667 7.33321C12.6667 8.51988 12.3148 9.6799 11.6555 10.6666C10.9962 11.6533 10.0592 12.4223 8.96285 12.8764C7.86651 13.3305 6.66013 13.4493 5.49627 13.2178C4.3324 12.9863 3.26332 12.4149 2.42422 11.5758L1.48143 12.5186C2.50699 13.5441 3.81365 14.2426 5.23615 14.5255C6.65865 14.8085 8.13312 14.6633 9.47309 14.1082C10.8131 13.5532 11.9583 12.6133 12.7641 11.4073C13.5699 10.2014 14 8.78359 14 7.33321C14 5.88284 13.5699 4.46504 12.7641 3.2591C11.9583 2.05316 10.8131 1.11324 9.47309 0.558211C8.13312 0.00317755 6.65866 -0.142045 5.23615 0.140909C3.81365 0.423862 2.50699 1.12228 1.48143 2.14785L2.42422 3.09064C3.26332 2.25154 4.3324 1.68011 5.49627 1.4486Z" fill="#DFDFDF"/>
<path fill-rule="evenodd" clip-rule="evenodd" d="M6.52048 3.5835L5.47934 4.41641L7.27947 6.66657H0.666662C0.298478 6.66657 6.67572e-06 6.96505 6.67572e-06 7.33323C6.67572e-06 7.70141 0.298478 7.99989 0.666662 7.99989H7.27947L5.47934 10.2501L6.52048 11.083L9.52026 7.33323L6.52048 3.5835Z" fill="#DFDFDF"/>
</svg>
