<svg width="140" height="22" viewBox="0 0 140 22" fill="none" xmlns="http://www.w3.org/2000/svg">
<path d="M0 11C0 5.81455 0 3.22182 1.61091 1.61091C3.22182 0 5.81455 0 11 0C16.1855 0 18.7782 0 20.3891 1.61091C22 3.22182 22 5.81455 22 11C22 16.1855 22 18.7782 20.3891 20.3891C18.7782 22 16.1855 22 11 22C5.81455 22 3.22182 22 1.61091 20.3891C0 18.7782 0 16.1855 0 11Z" fill="#FCCA19"/>
<path fill-rule="evenodd" clip-rule="evenodd" d="M11.0787 2.10572e-07C11.0526 0 11.0263 0 11 0C5.81455 0 3.22182 0 1.61091 1.61091C0 3.22182 0 5.81455 0 11C0 16.1855 0 18.7782 1.61091 20.3891C3.22182 22 5.81455 22 11 22C11.0263 22 11.0526 22 11.0787 22V2.10572e-07Z" fill="white"/>
<path d="M13.2 14.3C13.5037 14.3 13.7555 14.5487 13.6952 14.8464C13.5886 15.3722 13.3295 15.8596 12.9445 16.2446C12.4288 16.7603 11.7293 17.05 11 17.05C10.2706 17.05 9.57119 16.7603 9.05546 16.2446C8.67046 15.8596 8.41141 15.3722 8.30482 14.8464C8.24443 14.5487 8.49622 14.3 8.79998 14.3H13.2Z" fill="#2C2C2C"/>
<path d="M7.64416 9.7771C7.93758 9.85569 8.11727 10.1626 7.96849 10.4275C7.81191 10.7062 7.59532 10.9495 7.33187 11.1383C6.91816 11.4347 6.41441 11.5786 5.90654 11.5453C5.39863 11.512 4.91799 11.3037 4.5465 10.9557C4.17502 10.6078 3.93566 10.1418 3.86923 9.63718C3.80279 9.13255 3.91338 8.6205 4.18216 8.18826C4.45094 7.75607 4.86127 7.43041 5.34324 7.26679C5.8252 7.10316 6.34902 7.11174 6.82537 7.29104C7.1287 7.40522 7.40089 7.58414 7.6243 7.81283C7.83655 8.03013 7.74239 8.37317 7.47932 8.52502L7.20031 8.68612C6.77598 8.93114 6.85969 9.56689 7.33297 9.69372L7.64416 9.7771Z" fill="#2C2C2C"/>
<path d="M14.3569 9.7771C14.0635 9.85569 13.8838 10.1626 14.0325 10.4275C14.1891 10.7062 14.4057 10.9495 14.6692 11.1383C15.0829 11.4347 15.5866 11.5786 16.0946 11.5453C16.6024 11.512 17.0831 11.3037 17.4545 10.9557C17.8261 10.6078 18.0654 10.1418 18.1318 9.63718C18.1982 9.13255 18.0877 8.6205 17.8189 8.18826C17.5501 7.75607 17.1398 7.43041 16.6578 7.26679C16.1758 7.10316 15.6521 7.11174 15.1757 7.29104C14.8723 7.40522 14.6002 7.58414 14.3768 7.81283C14.1645 8.03013 14.2587 8.37317 14.5217 8.52502L14.8007 8.68612C15.2251 8.93114 15.1414 9.56689 14.6681 9.69372L14.3569 9.7771Z" fill="#2C2C2C"/>
<path d="M29.9152 16.054V5.23239H32.265L35.7125 12.0964L39.1135 5.23239H41.4634V16.054H39.4846V8.58709L36.47 14.5081H34.9086L31.894 8.58709V16.054H29.9152Z" fill="#FCCA19"/>
<path d="M47.737 16.2395C46.9434 16.2395 46.2271 16.0849 45.5882 15.7757C44.9492 15.4562 44.439 14.977 44.0577 14.338C43.6866 13.699 43.5011 12.89 43.5011 11.9109V5.23239H45.4799V11.9263C45.4799 12.7715 45.6809 13.4001 46.0829 13.8124C46.4951 14.2246 47.062 14.4308 47.7834 14.4308C48.4945 14.4308 49.0562 14.2246 49.4685 13.8124C49.8807 13.4001 50.0869 12.7715 50.0869 11.9263V5.23239H52.0657V11.9109C52.0657 12.89 51.8698 13.699 51.4782 14.338C51.0866 14.977 50.5609 15.4562 49.9013 15.7757C49.252 16.0849 48.5306 16.2395 47.737 16.2395Z" fill="#FCCA19"/>
<path d="M54.0857 16.054V5.23239H56.0645V14.5081H60.8569V16.054H54.0857Z" fill="#FCCA19"/>
<path d="M63.3238 16.054V6.82471H60.17V5.23239H68.4718V6.82471H65.3026V16.054H63.3238Z" fill="#FCCA19"/>
<path d="M69.9376 16.054V5.23239H71.9165V16.054H69.9376Z" fill="#FCCA19"/>
<path d="M80.8358 16.054L76.8782 5.23239H78.9962L82.0571 14.0288L85.1336 5.23239H87.2206L83.263 16.054H80.8358Z" fill="white"/>
<path d="M88.5071 16.054V5.23239H95.5721V6.82471H90.4859V9.79293H95.1083V11.3389H90.4859V14.4617H95.5721V16.054H88.5071Z" fill="white"/>
<path d="M97.4446 16.054V5.23239H99.4234L104.51 12.8539V5.23239H106.488V16.054H104.51L99.4234 8.44796V16.054H97.4446Z" fill="white"/>
<path d="M108.586 16.054V5.23239H112.281C113.549 5.23239 114.59 5.45913 115.404 5.9126C116.228 6.35578 116.836 6.98446 117.228 7.79866C117.63 8.60255 117.831 9.55073 117.831 10.6432C117.831 11.7357 117.63 12.689 117.228 13.5032C116.836 14.3071 116.228 14.9358 115.404 15.3893C114.59 15.8324 113.549 16.054 112.281 16.054H108.586ZM110.565 14.3535H112.188C113.095 14.3535 113.812 14.2092 114.337 13.9206C114.863 13.6217 115.239 13.1992 115.466 12.6529C115.692 12.0964 115.806 11.4265 115.806 10.6432C115.806 9.87023 115.692 9.20547 115.466 8.64893C115.239 8.09239 114.863 7.66468 114.337 7.36579C113.812 7.06691 113.095 6.91747 112.188 6.91747H110.565V14.3535Z" fill="white"/>
<path d="M124.648 16.2395C123.566 16.2395 122.617 16.0025 121.803 15.5284C120.999 15.0543 120.365 14.3998 119.902 13.565C119.448 12.7199 119.221 11.746 119.221 10.6432C119.221 9.54042 119.448 8.57163 119.902 7.73682C120.365 6.8917 120.999 6.2321 121.803 5.75801C122.617 5.28392 123.566 5.04688 124.648 5.04688C125.72 5.04688 126.663 5.28392 127.477 5.75801C128.291 6.2321 128.925 6.8917 129.378 7.73682C129.832 8.57163 130.059 9.54042 130.059 10.6432C130.059 11.746 129.832 12.7199 129.378 13.565C128.925 14.3998 128.291 15.0543 127.477 15.5284C126.663 16.0025 125.72 16.2395 124.648 16.2395ZM124.648 14.4617C125.678 14.4617 126.498 14.1216 127.106 13.4414C127.724 12.7611 128.033 11.8284 128.033 10.6432C128.033 9.45797 127.724 8.52525 127.106 7.84504C126.498 7.16482 125.678 6.82471 124.648 6.82471C123.617 6.82471 122.793 7.16482 122.174 7.84504C121.556 8.52525 121.247 9.45797 121.247 10.6432C121.247 11.8284 121.556 12.7611 122.174 13.4414C122.793 14.1216 123.617 14.4617 124.648 14.4617Z" fill="white"/>
<path d="M131.806 16.054V5.23239H135.779C136.644 5.23239 137.356 5.38183 137.912 5.68071C138.479 5.96929 138.902 6.36608 139.18 6.87109C139.458 7.36579 139.597 7.91718 139.597 8.52525C139.597 9.18486 139.422 9.78778 139.072 10.334C138.732 10.8802 138.196 11.277 137.464 11.5244L139.705 16.054H137.433L135.423 11.7872H133.784V16.054H131.806ZM133.784 10.334H135.655C136.315 10.334 136.799 10.1743 137.108 9.85477C137.417 9.53527 137.572 9.11271 137.572 8.58709C137.572 8.07177 137.417 7.65952 137.108 7.35033C136.809 7.04114 136.32 6.88655 135.64 6.88655H133.784V10.334Z" fill="white"/>
</svg>
