<svg width="14" height="14" viewBox="0 0 14 14" fill="none" xmlns="http://www.w3.org/2000/svg">
<path fill-rule="evenodd" clip-rule="evenodd" d="M10.8075 2.05029C11.1229 1.73486 11.6343 1.73486 11.9497 2.05029C12.9287 3.02926 13.5954 4.27654 13.8655 5.6344C14.1356 6.99227 13.997 8.39973 13.4672 9.67882C12.9373 10.9579 12.0401 12.0511 10.889 12.8203C9.73785 13.5895 8.38447 14 7 14C5.61553 14 4.26215 13.5895 3.11101 12.8203C1.95987 12.0511 1.06266 10.9579 0.532846 9.67882C0.00303305 8.39973 -0.13559 6.99227 0.134506 5.6344C0.404602 4.27654 1.07129 3.02926 2.05025 2.05029C2.36568 1.73487 2.87708 1.73487 3.1925 2.05029C3.50793 2.36571 3.50793 2.87711 3.1925 3.19254C2.43945 3.94559 1.92662 4.90504 1.71885 5.94955C1.51108 6.99406 1.61772 8.07673 2.02527 9.06064C2.43282 10.0445 3.12297 10.8855 4.00847 11.4772C4.89396 12.0688 5.93502 12.3846 7 12.3846C8.06498 12.3846 9.10604 12.0688 9.99153 11.4772C10.877 10.8855 11.5672 10.0445 11.9747 9.06064C12.3823 8.07673 12.4889 6.99406 12.2811 5.94955C12.0734 4.90504 11.5605 3.94559 10.8075 3.19254C10.4921 2.87711 10.4921 2.36571 10.8075 2.05029Z" fill="#DFDFDF"/>
<path fill-rule="evenodd" clip-rule="evenodd" d="M7.00007 -3.38342e-08C7.44615 -5.25204e-08 7.80777 0.361616 7.80777 0.807692L7.80777 3.90384C7.80777 4.34992 7.44615 4.71154 7.00008 4.71154C6.554 4.71154 6.19238 4.34992 6.19238 3.90384L6.19238 0.807692C6.19238 0.361616 6.554 -1.51481e-08 7.00007 -3.38342e-08Z" fill="#DFDFDF"/>
</svg>
