<svg width="14" height="16" viewBox="0 0 14 16" fill="none" xmlns="http://www.w3.org/2000/svg">
<path d="M6.65018 0.937839C6.57366 0.992497 6.40968 1.10546 6.28943 1.18927C5.28371 1.90348 3.85164 2.56668 2.671 2.86912C2.02603 3.0331 1.62884 3.09505 0.954711 3.13878C0.335242 3.17886 0.233212 3.21165 0.0838105 3.43029L0 3.55418L0.0145757 6.76449L0.0255075 9.97115L0.123894 10.4084C0.790734 13.422 3.15565 15.5937 6.17283 15.9654C6.70484 16.0347 7.82353 15.9946 8.33004 15.8926C11.1286 15.335 13.253 13.2361 13.8761 10.4084L13.9745 9.97115L13.9854 6.76449L14 3.55418L13.9162 3.43029C13.7668 3.21165 13.6648 3.17521 13.0453 3.13878C12.0286 3.07683 11.2197 2.89463 10.1957 2.49744C9.38313 2.18042 8.33732 1.63019 7.71057 1.18927C7.21864 0.839453 7.22228 0.843097 7 0.843097C6.83602 0.843097 6.76314 0.861316 6.65018 0.937839ZM7.39719 2.44278C8.58876 3.2153 9.95159 3.7874 11.3654 4.10442C11.6788 4.17365 12.6845 4.34127 12.8048 4.34127C12.8449 4.34127 12.8339 8.71764 12.7939 9.32982C12.7356 10.1898 12.5461 10.8858 12.1744 11.6291C11.329 13.3126 9.64914 14.5115 7.77251 14.7629C7.38261 14.8139 6.54815 14.8139 6.19469 14.7629C3.78605 14.3985 1.86205 12.6203 1.33732 10.2772C1.28267 10.0331 1.22801 9.62862 1.20614 9.32982C1.16606 8.71764 1.15513 4.34127 1.19885 4.34127C1.30088 4.34127 2.30297 4.1773 2.57262 4.11899C4.01562 3.80197 5.40396 3.22259 6.59917 2.44278C6.81052 2.30431 6.98907 2.19135 6.99636 2.19135C7.00364 2.19135 7.18584 2.30431 7.39719 2.44278Z" fill="#DFDFDF"/>
<path d="M10.243 6.42184C10.192 6.44006 9.31019 7.29638 8.28625 8.32397L6.41691 10.1897L5.42576 9.19851C4.87917 8.65192 4.38359 8.18914 4.32894 8.16728C3.95725 8.03245 3.56007 8.2438 3.51269 8.60455C3.46532 8.95073 3.43982 8.92158 4.78807 10.2735C5.47313 10.9622 6.07802 11.5489 6.13268 11.578C6.26022 11.6436 6.5736 11.6436 6.70114 11.578C6.7558 11.5489 7.75423 10.5686 8.92029 9.39893C10.3706 7.945 11.0484 7.24172 11.0666 7.17249C11.1067 7.00851 11.0629 6.72793 10.9791 6.61132C10.837 6.4109 10.4945 6.32345 10.243 6.42184Z" fill="#DFDFDF"/>
</svg>
