<svg width="14" height="16" viewBox="0 0 14 16" fill="none" xmlns="http://www.w3.org/2000/svg">
<path d="M6.54542 0.454362C6.34304 0.672311 6.17491 0.859123 6.17491 0.868464C6.17491 0.880919 6.42399 1.12689 6.72912 1.41645C7.03113 1.70601 7.28022 1.95821 7.28022 1.97377C7.28022 1.99246 7.19615 1.99557 7.0685 1.98311C6.83809 1.96132 6.26831 2.0018 5.83242 2.07652C3.64359 2.44392 1.73187 3.85436 0.741764 5.82523C0.200006 6.90875 -0.0335097 7.9767 0.00385293 9.21278C0.0349884 10.2745 0.243596 11.1152 0.710629 12.0679C2.28608 15.2904 6.00989 16.7974 9.39432 15.58C9.83644 15.4243 10.456 15.1098 10.8764 14.8296C12.6417 13.6589 13.7471 11.825 13.9775 9.69226C14.021 9.26259 13.9993 8.33475 13.9308 7.9082C13.8716 7.5408 13.7315 6.99282 13.6007 6.61919C13.3703 5.96223 12.8877 5.10912 12.4238 4.54245C12.1 4.14392 11.3527 3.44026 11.2967 3.4745C11.2811 3.48385 11.1037 3.70179 10.9044 3.96022L10.5401 4.43036L10.7394 4.60472C12.9749 6.55069 13.4108 9.77321 11.7637 12.2236C11.1441 13.1483 10.207 13.9049 9.15769 14.3283C7.63516 14.9448 5.94762 14.8794 4.44689 14.1446C3.51594 13.6901 2.67216 12.9272 2.12107 12.043C1.02821 10.2776 0.950372 8.13549 1.91557 6.29227C2.65037 4.89117 3.98608 3.82634 5.51795 3.4278C5.71099 3.37487 6.00677 3.3126 6.17802 3.28769C6.47381 3.2441 7.28022 3.22231 7.28022 3.25967C7.28022 3.26901 7.05293 3.51498 6.77582 3.80454C6.4956 4.09721 6.2652 4.3463 6.25897 4.35875C6.24963 4.38678 6.99688 5.10912 7.03425 5.10912C7.07161 5.10912 9.47527 2.58403 9.47527 2.54355C9.47527 2.52176 8.99267 2.04539 8.40109 1.48495C7.80952 0.921394 7.23351 0.370296 7.12143 0.261322L6.91593 0.0589409L6.54542 0.454362Z" fill="#DFDFDF"/>
<path d="M6.56442 6.13338C6.56442 6.47587 6.57687 6.45408 6.34024 6.49455C6.02577 6.5506 5.61167 6.75921 5.36882 6.97715C4.9516 7.36012 4.81772 8.01708 5.04189 8.60865C5.12596 8.83906 5.41552 9.13796 5.66772 9.25939C5.91991 9.38081 6.35892 9.48979 6.82907 9.54583C7.80673 9.66726 8.18347 9.84785 8.18347 10.1935C8.18347 10.4986 7.9624 10.7041 7.53585 10.8068C7.3179 10.8566 6.87266 10.8598 6.65783 10.8068C6.27175 10.7196 5.90435 10.4768 5.7798 10.2339C5.74556 10.1654 5.71131 10.1 5.70508 10.0938C5.70197 10.0876 5.47156 10.1779 5.19757 10.2931C4.83951 10.4456 4.69629 10.5204 4.69629 10.5546C4.69629 10.5826 4.7679 10.7196 4.85197 10.8598C5.05123 11.1836 5.34391 11.4513 5.67706 11.6163C5.91991 11.7347 6.34647 11.8654 6.49281 11.8654C6.56131 11.8654 6.56131 11.8748 6.57065 12.2141L6.57999 12.566L7.1342 12.5753L7.6853 12.5815V12.211V11.8405L7.83475 11.8218C8.40453 11.7409 8.98053 11.3579 9.20471 10.9065C9.33548 10.6418 9.37595 10.4114 9.35727 10.0751C9.33237 9.62678 9.18603 9.31543 8.88401 9.06635C8.55398 8.79235 8.13053 8.66158 7.15599 8.52147C6.38383 8.40939 6.20947 8.35023 6.11295 8.1603C5.9635 7.87074 6.20013 7.57184 6.6516 7.47844C7.21515 7.36012 7.83163 7.5158 8.13053 7.84583L8.26442 7.9984L8.73768 7.78045L9.21094 7.55939L9.12376 7.40371C9.00544 7.18888 8.73145 6.8962 8.51661 6.75609C8.34537 6.64712 8.12742 6.55994 7.81918 6.47899L7.6853 6.44474V6.1365V5.82514H7.12486H6.56442V6.13338Z" fill="#DFDFDF"/>
</svg>
