<svg width="13" height="13" viewBox="0 0 13 13" fill="none" xmlns="http://www.w3.org/2000/svg">
<path fill-rule="evenodd" clip-rule="evenodd" d="M0.455612 0.455612C1.06309 -0.151871 2.04802 -0.151871 2.6555 0.455612L11.9888 9.78895C12.5963 10.3964 12.5963 11.3814 11.9888 11.9888C11.3814 12.5963 10.3964 12.5963 9.78895 11.9888L0.455612 2.6555C-0.151871 2.04802 -0.151871 1.06309 0.455612 0.455612Z" fill="#000"/>
<path fill-rule="evenodd" clip-rule="evenodd" d="M11.9888 0.455612C11.3814 -0.151871 10.3964 -0.151871 9.78896 0.455612L0.455626 9.78895C-0.151857 10.3964 -0.151857 11.3814 0.455626 11.9888C1.06311 12.5963 2.04803 12.5963 2.65551 11.9888L11.9888 2.6555C12.5963 2.04802 12.5963 1.06309 11.9888 0.455612Z" fill="#000"/>
</svg>
