<svg width="18" height="19" viewBox="0 0 18 19" fill="none" xmlns="http://www.w3.org/2000/svg">
<path fill-rule="evenodd" clip-rule="evenodd" d="M8.72754 2C7.07068 2 5.72754 3.34315 5.72754 5C5.72754 6.65685 7.07068 8 8.72754 8C10.3844 8 11.7275 6.65685 11.7275 5C11.7275 3.34315 10.3844 2 8.72754 2ZM3.72754 5C3.72754 2.23858 5.96612 0 8.72754 0C11.489 0 13.7275 2.23858 13.7275 5C13.7275 7.76142 11.489 10 8.72754 10C5.96612 10 3.72754 7.76142 3.72754 5Z" fill="#ABABAB"/>
<path fill-rule="evenodd" clip-rule="evenodd" d="M3.3588 13.3732C4.92149 12.4738 6.8082 12 8.72768 12C10.6472 12 12.5339 12.4738 14.0966 13.3732C15.6587 14.2722 16.8465 15.5702 17.3968 17.1106C17.5826 17.6307 17.3116 18.203 16.7915 18.3888C16.2714 18.5746 15.6992 18.3036 15.5134 17.7835C15.1521 16.7723 14.3312 15.8157 13.099 15.1066C11.8674 14.3978 10.3303 14 8.72768 14C7.12501 14 5.58799 14.3978 4.35638 15.1066C3.12419 15.8157 2.30324 16.7723 1.94198 17.7835C1.75617 18.3036 1.18392 18.5746 0.663833 18.3888C0.143744 18.203 -0.127243 17.6307 0.0585673 17.1106C0.6089 15.5702 1.79668 14.2721 3.3588 13.3732Z" fill="#ABABAB"/>
</svg>
