<svg width="14" height="13" viewBox="0 0 14 13" fill="none" xmlns="http://www.w3.org/2000/svg">
<path fill-rule="evenodd" clip-rule="evenodd" d="M11.8074 2.25528C10.7688 0.916618 8.68405 1.14112 7.95426 2.67021C7.57121 3.47279 6.42879 3.47279 6.04574 2.67021C5.31595 1.14112 3.23118 0.916619 2.19256 2.25528L1.98006 2.52918C1.06708 3.7059 1.1989 5.38397 2.28442 6.4037L7 10.8335L11.7156 6.4037C12.8011 5.38397 12.9329 3.7059 12.0199 2.52917L11.8074 2.25528ZM7 1.58077C8.35803 -0.412332 11.3476 -0.578632 12.8929 1.4131L13.1054 1.68699C14.4528 3.42361 14.2583 5.90012 12.6562 7.40505L7.88023 11.8916C7.87572 11.8958 7.87113 11.9002 7.86648 11.9045C7.79672 11.9701 7.71264 12.0492 7.63187 12.1114C7.53651 12.1848 7.39333 12.2776 7.19843 12.3159C7.06739 12.3416 6.93261 12.3416 6.80158 12.3159C6.60667 12.2776 6.46349 12.1848 6.36814 12.1114C6.28737 12.0492 6.20329 11.9701 6.13354 11.9045C6.12889 11.9002 6.12429 11.8958 6.11977 11.8916L1.34376 7.40505C-0.258253 5.90012 -0.452795 3.42361 0.89458 1.687L1.10709 1.4131C2.65239 -0.578629 5.64197 -0.412333 7 1.58077Z" fill="#DFDFDF"/>
</svg>
