<svg width="20" height="15" viewBox="0 0 20 15" fill="none" xmlns="http://www.w3.org/2000/svg">
<path fill-rule="evenodd" clip-rule="evenodd" d="M6.0325 2.55916e-06C6.05543 3.80951e-06 6.07845 5.05986e-06 6.10154 5.05986e-06L14.5616 2.55916e-06C15.4914 -4.97056e-05 16.2925 -9.4597e-05 16.9341 0.08616C17.6216 0.178599 18.2807 0.387057 18.8153 0.921628C19.3498 1.4562 19.5583 2.11526 19.6507 2.80281C19.737 3.44437 19.7369 4.24552 19.7369 5.17534V9.50888C19.7369 10.4387 19.737 11.2399 19.6507 11.8814C19.5583 12.569 19.3498 13.228 18.8153 13.7626C18.2807 14.2972 17.6216 14.5056 16.9341 14.5981C16.2925 14.6843 15.4914 14.6843 14.5616 14.6842H6.03249C5.10268 14.6843 4.30154 14.6843 3.65999 14.5981C2.97244 14.5056 2.31338 14.2972 1.77881 13.7626C1.24423 13.228 1.03578 12.569 0.943338 11.8814C0.857083 11.2399 0.857128 10.4387 0.85718 9.5089L0.857183 5.24437C0.857183 5.22127 0.857182 5.19826 0.85718 5.17532C0.857128 4.24551 0.857083 3.44436 0.943338 2.80281C1.03578 2.11526 1.24423 1.4562 1.77881 0.921628C2.31338 0.387057 2.97244 0.178599 3.65999 0.08616C4.30154 -9.4597e-05 5.10268 -4.97056e-05 6.0325 2.55916e-06ZM3.93951 2.1652C3.48457 2.22636 3.34198 2.32511 3.26213 2.40496C3.18229 2.4848 3.08354 2.62739 3.02238 3.08233C2.95715 3.56744 2.95493 4.22583 2.95493 5.24437V9.43986C2.95493 10.4584 2.95715 11.1168 3.02238 11.6019C3.08354 12.0568 3.18229 12.1994 3.26213 12.2793C3.34198 12.3591 3.48457 12.4579 3.93951 12.519C4.42462 12.5842 5.08301 12.5865 6.10154 12.5865H14.4925C15.5111 12.5865 16.1694 12.5842 16.6546 12.519C17.1095 12.4579 17.2521 12.3591 17.3319 12.2793C17.4118 12.1994 17.5105 12.0568 17.5717 11.6019C17.6369 11.1168 17.6391 10.4584 17.6391 9.43986V5.24437C17.6391 4.22583 17.6369 3.56744 17.5717 3.08233C17.5105 2.62739 17.4118 2.4848 17.3319 2.40496C17.2521 2.32511 17.1095 2.22636 16.6546 2.1652C16.1694 2.09998 15.5111 2.09775 14.4925 2.09775H6.10154C5.08301 2.09775 4.42462 2.09998 3.93951 2.1652Z" fill="#898989"/>
<path fill-rule="evenodd" clip-rule="evenodd" d="M8.88973 8.86005L1.43689 5.13363L2.37503 3.25735L9.82787 6.98377C10.1232 7.13142 10.4707 7.13142 10.766 6.98377L18.2188 3.25735L19.157 5.13363L11.7041 8.86005C10.8183 9.30298 9.77559 9.30298 8.88973 8.86005Z" fill="#898989"/>
</svg>
