<svg width="22" height="23" viewBox="0 0 22 23" fill="none" xmlns="http://www.w3.org/2000/svg">
<path d="M22 11.4739C22 10.551 21.9251 9.87754 21.763 9.17914H11.2245V13.3446H17.4104C17.2857 14.3798 16.6122 15.9388 15.1156 16.9863L15.0946 17.1258L18.4267 19.7071L18.6576 19.7302C20.7777 17.7721 22 14.8911 22 11.4739Z" fill="#4285F4"/>
<path d="M11.2247 22.4489C14.2553 22.4489 16.7995 21.4511 18.6578 19.7301L15.1159 16.9863C14.168 17.6473 12.8959 18.1087 11.2247 18.1087C8.25651 18.1087 5.73726 16.1507 4.83921 13.4444L4.70758 13.4556L1.24282 16.137L1.19751 16.2629C3.0433 19.9296 6.83469 22.4489 11.2247 22.4489Z" fill="#34A853"/>
<path d="M4.83895 13.4444C4.602 12.746 4.46486 11.9977 4.46486 11.2245C4.46486 10.4512 4.602 9.70292 4.82649 9.00452L4.82021 8.85577L1.31203 6.13129L1.19725 6.18588C0.436513 7.70744 0 9.41609 0 11.2245C0 13.0329 0.436513 14.7414 1.19725 16.263L4.83895 13.4444Z" fill="#FBBC05"/>
<path d="M11.2247 4.34011C13.3324 4.34011 14.7542 5.25053 15.5649 6.01136L18.7326 2.91837C16.7871 1.10998 14.2553 0 11.2247 0C6.83469 0 3.0433 2.51926 1.19751 6.18589L4.82675 9.00453C5.73726 6.29818 8.25651 4.34011 11.2247 4.34011Z" fill="#EB4335"/>
</svg>
