<svg width="20" height="18" viewBox="0 0 20 18" fill="none" xmlns="http://www.w3.org/2000/svg">
<path fill-rule="evenodd" clip-rule="evenodd" d="M18.0635 17.4142L2.06348 1.41421L3.47769 0L19.4777 16L18.0635 17.4142Z" fill="#898989"/>
<path fill-rule="evenodd" clip-rule="evenodd" d="M14.2894 16.3476L12.8201 14.8783C11.8479 15.3876 10.818 15.7071 9.77027 15.7071C8.24447 15.7071 6.75643 15.0295 5.42941 14.0748C4.11029 13.1257 3.03435 11.9629 2.35413 11.137C2.25436 11.0159 2.17984 10.9253 2.11811 10.8456C2.06925 10.7825 2.03813 10.7386 2.01782 10.7071C2.03813 10.6756 2.06925 10.6317 2.11811 10.5686C2.17984 10.4889 2.25436 10.3983 2.35413 10.2771C3.01954 9.46926 4.06361 8.33896 5.34358 7.40172L3.91485 5.973C2.56669 7.00325 1.49273 8.17714 0.810358 9.00562C0.786772 9.03425 0.762187 9.0637 0.736886 9.09401L0.736869 9.09403C0.423445 9.46945 0 9.97666 0 10.7071C0 11.4375 0.423444 11.9447 0.736868 12.3202L0.737087 12.3204C0.762317 12.3506 0.786833 12.38 0.810357 12.4086C1.55022 13.3068 2.75044 14.6112 4.26138 15.6982C5.76442 16.7796 7.66034 17.7071 9.77027 17.7071C11.4403 17.7071 12.9762 17.1261 14.2894 16.3476ZM6.57709 4.3926C7.56088 3.97581 8.63458 3.70709 9.77027 3.70709C11.8802 3.70709 13.7761 4.63456 15.2792 5.71594C16.7901 6.80299 17.9903 8.10734 18.7302 9.00562C18.7538 9.03425 18.7783 9.06368 18.8036 9.09398L18.8037 9.09403C19.1171 9.46945 19.5406 9.97666 19.5406 10.7071C19.5406 11.4375 19.1171 11.9447 18.8037 12.3202C18.7784 12.3505 18.7538 12.3799 18.7302 12.4086C18.2435 12.9994 17.5577 13.766 16.7153 14.5308L15.2992 13.1148C16.0791 12.4151 16.7242 11.6983 17.1864 11.137C17.2862 11.0159 17.3607 10.9253 17.4224 10.8456C17.4713 10.7825 17.5024 10.7386 17.5227 10.7071C17.5024 10.6756 17.4713 10.6317 17.4224 10.5686C17.3607 10.4889 17.2862 10.3983 17.1864 10.2771C16.5062 9.45127 15.4303 8.28848 14.1111 7.33942C12.7841 6.38469 11.2961 5.70709 9.77027 5.70709C9.21927 5.70709 8.67318 5.79546 8.13783 5.95333L6.57709 4.3926Z" fill="#898989"/>
<path fill-rule="evenodd" clip-rule="evenodd" d="M13.6907 11.5059C13.743 11.2478 13.7705 10.9806 13.7705 10.7071C13.7705 8.49795 11.9796 6.70709 9.77051 6.70709C9.49695 6.70709 9.22981 6.73455 8.97169 6.78687L13.6907 11.5059ZM6.43727 8.49508C6.01598 9.12865 5.77051 9.8892 5.77051 10.7071C5.77051 12.9162 7.56137 14.7071 9.77051 14.7071C10.5884 14.7071 11.349 14.4616 11.9825 14.0403L10.5087 12.5665C10.2803 12.6572 10.0312 12.7071 9.77051 12.7071C8.66594 12.7071 7.77051 11.8117 7.77051 10.7071C7.77051 10.4464 7.82039 10.1973 7.91113 9.96895L6.43727 8.49508Z" fill="#898989"/>
</svg>
