<svg width="91" height="90" viewBox="0 0 91 90" fill="none" xmlns="http://www.w3.org/2000/svg">
<rect x="47.7444" y="41.4829" width="21.9361" height="21.9361" rx="2" fill="#FCCA19"/>
<rect y="5.35303" width="42.5818" height="42.5818" rx="2" fill="#FCCA19"/>
<path d="M78.1614 0.298801C78.4424 0.544682 78.9693 2.24829 80.4798 7.88602C81.674 12.3646 82.3766 15.3152 82.3239 15.5611C82.0956 16.4743 80.5324 16.7202 80.0231 15.9123C79.9002 15.7191 79.1801 13.2954 78.46 10.538C77.7224 7.79821 77.0725 5.51501 77.0374 5.46233C76.9847 5.4272 76.8442 5.65552 76.7037 5.98922C76.5632 6.32291 73.0155 14.3141 68.8179 23.7454C62.583 37.7607 61.2307 40.922 61.4766 40.9923C63.3207 41.5543 88.1372 47.5433 88.225 47.4555C88.2953 47.3852 86.7673 41.4841 84.8529 34.3359C82.921 27.1878 81.3403 21.1812 81.3403 20.9705C81.3403 19.9342 83.0088 19.4952 83.6411 20.3733C83.9572 20.8124 91 46.7354 91 47.473C91 47.6838 90.8244 48.2283 90.6136 48.6498C90.1745 49.4928 89.0505 50.2304 88.1899 50.2304C87.944 50.2129 83.483 49.1591 78.2668 47.877L68.7828 45.5235L61.9157 49.7211C55.0485 53.9011 54.4689 54.1997 53.7664 53.743C53.6259 53.6552 51.9574 50.1953 50.0782 46.068L46.6534 38.551L44.8971 38.0944C43.9311 37.8485 42.9125 37.5851 42.649 37.5148C42.3329 37.4446 42.0695 37.1987 41.8938 36.8123C41.6304 36.2854 41.6304 36.1976 41.8938 35.6883C42.0519 35.3721 42.368 35.0911 42.6139 35.0209C42.8598 34.9682 43.9311 35.1262 45.0727 35.4073C46.829 35.8463 47.1276 35.8639 47.3384 35.6531C47.5842 35.3897 71.3997 6.44585 71.7509 5.97165C71.8563 5.84871 71.4348 6.00678 70.8025 6.35804C69.6258 7.00787 54.5743 15.1747 36.8181 24.7992C31.3033 27.7849 26.7018 30.3491 26.5613 30.472C26.2803 30.7531 25.6832 30.5599 32.6908 32.3162C35.4482 33.0011 37.8368 33.7036 37.9948 33.8441C38.4163 34.2305 38.4163 35.337 37.9948 35.7058C37.8192 35.8815 37.3977 36.0044 37.064 36.0044C36.0805 35.9868 25.49 33.2646 24.9806 32.8782C23.3122 31.6312 23.5053 29.1373 25.367 28.0484C26.1047 27.6093 65.9376 5.98922 73.1735 2.09023C75.2987 0.931068 77.1955 0.000228882 77.4062 0.000228882C77.617 0.000228882 77.9507 0.140732 78.1614 0.298801ZM60.3525 23.9737C54.2933 31.3151 49.3054 37.4094 49.2527 37.5148C49.1825 37.708 54.1528 48.8956 54.4514 49.2118C54.5216 49.2996 58.4382 40.641 63.1626 29.9803C67.8695 19.3371 71.8036 10.4678 71.909 10.2746L72.0671 9.92333L71.7158 10.2746C71.5226 10.4678 66.3942 16.6324 60.3525 23.9737ZM58.8246 46.2612C58.1572 47.7716 57.6303 49.0537 57.6654 49.1064C57.7181 49.1415 59.3866 48.1756 61.3712 46.9462C63.3734 45.7343 64.9716 44.6981 64.9365 44.6454C64.8135 44.54 60.3877 43.416 60.212 43.4511C60.1242 43.4687 59.5095 44.7332 58.8246 46.2612Z" fill="#2C2C2C"/>
<path d="M31.3741 39.4296C31.9888 40.0267 31.9186 40.5185 31.1107 41.7655C29.3544 44.4877 26.7726 46.4372 23.6464 47.4032C22.6804 47.7018 22.3292 47.7369 21.9603 47.5964C21.5037 47.4032 21.0997 46.7885 21.0997 46.2792C21.0997 45.7698 21.9252 45.1727 23.1195 44.8039C25.3851 44.0838 27.4224 42.5382 28.7396 40.5712C29.8637 38.8676 30.5486 38.5866 31.3741 39.4296Z" fill="#2C2C2C"/>
<path d="M36.9056 42.2047C37.9593 42.7315 37.731 44.1893 36.2557 46.4022C35.3073 47.8424 34.0077 49.0191 32.5675 49.7216C31.584 50.2134 31.4435 50.2485 31.0044 50.0202C30.7234 49.8973 30.4248 49.5811 30.337 49.3352C30.056 48.5098 30.3194 48.0356 31.4083 47.4209C32.7958 46.6305 33.9725 45.3484 34.7278 43.8205C35.3073 42.6086 35.8342 41.9763 36.2909 41.9763C36.3787 41.9763 36.6597 42.0817 36.9056 42.2047Z" fill="#2C2C2C"/>
<path d="M72.7518 52.8829C73.0855 53.2166 73.1207 53.3571 72.9802 54.165C72.8923 54.6567 72.8221 55.851 72.8221 56.817C72.8221 58.3625 72.8748 58.6962 73.3139 59.6095C73.9286 60.9267 73.9286 61.5063 73.3314 61.9805C72.102 62.9465 71.1185 61.9981 70.3633 59.0826C69.8539 57.1155 70.1701 53.6732 70.9253 52.8302C71.3117 52.3911 72.2952 52.4262 72.7518 52.8829Z" fill="#2C2C2C"/>
<path d="M79.1622 53.7952C79.6013 54.1816 79.6189 54.2694 79.6013 55.8677C79.5486 58.5197 80.3214 60.8731 81.9372 63.1387C82.6924 64.1925 82.7451 64.8248 82.1128 65.3165C81.1995 66.0366 80.5146 65.7205 79.3905 64.0696C77.7221 61.6108 77.0722 59.4856 77.0547 56.4121C77.0371 54.2519 77.0371 54.2343 77.5289 53.8128C78.1436 53.2859 78.5651 53.2859 79.1622 53.7952Z" fill="#2C2C2C"/>
<path d="M51.2721 57.0799C51.7814 57.5541 51.7639 58.2039 51.2194 59.8373C50.6047 61.6638 49.3929 64.0348 48.0932 65.9316C46.7408 67.9163 43.8254 70.8668 41.7705 72.307C38.9077 74.3268 35.1141 76.0128 32.023 76.6451C31.3029 76.7856 30.6882 76.9436 30.6356 76.9788C30.6004 77.0315 30.4775 77.611 30.3897 78.2609C30.0033 81.1061 29.1076 83.319 27.5972 85.1983C25.8233 87.4112 23.5401 88.9216 20.9935 89.5714C19.2372 90.0281 18.4644 90.0105 17.8672 89.5539C16.8837 88.7811 17.5511 87.2883 18.8859 87.2883C19.7289 87.2883 21.415 86.8141 22.3985 86.2696C23.8562 85.4968 25.9111 83.3366 26.6312 81.8262C27.3161 80.3684 27.7728 78.7526 27.7728 77.7867V77.1544L25.7882 77.049C22.3282 76.8734 19.6235 75.8021 17.674 73.8526C14.5478 70.7088 14.3195 66.4761 17.1296 63.6484C18.4117 62.3663 19.5006 61.9273 21.3272 61.9448C25.314 61.9975 29.1251 66.7395 30.2316 73.0095C30.4951 74.4673 30.2316 74.3794 32.6553 73.7472C38.012 72.3421 43.0526 68.7242 46.1261 64.1226C47.3555 62.2785 48.2161 60.5222 48.8484 58.5903C49.0592 57.9229 49.3929 57.2379 49.5685 57.0623C50.0076 56.6232 50.7979 56.6408 51.2721 57.0799ZM20.3612 64.632C18.1483 65.2467 17.1647 68.1095 18.359 70.4102C19.3601 72.3421 21.292 73.6418 23.944 74.1863C25.4369 74.5024 27.7728 74.5551 27.7728 74.3092C27.7728 73.7823 27.1932 71.5167 26.7366 70.2521C25.472 66.8098 23.6806 64.9832 21.0988 64.4739C21.0461 64.4739 20.7125 64.5442 20.3612 64.632Z" fill="#2C2C2C"/>
</svg>
