<svg width="26" height="23" viewBox="0 0 26 23" fill="none" xmlns="http://www.w3.org/2000/svg">
<path fill-rule="evenodd" clip-rule="evenodd" d="M21.9281 4.20517C19.9992 1.70912 16.1275 2.12772 14.7722 4.97886C14.0608 6.47533 11.9392 6.47533 11.2278 4.97886C9.87248 2.12773 6.00076 1.70912 4.0719 4.20517L3.67725 4.71588C1.98172 6.90999 2.22653 10.0389 4.2425 11.9403L13 20.2L21.7575 11.9403C23.7735 10.0389 24.0183 6.90999 22.3228 4.71588L21.9281 4.20517ZM13 2.94748C15.522 -0.768831 21.0741 -1.07891 23.944 2.63485L24.3386 3.14555C26.8409 6.38364 26.4796 11.0013 23.5044 13.8074L14.6347 22.173C14.6263 22.1809 14.6178 22.1889 14.6092 22.1971C14.4796 22.3194 14.3235 22.4668 14.1735 22.5828C13.9964 22.7197 13.7305 22.8927 13.3685 22.964C13.1252 23.012 12.8748 23.012 12.6315 22.964C12.2695 22.8927 12.0036 22.7197 11.8265 22.5828C11.6766 22.4668 11.5204 22.3194 11.3909 22.1971C11.3822 22.1889 11.3737 22.1809 11.3653 22.173L2.49556 13.8074C-0.479612 11.0013 -0.840906 6.38364 1.66136 3.14556L2.05602 2.63485C4.92587 -1.07891 10.478 -0.768832 13 2.94748Z" fill="#2C2C2C"/>
</svg>
