<svg width="25" height="25" viewBox="0 0 25 25" fill="none" xmlns="http://www.w3.org/2000/svg">
<path d="M12.282 1.0564C11.8925 1.27131 12.0581 1.88916 12.5014 1.88916C12.7297 1.88916 12.9491 1.66978 12.9491 1.44592C12.9491 1.11013 12.5775 0.890746 12.282 1.0564Z" fill="#2C2C2C"/>
<path d="M9.79713 1.44145C7.66599 2.13989 5.8572 3.72929 4.86774 5.76194C3.98574 7.5752 3.76636 9.63471 4.25437 11.5599C4.63493 13.0463 5.31099 14.2776 6.36313 15.3745C6.58699 15.6073 6.77055 15.8132 6.77055 15.8267C6.77055 15.8401 6.15718 16.9325 5.40501 18.2578C4.65284 19.583 4.03946 20.7158 4.03946 20.774C4.03946 20.9396 4.16035 21.1232 4.3081 21.1859C4.43793 21.2396 4.60359 21.2127 6.03629 20.9172C6.90934 20.7381 7.63017 20.5994 7.63913 20.6083C7.64808 20.6173 7.88985 21.2799 8.17191 22.0813C8.78081 23.805 8.76738 23.7737 8.92408 23.8543C9.12555 23.9573 9.2733 23.9304 9.43 23.7692C9.50611 23.6931 10.2269 22.4708 11.0239 21.065C11.8253 19.6547 12.4879 18.4996 12.5014 18.4996C12.5148 18.4996 13.1774 19.6547 13.9788 21.065C14.7758 22.4708 15.4966 23.6931 15.5727 23.7737C15.7294 23.9304 15.8772 23.9573 16.0786 23.8543C16.2353 23.7737 16.2219 23.805 16.8308 22.0813C17.1129 21.2799 17.3546 20.6173 17.3636 20.6083C17.3725 20.5994 18.0934 20.7381 18.9664 20.9172C20.3991 21.2127 20.5648 21.2396 20.6946 21.1859C20.8424 21.1232 20.9632 20.9396 20.9632 20.7695C20.9632 20.7113 20.3499 19.583 19.5977 18.2578C18.8455 16.937 18.2322 15.8401 18.2322 15.8222C18.2322 15.8043 18.3351 15.6879 18.4605 15.567C19.8126 14.2552 20.717 12.4016 20.9409 10.4854C21.3662 6.88124 19.4679 3.42484 16.195 1.84439C15.5996 1.55786 14.74 1.26236 14.4892 1.26236C14.1355 1.26236 13.9206 1.73694 14.1713 1.97871C14.2296 2.03244 14.525 2.16228 14.8519 2.26973C16.4323 2.78908 17.7262 3.73377 18.7023 5.09036C19.056 5.57837 19.5664 6.5947 19.7454 7.17225C20.4484 9.4019 20.1081 11.8241 18.8231 13.7313C17.5606 15.6073 15.5503 16.8206 13.2983 17.0624C10.1732 17.4026 7.11529 15.7282 5.69602 12.9031C4.81402 11.148 4.65732 9.07954 5.25726 7.17225C5.43635 6.5947 5.94227 5.58285 6.3094 5.06797C6.69892 4.52176 7.52272 3.69795 8.06894 3.30844C8.59724 2.93683 9.60013 2.43538 10.1956 2.24734C10.7508 2.07721 10.8224 2.04139 10.8851 1.9026C10.9746 1.71008 10.9433 1.53547 10.8045 1.3922C10.6254 1.21759 10.4553 1.22206 9.79713 1.44145ZM7.89433 16.646C8.87483 17.2907 10.3299 17.819 11.4626 17.9444C11.6149 17.9623 11.7358 17.9892 11.7313 18.0071C11.6776 18.1279 9.25539 22.3499 9.23748 22.3499C9.22405 22.3499 9.06287 21.9201 8.87931 21.3963C8.31518 19.7845 8.30175 19.7576 8.13162 19.6726C7.98387 19.6054 7.9391 19.6099 6.69444 19.8741C5.98256 20.0218 5.40053 20.1382 5.39158 20.1293C5.37367 20.1158 7.47795 16.3953 7.50481 16.3953C7.50929 16.3953 7.6839 16.5072 7.89433 16.646ZM18.5859 18.2846C19.1545 19.2875 19.6201 20.1158 19.6201 20.1248C19.6201 20.1337 19.0336 20.0173 18.3217 19.8696C17.0636 19.6099 17.0188 19.6054 16.8711 19.6726C16.701 19.7576 16.6875 19.7845 16.1234 21.3963C15.9398 21.9201 15.7787 22.3499 15.7652 22.3499C15.7473 22.3499 13.3207 18.1279 13.2714 18.0071C13.267 17.9892 13.3878 17.9623 13.5401 17.9444C14.6683 17.819 16.0249 17.331 17.0681 16.6729C17.3009 16.5251 17.5069 16.4177 17.5248 16.4311C17.5382 16.449 18.0173 17.2818 18.5859 18.2846Z" fill="#2C2C2C"/>
<path d="M11.6954 2.82949C10.0075 3.06231 8.58378 3.81895 7.45105 5.09495C6.69441 5.93666 6.17058 6.99776 5.91538 8.20212C5.76763 8.87818 5.76763 10.1228 5.91538 10.7989C6.23773 12.3032 6.92722 13.4986 8.0689 14.5284C8.91509 15.294 9.9941 15.8313 11.2029 16.0865C11.879 16.2342 13.1237 16.2342 13.7997 16.0865C16.5129 15.5089 18.5097 13.5121 19.0873 10.7989C19.1723 10.4094 19.1902 10.19 19.1902 9.50051C19.1902 8.81102 19.1723 8.59164 19.0873 8.20212C18.5097 5.49342 16.5039 3.48316 13.8221 2.91904C13.3117 2.81159 12.17 2.76234 11.6954 2.82949ZM13.7102 3.81C14.8653 4.07415 15.7428 4.55321 16.58 5.38149C17.4397 6.22768 17.9545 7.17685 18.2142 8.38121C18.3261 8.90952 18.3306 10.087 18.2142 10.6109C17.9545 11.8197 17.4352 12.7733 16.58 13.6195C15.7294 14.4657 14.8116 14.9582 13.6206 15.2134C13.0923 15.3253 11.9148 15.3298 11.391 15.2134C10.1821 14.9537 9.2285 14.4344 8.38231 13.5792C7.53612 12.7241 7.0481 11.8152 6.78843 10.6198C6.67202 10.087 6.67202 8.914 6.78843 8.38569C7.0481 7.18132 7.53164 6.28141 8.38231 5.42179C9.30461 4.48606 10.4552 3.9085 11.7447 3.72493C12.1879 3.66225 13.2669 3.70702 13.7102 3.81Z" fill="#2C2C2C"/>
<path d="M12.2864 5.21558C12.2103 5.2514 12.0178 5.58719 11.6014 6.41995C11.2836 7.05571 11.0194 7.57506 11.0104 7.57506C10.5314 7.62431 8.45398 7.98248 8.40025 8.02726C8.28832 8.1168 8.20325 8.34961 8.23459 8.47498C8.24802 8.53318 8.66888 8.99433 9.1748 9.50473L10.0881 10.4226L9.8822 11.6493C9.77027 12.3209 9.68968 12.9298 9.70311 12.9969C9.71654 13.0596 9.77922 13.1626 9.8419 13.2208C10.0523 13.4178 10.1866 13.373 11.3686 12.7552C11.9641 12.4418 12.4745 12.1866 12.5058 12.1866C12.5327 12.1866 13.0431 12.4418 13.6386 12.7552C14.8161 13.3775 14.9504 13.4178 15.1608 13.2208C15.2235 13.1626 15.2862 13.0641 15.2996 12.9969C15.313 12.9343 15.2324 12.3254 15.1205 11.6493L14.9146 10.4226L15.8413 9.49577C16.6786 8.65854 16.7636 8.56004 16.7681 8.41677C16.7726 8.23321 16.6607 8.03621 16.5129 7.97801C16.4592 7.9601 15.9219 7.86608 15.3175 7.78101C14.7176 7.69147 14.1669 7.6064 14.0997 7.59297C13.9878 7.57058 13.9206 7.45418 13.4013 6.41547C12.9401 5.50212 12.8013 5.25588 12.7073 5.2111C12.5596 5.14395 12.4252 5.14842 12.2864 5.21558ZM12.9356 7.46313C13.1864 7.95562 13.3923 8.3138 13.4505 8.35409C13.5087 8.38991 13.9161 8.4705 14.3594 8.53766C14.8026 8.60034 15.2145 8.66749 15.2683 8.6854C15.3668 8.71674 15.3175 8.77495 14.7041 9.37041C14.328 9.73307 14.0191 10.0689 14.0012 10.1315C13.9878 10.1897 14.0415 10.6464 14.1266 11.1479C14.2116 11.6448 14.2698 12.0522 14.2564 12.0522C14.2475 12.0522 13.8669 11.8597 13.4147 11.6269C12.958 11.3941 12.5506 11.2016 12.5058 11.2016C12.4611 11.2016 12.0492 11.3941 11.5925 11.6269C11.1403 11.8597 10.7553 12.0522 10.7463 12.0522C10.7329 12.0522 10.7911 11.6448 10.8761 11.1479C10.9612 10.6464 11.0149 10.1897 11.0015 10.1271C10.9836 10.0644 10.6836 9.73754 10.2941 9.36146C9.627 8.71674 9.61804 8.70331 9.74788 8.68093C9.82399 8.66302 10.2359 8.60034 10.6657 8.53318C11.0955 8.4705 11.494 8.38991 11.5522 8.35409C11.6104 8.3138 11.8163 7.9601 12.0671 7.46313C12.2909 7.00646 12.4879 6.63485 12.5014 6.63485C12.5148 6.63485 12.7118 7.00646 12.9356 7.46313Z" fill="#2C2C2C"/>
</svg>
