<svg width="24" height="25" viewBox="0 0 24 25" fill="none" xmlns="http://www.w3.org/2000/svg">
<path d="M11.8197 2.02244C11.4098 2.10455 11.2009 2.25646 10.4048 3.04884C9.9042 3.54562 9.59283 3.8248 9.4943 3.86175C9.35635 3.91512 9.26175 3.90691 8.44195 3.79196C7.94533 3.71806 7.42113 3.65647 7.27924 3.65647C6.68803 3.64826 6.152 3.94386 5.82093 4.45296C5.62386 4.76499 5.5805 4.91689 5.39132 6.05004C5.30461 6.56735 5.20607 7.0436 5.17454 7.11339C5.09966 7.25709 4.99718 7.32688 4.1892 7.76618C3.08955 8.3656 2.90036 8.52161 2.67176 9.01839C2.54564 9.29757 2.51017 9.49464 2.50623 9.86825C2.50623 10.2131 2.56535 10.3856 3.05408 11.4284C3.37333 12.114 3.47186 12.3604 3.47186 12.4876C3.47186 12.6149 3.37333 12.8612 3.05408 13.5469C2.56535 14.5897 2.50623 14.7621 2.50623 15.107C2.51017 15.4806 2.54564 15.6777 2.67176 15.9569C2.90036 16.4536 3.08955 16.6097 4.1892 17.2091C4.99718 17.6484 5.09966 17.7182 5.17454 17.8619C5.20607 17.9317 5.30461 18.4079 5.39132 18.9293C5.47803 19.4466 5.57656 19.9557 5.60415 20.0584C5.81699 20.7974 6.47914 21.3106 7.22406 21.3188C7.37777 21.3229 7.9138 21.2613 8.42224 21.1874C9.26175 21.0683 9.35635 21.0601 9.4943 21.1135C9.59283 21.1505 9.9042 21.4296 10.4048 21.9264C11.0078 22.5299 11.2127 22.7065 11.4098 22.8009C11.7448 22.9651 12.0996 23.0226 12.4306 22.9651C12.9233 22.8789 13.1046 22.7557 13.9362 21.9264C14.4368 21.4296 14.7482 21.1505 14.8467 21.1135C14.9846 21.0601 15.0792 21.0683 15.899 21.1833C16.3957 21.2572 16.9199 21.3188 17.0618 21.3188C17.653 21.327 18.189 21.0314 18.5201 20.5223C18.7171 20.2103 18.7605 20.0584 18.9497 18.9252C19.0364 18.4079 19.1349 17.9317 19.1664 17.8619C19.2413 17.7141 19.328 17.6566 20.2543 17.1516C21.1293 16.6712 21.3224 16.5275 21.5313 16.1991C21.7402 15.8789 21.8308 15.575 21.8348 15.1727C21.8348 14.7539 21.7954 14.6349 21.2869 13.5469C20.9677 12.8612 20.8691 12.6149 20.8691 12.4876C20.8691 12.3604 20.9677 12.114 21.2869 11.4284C21.7954 10.3404 21.8348 10.2213 21.8348 9.80256C21.8308 9.40021 21.7402 9.0964 21.5313 8.77616C21.3224 8.44771 21.1293 8.30402 20.2543 7.82366C19.328 7.31867 19.2413 7.26119 19.1664 7.11339C19.1349 7.0436 19.0364 6.56735 18.9497 6.05004C18.7605 4.91689 18.7171 4.76499 18.5201 4.45296C18.189 3.94386 17.653 3.64826 17.0618 3.65647C16.9199 3.65647 16.3957 3.71806 15.899 3.79196C15.0792 3.90691 14.9846 3.91512 14.8467 3.86175C14.7482 3.8248 14.4368 3.54562 13.9362 3.04884C13.3411 2.45764 13.1243 2.26878 12.9391 2.17846C12.5607 1.9937 12.206 1.94444 11.8197 2.02244ZM12.4661 3.28697C12.5331 3.33213 12.9075 3.68932 13.3056 4.08346C14.0939 4.87584 14.3028 5.01953 14.7679 5.09343C15.0359 5.1386 15.1265 5.13038 16.3365 4.94974C16.7543 4.88815 17.1169 4.8512 17.1958 4.86763C17.3613 4.90047 17.5426 5.05648 17.6017 5.20839C17.6254 5.27408 17.72 5.75854 17.8106 6.28817C17.984 7.33099 18.0471 7.54859 18.2639 7.87703C18.457 8.17264 18.6383 8.29991 19.6039 8.83364C20.0572 9.08819 20.4592 9.32221 20.5026 9.35916C20.6011 9.44948 20.6839 9.66297 20.6839 9.82309C20.6839 9.9052 20.5144 10.3117 20.2306 10.9234C19.7616 11.9334 19.6985 12.114 19.6985 12.4876C19.6985 12.8612 19.7616 13.0419 20.2306 14.0519C20.5144 14.6636 20.6839 15.0701 20.6839 15.1522C20.6839 15.3123 20.6011 15.5258 20.5026 15.6161C20.4592 15.653 20.0572 15.8871 19.6039 16.1416C18.6383 16.6753 18.457 16.8026 18.2639 17.0982C18.0471 17.4267 17.984 17.6443 17.8106 18.6871C17.72 19.2167 17.6254 19.7012 17.6017 19.7669C17.5426 19.9188 17.3613 20.0748 17.1958 20.1076C17.1169 20.1241 16.7543 20.0871 16.3365 20.0255C15.1265 19.8449 15.0359 19.8367 14.7679 19.8818C14.3028 19.9557 14.0939 20.0994 13.3056 20.8918C12.9075 21.2859 12.5331 21.6431 12.4661 21.6883C12.3321 21.7786 12.0404 21.7909 11.9064 21.7129C11.8591 21.6842 11.5005 21.3434 11.1063 20.9534C10.3417 20.1938 10.184 20.0707 9.84508 19.9475C9.52977 19.8367 9.15928 19.849 8.16211 20.0009C7.63396 20.0789 7.228 20.1241 7.14523 20.1076C6.97969 20.0748 6.79839 19.9188 6.73927 19.7669C6.71562 19.7012 6.62103 19.2167 6.53038 18.6871C6.35696 17.6443 6.29389 17.4267 6.07712 17.0982C5.88399 16.8026 5.70269 16.6753 4.73705 16.1416C4.28379 15.8871 3.88177 15.653 3.83841 15.6161C3.73988 15.5258 3.65711 15.3123 3.65711 15.1522C3.65711 15.0701 3.82659 14.6636 4.11037 14.0519C4.57939 13.0419 4.64245 12.8612 4.64245 12.4876C4.64245 12.114 4.57939 11.9334 4.11037 10.9234C3.82659 10.3117 3.65711 9.9052 3.65711 9.82309C3.65711 9.66297 3.73988 9.44948 3.83841 9.35916C3.88177 9.32221 4.28379 9.08819 4.73705 8.83364C5.70269 8.29991 5.88399 8.17264 6.07712 7.87703C6.29389 7.54859 6.35696 7.33099 6.53038 6.28817C6.62103 5.75854 6.71562 5.27408 6.73927 5.20839C6.79839 5.05648 6.97969 4.90047 7.14523 4.86763C7.22406 4.8512 7.58667 4.88815 8.00445 4.94974C9.21446 5.13038 9.30511 5.1386 9.57312 5.09343C10.0382 5.01953 10.2471 4.87584 11.0354 4.08346C11.4335 3.68932 11.8118 3.33213 11.8749 3.28697C11.9458 3.24181 12.0641 3.20896 12.1705 3.20896C12.2769 3.20896 12.3952 3.24181 12.4661 3.28697Z" fill="#2C2C2C"/>
<path d="M9.39182 7.08877C8.41436 7.31458 7.71674 8.22192 7.71674 9.25653C7.72068 10.2378 8.35918 11.1082 9.28935 11.3956C9.5613 11.4777 10.0737 11.4818 10.3693 11.3997C11.1497 11.1903 11.7842 10.4841 11.938 9.66299C12.2217 8.1316 10.8541 6.74801 9.39182 7.08877ZM10.3417 8.40257C10.862 8.73923 10.9605 9.48234 10.5427 9.93396C10.1565 10.3527 9.55342 10.3609 9.15928 9.95859C8.91097 9.69994 8.81244 9.20726 8.94645 8.87471C9.17505 8.31224 9.84902 8.08643 10.3417 8.40257Z" fill="#2C2C2C"/>
<path d="M15.7768 7.93452C15.6546 8.00431 7.87826 16.1088 7.81126 16.2319C7.68119 16.4865 7.78761 16.8437 8.03986 17.0038C8.18175 17.0941 8.42217 17.1105 8.55618 17.0408C8.67836 16.9751 16.4587 8.87881 16.5296 8.74332C16.6597 8.48878 16.5532 8.13159 16.301 7.97147C16.1591 7.88115 15.9029 7.86472 15.7768 7.93452Z" fill="#2C2C2C"/>
<path d="M13.9559 13.5759C13.1873 13.7935 12.5567 14.4996 12.403 15.3125C12.3084 15.8216 12.4306 16.4744 12.6986 16.9014C13.0376 17.4351 13.6051 17.8211 14.1924 17.9155C15.4576 18.1167 16.6282 17.0615 16.6242 15.719C16.6203 14.7378 15.9818 13.8674 15.0516 13.58C14.7875 13.4979 14.2397 13.4979 13.9559 13.5759ZM14.9255 14.8281C15.2566 15.0005 15.4576 15.3454 15.4536 15.7313C15.4458 16.3225 15.0043 16.7454 14.4328 16.7085C13.6288 16.6551 13.2425 15.6451 13.7983 15.0416C14.0978 14.7131 14.5511 14.6269 14.9255 14.8281Z" fill="#2C2C2C"/>
</svg>
