<svg width="25" height="25" viewBox="0 0 25 25" fill="none" xmlns="http://www.w3.org/2000/svg">
<path d="M6.50643 4.03555C5.88763 4.10638 5.30983 4.39341 4.85133 4.84819C4.37791 5.32161 4.11324 5.87331 4.03496 6.55175C3.99023 6.96925 3.9865 8.93375 4.03496 9.38107C4.10579 10.0707 4.35927 10.5926 4.87369 11.0995C5.16445 11.3903 5.26883 11.4686 5.56705 11.6102C6.22685 11.9308 6.06656 11.9159 8.97416 11.9159C11.4307 11.9159 11.55 11.9122 11.6506 11.8451C11.7066 11.8078 11.7923 11.7221 11.837 11.6587L11.919 11.5431V8.97103C11.919 6.06342 11.934 6.22371 11.6134 5.56391C11.4717 5.26197 11.3972 5.16132 11.1027 4.87429C10.5808 4.35241 10.0925 4.11383 9.37303 4.03183C8.98907 3.98709 6.89038 3.99082 6.50643 4.03555ZM9.59296 5.22469C10.0589 5.36634 10.4019 5.66083 10.6255 6.11561L10.7635 6.39519L10.7746 8.58707L10.7858 10.7827L8.59021 10.7715L6.39832 10.7603L6.11874 10.6224C5.66397 10.3987 5.36948 10.0558 5.22782 9.58982C5.16073 9.37362 5.15327 9.23942 5.15327 7.96455C5.15327 6.44365 5.16445 6.343 5.38812 5.95905C5.49622 5.77639 5.8429 5.4409 6.02555 5.3477C6.37596 5.16505 6.46915 5.15386 7.95277 5.15386C9.24628 5.15014 9.37675 5.15759 9.59296 5.22469Z" fill="#2C2C2C"/>
<path d="M15.5649 4.03193C14.6329 4.13258 13.7905 4.72156 13.3692 5.57893C13.0636 6.20518 13.0748 6.06726 13.0748 8.97859C13.0748 11.5246 13.0748 11.5582 13.153 11.6588C13.194 11.7147 13.2761 11.7967 13.332 11.8377C13.4326 11.916 13.4662 11.916 16.0122 11.916H18.5918L18.8862 11.8303C19.3932 11.6849 19.7399 11.4761 20.1201 11.0959C20.6383 10.5778 20.8768 10.0894 20.9588 9.37C21.0073 8.94504 21.0073 6.97682 20.9588 6.55186C20.9104 6.13808 20.7762 5.73176 20.5786 5.39254C20.396 5.07942 19.9076 4.58736 19.6057 4.40843C19.3037 4.2295 18.8303 4.07667 18.4426 4.03193C18.0624 3.99093 15.9749 3.99093 15.5649 4.03193ZM18.6141 5.20989C18.9123 5.29935 19.0838 5.39627 19.3112 5.60875C19.546 5.83614 19.6728 6.03744 19.7697 6.34684C19.8331 6.55186 19.8405 6.70842 19.8405 7.96466C19.8405 9.23953 19.8331 9.37373 19.766 9.58993C19.6243 10.0559 19.3298 10.3988 18.8751 10.6225L18.5955 10.7604L16.4036 10.7716L14.208 10.7828L14.2192 8.58718L14.2303 6.3953L14.3683 6.11572C14.5882 5.66839 14.9312 5.37018 15.3971 5.22107C15.5872 5.16143 15.7624 5.15397 17.0112 5.15397C18.1929 5.15024 18.4426 5.16143 18.6141 5.20989Z" fill="#2C2C2C"/>
<path d="M6.41696 13.0937C5.83171 13.1795 5.32475 13.4404 4.86997 13.8915C4.363 14.3947 4.10579 14.9166 4.03496 15.6062C3.9865 16.0535 3.99023 18.018 4.03496 18.4355C4.11324 19.114 4.37791 19.6657 4.85133 20.1391C5.33966 20.6237 5.8839 20.8809 6.6108 20.9592C6.85683 20.9853 7.44953 20.9927 8.26217 20.9815C9.37675 20.9666 9.56687 20.9554 9.79798 20.8883C10.7933 20.6125 11.5463 19.8707 11.8333 18.8828L11.919 18.5884V16.0162V13.4441L11.837 13.3286C11.7923 13.2652 11.7066 13.1795 11.6507 13.1422C11.55 13.0751 11.427 13.0714 9.08599 13.0676C7.73284 13.0639 6.53252 13.0751 6.41696 13.0937ZM10.7746 16.4002L10.7635 18.5921L10.6255 18.8717C10.4019 19.3264 10.0589 19.6209 9.59296 19.7626C9.37675 19.8297 9.24256 19.8371 7.96768 19.8371C6.70772 19.8371 6.55489 19.8297 6.34986 19.7663C5.94354 19.6396 5.52231 19.3003 5.34711 18.9574C5.16445 18.5958 5.15327 18.4952 5.15327 17.019C5.15327 15.7478 5.16073 15.6137 5.22782 15.3974C5.39184 14.8607 5.77952 14.4655 6.3275 14.2754C6.49524 14.2158 6.72263 14.212 8.64985 14.2083H10.7858L10.7746 16.4002Z" fill="#2C2C2C"/>
<path d="M13.4101 13.105C13.2573 13.1721 13.1007 13.3622 13.0746 13.5113C13.0634 13.5784 13.056 14.7526 13.0634 16.1282C13.0783 18.5996 13.0783 18.6295 13.1641 18.9053C13.3169 19.416 13.5182 19.744 13.9133 20.1354C14.3159 20.538 14.5918 20.7058 15.1248 20.8661C15.4529 20.963 15.4827 20.9667 16.7315 20.9854C18.1816 21.004 18.614 20.9704 19.0837 20.8102C19.5161 20.661 19.7696 20.5008 20.1237 20.1541C20.6269 19.6583 20.8804 19.1178 20.9624 18.3797C20.9885 18.1374 20.996 17.5372 20.9848 16.7283C20.9661 15.3155 20.9512 15.2186 20.7015 14.6744C20.325 13.8655 19.5645 13.2802 18.6587 13.105C18.2636 13.0304 13.5816 13.0304 13.4101 13.105ZM18.8749 14.365C19.3297 14.5886 19.6242 14.9316 19.7658 15.3975C19.8329 15.6137 19.8404 15.7479 19.8404 17.0191C19.8404 18.4953 19.8292 18.5959 19.6465 18.9575C19.5459 19.1551 19.229 19.4868 19.0277 19.6024C18.6512 19.826 18.5431 19.8372 17.026 19.8372C15.7511 19.8372 15.6169 19.8298 15.4007 19.7627C14.9347 19.621 14.5918 19.3265 14.3681 18.8718L14.2302 18.5922L14.219 16.4003L14.2078 14.2047L16.4034 14.2159L18.5953 14.227L18.8749 14.365Z" fill="#2C2C2C"/>
</svg>
