<svg width="25" height="25" viewBox="0 0 25 25" fill="none" xmlns="http://www.w3.org/2000/svg">
<path d="M13.1252 2.04602C13.0564 2.07181 12.9404 2.13198 12.8759 2.17926C12.8029 2.22654 11.1783 4.62047 8.98203 7.92126C5.81018 12.6748 5.20417 13.6117 5.17839 13.7707C5.13541 14.0544 5.24285 14.3595 5.44486 14.5572C5.73711 14.8452 5.75001 14.8452 8.32445 14.8452H10.6238L10.6023 15.0042C10.5894 15.0945 10.3917 16.9641 10.1597 19.1646C9.68689 23.6645 9.69549 23.3937 10.0264 23.7247C10.3144 24.0169 10.6969 24.0771 11.0708 23.8923C11.2384 23.8063 11.3373 23.7118 11.5221 23.4496C12.257 22.4224 19.7397 11.5831 19.7741 11.4928C19.7999 11.4327 19.8214 11.2736 19.8214 11.1404C19.8257 10.7923 19.658 10.5258 19.34 10.3625L19.1036 10.2464H16.2971C13.8086 10.2464 13.4905 10.2378 13.4905 10.182C13.4905 10.1433 13.6839 8.48859 13.9203 6.50295C14.2513 3.71791 14.3415 2.84973 14.3114 2.7208C14.1911 2.19215 13.6238 1.86981 13.1252 2.04602ZM12.9533 6.85968C12.704 8.95276 12.502 10.7106 12.502 10.7622C12.502 10.8138 12.5665 10.9212 12.6481 11.0029L12.7943 11.149H15.8501C17.5306 11.149 18.9059 11.1576 18.9059 11.1662C18.9059 11.1877 10.7528 22.9725 10.7012 23.0198C10.684 23.0413 10.6797 22.9897 10.684 22.9124C11.5866 14.4068 11.5952 14.3123 11.5307 14.1747C11.3975 13.8954 11.449 13.8997 8.6382 13.8997H6.09814L9.73846 8.43701C11.7413 5.43278 13.3874 2.99157 13.3917 3.01305C13.4003 3.03454 13.2026 4.7623 12.9533 6.85968Z" fill="#2C2C2C"/>
</svg>
