<svg width="25" height="25" viewBox="0 0 25 25" fill="none" xmlns="http://www.w3.org/2000/svg">
<path d="M12.2798 1.05433C12.0595 1.17568 12.055 1.22961 12.0505 2.78024C12.0505 3.95333 12.064 4.25447 12.1135 4.35784C12.2708 4.65448 12.7292 4.65448 12.8865 4.35784C12.9719 4.19154 12.9809 1.42288 12.8955 1.2386C12.7966 1.02286 12.5 0.932971 12.2798 1.05433Z" fill="#2C2C2C"/>
<path d="M7.78511 1.95374C7.57386 2.07059 7.50195 2.33128 7.61881 2.55601C7.72668 2.76276 9.54249 4.53362 9.68182 4.56509C10.0234 4.65048 10.3156 4.35833 10.2302 4.01225C10.1987 3.87741 8.42783 2.06161 8.22108 1.95374C8.07276 1.87733 7.92444 1.87733 7.78511 1.95374Z" fill="#2C2C2C"/>
<path d="M16.7474 1.97621C16.5047 2.12902 14.8012 3.88191 14.7698 4.01225C14.6844 4.35833 14.9765 4.65048 15.3226 4.56509C15.4574 4.53362 17.2732 2.76276 17.3811 2.55601C17.498 2.33128 17.426 2.0661 17.2148 1.95374C17.044 1.86834 16.9092 1.87283 16.7474 1.97621Z" fill="#2C2C2C"/>
<path d="M4.82775 6.44354C4.69741 6.51546 1.04332 11.0909 1.01186 11.2213C0.99388 11.2797 0.998374 11.3786 1.01186 11.4415C1.04332 11.5629 12.073 23.7971 12.2663 23.923C12.4191 24.0263 12.5809 24.0263 12.7337 23.923C12.927 23.7971 23.9567 11.5629 23.9881 11.4415C24.0016 11.3786 24.0061 11.2797 23.9881 11.2213C23.9567 11.0909 20.3026 6.51546 20.1722 6.44354C20.0284 6.36264 4.97158 6.36264 4.82775 6.44354ZM8.87288 7.50426C8.80546 7.62112 8.32454 8.43015 7.80317 9.2976L6.8593 10.8752L4.621 10.8797H2.37821L2.57597 10.637C2.68384 10.5021 3.32657 9.69312 4.00525 8.83915L5.24126 7.28852H7.11999L9.00322 7.28403L8.87288 7.50426ZM16.0148 9.07287L17.0845 10.8572L14.7922 10.8707C13.5293 10.8752 11.4707 10.8752 10.2078 10.8707L7.91553 10.8572L8.98524 9.07287L10.0505 7.28852H12.5H14.9495L16.0148 9.07287ZM20.9948 8.83915C21.6734 9.69312 22.3162 10.5021 22.424 10.637L22.6218 10.8797H20.379L18.1407 10.8752L17.1968 9.2976C16.68 8.43015 16.1945 7.62112 16.1271 7.50426L15.9968 7.28403L17.88 7.28852H19.7587L20.9948 8.83915ZM8.86838 16.4395C10.001 19.0014 10.9224 21.1049 10.9134 21.1094C10.9044 21.1183 2.99846 12.3989 2.6389 11.9809L2.4681 11.7786H4.63898H6.81436L8.86838 16.4395ZM17.1744 11.8101C17.1744 11.8685 12.527 22.3858 12.5 22.3858C12.473 22.3858 7.82564 11.8685 7.82564 11.8101C7.82564 11.7921 9.9291 11.7786 12.5 11.7786C15.0709 11.7786 17.1744 11.7921 17.1744 11.8101ZM22.3566 11.9764C21.9746 12.4213 14.0956 21.1183 14.0866 21.1094C14.0776 21.1049 14.999 19.0014 16.1316 16.4395L18.1856 11.7786H20.3565H22.5319L22.3566 11.9764Z" fill="#2C2C2C"/>
<path d="M9.83927 12.7494C9.68646 12.8303 9.62354 12.9427 9.62354 13.127C9.62354 13.3157 9.69095 13.4281 9.84826 13.509C10.037 13.6079 13.4304 13.6079 13.6192 13.5135C13.9159 13.3562 13.9159 12.8977 13.6192 12.7404C13.4304 12.6461 10.0146 12.6505 9.83927 12.7494Z" fill="#2C2C2C"/>
<path d="M14.9764 12.7404C14.5854 12.9562 14.7517 13.5764 15.1967 13.5764C15.4259 13.5764 15.6461 13.3562 15.6461 13.1315C15.6461 12.7944 15.2731 12.5741 14.9764 12.7404Z" fill="#2C2C2C"/>
</svg>
