<svg width="96" height="70" viewBox="0 0 96 70" fill="none" xmlns="http://www.w3.org/2000/svg">
<rect x="42.8123" y="34.7979" width="19.6701" height="19.6701" rx="2" fill="#FCCA19"/>
<rect y="2.39999" width="38.1831" height="38.1831" rx="2" fill="#FCCA19"/>
<path d="M60.8127 0.242657C60.6106 0.363966 59.384 1.37486 58.0901 2.49359C55.2326 4.94671 54.9226 5.44542 55.6639 6.32153C56.0548 6.79329 56.7557 6.98199 57.2139 6.72589C57.3892 6.63154 58.4135 5.80934 59.4784 4.87932C61.0149 3.54493 61.4597 3.23492 61.6484 3.31579C61.7832 3.38318 63.2389 4.62322 64.9103 6.06544L67.9295 8.69378L55.0169 8.76117L42.1044 8.82856L41.7404 9.20597L41.363 9.56989V19.8137V30.0575L41.7135 30.3944C41.9022 30.5831 42.2661 30.7718 42.5357 30.8123C42.94 30.8797 43.0883 30.8257 43.4657 30.4888L43.924 30.0844L43.9644 20.7707L43.9914 11.4569H57.8474C70.76 11.4569 71.717 11.4434 72.1618 11.2143C72.8222 10.8908 73.0783 10.1764 72.7683 9.55641C72.6335 9.25988 70.7465 7.53461 67.5656 4.78497C64.8294 2.41272 62.4167 0.363966 62.2145 0.242657C62.0123 0.10787 61.7023 4.19617e-05 61.5136 4.19617e-05C61.3249 4.19617e-05 61.0149 0.10787 60.8127 0.242657Z" fill="#2C2C2C"/>
<path d="M80.0871 8.89592C76.5826 9.48898 73.5095 11.8073 72.0269 14.9748C70.7059 17.8053 70.7059 21.2828 72.0269 24.1133C73.6308 27.5369 77.1083 29.9496 80.8823 30.2865C82.365 30.4079 83.0794 29.9765 83.0794 28.9522C83.0659 28.1704 82.4324 27.6313 81.5024 27.6313C79.184 27.6178 76.4883 26.1351 75.1404 24.1403C72.903 20.838 73.3073 16.6461 76.1378 13.8156C79.4806 10.4729 84.9125 10.756 87.9991 14.4356C89.3335 16.0261 89.8187 17.6301 89.8187 20.4606C89.8187 22.1589 89.7917 22.3746 89.5356 22.6981C88.7404 23.709 87.3656 23.6685 86.7186 22.6037C86.476 22.2128 86.449 21.9028 86.449 18.9375C86.4355 16.6596 86.3951 15.6218 86.2738 15.4061C86.0447 14.9883 85.1416 14.3009 84.3598 13.9369C81.6237 12.6699 78.2405 13.6539 76.5961 16.2148C75.9357 17.2257 75.6391 18.2771 75.6391 19.5441C75.6391 21.3098 76.1918 22.6441 77.4318 23.8842C79.2649 25.7173 82.0145 26.2295 84.3464 25.1647C84.8181 24.949 85.1281 24.8681 85.182 24.9625C85.3707 25.2725 86.5299 25.879 87.2443 26.0408C87.9452 26.189 88.1743 26.3643 90.25 28.1974L92.5144 30.1787L87.1499 34.0741L81.7989 37.9829L81.7315 35.9611L81.6641 33.9393L81.2058 33.5349C80.8284 33.1979 80.6802 33.144 80.2623 33.2114C79.9523 33.2519 79.6423 33.4406 79.4132 33.6967L79.0358 34.101V37.0394V39.9777L74.6956 43.1452C72.3099 44.8839 70.0455 46.5283 69.6546 46.7979L68.9672 47.2966L65.5436 44.8031C63.6701 43.4282 61.9853 42.2826 61.8235 42.2421C61.6483 42.1882 61.3787 42.1882 61.2035 42.2421C61.0417 42.2826 59.3569 43.4282 57.4834 44.8031L54.0598 47.2966L53.3724 46.7979C47.0779 42.2826 30.6474 30.2461 30.6743 30.1922C30.7013 30.1383 32.4939 28.5343 34.664 26.6338C38.6537 23.1294 38.6807 23.0889 38.6133 22.2398C38.5728 21.7546 37.8854 21.1615 37.3463 21.1615C36.8341 21.1615 36.8341 21.1615 31.0922 26.1216C28.9491 27.9817 27.2373 29.5587 27.1564 29.7609C27.0486 30.0305 27.0081 35.3815 27.0351 49.1567L27.0755 68.202L27.4529 68.5659L27.8169 68.9433L61.4461 68.9838L95.0754 69.0107L95.5067 68.6199L95.9515 68.229L95.9919 49.1702C96.0189 35.1658 95.9784 30.0305 95.8706 29.7474C95.7897 29.5452 94.6306 28.44 93.2962 27.2808L90.8835 25.1781L91.4092 24.612C91.7057 24.2885 92.0696 23.682 92.2448 23.2372C92.5144 22.4959 92.5414 22.2802 92.474 19.9484C92.4335 17.8323 92.3796 17.3201 92.1101 16.5114C91.0452 13.2226 88.7269 10.7155 85.6268 9.50245C83.9824 8.85548 81.7719 8.61286 80.0871 8.89592ZM83.2546 16.39L83.7533 16.6327V19.5441V22.4554L83.2546 22.6981C81.5293 23.5203 79.3862 22.7385 78.6314 20.9998C77.7822 19.0453 78.7527 16.8753 80.761 16.2148C81.408 15.9992 82.6076 16.08 83.2546 16.39ZM40.7968 40.9751C46.7678 45.3153 51.6606 48.9006 51.6606 48.941C51.6741 49.0084 30.4182 64.5493 29.8926 64.8728C29.7308 64.9671 29.7039 62.3792 29.7039 48.9949C29.7039 39.4655 29.7578 33.0227 29.8252 33.0497C29.8926 33.0632 34.8392 36.635 40.7968 40.9751ZM93.3231 48.9949C93.3231 62.3792 93.2962 64.9671 93.1344 64.8728C92.6088 64.5493 71.3529 49.0084 71.3664 48.941C71.3664 48.8467 93.0805 33.0362 93.2288 33.0362C93.2827 33.0227 93.3231 40.2068 93.3231 48.9949ZM76.0705 55.8017L90.5196 66.315H61.5135H32.5074L46.9026 55.8151C54.8281 50.0463 61.3787 45.3153 61.4596 45.3018C61.5539 45.2883 68.118 50.0193 76.0705 55.8017Z" fill="#2C2C2C"/>
<path d="M47.6844 15.77C46.9296 16.0666 46.714 17.2257 47.2801 17.8862L47.6036 18.2636L54.7607 18.304L61.9044 18.3445L62.3492 17.9401C62.7131 17.6166 62.794 17.4549 62.794 16.9831C62.794 16.5114 62.7131 16.3496 62.3492 16.0261L61.9179 15.6352L54.9359 15.6487C51.108 15.6487 47.8327 15.7026 47.6844 15.77Z" fill="#2C2C2C"/>
<path d="M47.6844 22.5093C46.9296 22.8059 46.714 23.965 47.2801 24.6255L47.6036 25.0029L54.7203 25.0433C62.2009 25.0838 62.3896 25.0703 62.794 24.4772C63.0231 24.1537 63.0636 23.4124 62.8614 23.035C62.511 22.388 62.4166 22.3746 54.9494 22.388C51.108 22.388 47.8327 22.442 47.6844 22.5093Z" fill="#2C2C2C"/>
<path d="M47.6708 29.1678C46.8082 29.5587 46.6464 30.664 47.3473 31.2975L47.7652 31.6749H51.9166C55.6367 31.6749 56.0815 31.6479 56.3376 31.4322C57.0385 30.8796 57.0789 29.9631 56.4454 29.37L56.095 29.0465L52.1053 29.0196C48.8974 28.9926 48.0212 29.0196 47.6708 29.1678Z" fill="#2C2C2C"/>
<path d="M61.7158 29.1004C60.6645 29.4239 60.3545 30.5426 61.0958 31.284C62.0798 32.2679 63.6972 31.284 63.2524 29.9631C63.0502 29.3161 62.3089 28.8982 61.7158 29.1004Z" fill="#2C2C2C"/>
<path d="M67.646 29.0735C66.9181 29.2487 66.4464 30.2461 66.7699 30.8796C67.1338 31.594 67.3764 31.6749 69.2904 31.6749C71.0561 31.6749 71.083 31.6749 71.5009 31.2975C72.2152 30.664 72.0265 29.5452 71.1504 29.1678C70.7056 28.9791 68.293 28.9252 67.646 29.0735Z" fill="#2C2C2C"/>
<path d="M42.2389 33.7102C41.1876 34.128 40.9988 35.3006 41.8884 36.015C42.5489 36.5542 43.7215 36.1228 43.9372 35.2602C44.1663 34.3167 43.1285 33.3597 42.2389 33.7102Z" fill="#2C2C2C"/>
</svg>
