<svg width="226" height="349" viewBox="0 0 226 349" fill="none" xmlns="http://www.w3.org/2000/svg">
<path d="M414.474 141.264C414.474 141.264 431.798 142.973 441.665 142.762C451.533 142.551 456.427 143.07 459.008 137.911C461.567 132.793 456.422 130.086 448.502 129.942C440.582 129.799 414.474 141.264 414.474 141.264Z" fill="#FCCA19"/>
<path d="M411.393 142.78C411.393 142.78 414.087 131.179 413.786 122.553C413.483 113.928 410.043 99.9995 419.3 100.153C427.233 100.285 423.881 116.354 421.044 123.022C419.155 127.455 411.393 142.78 411.393 142.78Z" fill="#FCCA19"/>
<path d="M437.319 103.329C439.44 96.8259 443.04 87.8761 444.145 83.8411C445.251 79.8044 447.629 70.5065 438.84 67.9089C434.572 66.6481 431.856 76.1001 432.561 84.1286C433.319 92.7839 435.199 109.831 437.319 103.329Z" fill="#FCCA19"/>
<path d="M457.103 85.2573C457.103 85.2573 464.728 81.1954 471.994 77.0237C479.261 72.8502 493.303 64.3081 490.677 57.361C487.912 50.0409 479.107 54.4114 475.278 58.3931C471.447 62.3748 457.103 85.2573 457.103 85.2573Z" fill="#FCCA19"/>
<path d="M437.101 107.108C437.145 106.823 441.539 78.4819 439.708 68.5324L439.384 68.3086L439.165 68.6374C440.982 78.4906 436.602 106.735 436.559 107.02L436.639 107.267L436.786 107.342L437.101 107.108Z" fill="#2C2C2C"/>
<path d="M377.112 171.424L377.035 171.324C376.921 171.119 376.995 170.861 377.197 170.747C377.262 170.712 383.606 167.16 391.573 161.35C398.914 155.994 409.175 147.57 416.356 137.846C422.15 130.002 426.433 122.918 430.209 116.666C435.658 107.651 440.363 99.8669 447.813 92.4195C457.719 82.5154 487.939 55.3352 488.243 55.0615C488.417 54.907 488.684 54.9228 488.838 55.0948C488.993 55.2703 488.979 55.537 488.805 55.6931C488.499 55.9669 458.297 83.1313 448.407 93.0196C441.03 100.393 436.348 108.139 430.93 117.106C427.143 123.373 422.85 130.474 417.033 138.35C409.784 148.163 399.45 156.651 392.056 162.043C384.051 167.881 377.67 171.454 377.607 171.489C377.441 171.581 377.241 171.549 377.112 171.424Z" fill="#2C2C2C"/>
<path d="M387.419 154.208C386.576 150.014 385.608 143.74 385.148 137.875L390.345 144.644C389.923 148.015 389.595 150.676 389.444 151.942C389.173 154.178 388.552 156.717 387.903 158.969C387.912 157.591 387.78 156.007 387.419 154.208ZM384.893 130.432L391.186 137.946C390.933 139.957 390.692 141.891 390.471 143.66L385.058 136.603C384.912 134.418 384.846 132.316 384.893 130.432ZM386.356 120.889L391.707 133.81C391.572 134.88 391.436 135.948 391.304 136.997L384.931 129.388C384.974 128.549 385.042 127.762 385.138 127.042C385.374 125.297 385.755 123.08 386.356 120.889ZM392.712 112.194C393.34 112.13 393.916 112.14 394.443 112.227L394.414 112.325C394.391 112.509 393.137 122.438 391.882 132.409L386.666 119.817C386.953 118.894 387.28 117.99 387.657 117.146C389.026 114.061 390.725 112.395 392.712 112.194ZM396.741 113.357L397.124 113.775C399.132 116.252 399.432 121.517 398.016 129.421C397.867 130.25 397.705 131.08 397.532 131.906L392.011 136.979C392.123 136.084 392.238 135.177 392.352 134.266L392.476 133.841L392.422 133.712C393.725 123.351 395.082 112.607 395.106 112.414C395.729 112.582 396.272 112.904 396.741 113.357ZM393.609 146.401C392.408 150.339 390.277 155.395 388.533 159.301C389.206 156.986 389.855 154.35 390.135 152.026C390.379 150.005 391.077 144.419 391.875 138.056L397.279 133.079C396.13 138.236 394.657 143.008 393.872 145.55C393.773 145.868 393.685 146.153 393.609 146.401ZM386.3 165.751C386.34 165.697 386.664 165.205 387.013 164.277C388.589 160.95 392.467 152.53 394.277 146.608C394.351 146.361 394.44 146.078 394.537 145.758C396.546 139.261 402.654 119.485 397.664 113.329C396.498 111.892 394.808 111.273 392.642 111.495C387.256 112.044 385.197 121.412 384.447 126.947C383.421 134.525 385.497 148.183 386.734 154.348C387.452 157.915 387.225 160.625 386.805 162.466C386.43 163.586 386.118 164.438 385.96 164.859C385.8 165.193 385.701 165.398 385.701 165.398L385.773 165.807C385.996 165.948 386.198 165.903 386.3 165.751Z" fill="#6A8EC8"/>
<path d="M471.452 115.55L459.818 110.247C465.996 108.904 472.89 107.725 480.007 107.09L480.262 106.787L479.956 106.537C466.812 107.707 454.422 110.729 445.891 113.228L453.16 107.275L453.244 107.156C458.649 104.536 463.419 102.398 465.5 101.917C470.151 100.843 475.858 99.8716 478.697 101.908C478.863 102.026 479.014 102.154 479.158 102.289C480.041 103.119 480.535 104.289 480.659 105.84C480.884 108.599 478.891 111.283 474.736 113.81C473.757 114.407 472.651 114.991 471.452 115.55ZM468.417 116.838L455.53 111.231C456.739 110.94 457.982 110.652 459.257 110.368L459.338 110.626L459.415 110.678L470.778 115.858C470.021 116.195 469.231 116.523 468.417 116.838ZM462.67 118.707C461.72 118.961 460.479 119.153 459.032 119.291L445.306 113.982C448.026 113.172 451.175 112.301 454.638 111.449L467.668 117.121C466.065 117.713 464.379 118.247 462.67 118.707ZM430.908 118.869C433.301 117.939 438.106 116.153 444.434 114.243L457.762 119.398C449.237 120.009 435.353 119.17 430.908 118.869ZM451.204 108.153L444.504 113.639L444.351 113.684C439.614 115.114 435.724 116.473 433.044 117.464C437.202 115.266 444.485 111.461 451.204 108.153ZM481.222 105.795C481.066 103.848 480.327 102.389 479.03 101.461C476.021 99.301 470.437 100.207 465.372 101.376C459.166 102.807 430.551 118.15 429.336 118.804L429.208 118.947L429.004 119.032L428.854 119.397L428.918 119.488L429.225 119.544C429.225 119.544 429.403 119.469 429.711 119.343C432.188 119.526 449.554 120.752 458.958 119.86L459.311 119.997L459.677 119.841C460.913 119.647 461.973 119.469 462.819 119.243C464.192 118.875 466.2 118.28 468.41 117.441L468.655 117.548L469.027 117.407L469.034 117.201C469.829 116.886 470.645 116.544 471.461 116.167C471.619 116.241 471.788 116.179 471.854 116.041C472.946 115.465 474.015 114.903 475.033 114.284C479.383 111.637 481.466 108.781 481.222 105.795Z" fill="#2C2C2C"/>
<path d="M411.407 144.141C411.434 144.06 414.051 135.871 416.34 126.441C417.159 123.061 417.835 119.959 418.365 117.14L418.594 117.034L423.719 110.412L423.672 110.014L423.284 110.06L418.542 116.186C419.858 108.912 420.162 103.611 419.448 100.367L419.117 100.152L418.906 100.492C419.679 104.001 419.117 109.776 417.999 115.986L413.573 110.718L413.181 110.686L413.152 111.086L417.868 116.702C415.503 129.46 410.949 143.748 410.879 143.963L410.951 144.258L411.056 144.321L411.407 144.141Z" fill="#2C2C2C"/>
<path d="M459.157 134.824L458.872 134.539C452.969 134.626 442.82 135.957 433.739 137.338L439.432 132.44L439.469 132.033L439.074 131.995L433.012 137.194L432.915 137.464C423.171 138.961 414.861 140.476 414.701 140.505L414.474 140.842L414.556 141L414.799 141.076C414.926 141.053 420.235 140.086 427.312 138.936L434.5 142.78L434.878 142.654L434.755 142.265L428.201 138.793C429.935 138.514 431.764 138.225 433.638 137.938L442.487 142.75L442.866 142.629L442.747 142.238L434.581 137.796C443.444 136.46 453.165 135.205 458.879 135.118L459.157 134.824Z" fill="#2C2C2C"/>
<path d="M372.05 22.3849C251.26 -42.8973 166.762 92.8103 85.7926 92.3659C2.61285 91.9111 -25.843 163.153 42.0789 240.027C108.205 314.866 201.297 344.2 260.917 343.588C359.482 342.575 453.793 252.861 412.906 197.524C376.008 147.582 451.826 65.5022 372.05 22.3849Z" fill="#F3F3F3"/>
<path d="M117.006 228.029C75.8417 281.383 183.37 316.703 258.247 288.63C327.103 262.811 379.494 201.489 388.669 184.358C412.612 139.645 409.431 107.718 382.487 91.9766C352.815 74.641 293.008 70.4547 254.977 112.637C224.362 146.59 226.226 170.615 210.131 181.834C176.029 205.604 134.258 205.672 117.006 228.029Z" fill="#FCCA19"/>
<path d="M83.4704 91.3953C46.3439 91.3953 18.5779 105.688 7.21068 130.682C-6.4664 160.755 5.89273 201.955 40.273 240.89C104.82 313.993 197.339 346.468 261.248 346.468C261.889 346.468 262.524 346.466 263.16 346.459C334.088 345.731 398.434 301.259 419.665 258.684C430.867 236.224 430.199 215.427 417.732 198.539C401.732 176.87 406.272 148.881 410.664 121.817C416.782 84.091 423.11 45.0827 376.28 19.7544C299.603 -21.7167 236.63 17.043 181.068 51.2379C147.366 71.9787 115.5 91.5932 84.2643 91.397C84.0014 91.397 83.7333 91.3953 83.4704 91.3953ZM261.253 348.22C196.944 348.22 103.874 315.568 38.9585 242.049C4.1086 202.58 -8.3557 160.677 5.61407 129.957C17.3598 104.129 46.0512 89.3756 84.2748 89.6454L84.6727 89.6471C115.315 89.6471 146.81 70.2639 180.148 49.7455C236.116 15.3018 299.549 -23.7346 377.116 18.213C425.04 44.1333 418.611 83.767 412.393 122.096C407.859 150.034 403.58 176.424 419.141 197.501C432.026 214.95 432.75 236.378 421.235 259.467C399.768 302.511 334.779 347.475 263.177 348.211C262.541 348.218 261.895 348.22 261.253 348.22Z" fill="#DFDFDF"/>
<path d="M370.389 281.965H58.98C55.3383 281.965 52.3868 279.016 52.3868 275.377V43.0562C52.3868 39.4151 55.3383 36.4655 58.98 36.4655H370.389C374.031 36.4655 376.981 39.4151 376.981 43.0562V275.377C376.981 279.016 374.031 281.965 370.389 281.965Z" fill="white"/>
<path d="M58.8963 36.8277C55.5071 36.8277 52.7479 39.59 52.7479 42.9846V275.448C52.7479 278.841 55.5071 281.603 58.8963 281.603H369.959C373.348 281.603 376.106 278.841 376.106 275.448V42.9846C376.106 39.59 373.348 36.8277 369.959 36.8277H58.8963ZM369.959 282.479H58.8963C55.0242 282.479 51.873 279.324 51.873 275.448V42.9846C51.873 39.1065 55.0242 35.9519 58.8963 35.9519H369.959C373.831 35.9519 376.981 39.1065 376.981 42.9846V275.448C376.981 279.324 373.831 282.479 369.959 282.479Z" fill="#2C2C2C"/>
<path d="M223.929 176.678H329.73V179.759H223.929V176.678Z" fill="#DFDFDF"/>
<path d="M223.929 182.327H329.73V185.409H223.929V182.327Z" fill="#DFDFDF"/>
<path d="M223.929 188.544L255.772 188.491V191.519L223.929 191.572V188.544Z" fill="#DFDFDF"/>
<path d="M9.04802 123.777H54.6388C55.6641 123.777 56.4961 125.06 56.4961 126.639V162.001C56.4961 163.581 55.6641 164.865 54.6388 164.865H9.04802C8.02104 164.865 7.19071 163.581 7.19071 162.001V126.639C7.19071 125.06 8.02104 123.777 9.04802 123.777Z" fill="white"/>
<path d="M8.97993 124.139C8.20873 124.139 7.55728 125.237 7.55728 126.538V161.589C7.55728 162.89 8.20873 163.99 8.97993 163.99H54.7065C55.4777 163.99 56.1292 162.89 56.1292 161.589V126.538C56.1292 125.237 55.4777 124.139 54.7065 124.139H8.97993ZM54.7065 164.865H8.97993C7.68755 164.865 6.67691 163.426 6.67691 161.589V126.538C6.67691 124.701 7.68755 123.264 8.97993 123.264H54.7065C55.9971 123.264 57.0095 124.701 57.0095 126.538V161.589C57.0095 163.426 55.9971 164.865 54.7065 164.865Z" fill="#2C2C2C"/>
<path d="M304.045 120.182H404.72C406.985 120.182 408.824 122.105 408.824 124.475V177.52C408.824 179.891 406.985 181.814 404.72 181.814H304.045C301.778 181.814 299.941 179.891 299.941 177.52V124.475C299.941 122.105 301.778 120.182 304.045 120.182Z" fill="white"/>
<path d="M304.468 120.549C302.452 120.549 300.815 122.282 300.815 124.412V177.584C300.815 179.714 302.452 181.447 304.468 181.447H404.811C406.827 181.447 408.464 179.714 408.464 177.584V124.412C408.464 122.282 406.827 120.549 404.811 120.549H304.468ZM404.811 182.327H304.468C301.971 182.327 299.941 180.199 299.941 177.584V124.412C299.941 121.796 301.971 119.668 304.468 119.668H404.811C407.307 119.668 409.338 121.796 409.338 124.412V177.584C409.338 180.199 407.307 182.327 404.811 182.327Z" fill="#282728"/>
<path d="M391.064 170.515H361.359C359.21 170.515 357.464 168.772 357.464 166.62V136.917C357.464 134.766 359.21 133.022 361.359 133.022H391.064C393.215 133.022 394.957 134.766 394.957 136.917V166.62C394.957 168.772 393.215 170.515 391.064 170.515Z" fill="#F3F3F3"/>
<path d="M368.795 145.862C368.777 145.699 368.412 141.811 370.743 139.102C372.049 137.587 373.91 136.756 376.28 136.632C378.54 136.512 380.38 137.134 381.746 138.475C384.31 140.998 384.176 145.144 384.169 145.319L382.406 145.251C382.407 145.216 382.512 141.69 380.5 139.718C379.504 138.742 378.094 138.296 376.373 138.386C374.508 138.482 373.068 139.106 372.088 140.238C370.247 142.366 370.545 145.655 370.549 145.686L368.795 145.862Z" fill="#2C2C2C"/>
<path d="M367.08 147.1C366.564 147.1 366.144 147.522 366.144 148.039L363.824 162.316C363.836 162.691 364.256 163.113 364.772 163.113L388.677 162.851C389.203 162.851 389.623 162.429 389.623 161.914L387.447 148.175C387.436 147.522 387.016 147.1 386.5 147.1H367.08ZM364.783 164.865C363.29 164.865 362.087 163.658 362.087 162.175L364.407 147.897C364.394 146.555 365.6 145.348 367.08 145.348H386.5C387.982 145.348 389.186 146.555 389.186 148.039L391.362 161.775C391.372 163.395 390.169 164.602 388.687 164.602L364.783 164.865Z" fill="#2C2C2C"/>
<path d="M374.162 161.783L370.818 153.839L372.38 153.161L374.622 158.495L382.344 148.944L383.658 150.038L374.162 161.783Z" fill="#2C2C2C"/>
<path d="M106.315 264.663L166.745 256.799L171.542 294.132L111.114 301.996L106.315 264.663Z" fill="#FDE180"/>
<path d="M142.267 259.572L167.738 256.286L172.569 293.573L147.098 296.86L142.267 259.572Z" fill="#E69104"/>
<path d="M151.511 258.785L153.135 268.538L154.994 266.782L157.004 268.612L158.608 266.7L160.756 267.815L159.289 257.826L151.511 258.785Z" fill="#FCCA19"/>
<path d="M101.854 112.992H211.441C214.081 112.992 216.225 115.134 216.225 117.772V245.342C216.225 247.984 214.081 250.122 211.441 250.122H101.854C99.2117 250.122 97.07 247.984 97.07 245.342V117.772C97.07 115.134 99.2117 112.992 101.854 112.992Z" fill="#F3F3F3"/>
<path d="M220.898 206.467H280.889C282.334 206.467 283.506 207.822 283.506 209.494V290.237C283.506 291.91 282.334 293.265 280.889 293.265H220.898C219.452 293.265 218.279 291.91 218.279 290.237V209.494C218.279 207.822 219.452 206.467 220.898 206.467Z" fill="white"/>
<path d="M220.83 206.826C219.625 206.826 218.645 207.983 218.645 209.404V289.814C218.645 291.234 219.625 292.392 220.83 292.392H280.957C282.162 292.392 283.14 291.234 283.14 289.814V209.404C283.14 207.983 282.162 206.826 280.957 206.826H220.83ZM280.957 293.265H220.83C219.141 293.265 217.766 291.716 217.766 289.814V209.404C217.766 207.501 219.141 205.953 220.83 205.953H280.957C282.646 205.953 284.02 207.501 284.02 209.404V289.814C284.02 291.716 282.646 293.265 280.957 293.265Z" fill="#2C2C2C"/>
<path d="M272.726 198.763H308.154C309.009 198.763 309.7 199.555 309.7 200.535V247.836C309.7 248.815 309.009 249.609 308.154 249.609H272.726C271.874 249.609 271.18 248.815 271.18 247.836V200.535C271.18 199.555 271.874 198.763 272.726 198.763Z" fill="#F3F3F3"/>
<path d="M320.489 198.763H355.918C356.77 198.763 357.464 199.555 357.464 200.535V247.836C357.464 248.815 356.77 249.609 355.918 249.609H320.489C319.636 249.609 318.944 248.815 318.944 247.836V200.535C318.944 199.555 319.636 198.763 320.489 198.763Z" fill="#F3F3F3"/>
<path d="M288.117 209.276C288.117 209.276 290.272 211.327 293.265 211.567C296.257 211.809 297.814 209.035 297.814 209.035C297.814 209.035 300.807 209.518 302.602 210.963C304.398 212.412 309.186 218.68 309.186 218.68L304.876 223.385L300.328 220.489L302.002 236.769H285.603L285.963 220.489L283.328 223.747L277.343 221.215C277.343 221.215 280.456 214.341 282.012 212.652C283.569 210.963 288.117 209.276 288.117 209.276Z" fill="#DFDFDF"/>
<path d="M162.232 137.638L192.832 138.279L178.004 127.401C173.024 131.125 165.441 135.727 162.232 137.638ZM194.212 139.185L160.674 138.481C160.476 138.477 160.307 138.344 160.257 138.155C160.206 137.966 160.289 137.766 160.459 137.666C168.715 132.828 181.217 124.831 181.818 122.636C182.104 121.597 181.868 120.473 181.185 119.627C180.571 118.863 179.685 118.458 178.743 118.492C176.653 118.586 175.742 121.224 175.733 121.252C175.658 121.48 175.409 121.606 175.176 121.529C174.945 121.452 174.82 121.203 174.897 120.974C174.941 120.842 176.012 117.738 178.704 117.617C179.918 117.567 181.083 118.096 181.875 119.078C182.732 120.143 183.029 121.559 182.67 122.866C182.43 123.74 180.892 125.183 178.733 126.847L194.473 138.395C194.628 138.509 194.692 138.707 194.63 138.889C194.568 139.066 194.401 139.185 194.212 139.185Z" fill="#2C2C2C"/>
<path d="M170.698 130.454C170.698 130.454 174.319 134.531 177.758 134.249C182.371 133.869 184.163 130.454 184.163 130.454C184.163 130.454 189.916 132.061 192.845 134.405C195.772 136.751 203.385 157.16 203.385 157.16L194.91 161.189L191.339 149.901L198.776 219.423L163.207 219.82L164.19 149.901L159.871 167.634L156.664 169.624L154.746 173.533L150.701 172.348L151.572 168.438L149.971 164.882C149.971 164.882 156.736 139.877 159.273 137.141C161.81 134.405 170.698 130.454 170.698 130.454Z" fill="#898989"/>
<path d="M141.657 137.638L171.804 138.279L157.196 127.401C152.289 131.125 144.821 135.727 141.657 137.638ZM173.161 139.185L140.123 138.481C139.93 138.477 139.761 138.344 139.713 138.155C139.664 137.966 139.746 137.766 139.913 137.666C148.044 132.828 160.36 124.831 160.954 122.636C161.235 121.597 161.003 120.473 160.33 119.627C159.725 118.863 158.856 118.442 157.925 118.492C155.863 118.586 154.967 121.224 154.96 121.252C154.883 121.48 154.638 121.606 154.409 121.529C154.181 121.452 154.058 121.203 154.134 120.974C154.178 120.842 155.234 117.738 157.885 117.617C159.082 117.567 160.227 118.094 161.008 119.078C161.852 120.143 162.146 121.559 161.793 122.866C161.555 123.74 160.042 125.183 157.914 126.847L173.42 138.395C173.571 138.509 173.634 138.707 173.573 138.889C173.512 139.066 173.347 139.185 173.161 139.185Z" fill="#2C2C2C"/>
<path d="M149.722 130.454L157.088 142.157L163.241 130.454C163.241 130.454 169.018 132.059 171.956 134.405C174.897 136.751 185.442 164.624 185.442 164.624L184.25 167.724L185.923 171.941L182.854 174.306L180.065 170.226L176.531 169.067L170.447 149.901L174.531 176.313L171.344 179.227L171.486 182.639L144.996 183.868L145.56 179.25L142.816 176.313L143.19 149.901L138.854 167.635L135.633 169.625L133.707 173.534L129.647 172.349L130.523 168.438L128.913 164.883C128.913 164.883 135.707 139.877 138.254 137.141C140.801 134.405 149.722 130.454 149.722 130.454Z" fill="#FCCA19"/>
<path d="M199.276 244.473C199.276 235.679 206.404 228.551 215.198 228.551C223.99 228.551 231.119 235.679 231.119 244.473C231.119 253.266 223.99 260.394 215.198 260.394C206.404 260.394 199.276 253.266 199.276 244.473Z" fill="#DFDFDF"/>
<path d="M265.531 282.222C265.531 277.826 268.98 274.262 273.235 274.262C277.489 274.262 280.939 277.826 280.939 282.222C280.939 286.619 277.489 290.183 273.235 290.183C268.98 290.183 265.531 286.619 265.531 282.222Z" fill="#DFDFDF"/>
<path d="M119.4 258.854L119.155 258.6C119.166 258.055 119.516 245.213 125.603 244.501C126.737 244.37 127.752 244.692 128.638 245.458C132.197 248.533 132.498 257.773 132.509 258.165L132.269 258.42L132.013 258.179C132.012 258.084 131.707 248.766 128.314 245.832C127.537 245.16 126.638 244.881 125.661 244.993C119.999 245.655 119.654 258.481 119.65 258.611L119.4 258.854Z" fill="#2C2C2C"/>
<path d="M114.721 253.204L114.019 301.996L147.403 297.675L146.324 253.381L114.721 253.204Z" fill="#898989"/>
<path d="M108.79 253.204L111.964 253.243L111.051 297.122L107.342 298.401L108.79 253.204Z" fill="#B4B4B4"/>
<path d="M111.918 253.721L115.046 253.718L114.282 301.996L110.938 296.893L111.918 253.721Z" fill="#2C2C2C"/>
<path d="M107.342 298.322L111.405 296.86L114.532 301.996L107.342 298.322Z" fill="#B4B4B4"/>
<path d="M124.536 257.826L124.291 257.573C124.303 257.027 124.653 244.186 130.742 243.476C131.87 243.338 132.889 243.665 133.774 244.431C137.331 247.506 137.634 256.746 137.644 257.138L137.404 257.393L137.149 257.151C137.147 257.059 136.843 247.737 133.45 244.805C132.673 244.134 131.781 243.858 130.799 243.968C125.134 244.629 124.789 257.456 124.786 257.583L124.536 257.826Z" fill="#2C2C2C"/>
<path d="M41.0881 320.406L36.0688 337.948L30.3026 335.197L33.0507 315.863L41.0881 320.406Z" fill="#FF9583"/>
<path d="M29.9888 333.326C29.2859 333.265 26.7161 337.474 27.3085 339.81C27.6556 341.18 30.0078 340.77 33.0473 341.127C36.0834 341.483 38.5306 342.622 40.6254 342.568C42.7185 342.516 49.3053 341.844 49.3053 341.844L49.0843 340.076C49.0843 340.076 45.8202 340.011 44.4939 339.07C43.1693 338.127 37.6653 333.866 37.6653 333.866C37.4684 334.111 36.0212 335.198 34.4756 335.869C32.9316 336.539 32.7434 336.367 32.0198 335.975C30.7228 335.271 31.1027 333.418 29.9888 333.326Z" fill="#282728"/>
<path d="M85.1786 316.62L85.7706 334.866L78.9907 334.069L75.4987 314.836L85.1786 316.62Z" fill="#FF9583"/>
<path d="M77.4949 330.846C76.7808 330.892 74.812 335.675 75.7448 338.023C76.2908 339.4 78.5904 338.614 81.6881 338.525C84.7875 338.435 87.4039 339.25 89.497 338.876C91.5902 338.504 98.097 336.801 98.097 336.801L97.621 334.99C97.621 334.99 94.3395 335.42 92.873 334.638C91.4081 333.856 85.2723 330.244 85.2723 330.244C85.1113 330.529 83.8145 331.885 82.3619 332.819C80.9111 333.753 80.6976 333.605 79.9153 333.304C78.5134 332.766 78.6254 330.775 77.4949 330.846Z" fill="#282728"/>
<path d="M119.573 138.154L149.719 138.795L135.11 127.917C130.204 131.639 122.734 136.241 119.573 138.154ZM151.076 139.699L118.039 138.996C117.844 138.993 117.677 138.858 117.628 138.669C117.578 138.48 117.66 138.28 117.827 138.182C125.96 133.342 138.275 125.346 138.869 123.153C139.151 122.114 138.918 120.988 138.245 120.142C137.639 119.38 136.766 118.97 135.84 119.007C133.788 119.101 132.884 121.741 132.875 121.767C132.799 121.997 132.548 122.123 132.324 122.044C132.097 121.967 131.975 121.72 132.05 121.49C132.093 121.357 133.148 118.255 135.8 118.133C137.001 118.07 138.143 118.611 138.923 119.595C139.768 120.66 140.061 122.076 139.707 123.382C139.47 124.256 137.957 125.698 135.83 127.364L151.333 138.909C151.486 139.023 151.549 139.222 151.488 139.403C151.427 139.581 151.262 139.699 151.076 139.699Z" fill="#2C2C2C"/>
<path d="M128.6 131.286L131.326 128.4C131.326 128.4 133.419 129.737 135.79 129.637C137.023 129.584 139.694 128.894 139.694 128.894L141.61 131.589C141.61 131.589 147.445 132.18 150.385 134.529C153.325 136.875 163.87 164.781 163.87 164.781L162.678 167.885L164.351 172.109L161.283 174.477L158.493 170.392L154.96 169.231L148.874 150.043L149.344 172.016L158.416 232.52L113.623 232.66L123.281 172.142L121.619 150.043L117.281 167.798L114.062 169.789L112.136 173.704L108.076 172.516L108.95 168.602L107.342 165.042C107.342 165.042 114.135 140.006 116.683 137.266C119.23 134.529 128.6 131.286 128.6 131.286Z" fill="#DFDFDF"/>
<path d="M143.023 274.262L142.781 274.013C142.788 273.706 142.986 266.469 146.493 266.062C147.152 265.98 147.756 266.172 148.276 266.618C150.308 268.362 150.48 273.55 150.485 273.769L150.248 274.02L149.995 273.783C149.994 273.732 149.826 268.588 147.956 266.987C147.538 266.628 147.073 266.479 146.551 266.544C143.464 266.903 143.272 273.953 143.27 274.023L143.023 274.262Z" fill="#2C2C2C"/>
<path d="M140.613 271.18L140.213 298.914L159.216 296.457L158.601 271.282L140.613 271.18Z" fill="#FCCA19"/>
<path d="M136.909 271.18L138.672 271.203L138.164 296.132L136.104 296.86L136.909 271.18Z" fill="#EAA800"/>
<path d="M138.649 271.182L140.213 271.18L139.83 298.914L138.158 295.982L138.649 271.182Z" fill="#E69104"/>
<path d="M136.104 296.71L138.424 295.833L140.213 298.914L136.104 296.71Z" fill="#FDE180"/>
<path d="M146.104 273.748L145.862 273.499C145.869 273.191 146.068 265.953 149.574 265.547C150.246 265.47 150.838 265.66 151.358 266.106C153.388 267.848 153.559 273.036 153.566 273.256L153.327 273.506L153.077 273.27C153.075 273.218 152.905 268.074 151.036 266.471C150.62 266.113 150.156 265.969 149.631 266.031C146.547 266.389 146.353 273.438 146.351 273.51L146.104 273.748Z" fill="#2C2C2C"/>
<path d="M83.4703 223.522C83.4703 223.522 84.6615 234.293 85.2631 237.709C85.8648 241.127 85.8108 272.354 86.0612 280.26C86.3134 288.166 85.557 317.413 85.557 317.413L88.8521 320.227L73.4075 322.987C73.4075 322.987 70.3731 321.758 71.3382 319.498C72.3033 317.236 74.3047 316.97 73.6805 313.785C73.0562 310.605 69.961 302.978 70.5992 298.765C71.2356 294.555 72.8441 287.01 72.1989 282.991C71.5538 278.97 66.4572 248.051 66.8484 247.69C59.8877 284.121 42.019 325.108 42.019 325.108C42.019 325.108 37.3849 320.926 35.3296 321.491C33.2708 322.06 31.3146 322.639 31.3146 322.639C31.3146 322.639 30.4086 321.21 31.0381 319.146C31.6675 317.081 34.1732 314.185 35.027 310.955C35.8808 307.728 35.9869 307.742 35.9869 307.742C35.9869 307.742 35.9086 299.141 36.6355 296.135C37.3623 293.127 40.6106 281.861 41.3809 276.354C42.1495 270.847 44.4587 253.924 44.0118 245.704C43.4153 234.711 46.8009 219.523 46.8009 219.523C46.8009 219.523 52.3619 220.698 56.1683 219.523C59.9747 218.35 63.9288 222.346 68.9212 221.923C73.9152 221.499 83.4703 223.522 83.4703 223.522Z" fill="#2C2C2C"/>
<path d="M72.8329 143.808L69.6785 146.476L66.7674 151.595C66.7674 151.595 68.6811 154.42 71.4196 155.724C74.1599 157.026 77.2366 156.57 77.2366 156.57L78.0666 150.99L72.8329 143.808Z" fill="#FEB3A2"/>
<path d="M75.8442 139.239C75.8442 139.239 74.2132 134.646 71.9532 136.657C69.6931 138.668 74.6732 152.301 79.1097 152.533C83.5479 152.764 88.5802 145.671 90.1067 142.338C91.6349 139.005 93.4488 135.346 89.8 132.508C82.3211 126.687 75.8442 139.239 75.8442 139.239Z" fill="#FEB3A2"/>
<path d="M69.3867 146.376L72.2756 144.376C72.2756 144.376 70.0021 136.921 72.2738 136.384C74.5421 135.846 74.7214 138.349 75.7465 139.804C77.118 141.752 76.645 134.567 81.7916 133.261C87.2354 131.879 88.8776 136.295 90.0258 137.588C91.5432 139.297 94.703 140.395 97.2701 138.877C99.8355 137.362 100.62 132.994 98.093 128.475C95.568 123.954 93.8361 126.508 92.2026 125.526C90.5727 124.543 93.917 121.461 88.468 120.318C83.3003 119.233 81.5138 124.973 78.9256 125.242C76.3391 125.512 75.903 124.277 74.3504 124.623C71.087 125.357 69.0807 125.202 67.6671 131.654C66.2006 138.343 69.3867 146.376 69.3867 146.376Z" fill="#2C2C2C"/>
<path d="M124.659 176.164C124.659 176.164 119.649 179.138 118.88 179.506C118.114 179.874 115.711 181.25 115.711 181.25L110.424 194.14C110.424 194.14 113.203 193.571 114.473 193.472C115.741 193.371 117.011 193.538 117.946 192.87C118.88 192.202 122.255 190.097 122.756 189.864C123.256 189.629 126.162 188.794 126.395 188.526C126.629 188.259 128.683 186.658 128.466 185.387C128.416 185.085 130.738 184.74 130.37 183.226C130.003 181.711 129.068 182.146 129.068 182.146L129.635 181.411C129.635 181.411 132.474 181.142 132.508 180.107C132.541 179.071 131.473 178.637 131.473 178.637L124.659 176.164Z" fill="#F1A599"/>
<path d="M125.271 171.621L131.825 176.4C132.01 176.535 132.05 176.794 131.916 176.979L121.832 190.888C121.698 191.073 121.44 191.114 121.256 190.979L114.702 186.2C114.519 186.065 114.477 185.807 114.611 185.622L124.695 171.712C124.829 171.527 125.087 171.487 125.271 171.621Z" fill="#2C2C2C"/>
<path d="M125.278 172.133L131.372 176.746C131.548 176.878 131.459 177.311 131.459 177.311L121.852 190.892C121.726 191.072 121.479 191.113 121.304 190.981L115.208 186.367C115.033 186.237 114.993 185.984 115.122 185.802L124.729 172.223C124.855 172.041 125.101 172.001 125.278 172.133Z" fill="#E8F2F9"/>
<path d="M125.091 172.639L125.009 172.677L115.152 185.843L121.429 190.459L121.571 190.437L131.386 177.326L131.379 177.103L125.153 172.658L125.091 172.639ZM121.487 191.059L121.078 190.929L114.821 186.454C114.671 186.347 114.572 186.19 114.542 186.007C114.511 185.827 114.558 185.646 114.668 185.501L124.524 172.34C124.632 172.193 124.796 172.094 124.979 172.063C125.175 172.036 125.353 172.082 125.506 172.186L131.76 176.66C132.071 176.88 131.994 177.36 131.964 177.502L131.911 177.612L122.055 190.775C121.921 190.96 121.706 191.059 121.487 191.059Z" fill="#2C2C2C"/>
<path d="M128.176 174.11L128.914 174.652C128.673 174.985 128.294 175.283 128.009 175.06C127.737 174.846 127.974 174.19 128.176 174.11Z" fill="#0041EF"/>
<path d="M128.399 174.696L128.845 174.623L128.913 175.062L128.464 175.137L128.399 174.696Z" fill="black"/>
<path d="M103.233 189.749L108.949 186.834L114.744 182.041L116.23 181.3L120.687 181.745L123.263 185.203C123.263 185.203 122.813 186.571 119.053 184.661C117.902 184.076 116.428 188.07 116.428 188.07L112.615 190.54L111.822 194.147L106.373 198.249L103.233 189.749Z" fill="#FEB3A2"/>
<path d="M67.0262 150.998C67.0262 150.998 69.6252 155.089 72.2208 155.446C74.8163 155.804 78.5345 156.147 78.0721 155.844C77.6062 155.537 77.7796 153.654 77.7796 153.654C77.7796 153.654 83.8271 156.417 86.3648 159.476C88.899 162.532 89.6801 165.267 91.0462 169.235C92.4122 173.2 95.598 191.938 95.598 191.938L106.535 186.585L111.965 196.353C111.965 196.353 96.267 208.733 92.8589 209.105C89.449 209.476 85.99 206.077 85.99 206.077L84.384 213.269L85.0057 220.368L85.8219 224.204C85.8219 224.204 76.8146 226.777 71.7059 224.586C66.5971 222.392 65.5586 221.045 59.8088 220.629C54.0574 220.212 52.9628 220.598 48.0379 220.64C43.1166 220.684 43.7909 217.464 43.7909 217.464L45.9082 215.338L44.5982 212.712L44.4283 209.224C44.4283 209.224 29.0216 208.807 27.8201 198.576C26.6204 188.343 38.4089 168.911 38.4089 168.911C38.4089 168.911 41.8223 162.826 45.7962 158.675C49.77 154.525 67.0262 150.998 67.0262 150.998Z" fill="#FCCA19"/>
<path d="M85.6682 202.871L85.5813 202.863C85.3617 202.811 85.2192 202.577 85.2667 202.339C86.3664 196.775 86.4909 174.771 86.4925 174.549C86.4942 174.304 86.6433 174.15 86.9039 174.11C87.13 174.112 87.3136 174.311 87.3119 174.554C87.307 175.462 87.1857 196.87 86.0681 202.522C86.0271 202.728 85.8567 202.871 85.6682 202.871Z" fill="#09030F"/>
<path d="M136.617 235.228H173.082V256.799H136.617V235.228Z" fill="#DFDFDF"/>
<path d="M136.617 235.228H147.402V256.799H136.617V235.228Z" fill="#ABABAB"/>
<path d="M125.745 329.611C128.306 329.611 130.393 331.915 130.393 334.747C130.393 337.578 128.306 339.882 125.745 339.882C123.182 339.882 121.095 337.578 121.095 334.747C121.095 331.915 123.182 329.611 125.745 329.611ZM165.735 329.611C168.298 329.611 170.383 331.915 170.383 334.747C170.383 337.578 168.298 339.882 165.735 339.882C163.172 339.882 161.087 337.578 161.087 334.747C161.087 331.915 163.172 329.611 165.735 329.611ZM101.216 328.538C101.137 328.789 101.186 329.062 101.343 329.275C101.501 329.486 101.752 329.611 102.016 329.611H121.647C120.296 330.859 119.419 332.686 119.419 334.747C119.419 338.495 122.256 341.543 125.745 341.543C129.231 341.543 132.067 338.495 132.067 334.747C132.067 332.686 131.191 330.859 129.84 329.611H161.64C160.287 330.859 159.411 332.686 159.411 334.747C159.411 338.495 162.248 341.543 165.735 341.543C169.224 341.543 172.06 338.495 172.06 334.747C172.06 332.686 171.184 330.859 169.831 329.611H176.866C177.33 329.611 177.705 329.24 177.705 328.78C177.705 328.322 177.33 327.95 176.866 327.95H103.151L106.436 317.37C107.373 314.351 109.741 312.192 112.614 311.735L157.015 304.675C157.47 304.601 157.782 304.176 157.71 303.723C157.636 303.268 157.198 302.958 156.749 303.035L112.348 310.095C108.839 310.653 105.961 313.253 104.835 316.882L101.216 328.538Z" fill="#282728"/>
<path d="M79.7349 223.721C79.7349 222.493 80.6101 221.491 81.6882 221.491C82.7647 221.491 83.6416 222.493 83.6416 223.721C83.6416 224.952 82.7647 225.952 81.6882 225.952C80.6101 225.952 79.7349 224.952 79.7349 223.721ZM95.6801 241.71H103.422L105.834 258.536L98.4894 258.959L95.6801 241.71ZM105.223 300.296L104.176 293.868L110.75 292.838L112.355 304.044L110.316 304.379C109.247 304.556 108.14 304.291 107.222 303.63C106.173 302.877 105.445 301.662 105.223 300.296ZM185.959 291.907L183.967 292.235L184.863 281.235L190.357 280.376L189.134 288.427C188.859 290.241 187.581 291.639 185.959 291.907ZM195.5 246.535L194.451 253.44L187.091 253.862L188.08 241.71H191.868C192.878 241.71 193.821 242.159 194.521 242.975C195.34 243.93 195.697 245.228 195.5 246.535ZM107.505 258.44L105.109 241.71H116.461L118.219 257.824L107.505 258.44ZM107.743 260.099L118.401 259.487L119.915 273.369L109.788 274.356L107.743 260.099ZM112.161 290.925L110.024 276.012L120.095 275.03L121.667 289.438L112.161 290.925ZM123.069 302.276L114 303.77L112.397 292.581L121.849 291.1L123.069 302.276ZM135.109 300.292L124.716 302.006L123.499 290.843L134.419 289.133L135.109 300.292ZM146.602 298.396L136.763 300.019L136.075 288.873L146.418 287.254L146.602 298.396ZM159.848 296.213L148.266 298.123L148.082 286.995L159.848 285.151V296.213ZM171.097 294.357L161.516 295.938V284.89L171.633 283.306L171.097 294.357ZM183.169 281.5L182.273 292.516L172.777 294.08L173.313 283.043L183.169 281.5ZM183.309 279.786L173.397 281.338L173.957 269.78L184.205 268.781L183.309 279.786ZM186.955 255.544L194.194 255.127L192.498 266.294L186.027 266.925L186.955 255.544ZM185.274 255.641L184.342 267.088L174.037 268.093L174.612 256.253L185.274 255.641ZM175.317 241.71H186.409L185.411 253.959L174.694 254.576L175.317 241.71ZM161.516 241.71H173.649L173.021 254.671L161.516 255.334V241.71ZM147.328 241.71H159.848V255.429L147.569 256.135L147.328 241.71ZM133.163 241.71H145.66L145.903 256.232L134.101 256.911L133.163 241.71ZM119.887 257.728L118.138 241.71H131.491L132.436 257.005L119.887 257.728ZM121.576 273.207L120.067 259.391L132.54 258.673L133.366 272.057L121.576 273.207ZM134.316 287.458L123.317 289.18L121.756 274.868L133.469 273.727L134.316 287.458ZM146.39 285.567L135.972 287.198L135.13 273.565L146.173 272.488L146.39 285.567ZM159.848 283.459L148.054 285.306L147.837 272.325L159.848 271.155V283.459ZM172.28 269.944L171.715 281.601L161.516 283.197V270.992L172.28 269.944ZM161.516 257.007L172.938 256.349L172.362 268.256L161.516 269.314V257.007ZM146.145 270.812L135.027 271.896L134.204 258.577L145.929 257.903L146.145 270.812ZM147.596 257.807L159.848 257.104V269.475L147.809 270.65L147.596 257.807ZM190.62 278.641L185.001 279.521L185.891 268.618L192.239 267.997L190.62 278.641ZM101.404 276.852L108.361 276.173L110.512 291.185L103.907 292.218L101.404 276.852ZM98.7589 260.617L106.072 260.196L108.125 274.518L101.134 275.2L98.7589 260.617ZM78.0668 223.721C78.0668 225.873 79.6912 227.623 81.6882 227.623C83.4193 227.623 84.865 226.306 85.2221 224.557H86.8394C89.3633 224.557 91.5232 226.567 91.9748 229.34L103.577 300.564C103.873 302.392 104.824 303.963 106.247 304.989C107.265 305.72 108.45 306.105 109.655 306.105C109.964 306.105 110.278 306.078 110.586 306.027L186.23 293.556C188.568 293.172 190.398 291.211 190.783 288.678L192.095 280.041C192.384 279.872 192.557 279.544 192.503 279.193C192.477 279.027 192.393 278.89 192.286 278.774L197.148 246.786C197.422 244.998 196.923 243.211 195.785 241.885C194.765 240.694 193.371 240.039 191.868 240.039H95.4053L93.62 229.07C93.0354 225.487 90.1842 222.886 86.8394 222.886H85.2221C84.865 221.135 83.4193 219.82 81.6882 219.82C79.6912 219.82 78.0668 221.57 78.0668 223.721Z" fill="#2C2C2C"/>
<path d="M66.9074 217.766L66.7796 217.746L44.2582 210.946C44.0253 210.875 43.8958 210.63 43.9658 210.399C44.0358 210.168 44.2792 210.037 44.5102 210.107L66.7499 216.823L74.9129 206.556L52.766 194.804L42.1399 197.346C41.9298 197.396 41.7128 197.284 41.6323 197.081C41.5517 196.88 41.6322 196.648 41.8213 196.54L50.2207 191.702L55.6861 171.352C55.7491 171.119 55.9907 170.983 56.2217 171.042C56.4546 171.105 56.5946 171.345 56.5298 171.58L51.019 192.105L50.8141 192.371L44.8778 195.79L52.724 193.914L53.0304 193.953L75.7882 206.031L76.0123 206.329L75.9265 206.689L67.2488 217.599L66.9074 217.766Z" fill="#09030F"/>
<path d="M353.869 288.675L376.644 332.298L380.063 326.19C380.063 326.19 376.19 314.264 375.108 310.017C374.027 305.77 365.43 284.324 364.338 282.706C363.244 281.085 353.869 288.675 353.869 288.675Z" fill="#FEB3A2"/>
<path d="M387.253 335.398L385.373 328.904L379.837 323.053L374.105 329.908C374.105 329.908 376.007 331.942 374.119 335.921C372.232 339.903 367.736 344.111 367.736 344.111L380.115 338.86L381.26 332.04L383.813 330.095L386.18 335.58L387.253 335.398Z" fill="#FCCA19"/>
<path d="M313.295 289.483L318.888 337.948L324.214 333.487C324.214 333.487 324.865 321.064 325.371 316.746C325.877 312.429 325.529 289.518 325.095 287.634C324.657 285.746 313.295 289.483 313.295 289.483Z" fill="#FEB3A2"/>
<path d="M328.163 345.097L328.703 338.294L325.462 330.757L317.425 335.117C317.425 335.117 318.526 337.728 315.254 340.786C311.983 343.845 306.104 346.165 306.104 346.165L319.998 345.746L323.581 339.742L326.758 338.844L327.06 344.877L328.163 345.097Z" fill="#FCCA19"/>
<path d="M251.706 198.249C251.706 198.249 255.668 200.629 256.274 200.922C256.881 201.216 258.781 202.317 258.781 202.317L262.962 212.63C262.962 212.63 260.763 212.175 259.76 212.095C258.758 212.016 257.753 212.148 257.015 211.614C256.274 211.08 253.607 209.395 253.211 209.208C252.815 209.02 250.518 208.353 250.332 208.139C250.147 207.925 248.523 206.644 248.696 205.627C248.735 205.386 246.899 205.11 247.191 203.898C247.481 202.686 248.219 203.035 248.219 203.035L247.771 202.446C247.771 202.446 245.525 202.233 245.501 201.404C245.473 200.576 246.317 200.227 246.317 200.227L251.706 198.249Z" fill="#F1A599"/>
<path d="M251.338 194.654L246.087 198.458L246.014 198.92L254.095 209.989L254.558 210.062L259.809 206.257L259.881 205.798L251.801 194.727L251.338 194.654Z" fill="#2C2C2C"/>
<path d="M251.387 195.167L246.596 198.814L246.528 199.26L254.078 209.991L254.51 210.062L259.299 206.415L259.368 205.969L251.819 195.238L251.387 195.167Z" fill="#F3F3F3"/>
<path d="M251.448 195.136L246.501 198.742L246.496 198.922L254.296 209.557L254.409 209.576L259.377 205.944L251.563 195.152L251.448 195.136ZM253.912 209.832L246.08 199.154L246.038 199.066C246.015 198.95 245.953 198.559 246.2 198.382L251.169 194.754L251.588 194.654L251.949 194.876L259.78 205.553L259.881 205.963L259.658 206.326L254.686 209.956L254.359 210.062C254.188 210.062 254.016 209.981 253.912 209.832Z" fill="#2C2C2C"/>
<path d="M248.806 196.708L248.068 196.979C248.311 197.146 248.688 197.295 248.973 197.183C249.245 197.077 249.007 196.749 248.806 196.708Z" fill="#2C2C2C"/>
<path d="M249.096 196.781L248.652 196.708L248.582 197.149L249.029 197.222L249.096 196.781Z" fill="black"/>
<path d="M269.125 208.757L264.582 206.372L259.974 202.449L258.795 201.844L255.252 202.208L253.204 205.038C253.204 205.038 253.562 206.156 256.55 204.593C257.465 204.115 258.637 207.382 258.637 207.382L261.668 209.403L262.297 212.356L266.63 215.711L269.125 208.757Z" fill="#FEB3A2"/>
<path d="M315.708 160.243L322.026 171.229C322.026 171.229 322.13 174.369 317.157 174.996C312.187 175.624 309.907 173.95 309.907 173.95L309.7 167.253L315.708 160.243Z" fill="#FEB3A2"/>
<path d="M313.599 156.729C313.599 156.729 314.208 153.944 317.165 154.355C320.119 154.768 313.699 168.377 309.623 169.821C305.549 171.265 301.269 163.635 300.046 160.438C298.826 157.243 296.479 151.987 301.37 150.646C306.262 149.306 313.599 156.729 313.599 156.729Z" fill="#FEB3A2"/>
<path d="M334.482 217.766L308.131 222.041L306.104 318.852C306.104 318.852 307.004 324.655 324.348 325.877C341.69 327.1 354.079 324.045 361.06 315.189C368.043 306.333 373.899 290.144 373.899 290.144L334.482 217.766Z" fill="#2C2C2C"/>
<path d="M321.585 171.028C321.585 171.028 318.812 175.573 316.038 175.447C313.266 175.321 309.609 173.678 309.609 173.678C309.609 173.678 304.066 178.349 301.038 182.262C298.015 186.175 294.835 195.469 292.569 198.749C290.299 202.031 291.315 209.169 284.507 205.636C277.701 202.101 277.678 202.592 275.66 207.389C274.986 208.992 265.646 204.37 265.646 204.37L260.394 211.672C260.394 211.672 272.22 218.035 273.131 219.464C277.798 226.766 276.462 227.579 283.145 226.696C289.823 225.813 293.354 227.959 296.126 223.161C298.898 218.366 305.828 209.025 305.828 209.025L308.98 222.151C308.98 222.151 332.55 221.52 335.07 217.986C337.59 214.451 338.347 215.462 337.212 211.045C336.078 206.626 338.599 202.585 338.599 202.585L344.292 206.277C344.292 206.277 347.193 207.403 348.2 215.103C349.209 222.804 350.893 218.699 355.682 221.35C358.969 223.168 362 230.092 362 230.092L369.151 228.843C369.151 228.843 365.867 220.693 366.323 220.434C370.104 218.287 371.716 219.21 368.819 212.773C365.919 206.335 362.044 205.617 358.387 201.45C354.732 197.285 342.758 183.147 342.758 183.147C342.758 183.147 337.97 177.843 335.45 176.078C332.928 174.31 321.585 171.028 321.585 171.028Z" fill="#FCCA19"/>
<path d="M313.283 157.928C311.254 157.639 311.621 155.44 308.497 153.471C306.56 152.249 298.797 155.689 297.991 152.538C297.182 149.386 301.182 143.072 306.368 141.995C314.141 140.383 315.675 147.24 320.996 150.13C326.107 152.907 325.816 151.021 330.434 154.172C335.054 157.324 340.019 163.627 339.442 167.713C338.866 171.799 337.942 178.219 337.942 178.219C337.942 178.219 334.129 174.367 330.434 173.549C326.741 172.732 321.891 171.448 321.891 171.448L316.075 161.694C316.075 161.694 318.338 156.385 316.606 154.634C314.874 152.883 315.309 158.22 313.283 157.928Z" fill="#2C2C2C"/>
<path d="M297.895 153.699C297.895 153.699 299.041 158.407 299.647 159.798C300.255 161.191 302.813 165.768 303.554 166.697C304.295 167.622 307.865 170.543 309.214 169.879C310.56 169.216 310.157 174.189 310.157 174.189C310.157 174.189 304.969 177.173 303.756 178.763C302.543 180.355 301.264 181.814 301.264 181.814C301.264 181.814 296.077 177.504 294.932 171.404C293.786 165.302 294.529 155.291 294.529 155.291C294.529 155.291 295.481 151.516 296.614 151.046C297.751 150.575 297.895 153.699 297.895 153.699Z" fill="#2C2C2C"/>
<path d="M340.076 160.243L339.698 160.03C339.67 159.983 336.83 155.341 332.818 152.866C331.382 151.982 330.048 151.791 328.502 151.571C325.734 151.177 322.596 150.729 317.932 146.173C311.765 140.155 307.464 142.588 307.286 142.695C307.078 142.815 306.805 142.751 306.681 142.544C306.556 142.335 306.623 142.068 306.829 141.941C307.032 141.82 311.856 139.015 318.547 145.546C323.007 149.901 325.991 150.325 328.626 150.701C330.201 150.926 331.686 151.137 333.283 152.119C337.478 154.708 340.335 159.378 340.453 159.575C340.578 159.784 340.511 160.053 340.303 160.179L340.076 160.243Z" fill="#1F0BC5"/>
<path d="M351.382 218.793C350.166 218.714 349.312 218.305 348.818 217.576C348.182 216.633 348.374 215.463 348.478 215.031C348.156 214.275 346.725 210.795 346.725 208.505C346.725 206.551 347.451 205.427 347.854 204.957C347.771 204.845 347.639 204.714 347.436 204.637C346.974 204.46 346.3 204.616 345.485 205.081C342.689 206.677 338.916 203.267 338.759 203.12L329.861 194.377C329.689 194.207 329.686 193.931 329.854 193.758C330.019 193.587 330.295 193.582 330.466 193.749L339.352 202.482C339.376 202.504 342.805 205.607 345.056 204.319C346.133 203.705 347.044 203.543 347.767 203.828C348.392 204.078 348.707 204.621 348.796 204.903C348.849 205.072 348.794 205.259 348.657 205.371C348.615 205.406 347.592 206.306 347.592 208.505C347.592 210.845 349.314 214.78 349.332 214.82L349.349 215.129C349.349 215.129 348.997 216.29 349.538 217.087C349.874 217.58 350.502 217.861 351.409 217.919C351.649 217.935 351.831 218.143 351.814 218.384C351.8 218.615 351.609 218.793 351.382 218.793Z" fill="#09030F"/>
<path d="M305.662 209.548C305.495 209.548 305.336 209.452 305.262 209.29C305.236 209.233 302.658 203.589 301.761 201.451C300.987 199.597 301.958 197.562 303.081 195.206C303.392 194.555 303.718 193.873 304.018 193.164C305.319 190.113 305.224 185.905 305.222 185.864C305.215 185.62 305.412 185.413 305.655 185.409C305.892 185.405 306.095 185.6 306.102 185.839C306.107 186.02 306.202 190.285 304.826 193.513C304.522 194.234 304.191 194.927 303.872 195.591C302.843 197.753 301.953 199.622 302.572 201.106C303.462 203.231 306.037 208.864 306.063 208.921C306.163 209.143 306.067 209.405 305.847 209.507L305.662 209.548Z" fill="#09030F"/>
<path d="M310.641 170.001C310.459 170.001 310.288 169.876 310.232 169.68C310.163 169.442 310.288 169.185 310.514 169.113C314.065 167.947 314.493 164.779 314.497 164.748C314.527 164.499 314.746 164.323 314.977 164.355C315.21 164.388 315.376 164.615 315.345 164.864C315.328 165.018 314.839 168.644 310.769 169.979L310.641 170.001Z" fill="#09030F"/>
<path d="M275.739 218.793C275.503 218.796 275.305 218.606 275.298 218.372C275.291 218.103 275.133 211.8 276.426 209.29C277.29 207.609 278.013 206.61 278.459 206.479L278.652 206.467C278.687 206.472 282.051 207.019 285.626 208.054C287.229 208.521 287.894 208.141 288.539 207.775C289.249 207.371 289.984 206.957 291.467 208.013C294.281 210.017 292.954 211.956 292.94 211.975C292.801 212.171 292.53 212.215 292.334 212.079C292.139 211.941 292.094 211.674 292.23 211.478C292.27 211.417 293.041 210.197 290.962 208.718C289.932 207.983 289.61 208.165 288.968 208.529C288.282 208.919 287.34 209.453 285.384 208.886C282.3 207.994 279.371 207.468 278.671 207.349C278.541 207.481 278.063 208.006 277.198 209.685C276.007 212.001 276.165 218.283 276.167 218.347C276.174 218.587 275.977 218.789 275.739 218.793Z" fill="#09030F"/>
<path d="M273.305 210.062L273.142 210.031L264.781 206.785C264.555 206.697 264.445 206.446 264.534 206.223C264.626 206.002 264.889 205.898 265.11 205.981L273.469 209.229C273.695 209.317 273.807 209.568 273.717 209.789C273.648 209.958 273.482 210.062 273.305 210.062Z" fill="#09030F"/>
<path d="M272.27 212.63L272.09 212.591L264.259 208.941C264.032 208.834 263.928 208.547 264.027 208.302C264.124 208.053 264.389 207.939 264.62 208.05L272.449 211.699C272.676 211.806 272.783 212.092 272.683 212.338C272.609 212.521 272.445 212.63 272.27 212.63Z" fill="#09030F"/>
<path d="M270.759 214.684L270.564 214.635L263.701 210.886C263.496 210.774 263.417 210.509 263.524 210.296C263.632 210.082 263.887 210.001 264.093 210.11L270.956 213.857C271.161 213.971 271.24 214.236 271.132 214.449L270.759 214.684Z" fill="#09030F"/>
<path d="M366.809 227.524C366.647 227.524 366.493 227.422 366.427 227.251L364.174 221.467C364.085 221.24 364.184 220.977 364.396 220.881C364.606 220.788 364.849 220.893 364.937 221.12L367.19 226.905C367.279 227.131 367.18 227.394 366.968 227.49L366.809 227.524Z" fill="#09030F"/>
<path d="M364.253 228.038C364.089 228.038 363.935 227.919 363.876 227.727L362.11 221.992C362.036 221.748 362.144 221.478 362.352 221.39C362.562 221.3 362.788 221.428 362.865 221.672L364.631 227.407C364.706 227.652 364.597 227.921 364.389 228.009L364.253 228.038Z" fill="#09030F"/>
<path d="M362.677 228.038C362.518 228.038 362.364 227.951 362.287 227.801L359.567 222.507C359.457 222.293 359.542 222.031 359.757 221.921C359.974 221.813 360.237 221.899 360.345 222.111L363.067 227.405C363.175 227.62 363.09 227.881 362.875 227.991L362.677 228.038Z" fill="#09030F"/>
<path d="M382.54 291.21L382.117 297.398L382.754 297.887L391.362 296.367L382.54 291.21Z" fill="#DFDFDF"/>
<path d="M405.229 271.095L408.034 275.282L408.722 275.289L413.961 270.153L405.229 271.095Z" fill="#FDE180"/>
<path d="M413.96 270.306L389.424 244.473L387.767 246.194L405.595 272.207L413.96 270.306Z" fill="#E69104"/>
<path d="M376.18 255.772L375.966 255.659C375.766 255.346 371.052 247.972 371.961 244.612C372.127 243.992 372.479 243.533 373.001 243.253C376.622 241.308 384.845 248.831 385.193 249.152L385.198 249.49L384.845 249.497C384.762 249.419 376.55 241.895 373.245 243.67C372.842 243.888 372.58 244.235 372.446 244.732C371.592 247.896 376.347 255.332 376.396 255.407L376.313 255.736L376.18 255.772Z" fill="#2C2C2C"/>
<path d="M368.764 259.179L387.934 243.959C387.934 243.959 388.266 244.45 388.848 245.311C392.797 251.135 408.18 273.892 408.824 275.56L387.02 288.129L368.764 259.179Z" fill="#FFCC00"/>
<path d="M383.244 250.426C383.077 250.197 383.125 249.877 383.353 249.709C383.584 249.54 383.905 249.59 384.072 249.818C384.239 250.047 384.191 250.368 383.963 250.537C383.732 250.704 383.411 250.655 383.244 250.426Z" fill="#E69104"/>
<path d="M374.512 257.103C374.345 256.874 374.394 256.553 374.623 256.386C374.852 256.217 375.172 256.266 375.34 256.495C375.508 256.724 375.46 257.046 375.231 257.213C375.002 257.381 374.68 257.332 374.512 257.103Z" fill="#1E23C8"/>
<path d="M374.703 256.799L374.48 256.659C374.254 256.198 368.97 245.289 372.604 243.246C376.204 241.223 383.355 249.614 383.658 249.97L383.627 250.32L383.278 250.29C383.206 250.205 376.086 241.853 372.848 243.678C370.166 245.184 373.44 253.403 374.925 256.442L374.813 256.775L374.703 256.799Z" fill="#2C2C2C"/>
<path d="M351.077 281.965L347.706 285.723L347.85 286.393L353.869 290.183L351.077 281.965Z" fill="#898989"/>
<path d="M354.026 290.183L372.872 260.563L370.85 259.367L350.274 282.568L354.026 290.183Z" fill="#2C2C2C"/>
<path d="M367.327 257.313L367.206 257.28L367.118 256.941C367.175 256.845 372.718 247.168 370.21 244.445C369.903 244.112 369.499 243.946 368.979 243.94C365.611 243.938 359.412 250.235 359.35 250.299L359.007 250.301L359.005 249.953C359.266 249.684 365.484 243.406 368.986 243.446C369.636 243.456 370.169 243.679 370.565 244.11C373.321 247.099 367.776 256.781 367.539 257.191L367.327 257.313Z" fill="#2C2C2C"/>
<path d="M354.1 243.959L373.386 258.909C373.386 258.909 372.988 259.346 372.288 260.114C367.55 265.308 349.041 285.569 347.571 286.588L330.244 268.464L354.1 243.959Z" fill="#B4B4B4"/>
<path d="M356.951 249.095C356.951 248.811 357.296 248.582 357.722 248.582C358.148 248.582 358.491 248.811 358.491 249.095C358.491 249.379 358.148 249.609 357.722 249.609C357.296 249.609 356.951 249.379 356.951 249.095Z" fill="#2C2C2C"/>
<path d="M365.802 255.955C365.984 255.738 366.309 255.71 366.526 255.892C366.743 256.074 366.772 256.399 366.588 256.616C366.406 256.833 366.081 256.862 365.864 256.678C365.647 256.496 365.62 256.171 365.802 255.955Z" fill="#E69104"/>
<path d="M366.485 256.286L366.338 256.239L366.284 255.9C366.349 255.813 372.803 247.14 370.259 244.472C368.163 242.278 360.938 247.282 358.328 249.395L357.978 249.364L358.011 249.023C358.409 248.7 367.786 241.162 370.621 244.141C373.444 247.1 366.961 255.818 366.685 256.188L366.485 256.286Z" fill="#2C2C2C"/>
<path d="M391.362 296.346V254.745L383.179 256.103L382.117 292.375L391.362 296.346Z" fill="#2C2C2C"/>
<path d="M378.282 257.313L378.045 257.105C378.022 256.975 375.805 243.976 371.541 243.443C371.01 243.378 370.519 243.54 370.042 243.941C367.047 246.449 366.174 256.979 366.166 257.084L365.904 257.313L365.682 257.044C365.718 256.603 366.582 246.198 369.736 243.554C370.311 243.071 370.949 242.867 371.597 242.95C376.219 243.524 378.429 256.471 378.522 257.021L378.323 257.309L378.282 257.313Z" fill="#2C2C2C"/>
<path d="M356.803 254.874L385.199 253.718C385.199 253.718 385.171 254.411 385.122 255.623C384.785 263.83 383.441 295.871 382.894 297.887L353.869 294.732L356.803 254.874Z" fill="#898989"/>
<path d="M375.954 257.056C375.954 256.631 376.299 256.286 376.723 256.286C377.149 256.286 377.494 256.631 377.494 257.056C377.494 257.481 377.149 257.826 376.723 257.826C376.299 257.826 375.954 257.481 375.954 257.056Z" fill="#2C2C2C"/>
<path d="M363.627 257.056C363.627 256.631 363.858 256.286 364.142 256.286C364.426 256.286 364.655 256.631 364.655 257.056C364.655 257.481 364.426 257.826 364.142 257.826C363.858 257.826 363.627 257.481 363.627 257.056Z" fill="#2C2C2C"/>
<path d="M364.385 257.313C364.208 257.284 364.121 257.153 364.145 257.016C364.251 256.418 366.758 242.342 371.427 242.951C376.068 243.536 376.947 256.494 376.981 257.045L376.747 257.313L376.497 257.078C376.489 256.947 375.613 243.985 371.37 243.45L371.136 243.436C367.059 243.436 364.646 256.966 364.622 257.107L364.385 257.313Z" fill="#2C2C2C"/>
<path d="M370.711 243.516L370.28 241.544C370.28 241.544 371.202 240.745 371.574 240.953C372.043 241.215 371.897 243.819 371.897 243.819L370.711 243.516ZM373.042 246.97C373.929 246.67 375.928 240.822 375.953 240.121C376.046 237.867 370.617 233.711 370.237 232.993C369.852 232.284 368.648 229.065 368.648 229.065L362.601 230.083L365.354 234.47C365.354 234.47 366.208 238.292 366.161 239.126C366.118 239.95 367.958 243.489 367.958 243.489C367.958 243.489 366.174 243.099 366.168 243.938C366.158 244.79 368.377 245.369 368.377 245.369C368.377 245.369 369.6 247.951 370.608 248.063C371.613 248.173 371.553 246.548 371.553 246.548C371.553 246.548 372.687 247.091 373.042 246.97Z" fill="#FEB3A2"/>
<path d="M290.183 141.24H223.415V127.886H290.183V141.24Z" fill="#F3F3F3"/>
<path d="M275.802 139.699C275.521 139.699 275.289 139.502 275.289 139.259V129.353C275.289 129.11 275.521 128.913 275.802 128.913C276.086 128.913 276.316 129.11 276.316 129.353V139.259C276.316 139.502 276.086 139.699 275.802 139.699Z" fill="#2C2C2C"/>
<path d="M280.425 132.527L286.588 132.508L283.732 136.617L280.425 132.527Z" fill="white"/>
<path d="M281.175 132.893L283.444 135.924L285.402 132.879L281.175 132.893ZM283.479 137.131L283.125 136.956L279.956 132.722L279.911 132.259C279.984 132.109 280.135 132.014 280.3 132.014L286.206 131.995C286.366 131.995 286.512 132.083 286.588 132.224L286.569 132.676L283.833 136.93L283.479 137.131Z" fill="#2C2C2C"/>
<path d="M257.841 170.001H229.049C225.938 170.001 223.415 167.462 223.415 164.331V161.292C223.415 158.159 225.938 155.62 229.049 155.62H257.841C260.955 155.62 263.476 158.159 263.476 161.292V164.331C263.476 167.462 260.955 170.001 257.841 170.001Z" fill="#FCCA19"/>
<path d="M243.027 222.147C243.027 222.147 244.867 230.536 250.02 230.944C255.174 231.354 257.277 222.147 257.277 222.147C257.277 222.147 259.209 220.991 262.301 223.442C257.566 234.535 263.09 241.666 263.09 241.666L265.017 269.126H236.769L237.39 241.552C237.39 241.552 242.52 238.353 238.669 223.781C240.873 222.147 243.027 222.147 243.027 222.147Z" fill="#FCCA19"/>
<path d="M273.25 280.003C273.25 280.003 271.826 277.451 269.898 278.752C265.669 281.609 273.221 287.101 273.221 287.101C273.221 287.101 280.653 281.467 276.696 278.752C274.757 277.42 273.25 280.003 273.25 280.003Z" fill="white"/>
<path d="M270.879 278.387C270.535 278.387 270.189 278.503 269.845 278.735C269.02 279.294 268.612 279.96 268.598 280.773C268.555 283.325 272.409 286.417 273.217 287.038C274.027 286.392 277.928 283.145 277.87 280.603C277.852 279.85 277.489 279.238 276.755 278.734C276.289 278.414 275.811 278.307 275.336 278.416C274.239 278.668 273.464 279.977 273.464 279.977L273.251 280.1L273.034 279.971C273.034 279.971 272.307 278.69 271.248 278.431L270.879 278.387ZM273.221 287.615L273.076 287.57C272.871 287.419 268.047 283.869 268.098 280.764C268.114 279.783 268.61 278.955 269.57 278.305C270.158 277.908 270.763 277.785 271.368 277.932C272.268 278.153 272.933 278.931 273.254 279.385C273.589 278.928 274.292 278.129 275.227 277.913C275.834 277.768 276.446 277.902 277.034 278.307C277.9 278.901 278.35 279.67 278.369 280.592C278.44 283.681 273.577 287.408 273.369 287.566L273.221 287.615Z" fill="#2C2C2C"/>
<path d="M225.469 81.6621H194.14L196.592 49.819H222.638L225.469 81.6621Z" fill="white"/>
<path d="M211.922 108.883H207.687C200.204 108.883 194.14 102.782 194.14 95.2531V81.6621H225.469V95.2531C225.469 102.782 219.403 108.883 211.922 108.883Z" fill="#DFDFDF"/>
<path d="M194.248 81.6621H162.811L170.32 49.819H196.708L194.248 81.6621Z" fill="#898989"/>
<path d="M180.592 108.883H176.359C168.876 108.883 162.811 102.782 162.811 95.2531V81.6621H194.14V95.2531C194.14 102.782 188.074 108.883 180.592 108.883Z" fill="#282728"/>
<path d="M162.743 81.6621H131.481L144.603 49.819H170.001L162.743 81.6621Z" fill="white"/>
<path d="M149.264 108.883H145.03C137.547 108.883 131.481 102.782 131.481 95.2531V81.6621H162.811V95.2531C162.811 102.782 156.746 108.883 149.264 108.883Z" fill="#DFDFDF"/>
<path d="M131.595 81.6621H100.152L117.804 49.819H144.835L131.595 81.6621Z" fill="#898989"/>
<path d="M117.933 108.883H113.7C106.218 108.883 100.152 102.782 100.152 95.2531V81.6621H131.481V95.2531C131.481 102.782 125.416 108.883 117.933 108.883Z" fill="#282728"/>
<path d="M100.11 81.6621H68.8218L91.2649 49.819H117.614L100.11 81.6621Z" fill="white"/>
<path d="M86.6042 108.883H82.3706C74.8862 108.883 68.8218 102.782 68.8218 95.2531V81.6621H100.152V95.2531C100.152 102.782 94.0851 108.883 86.6042 108.883Z" fill="#DFDFDF"/>
<path d="M69.6904 81.6621H38.52L65.1729 49.819H91.4207L69.6904 81.6621Z" fill="#898989"/>
<path d="M56.3015 108.883H52.0681C44.5859 108.883 38.52 102.782 38.52 95.2531V81.6621H69.8495V95.2531C69.8495 102.782 63.7837 108.883 56.3015 108.883Z" fill="#282728"/>
<path d="M225.84 81.6621H256.799L249.405 49.819H223.415L225.84 81.6621Z" fill="#898989"/>
<path d="M239.018 108.883H243.252C250.733 108.883 256.799 102.782 256.799 95.2531L256.799 81.6621H225.469V95.2531C225.469 102.782 231.534 108.883 239.018 108.883Z" fill="#282728"/>
<path d="M256.864 81.6621H288.129L275.008 49.819H249.609L256.864 81.6621Z" fill="white"/>
<path d="M270.347 108.883H274.581C282.065 108.883 288.129 102.782 288.129 95.2531L288.129 81.6621H256.799L256.799 95.2531C256.799 102.782 262.865 108.883 270.347 108.883Z" fill="#DFDFDF"/>
<path d="M288.375 81.6621H319.458L302.008 49.819H275.289L288.375 81.6621Z" fill="#898989"/>
<path d="M301.677 108.883H305.91C313.392 108.883 319.458 102.782 319.458 95.2531L319.458 81.6621H288.129L288.129 95.2531C288.129 102.782 294.195 108.883 301.677 108.883Z" fill="#282728"/>
<path d="M319.499 81.6621H350.787L328.346 49.819H301.996L319.499 81.6621Z" fill="white"/>
<path d="M333.005 108.883H337.241C344.721 108.883 350.788 102.782 350.788 95.2531L350.787 81.6621H319.458L319.458 95.2531C319.458 102.782 325.524 108.883 333.005 108.883Z" fill="#DFDFDF"/>
<path d="M351.432 81.6621H382.631L354.975 49.819H328.703L351.432 81.6621Z" fill="#898989"/>
<path d="M364.849 108.883H369.083C376.567 108.883 382.631 102.782 382.631 95.2531L382.631 81.6621H351.301V95.2531C351.301 102.782 357.367 108.883 364.849 108.883Z" fill="#282728"/>
<path d="M206.98 243.735V253.204H220.571C221.747 253.204 222.797 252.465 223.203 251.351L225.93 243.873C226.202 242.787 225.389 241.734 224.281 241.734H218.564L218.451 237.325C218.426 236.379 217.92 235.515 217.113 235.038L216.8 234.853C216.135 234.46 215.303 234.953 215.315 235.729L215.363 238.884L211.858 243.582L206.98 243.735Z" fill="white"/>
<path d="M207.705 252.467H220.526C221.424 252.467 222.237 251.896 222.544 251.045L225.244 243.658C225.305 243.397 225.235 243.062 225.031 242.799C224.83 242.537 224.522 242.385 224.194 242.385H217.938L217.81 237.422C217.791 236.7 217.411 236.051 216.793 235.684L216.483 235.503C216.321 235.406 216.178 235.471 216.123 235.503C216.069 235.534 215.943 235.63 215.947 235.82L215.998 239.152L212.225 244.2L207.705 244.343V252.467ZM220.526 253.718H206.466V243.131L211.594 242.971L214.753 238.741L214.708 235.839C214.699 235.25 214.994 234.719 215.5 234.423C216.003 234.127 216.606 234.127 217.109 234.423L217.418 234.607C218.409 235.192 219.017 236.233 219.047 237.388L219.143 241.136H224.194C224.909 241.136 225.569 241.463 226.01 242.03C226.448 242.6 226.6 243.327 226.426 244.027L223.708 251.478C223.219 252.816 221.941 253.718 220.526 253.718Z" fill="#2C2C2C"/>
<path d="M414.801 197.735H448.045C448.791 197.735 449.399 198.873 449.399 200.276V231.66C449.399 233.063 448.791 234.201 448.045 234.201H414.801C414.053 234.201 413.447 233.063 413.447 231.66V200.276C413.447 198.873 414.053 197.735 414.801 197.735Z" fill="white"/>
<path d="M414.73 198.603C414.356 198.603 413.808 199.414 413.808 200.685V231.765C413.808 233.035 414.356 233.846 414.73 233.846H448.115C448.49 233.846 449.037 233.035 449.037 231.765V200.685C449.037 199.414 448.49 198.603 448.115 198.603H414.73ZM448.115 234.714H414.73C413.705 234.714 412.933 233.445 412.933 231.765V200.685C412.933 199.005 413.705 197.735 414.73 197.735H448.115C449.139 197.735 449.912 199.005 449.912 200.685V231.765C449.912 233.445 449.139 234.714 448.115 234.714Z" fill="#2C2C2C"/>
<path d="M431.422 202.871L435.391 210.988L444.262 212.288L437.844 218.605L439.358 227.524L431.422 223.312L423.487 227.524L425.003 218.605L418.582 212.288L427.454 210.988L431.422 202.871Z" fill="#FCCA19"/>
<path d="M418.475 139.891L417.892 139.677C416.488 139.165 415.597 138.984 415.597 138.984L414.988 138.862L415.231 137.644L415.841 137.764C415.88 137.772 416.814 137.962 418.316 138.509L418.899 138.723L418.475 139.891ZM424.888 143.361L424.372 143.015C423.663 142.535 422.967 142.108 422.301 141.729L421.761 141.424L422.373 140.342L422.914 140.649C423.606 141.042 424.325 141.486 425.066 141.984L425.582 142.331L424.888 143.361ZM430.345 148.212L429.921 147.758C429.348 147.144 428.771 146.572 428.193 146.037L427.735 145.616L428.577 144.704L429.034 145.125C429.633 145.678 430.235 146.272 430.827 146.909L431.253 147.363L430.345 148.212ZM434.612 154.144L434.293 153.609C433.868 152.892 433.426 152.206 432.975 151.555L432.621 151.045L433.643 150.336L433.995 150.849C434.463 151.522 434.917 152.231 435.361 152.974L435.678 153.509L434.612 154.144ZM437.579 160.827L437.38 160.24C437.127 159.498 436.843 158.752 436.521 158.005L437.66 157.503C437.995 158.291 438.294 159.068 438.557 159.838L438.755 160.426L437.579 160.827ZM438.91 167.992L438.857 167.373C438.792 166.58 438.696 165.774 438.563 164.956L438.461 164.344L439.686 164.142L439.788 164.755C439.928 165.605 440.028 166.445 440.096 167.271L440.147 167.891L438.91 167.992ZM439.728 175.466L438.499 175.279L438.592 174.665C438.711 173.879 438.806 173.07 438.868 172.242L438.915 171.621L440.154 171.714L440.107 172.335C440.042 173.197 439.945 174.035 439.821 174.852L439.728 175.466ZM437.7 182.767L436.537 182.333L436.752 181.751C437.022 181.025 437.283 180.25 437.525 179.432L437.7 178.836L438.892 179.19L438.715 179.785C438.464 180.632 438.196 181.432 437.916 182.182L437.7 182.767ZM434.239 189.518L433.196 188.841L433.535 188.32C433.755 187.978 434.209 187.252 434.758 186.217L435.049 185.668L436.146 186.248L435.857 186.799C435.284 187.876 434.809 188.639 434.576 188.997L434.239 189.518Z" fill="#2C2C2C"/>
<path d="M386.448 214.16L385.968 213.747C385.325 213.193 384.694 212.587 384.091 211.94L383.658 211.476L384.553 210.575L384.987 211.039C385.557 211.651 386.155 212.227 386.763 212.749L387.243 213.162L386.448 214.16ZM393.188 217.923L392.603 217.701C391.798 217.395 391.009 217.039 390.253 216.648L389.695 216.358L390.253 215.199L390.808 215.49C391.524 215.861 392.271 216.197 393.032 216.486L393.617 216.709L393.188 217.923ZM404.552 219.184L404.405 217.898L405.022 217.821C406.486 217.64 407.393 217.395 407.393 217.395L407.996 217.231L408.311 218.483L407.71 218.649C407.671 218.66 406.729 218.914 405.169 219.107L404.552 219.184ZM400.706 219.306L400.085 219.272C399.227 219.221 398.375 219.129 397.548 219.001L396.933 218.905L397.118 217.624L397.735 217.719C398.522 217.843 399.336 217.931 400.154 217.978L400.776 218.015L400.706 219.306Z" fill="#2C2C2C"/>
<path d="M36.4346 56.8586L36.1334 55.6566L36.741 55.5061C38.0572 55.1842 38.966 55.0617 39.2955 55.025L39.919 54.955L40.0607 56.1868L39.4372 56.2568C39.1998 56.2848 38.3229 56.395 37.044 56.7099L36.4346 56.8586ZM29.6216 59.6354L29.0299 58.5418L29.5844 58.2496C30.378 57.8297 31.1503 57.4658 31.8908 57.1474L32.4647 56.8989L32.9661 58.0344L32.3921 58.2829C31.68 58.5891 30.9377 58.9408 30.176 59.3432L29.6216 59.6354ZM23.657 63.9115L22.8245 62.9824L23.2957 62.5731C23.9529 61.9957 24.6154 61.4637 25.2744 60.9703L25.774 60.5977L26.5321 61.5862L26.0308 61.9607C25.3966 62.4348 24.7607 62.9475 24.1265 63.5004L23.657 63.9115ZM18.8316 69.4177L17.8112 68.6951L18.1762 68.1912C18.6863 67.4896 19.2072 66.8265 19.7386 66.1948L20.1407 65.7207L21.1044 66.5133L20.7023 66.9909C20.1903 67.5963 19.6872 68.2367 19.1983 68.9138L18.8316 69.4177ZM15.2639 75.811L14.1195 75.3018L14.3782 74.7349C14.736 73.9528 15.1098 73.2005 15.4977 72.4761L15.7918 71.9285L16.9007 72.5076L16.6067 73.057C16.2311 73.7569 15.8697 74.4865 15.5207 75.2458L15.2639 75.811ZM12.9167 82.7484L11.6979 82.4474L11.8503 81.8455C12.0522 81.0494 12.2843 80.2429 12.5518 79.424L12.7431 78.8326L13.9388 79.2123L13.7457 79.802C13.4889 80.5946 13.2621 81.3766 13.069 82.1465L12.9167 82.7484ZM12.0416 89.9867L10.7856 89.9552L10.8034 89.3359C10.8229 88.5118 10.876 87.6702 10.9646 86.8146L11.0284 86.1987L12.2772 86.3247L12.2135 86.9406C12.1284 87.7647 12.077 88.573 12.0575 89.3673L12.0416 89.9867ZM11.636 97.477L11.5066 96.8699C11.333 96.0616 11.1878 95.2305 11.0726 94.3801L10.9893 93.7643L12.2347 93.6015L12.3162 94.2156C12.4278 95.0362 12.5677 95.8341 12.7342 96.611L12.8653 97.2181L11.636 97.477ZM14.1886 104.605L13.9282 104.042C13.581 103.296 13.2515 102.52 12.9433 101.713L12.7218 101.132L13.8981 100.696L14.1178 101.277C14.4154 102.056 14.7342 102.805 15.0672 103.526L15.3294 104.089L14.1886 104.605ZM18.1815 111.051L17.8112 110.552C17.3347 109.908 16.8511 109.214 16.3728 108.468L16.0362 107.944L17.0973 107.279L17.4322 107.804C17.8963 108.524 18.3639 109.198 18.8245 109.821L19.1947 110.321L18.1815 111.051ZM23.4445 116.587L22.9609 116.193C22.929 116.167 22.192 115.565 21.0849 114.422L20.6509 113.976L21.5579 113.117L21.9919 113.565C23.0424 114.648 23.758 115.236 23.758 115.236L24.2416 115.63L23.4445 116.587Z" fill="#2C2C2C"/>
<path d="M439.64 29.2804C439.639 36.0871 434.232 41.605 427.566 41.6015C420.901 41.5997 415.5 36.0783 415.501 29.2698C415.505 22.463 420.911 16.947 427.576 16.9487C434.241 16.9523 439.644 22.4736 439.64 29.2804Z" fill="#DFDFDF"/>
<path d="M304.05 22.601C304.048 25.4365 301.749 27.7343 298.911 27.7343C296.076 27.7325 293.778 25.4329 293.778 22.5956C293.78 19.7601 296.081 17.4623 298.915 17.4623C301.752 17.4641 304.052 19.7637 304.05 22.601Z" fill="#FCCA19"/>
<path d="M194.14 313.297C194.138 316.133 191.837 318.433 189.001 318.431C186.166 318.429 183.868 316.129 183.868 313.291C183.87 310.455 186.169 308.157 189.005 308.159C191.842 308.159 194.14 310.459 194.14 313.297Z" fill="#DFDFDF"/>
<path d="M294.805 309.889C293.223 309.889 291.733 310.483 290.614 311.563C289.493 312.642 288.877 314.077 288.877 315.604C288.875 317.132 289.491 318.567 290.61 319.648C291.73 320.727 293.22 321.323 294.804 321.323C298.071 321.323 300.732 318.761 300.734 315.61C300.736 314.082 300.118 312.646 298.999 311.566C297.879 310.485 296.388 309.891 294.805 309.889ZM294.804 322.54C292.883 322.54 291.075 321.817 289.717 320.508C288.361 319.197 287.615 317.455 287.615 315.604C287.617 313.753 288.364 312.011 289.722 310.701C291.08 309.393 292.887 308.673 294.805 308.673C296.726 308.674 298.532 309.397 299.89 310.706C301.248 312.016 301.996 313.758 301.996 315.61C301.994 319.432 298.765 322.54 294.804 322.54Z" fill="#2C2C2C"/>
<path d="M23.5921 243.416C22.2861 244.702 20.47 245.516 18.4898 245.516C16.552 245.516 14.7571 244.762 13.3893 243.416C12.0215 242.05 11.2873 240.238 11.2873 238.321C11.2873 236.385 12.0215 234.569 13.3893 233.224C14.7571 231.859 16.5714 231.103 18.4898 231.103C22.4697 231.103 25.7152 234.345 25.6941 238.321C25.6941 240.298 24.8769 242.114 23.5921 243.416ZM25.0411 231.777C23.2868 230.043 20.9589 229.065 18.4898 229.065C16.0208 229.065 13.6946 230.024 11.9403 231.777C10.2055 233.529 9.24536 235.833 9.24536 238.321C9.22595 240.788 10.2055 243.111 11.9403 244.844C13.6946 246.597 16.0208 247.554 18.4898 247.554C20.9589 247.554 23.2868 246.597 25.0411 244.844C26.7759 243.111 27.7343 240.788 27.7343 238.321C27.7555 235.855 26.7759 233.529 25.0411 231.777Z" fill="#FCCA19"/>
<path d="M77.6086 152.539L77.3707 152.474C73.8925 150.417 72.4958 146.101 72.4372 145.918C72.364 145.684 72.5013 145.439 72.7429 145.367C72.9882 145.297 73.2409 145.429 73.3141 145.661C73.3269 145.701 74.6706 149.846 77.8485 151.724C78.0645 151.851 78.1322 152.122 77.9985 152.329L77.6086 152.539Z" fill="#09030F"/>
<path d="M22.5764 137.49C21.3672 137.49 20.3831 138.473 20.3831 139.68V151.53C20.3831 152.737 21.3672 153.72 22.5764 153.72H41.1102C42.3194 153.72 43.3034 152.737 43.3034 151.53V139.68C43.3034 138.473 42.3194 137.49 41.1102 137.49H22.5764ZM41.1102 154.593H22.5764C20.889 154.593 19.5169 153.219 19.5169 151.53V139.68C19.5169 137.991 20.889 136.617 22.5764 136.617H41.1102C42.7976 136.617 44.1696 137.991 44.1696 139.68V151.53C44.1696 153.219 42.7976 154.593 41.1102 154.593Z" fill="#2C2C2C"/>
<path d="M19.9577 141.24C19.7144 141.24 19.5169 141.031 19.5169 140.775C19.5152 140.514 19.7126 140.304 19.9559 140.302L43.7289 140.212C43.9722 140.212 44.1696 140.42 44.1696 140.677C44.1714 140.938 43.9739 141.148 43.7306 141.15L19.9577 141.24Z" fill="#2C2C2C"/>
<path d="M19.9577 151.512C19.7161 151.512 19.5187 151.304 19.5169 151.046C19.5169 150.787 19.7126 150.578 19.9559 150.576L43.7289 150.484C43.9722 150.484 44.1679 150.694 44.1696 150.95C44.1696 151.208 43.974 151.42 43.7307 151.42L19.9577 151.512Z" fill="#2C2C2C"/>
<path d="M25.0814 137.644C24.82 137.629 24.6394 137.423 24.6532 137.182L24.9094 132.906L25.0814 132.583L25.4357 132.508L41.7815 136.365C42.0137 136.419 42.1581 136.654 42.1031 136.89C42.0498 137.123 41.821 137.27 41.5871 137.216L25.7367 133.474L25.5114 137.235C25.4976 137.467 25.3084 137.644 25.0814 137.644Z" fill="#2C2C2C"/>
<path d="M41.67 137.131L41.4758 137.085L29.2573 131.06L29.1379 133.642C29.1255 133.895 28.9259 134.126 28.6729 134.075C28.4252 134.064 28.2363 133.851 28.2488 133.6L28.4002 130.328L28.6159 129.959L29.0381 129.94L41.8642 136.266C42.0852 136.375 42.1778 136.646 42.0709 136.874C41.9943 137.036 41.8357 137.131 41.67 137.131Z" fill="#2C2C2C"/>
<path d="M376.543 50.3326H52.8247C52.583 50.3326 52.3868 50.1025 52.3868 49.819C52.3868 49.5355 52.583 49.3054 52.8247 49.3054H376.543C376.783 49.3054 376.981 49.5355 376.981 49.819C376.981 50.1025 376.783 50.3326 376.543 50.3326Z" fill="#2C2C2C"/>
<path d="M62.6583 40.9924C61.4336 40.9924 60.4376 42.0713 60.4376 43.3981C60.4376 44.7249 61.4336 45.8057 62.6583 45.8057C63.883 45.8057 64.8807 44.7249 64.8807 43.3981C64.8807 42.0713 63.883 40.9924 62.6583 40.9924ZM62.6583 46.7374C60.9588 46.7374 59.5775 45.2392 59.5775 43.3981C59.5775 41.557 60.9588 40.0607 62.6583 40.0607C64.3578 40.0607 65.7407 41.557 65.7407 43.3981C65.7407 45.2392 64.3578 46.7374 62.6583 46.7374Z" fill="#2C2C2C"/>
<path d="M69.8494 43.3991C69.8494 41.5566 71.3453 40.0607 73.1878 40.0607C75.032 40.0607 76.5262 41.5566 76.5262 43.3991C76.5262 45.2432 75.032 46.7374 73.1878 46.7374C71.3453 46.7374 69.8494 45.2432 69.8494 43.3991Z" fill="#2C2C2C"/>
<path d="M83.4596 40.9415C82.1049 40.9415 81.0021 42.0443 81.0021 43.3991C81.0021 44.7538 82.1049 45.8566 83.4596 45.8566C84.8143 45.8566 85.9172 44.7538 85.9172 43.3991C85.9172 42.0443 84.8143 40.9415 83.4596 40.9415ZM83.4596 46.7374C81.6186 46.7374 80.1212 45.24 80.1212 43.3991C80.1212 41.5581 81.6186 40.0607 83.4596 40.0607C85.2988 40.0607 86.798 41.5581 86.798 43.3991C86.798 45.24 85.2988 46.7374 83.4596 46.7374Z" fill="#2C2C2C"/>
<path d="M336.997 46.2238H121.647C120.271 46.2238 119.155 45.1293 119.155 43.7805V43.0176C119.155 41.6688 120.271 40.5743 121.647 40.5743H336.997C338.373 40.5743 339.489 41.6688 339.489 43.0176V43.7805C339.489 45.1293 338.373 46.2238 336.997 46.2238Z" fill="#DFDFDF"/>
<path d="M73.7706 209.035L82.013 212.735L87.3999 214.946L89.3663 220.842L87.3284 225.965L81.0368 230.092L80.9932 227.842C80.9932 227.842 84.6768 225.493 84.5391 224.085C84.0875 219.441 79.684 221.136 79.684 221.136C79.684 221.136 78.5909 222.905 76.4065 221.946C75.1409 221.392 72.7665 217.747 72.7665 217.747L68.3088 215.636L73.7706 209.035Z" fill="#FEB3A2"/>
</svg>
