<svg width="316" height="283" viewBox="0 0 316 283" fill="none" xmlns="http://www.w3.org/2000/svg">
<path d="M62.8351 252.108C104.122 290.773 143.694 271.122 179.5 251.472C203.061 238.541 224.992 225.611 244.707 229.298C295.738 238.835 319.434 186.576 284.451 119.295C250.391 53.7915 195.8 20.7013 159.14 14.5938C98.5339 4.49628 32.7881 63.8509 53.055 111.398C71.3468 154.311 17.6214 209.769 62.8351 252.108Z" fill="#F3F3F3"/>
<path d="M281.278 214.42L291.117 218.019L295.86 213.1L289.835 209.139L281.278 214.42Z" fill="#FEB3A2"/>
<path d="M147.261 13.6654C116.769 13.6654 84.3195 29.2088 64.5901 54.2938C49.3035 73.7298 44.9736 95.289 52.7121 113.442C60.6863 132.149 55.421 153.53 50.3292 174.209C43.2171 203.096 35.8609 232.969 62.6107 258.018C106.27 298.906 148.547 275.613 185.852 255.061C208.561 242.551 230.014 230.723 249.433 234.362C269.446 238.101 286.076 232.611 296.25 218.891C312.067 197.562 309.51 160.501 289.58 122.171C255.765 57.1423 200.699 21.38 161.126 14.7885C156.589 14.0323 151.946 13.6654 147.261 13.6654ZM114.498 282.033C97.298 282.034 79.6101 275.871 61.6457 259.05C34.2935 233.434 41.7498 203.154 48.9593 173.871C54.2274 152.477 59.2035 132.269 51.4142 113.997C43.4682 95.3525 47.8658 73.2755 63.4812 53.4205C86.5458 24.0959 126.802 7.63831 161.358 13.396C201.278 20.0468 256.794 56.0588 290.832 121.521C311.014 160.334 313.524 197.966 297.382 219.732C286.87 233.907 269.749 239.597 249.175 235.749C230.255 232.214 209.015 243.913 186.532 256.297C164.069 268.673 139.815 282.03 114.498 282.033Z" fill="#DFDFDF"/>
<path d="M288.905 217.791C288.905 217.791 291.164 219.687 293.392 221.263C295.618 222.838 296.586 223.284 298.77 222.005C300.954 220.727 301.315 217.635 302.262 216.335C303.207 215.035 307.301 209.843 307.301 209.843C307.301 209.843 308.114 206.286 307.235 205.774C305.772 204.921 303.395 207.867 301.541 209.442C299.684 211.02 293.849 211.751 293.849 211.751L288.905 217.791Z" fill="#2C2C2C"/>
<path d="M89.2165 217.205C79.9853 213.876 71.9942 208.379 66.4707 202.199C59.9526 194.905 56.8656 185.763 57.3679 175.077H89.2165V217.205ZM191.629 155.215V74.0147C229.956 80.8898 262.822 113.186 238.509 140.062C228.212 151.445 210.202 149.658 191.629 155.215Z" fill="#FCCA19"/>
<path d="M57.7675 61.2408C57.7675 61.2408 63.686 25.2782 51.516 28.1648C39.346 31.0528 57.7675 61.2408 57.7675 61.2408Z" fill="#FCCA19"/>
<path d="M70.2802 91.9961C70.2802 91.9961 88.445 66.6811 79.3845 62.0295C70.324 57.378 70.2802 91.9961 70.2802 91.9961Z" fill="#FCCA19"/>
<path d="M84.7052 111.349C84.7052 111.349 102.87 86.0338 93.8094 81.3822C84.7489 76.7306 84.7052 111.349 84.7052 111.349Z" fill="#2356F1"/>
<path d="M71.3539 91.6546C71.3539 91.6546 46.8474 71.6754 43.7886 82.3923C40.7299 93.1106 71.3539 91.6546 71.3539 91.6546Z" fill="#FCCA19"/>
<path d="M84.9999 110.355C84.9999 110.355 55.736 98.3844 55.9321 109.529C56.1297 120.673 84.9999 110.355 84.9999 110.355Z" fill="#2356F1"/>
<path d="M62.3258 72.7958C62.3258 72.7958 38.6742 54.5083 36.304 64.8597C33.9338 75.2098 62.3258 72.7958 62.3258 72.7958Z" fill="#FCCA19"/>
<path d="M61.986 74.0824C61.986 74.0824 79.5003 48.3103 70.3241 43.8929C61.1479 39.4741 61.986 74.0824 61.986 74.0824Z" fill="#FCCA19"/>
<path d="M48.2487 67.5712C48.3602 67.2806 48.6875 67.1338 48.9781 67.2453L60.9041 71.8277C60.4075 70.455 59.9263 69.0667 59.4622 67.6615C54.2603 51.8599 53.0188 39.3104 53.0075 39.1876C52.9779 38.8758 53.205 38.6007 53.5168 38.5711C53.8272 38.5415 54.1024 38.7686 54.1334 39.079C54.1447 39.2031 55.3764 51.6483 60.5443 67.3342C61.0155 68.7662 61.5319 70.2575 62.0934 71.7911L66.697 51.7132C66.7676 51.4085 67.0709 51.218 67.3742 51.2885C67.679 51.3577 67.868 51.6596 67.7975 51.9643L62.9456 73.1314C62.9145 73.2696 62.8313 73.3867 62.717 73.4657C64.6471 78.542 67.0737 84.0514 70.1014 89.6116L77.1261 68.405C77.2248 68.1101 77.5451 67.9479 77.8414 68.0481C78.1376 68.1454 78.2971 68.4657 78.1997 68.7605L70.8224 90.9279L71.185 91.5571C74.7248 97.7734 79.0279 103.994 84.2354 109.678L84.4061 109.674L90.2033 90.0108C90.2908 89.7103 90.6054 89.5396 90.9045 89.6271C91.2036 89.716 91.3743 90.0306 91.2854 90.3297L85.4769 110.037L85.5136 110.217C85.5178 110.439 85.3937 110.63 85.2117 110.728C87.0712 112.69 89.0436 114.585 91.1316 116.385C91.3687 116.59 91.3955 116.947 91.1923 117.184L90.8988 117.363C90.7281 117.405 90.5391 117.367 90.3951 117.242C88.094 115.258 85.8762 113.115 83.743 110.818L69.4877 111.11C69.1759 111.117 68.9177 110.869 68.9121 110.557C68.905 110.245 69.1533 109.987 69.4651 109.98L82.7314 109.709C78.3535 104.833 74.3509 99.2971 70.7744 93.1599C70.5332 92.7479 70.2947 92.3303 70.0591 91.9099C70.0196 91.9056 69.8545 91.639 69.7403 91.4132L56.2609 85.9786C55.9717 85.8629 55.832 85.5328 55.9477 85.2436C56.0648 84.9543 56.3921 84.8132 56.6828 84.9303L68.9191 89.8486C66.1285 84.6792 63.62 79.119 61.4219 73.2372L48.5732 68.3006C48.2826 68.1891 48.1372 67.8618 48.2487 67.5712Z" fill="#2C2C2C"/>
<path d="M131.586 175.071L24.7434 175.07C21.5605 175.07 18.9772 172.494 18.9772 169.311L18.98 105.884C18.98 102.702 21.5605 100.123 24.7419 100.123H131.586C134.767 100.123 137.346 102.702 137.346 105.884V169.311C137.346 172.492 134.767 175.071 131.586 175.071Z" fill="#C5C5C5"/>
<path d="M89.2181 175.077H55.0472L55.05 175.07L59.1344 166.946H89.2181V175.077ZM89.2181 161.247H61.9999L89.2181 107.108V161.247Z" fill="#DFDFDF"/>
<path d="M74.8787 100.124L37.4769 175.068L24.744 175.07C21.5554 175.07 18.9792 172.485 18.9792 169.311L18.975 143.099L42.4939 100.124H74.8787Z" fill="#DFDFDF"/>
<path d="M45.7509 141.599H34.5361C32.9785 141.599 31.7144 140.336 31.7144 138.777V129.018C31.7144 127.461 32.9785 126.197 34.5361 126.197H45.7509C47.3099 126.197 48.5727 127.461 48.5727 129.018V138.777C48.5727 140.336 47.3099 141.599 45.7509 141.599Z" fill="#FFECC9"/>
<path d="M36.8627 141.599H36.6638V126.197H36.8627V141.599Z" fill="#010101"/>
<path d="M43.6841 141.599H43.4852V129.917H48.5727V130.119H43.6841V141.599Z" fill="#010101"/>
<path d="M36.7624 130.119H31.7144V129.917H36.7624V130.119Z" fill="#010101"/>
<path d="M36.7624 133.756H31.7144V133.554H36.7624V133.756Z" fill="#010101"/>
<path d="M36.7624 137.258H31.7144V137.057H36.7624V137.258Z" fill="#010101"/>
<path d="M48.5728 133.756H43.584V133.554H48.5728V133.756Z" fill="#010101"/>
<path d="M48.5728 137.258H43.584V137.057H48.5728V137.258Z" fill="#010101"/>
<path d="M127.145 128.382L126.815 128.262C126.596 128.08 126.566 127.757 126.748 127.537C126.757 127.525 127.073 127.116 127.073 126.39C127.073 125.713 126.752 125.282 126.752 125.282C126.578 125.058 126.619 124.733 126.841 124.558C127.066 124.382 127.393 124.423 127.565 124.649C127.62 124.719 128.104 125.37 128.104 126.39C128.104 127.487 127.599 128.127 127.541 128.194C127.44 128.317 127.293 128.382 127.145 128.382Z" fill="white"/>
<path d="M128.882 129.063L128.611 128.984C128.368 128.835 128.295 128.517 128.444 128.275C128.444 128.275 128.971 127.408 128.975 126.414C128.978 125.7 128.576 124.74 128.422 124.43C128.293 124.176 128.395 123.866 128.65 123.739C128.902 123.612 129.215 123.713 129.342 123.967C129.371 124.022 130.012 125.315 130.008 126.419C129.999 127.715 129.346 128.775 129.319 128.819C129.222 128.976 129.052 129.063 128.882 129.063Z" fill="white"/>
<path d="M130.587 129.937L130.332 129.869C130.085 129.727 129.999 129.413 130.14 129.166C130.146 129.152 130.92 127.771 130.92 126.417C130.92 125.202 130.129 123.53 130.122 123.513C129.999 123.256 130.108 122.949 130.366 122.826C130.618 122.701 130.93 122.811 131.052 123.07C131.088 123.145 131.953 124.972 131.953 126.417C131.953 128.049 131.073 129.611 131.035 129.676C130.939 129.842 130.767 129.937 130.587 129.937Z" fill="white"/>
<path d="M132.334 130.792L132.073 130.721C131.828 130.579 131.746 130.263 131.887 130.017C131.9 129.999 132.903 128.249 132.831 126.435C132.764 124.716 131.77 122.497 131.76 122.476C131.643 122.216 131.758 121.91 132.018 121.792C132.272 121.675 132.582 121.789 132.7 122.051C132.745 122.149 133.787 124.478 133.863 126.397C133.944 128.517 132.826 130.456 132.778 130.536C132.684 130.7 132.512 130.792 132.334 130.792Z" fill="white"/>
<path d="M115.941 163.307C115.941 158.836 119.566 155.212 124.037 155.212C128.508 155.212 132.132 158.836 132.132 163.307C132.132 167.779 128.508 171.402 124.037 171.402C119.566 171.402 115.941 167.779 115.941 163.307Z" fill="#FFE6B4"/>
<path d="M104.712 163.307C104.712 158.836 108.335 155.212 112.806 155.212C117.277 155.212 120.902 158.836 120.902 163.307C120.902 167.779 117.277 171.402 112.806 171.402C108.335 171.402 104.712 167.779 104.712 163.307Z" fill="#FF3700"/>
<path d="M82.6321 118.073H31.7144V110.794H82.6321V118.073Z" fill="white"/>
<path d="M31.7144 166.946H93.9292V161.246H31.7144V166.946Z" fill="white"/>
<path d="M89.217 30.1301V16.7114C89.217 12.0923 92.9614 8.34788 97.5805 8.34788L183.266 8.34506C187.884 8.34506 191.629 12.0923 191.629 16.7114V22.9615C180.999 18.1491 170.746 14.9606 161.358 13.3959C156.75 12.6284 152.044 12.2559 147.286 12.2559C127.436 12.2559 106.761 18.7529 89.217 30.1301ZM191.629 25.3698C180.008 19.7843 168.934 16.2247 159.14 14.5937C157.698 14.3539 156.247 14.1521 154.799 13.9885C156.927 14.1747 159.039 14.44 161.127 14.7884C170.578 16.3629 180.911 19.5994 191.629 24.5036V25.3698Z" fill="#689BF9"/>
<path d="M97.5791 232.476C92.9614 232.476 89.217 228.726 89.217 224.108V217.205C95.0495 219.308 101.379 220.546 107.895 220.547C119.899 220.547 132.537 216.348 143.897 205.612C165.863 184.855 167.566 166.699 178.342 160.722C182.738 158.282 187.199 156.54 191.629 155.215V224.108C191.629 228.726 187.884 232.474 183.266 232.474L97.5791 232.476ZM92.7286 100.122H91.6239C95.5503 92.7197 98.784 83.9357 93.8093 81.382C93.2393 81.0886 92.7046 80.9517 92.2037 80.9517C91.0356 80.9517 90.0494 81.6967 89.217 82.9537V31.8075C106.688 20.2667 127.39 13.6653 147.261 13.6653C149.789 13.6653 152.306 13.7711 154.799 13.9884C156.247 14.152 157.698 14.3538 159.14 14.5936C168.934 16.2246 180.008 19.7842 191.629 25.3697V74.0146C186.814 73.1511 181.914 72.6898 177.03 72.6898C172.124 72.6898 167.241 73.1554 162.474 74.1486C142.132 78.3868 123.006 88.9287 107.646 100.118H92.73L92.7286 100.122Z" fill="#6097F8"/>
<path d="M89.217 31.8076V30.1301C106.761 18.753 127.436 12.256 147.286 12.256C152.044 12.256 156.75 12.6285 161.358 13.396C170.746 14.9606 180.999 18.1491 191.629 22.9616V24.5036C180.911 19.5995 170.578 16.363 161.127 14.7885C159.039 14.44 156.927 14.1748 154.799 13.9885C152.306 13.7712 149.789 13.6654 147.261 13.6654C127.39 13.6654 106.688 20.2668 89.217 31.8076Z" fill="#5993F5"/>
<path d="M107.896 220.547C101.379 220.546 95.0499 219.308 89.2174 217.205V175.077H92.5188L92.5216 175.071H131.587C134.768 175.071 137.347 172.492 137.347 169.311V105.884C137.347 102.701 134.768 100.122 131.587 100.122H130.201L130.203 100.118H107.646C123.006 88.9287 142.133 78.3868 162.475 74.1486C167.242 73.1554 172.125 72.6898 177.03 72.6898C181.915 72.6898 186.815 73.1511 191.63 74.0145V155.215C187.2 156.54 182.739 158.282 178.342 160.722C167.566 166.699 165.863 184.856 143.898 205.612C132.538 216.348 119.899 220.547 107.896 220.547Z" fill="url(#paint0_linear_401_2867)"/>
<path d="M91.6239 100.123H89.217V97.3502L91.2853 90.3298C91.3742 90.0307 91.2035 89.7161 90.9044 89.6272C90.8507 89.6117 90.7971 89.6046 90.7435 89.6046C90.4995 89.6046 90.2751 89.7641 90.2032 90.011L89.217 93.3547V82.9539C90.0494 81.6968 91.0356 80.9519 92.2037 80.9519C92.7046 80.9519 93.2393 81.0887 93.8093 81.3822C98.784 83.9358 95.5503 92.7198 91.6239 100.123Z" fill="#175CF4"/>
<path d="M89.217 97.3501V93.3546L90.2032 90.0108C90.2751 89.7639 90.4995 89.6045 90.7435 89.6045C90.7971 89.6045 90.8507 89.6116 90.9044 89.6271C91.2035 89.716 91.3742 90.0306 91.2853 90.3297L89.217 97.3501Z" fill="#3171E4"/>
<path d="M131.586 175.071H92.5212L130.201 100.123H131.586C134.768 100.123 137.347 102.702 137.347 105.884V169.311C137.347 172.492 134.768 175.071 131.586 175.071ZM118.422 169.139C119.878 170.541 121.856 171.402 124.037 171.402C128.508 171.402 132.132 167.779 132.132 163.307C132.132 158.836 128.508 155.212 124.037 155.212C121.856 155.212 119.878 156.074 118.422 157.477C116.967 156.074 114.988 155.212 112.806 155.212C108.335 155.212 104.712 158.836 104.712 163.307C104.712 167.779 108.335 171.402 112.806 171.402C114.988 171.402 116.967 170.541 118.422 169.139ZM132.228 121.747C132.158 121.747 132.086 121.761 132.018 121.792C131.758 121.91 131.643 122.216 131.76 122.476C131.77 122.497 132.764 124.717 132.831 126.435C132.903 128.249 131.9 129.999 131.887 130.017C131.746 130.263 131.828 130.579 132.073 130.721L132.334 130.792C132.512 130.792 132.684 130.7 132.778 130.536C132.826 130.456 133.944 128.517 133.863 126.397C133.787 124.478 132.745 122.149 132.7 122.051C132.613 121.86 132.423 121.747 132.228 121.747ZM130.587 122.774C130.513 122.774 130.437 122.791 130.366 122.826C130.108 122.949 129.999 123.256 130.122 123.513C130.129 123.53 130.92 125.202 130.92 126.417C130.92 127.771 130.146 129.152 130.14 129.166C129.999 129.413 130.085 129.726 130.332 129.869L130.587 129.937C130.767 129.937 130.939 129.842 131.035 129.676C131.073 129.611 131.953 128.049 131.953 126.417C131.953 124.972 131.088 123.145 131.052 123.07C130.964 122.884 130.778 122.774 130.587 122.774ZM128.88 123.684C128.803 123.684 128.724 123.702 128.65 123.739C128.395 123.866 128.293 124.176 128.422 124.43C128.576 124.741 128.978 125.7 128.975 126.414C128.971 127.408 128.444 128.275 128.444 128.275C128.295 128.517 128.368 128.835 128.611 128.984L128.882 129.063C129.052 129.063 129.222 128.976 129.319 128.819C129.346 128.776 129.999 127.715 130.008 126.419C130.012 125.315 129.371 124.022 129.342 123.967C129.251 123.787 129.068 123.684 128.88 123.684ZM127.159 124.45C127.048 124.45 126.936 124.485 126.842 124.559C126.619 124.733 126.578 125.058 126.753 125.282C126.753 125.282 127.073 125.713 127.073 126.39C127.073 127.116 126.757 127.526 126.749 127.537C126.567 127.757 126.596 128.08 126.815 128.262L127.145 128.382C127.293 128.382 127.44 128.317 127.541 128.194C127.599 128.127 128.104 127.487 128.104 126.39C128.104 125.37 127.62 124.719 127.565 124.649C127.465 124.518 127.313 124.45 127.159 124.45ZM89.217 107.108V100.123H91.6239H92.7286L89.217 107.108Z" fill="#3078F0"/>
<path d="M92.5188 175.077H89.2174V166.946H93.9296V161.247H89.2174V107.108L92.729 100.123L92.7304 100.118H107.646H130.203L130.201 100.123L92.5216 175.071L92.5188 175.077Z" fill="url(#paint1_linear_401_2867)"/>
<path d="M127.145 128.382L126.815 128.262C126.596 128.08 126.566 127.757 126.748 127.537C126.757 127.525 127.073 127.116 127.073 126.39C127.073 125.713 126.752 125.282 126.752 125.282C126.578 125.058 126.619 124.733 126.841 124.558C126.936 124.485 127.047 124.45 127.159 124.45C127.313 124.45 127.465 124.518 127.565 124.649C127.62 124.719 128.104 125.37 128.104 126.39C128.104 127.487 127.599 128.127 127.541 128.194C127.44 128.317 127.293 128.382 127.145 128.382Z" fill="#689BF9"/>
<path d="M128.882 129.063L128.611 128.984C128.368 128.835 128.295 128.517 128.444 128.275C128.444 128.275 128.971 127.408 128.975 126.414C128.978 125.7 128.576 124.74 128.422 124.43C128.293 124.176 128.395 123.866 128.65 123.739C128.724 123.702 128.803 123.684 128.88 123.684C129.068 123.684 129.251 123.787 129.342 123.967C129.371 124.022 130.012 125.315 130.008 126.419C129.999 127.715 129.346 128.775 129.319 128.819C129.222 128.976 129.052 129.063 128.882 129.063Z" fill="#689BF9"/>
<path d="M130.587 129.937L130.332 129.869C130.085 129.727 129.999 129.413 130.14 129.166C130.146 129.152 130.92 127.771 130.92 126.417C130.92 125.202 130.129 123.53 130.122 123.513C129.999 123.256 130.108 122.949 130.366 122.826C130.436 122.791 130.513 122.774 130.587 122.774C130.778 122.774 130.964 122.884 131.052 123.07C131.088 123.145 131.953 124.972 131.953 126.417C131.953 128.049 131.073 129.611 131.035 129.676C130.939 129.842 130.767 129.937 130.587 129.937Z" fill="#689BF9"/>
<path d="M132.334 130.792L132.073 130.721C131.828 130.579 131.746 130.263 131.887 130.017C131.9 129.999 132.903 128.249 132.831 126.435C132.764 124.716 131.77 122.497 131.76 122.476C131.643 122.216 131.758 121.91 132.018 121.792C132.086 121.761 132.158 121.747 132.228 121.747C132.423 121.747 132.613 121.859 132.7 122.051C132.745 122.149 133.787 124.478 133.863 126.397C133.944 128.517 132.826 130.456 132.778 130.536C132.684 130.7 132.512 130.792 132.334 130.792Z" fill="#689BF9"/>
<path d="M124.037 171.402C121.856 171.402 119.878 170.541 118.422 169.139C119.951 167.667 120.902 165.599 120.902 163.307C120.902 161.018 119.951 158.948 118.422 157.476C119.878 156.074 121.856 155.212 124.037 155.212C128.508 155.212 132.132 158.836 132.132 163.307C132.132 167.779 128.508 171.402 124.037 171.402Z" fill="#6891DD"/>
<path d="M112.806 171.402C108.335 171.402 104.712 167.779 104.712 163.307C104.712 158.836 108.335 155.212 112.806 155.212C114.987 155.212 116.967 156.074 118.421 157.476C119.951 158.948 120.902 161.018 120.902 163.307C120.902 165.599 119.951 167.667 118.421 169.139C116.967 170.541 114.987 171.402 112.806 171.402Z" fill="#68519B"/>
<path d="M89.217 166.946H93.9296V161.246H89.217V166.946Z" fill="#689BF9"/>
<path d="M183.266 232.475L97.5791 232.476C92.9614 232.476 89.217 228.726 89.217 224.108V16.7113C89.217 12.0922 92.9614 8.34776 97.5805 8.34776L183.266 8.34494C187.884 8.34494 191.629 12.0922 191.629 16.7113V224.108C191.629 228.726 187.884 232.475 183.266 232.475Z" fill="white"/>
<path d="M183.266 232.475L97.5791 232.476C92.9613 232.476 89.2169 228.726 89.2169 224.108L89.2155 208.842H191.628L191.629 224.108C191.629 228.726 187.884 232.475 183.266 232.475Z" fill="#F3F3F3"/>
<path d="M184.601 232.475H96.4574C92.4577 232.475 89.2155 229.232 89.2155 225.233V223.832H191.628V225.447C191.628 229.327 188.48 232.475 184.601 232.475Z" fill="#DFDFDF"/>
<path d="M191.629 224.108C191.629 228.736 187.879 232.48 183.252 232.48L97.579 232.476C92.9514 232.476 89.2169 228.736 89.2169 224.108V16.7113C89.2169 12.0838 92.9528 8.34781 97.5804 8.34781L183.252 8.35204C187.879 8.35204 191.629 12.0838 191.629 16.7113V224.108ZM193.396 8.35204C191.308 5.55855 187.964 3.75264 184.211 3.75264H96.6253C92.8724 3.75264 89.5428 5.55855 87.4406 8.35204C86.0015 10.2708 85.155 12.6551 85.155 15.237V225.003C85.155 231.338 90.2905 236.473 96.6253 236.473H184.211C190.546 236.473 195.695 231.338 195.695 225.003V15.237C195.695 12.6551 194.849 10.2708 193.396 8.35204Z" fill="#2C2C2C"/>
<path d="M208.06 161.245L205.343 163.595L202.837 168.103C202.837 168.103 204.483 170.593 206.842 171.74C209.203 172.887 211.854 172.483 211.854 172.483L212.568 167.571L208.06 161.245Z" fill="#FEB3A2"/>
<path d="M210.848 157.746C210.848 157.746 209.024 153.839 207.299 155.824C205.577 157.811 211.116 169.398 214.901 169.19C218.684 168.983 222.267 162.249 223.241 159.164C224.214 156.077 225.396 152.677 222.03 150.507C215.128 146.058 210.848 157.746 210.848 157.746Z" fill="#FEB3A2"/>
<path d="M205.155 163.582L208.06 161.245C208.06 161.245 206.188 156.173 208.105 155.688C210.024 155.2 210.848 157.746 210.848 157.746C210.848 157.746 213.333 152.025 218.639 153.164C224.034 154.319 223.714 156.684 223.714 156.684C223.714 156.684 234.01 157.558 228.317 146.669C226.181 142.584 224.803 146.658 223.424 145.769C222.045 144.882 225.261 141.75 220.659 140.717C216.29 139.737 215.408 144.236 213.221 144.477C211.034 144.72 210.666 143.602 209.353 143.917C206.594 144.577 205.219 144.752 202.715 150.099C200.209 155.445 205.155 163.582 205.155 163.582Z" fill="#2C2C2C"/>
<path d="M187.24 218.431C190.845 226.16 200.406 226.078 205.415 224.828C210.422 223.575 240.754 211.143 240.754 211.143C240.754 211.143 252.911 213.445 258.876 214.162C264.841 214.879 261.208 216.355 263.191 218.273C265.171 220.192 266.893 217.907 269.058 218.802C271.227 219.697 270.447 221.322 272.231 221.974C274.017 222.626 278.652 221.113 278.652 221.113L293.034 207.747C293.034 207.747 259.425 191.536 254.92 191.025C248.405 190.286 196.748 207.158 196.748 207.158C196.748 207.158 183.266 209.908 187.24 218.431Z" fill="#EAA800"/>
<path d="M182.663 223.538C184.246 230.816 197.146 229.423 202.154 228.173C207.159 226.922 237.492 214.489 237.492 214.489C237.492 214.489 249.648 216.793 255.614 217.51C261.581 218.225 257.946 219.699 259.929 221.618C261.91 223.538 263.629 221.253 265.798 222.148C267.965 223.043 267.182 224.669 268.969 225.32C270.757 225.972 275.39 224.458 275.39 224.458L286.711 216.536C286.711 216.536 247.314 197.621 240.266 197.041C233.218 196.463 191.268 208.669 191.268 208.669C191.268 208.669 181.079 216.26 182.663 223.538Z" fill="#FCCA19"/>
<path d="M176.584 210.165C175.821 209.663 175.176 216.267 176.848 219.996C178.521 223.725 183.15 225.397 183.15 225.397C183.15 225.397 182.635 221.796 184.305 218.582C185.979 215.367 187.993 211.1 187.993 211.1C187.993 211.1 177.35 210.667 176.584 210.165Z" fill="#2C2C2C"/>
<path d="M276.337 223.797L283.899 226.438L289.139 221.414L284.303 218.221L276.337 223.797Z" fill="#FEB3A2"/>
<path d="M283.438 226.96C283.438 226.96 285.684 228.845 287.899 230.414C290.111 231.98 291.075 232.421 293.247 231.15C295.419 229.879 295.777 226.804 296.718 225.513C297.658 224.22 301.731 219.056 301.731 219.056C301.731 219.056 302.538 215.521 301.665 215.011C300.21 214.162 297.847 217.091 296.001 218.66C294.156 220.227 288.353 220.954 288.353 220.954L283.438 226.96Z" fill="#565656"/>
<path d="M218.334 200.664L250.564 191.379L256.333 170.667C256.554 169.865 255.837 169.12 255.029 169.311L244.267 171.855C243.539 172.027 242.958 172.574 242.74 173.288L236.675 193.268L219.616 198.551L218.334 200.664Z" fill="#2C2C2C"/>
<path d="M286.065 217.096L285.911 217.061C285.546 216.884 249.428 199.218 245.504 197.425C241.727 195.698 239.748 196.193 239.727 196.196C239.54 196.25 239.347 196.137 239.296 195.948C239.246 195.76 239.354 195.567 239.54 195.515C239.629 195.489 241.758 194.936 245.798 196.783C249.73 198.58 285.856 216.25 286.22 216.428C286.395 216.512 286.467 216.723 286.382 216.899C286.322 217.023 286.196 217.096 286.065 217.096Z" fill="#09030F"/>
<path d="M228.118 216.387C227.964 216.387 227.825 216.288 227.78 216.134C227.725 215.948 227.832 215.752 228.018 215.695C228.063 215.683 232.476 214.373 234.253 213.387C235.189 212.868 236.03 211.525 236.708 210.446C237.364 209.4 237.838 208.644 238.378 208.51C238.664 208.437 238.837 208.563 238.914 208.644C239.241 208.981 239.069 209.657 238.71 210.917C238.592 211.327 238.418 211.944 238.364 212.321C238.471 212.191 238.591 212.024 238.684 211.896C239.124 211.289 239.576 210.659 240.129 210.825C240.916 211.059 240.953 212.743 240.926 213.509C241.246 213.599 241.842 213.739 242.948 213.944C246.52 214.606 248.415 214.485 248.432 214.482C248.624 214.441 248.794 214.614 248.808 214.808C248.823 215.003 248.676 215.171 248.481 215.185C248.405 215.193 246.489 215.317 242.818 214.637C240.05 214.125 239.95 213.959 239.974 213.596C239.981 213.496 240.026 213.347 240.225 213.257C240.226 212.42 240.091 211.604 239.92 211.497C239.811 211.543 239.449 212.042 239.254 212.309C238.879 212.828 238.578 213.242 238.196 213.238C238.025 213.235 237.869 213.146 237.764 212.991C237.509 212.614 237.689 211.92 238.031 210.725C238.149 210.304 238.333 209.666 238.375 209.309C238.085 209.576 237.66 210.255 237.306 210.821C236.586 211.968 235.69 213.396 234.596 214.005C232.75 215.028 228.402 216.318 228.218 216.373L228.118 216.387Z" fill="#09030F"/>
<path d="M147.448 49.9087H134.247L135.281 22.9797H146.255L147.448 49.9087Z" fill="#898989"/>
<path d="M141.919 61.3113H139.776C136.723 61.3113 134.247 58.8353 134.247 55.7822V49.9088H147.448V55.7822C147.448 58.8353 144.974 61.3113 141.919 61.3113Z" fill="#282728"/>
<path d="M134.247 49.9087H121.044L124.199 22.9797H135.281L134.247 49.9087Z" fill="white"/>
<path d="M128.718 61.3113H126.575C123.52 61.3113 121.044 58.8353 121.044 55.7822V49.9088H134.247V55.7822C134.247 58.8353 131.771 61.3113 128.718 61.3113Z" fill="#F3F3F3"/>
<path d="M120.974 49.9087H107.771L113.313 22.9797H124.038L120.974 49.9087Z" fill="#898989"/>
<path d="M115.444 61.3113H113.301C110.247 61.3113 107.771 58.8353 107.771 55.7822V49.9088H120.974V55.7822C120.974 58.8353 118.498 61.3113 115.444 61.3113Z" fill="#282728"/>
<path d="M107.752 49.9087H94.551L101.962 22.9797H113.313L107.752 49.9087Z" fill="white"/>
<path d="M102.223 61.3113H100.08C97.0271 61.3113 94.551 58.8353 94.551 55.7822V49.9088H107.752V55.7822C107.752 58.8353 105.278 61.3113 102.223 61.3113Z" fill="#F3F3F3"/>
<path d="M94.5779 49.9087H81.3751L90.8448 22.9797H101.962L94.5779 49.9087Z" fill="#898989"/>
<path d="M89.0488 61.3113H86.9057C83.8512 61.3113 81.3751 58.8353 81.3751 55.7822V49.9088H94.5779V55.7822C94.5779 58.8353 92.1019 61.3113 89.0488 61.3113Z" fill="#282728"/>
<path d="M147.512 49.9087H160.713L157.56 22.9797H146.479L147.512 49.9087Z" fill="white"/>
<path d="M153.041 61.3113H155.185C158.238 61.3113 160.713 58.8353 160.713 55.7822V49.9088H147.512V55.7822C147.512 58.8353 149.988 61.3113 153.041 61.3113Z" fill="#F3F3F3"/>
<path d="M160.785 49.9087H173.988L168.446 22.9797H157.721L160.785 49.9087Z" fill="#898989"/>
<path d="M166.314 61.3113H168.459C171.512 61.3113 173.988 58.8353 173.988 55.7822V49.9088H160.785V55.7822C160.785 58.8353 163.261 61.3113 166.314 61.3113Z" fill="#282728"/>
<path d="M174.005 49.9087H187.208L179.797 22.9797H168.446L174.005 49.9087Z" fill="white"/>
<path d="M179.534 61.3113H181.679C184.732 61.3113 187.208 58.8353 187.208 55.7822V49.9088H174.005V55.7822C174.005 58.8353 176.481 61.3113 179.534 61.3113Z" fill="#F3F3F3"/>
<path d="M187.181 49.9087H200.384L190.914 22.9797H179.797L187.181 49.9087Z" fill="#898989"/>
<path d="M192.71 61.3113H194.854C197.907 61.3113 200.383 58.8353 200.383 55.7822V49.9088H187.181V55.7822C187.181 58.8353 189.657 61.3113 192.71 61.3113Z" fill="#282728"/>
<path d="M178.591 84.6145H143.812V77.7493H178.591V84.6145Z" fill="#F3F3F3"/>
<path d="M178.244 99.5553H171.06V92.3712H178.244V99.5553Z" fill="#F3F3F3"/>
<path d="M178.591 152.725H143.812V145.861H178.591V152.725Z" fill="#F3F3F3"/>
<path d="M129.505 205.544H154.538V200.765H129.505V205.544ZM154.738 205.744H129.305V200.562H154.738V205.744Z" fill="#6A8EC8"/>
<path d="M178.244 167.667H171.06V160.483H178.244V167.667Z" fill="#F3F3F3"/>
<path d="M161.203 196.329H124.346V196.128H161.203V196.329Z" fill="#6A8EC8"/>
<path d="M97.7893 185.019H181.797V187.33H97.7893V185.019Z" fill="#DFDFDF"/>
<path d="M97.9811 112.075H181.992V114.386H97.9811V112.075Z" fill="#DFDFDF"/>
<path d="M97.9825 116.603H181.99V118.912H97.9825V116.603Z" fill="#DFDFDF"/>
<path d="M97.8643 121.607L123.198 121.565V123.877L97.8643 123.918V121.607Z" fill="#DFDFDF"/>
<path d="M97.7877 180.492H181.798V182.803H97.7877V180.492Z" fill="#DFDFDF"/>
<path d="M97.6694 190.023L123.004 189.983V192.294L97.6694 192.335V190.023Z" fill="#DFDFDF"/>
<path d="M170.971 84.1022C170.777 84.1022 170.619 83.9428 170.619 83.7495V78.614C170.619 78.4193 170.777 78.2613 170.971 78.2613C171.166 78.2613 171.324 78.4193 171.324 78.614V83.7495C171.324 83.9428 171.166 84.1022 170.971 84.1022Z" fill="#2C2C2C"/>
<path d="M173.454 80.0925L176.554 80.0826L175.118 82.2794L173.454 80.0925Z" fill="white"/>
<path d="M174.164 80.4426L175.097 81.6686L175.901 80.437L174.164 80.4426ZM175.124 82.6323L174.837 82.494L173.174 80.3058L173.137 79.9361C173.196 79.8162 173.319 79.74 173.453 79.74L176.554 79.7301C176.684 79.7301 176.803 79.8007 176.865 79.915L176.849 80.2761L175.413 82.4728L175.124 82.6323Z" fill="#2C2C2C"/>
<path d="M173.205 94.922C173.201 94.891 173.133 94.1601 173.571 93.6508C173.818 93.3644 174.167 93.2078 174.61 93.1838C175.035 93.1669 175.382 93.2784 175.64 93.5337C176.121 94.0092 176.097 94.788 176.096 94.8204L175.697 94.8049C175.697 94.8049 175.714 94.1658 175.358 93.8159C175.182 93.6438 174.946 93.5676 174.633 93.5831C174.3 93.6014 174.046 93.7115 173.875 93.9118C173.547 94.2928 173.602 94.8811 173.602 94.8811L173.205 94.922Z" fill="#2C2C2C"/>
<path d="M172.957 95.1875L172.823 95.3215L172.394 97.957L172.531 98.06L176.938 98.0106L177.075 97.8765L176.676 95.3525L176.537 95.1875H172.957ZM172.533 98.4592C172.236 98.4592 171.997 98.2194 171.997 97.9245L172.425 95.289C172.422 95.028 172.662 94.7882 172.957 94.7882H176.537C176.832 94.7882 177.072 95.028 177.072 95.3215L177.471 97.8455C177.474 98.17 177.234 98.4099 176.941 98.4099L172.533 98.4592Z" fill="#2C2C2C"/>
<path d="M97.1375 64.3391H134.672V106.992H97.1375V64.3391Z" fill="#F3F3F3"/>
<path d="M111.659 72.6898L113.139 71.1195C113.139 71.1195 114.275 71.8475 115.563 71.7925C116.231 71.7642 117.682 71.389 117.682 71.389L118.722 72.8548C118.722 72.8548 121.889 73.1751 123.486 74.4533C125.082 75.7287 130.807 90.9025 130.807 90.9025L130.159 92.5885L131.068 94.8853L129.402 96.1734L127.888 93.9528L125.969 93.3221L121.466 82.8564L122.953 97.2161H108.38L108.699 82.8564L105.515 92.5419L103.767 93.6254L102.721 95.753L100.516 95.1068L100.991 92.9793L100.118 91.0436C100.118 91.0436 103.807 77.4302 105.189 75.9404C106.571 74.4533 111.659 72.6898 111.659 72.6898Z" fill="#FCCA19"/>
<path d="M126.857 102.761C126.857 100.749 128.492 99.1194 130.51 99.1194C132.526 99.1194 134.161 100.749 134.161 102.761C134.161 104.773 132.526 106.402 130.51 106.402C128.492 106.402 126.857 104.773 126.857 102.761Z" fill="#FCCA19"/>
<path d="M129.416 101.112C129.274 101.112 129.133 101.16 128.986 101.255C128.629 101.49 128.453 101.766 128.445 102.102C128.429 103.163 130.048 104.464 130.501 104.808C131.181 104.28 132.593 102.981 132.572 102.026C132.564 101.717 132.407 101.464 132.093 101.255C131.894 101.121 131.7 101.081 131.5 101.123C131.03 101.227 130.687 101.786 130.687 101.786L130.515 101.882L130.343 101.782C130.343 101.782 130.024 101.237 129.57 101.13L129.416 101.112ZM130.503 105.258L130.388 105.221C130.291 105.152 128.022 103.534 128.046 102.095C128.055 101.624 128.296 101.229 128.766 100.921C129.058 100.728 129.361 100.67 129.664 100.74C130.051 100.834 130.347 101.126 130.519 101.339C130.7 101.123 131.01 100.824 131.411 100.733C131.719 100.664 132.023 100.729 132.315 100.921C132.74 101.206 132.962 101.573 132.972 102.017C133.005 103.447 130.718 105.148 130.621 105.219L130.503 105.258Z" fill="#2C2C2C"/>
<path d="M257.25 65.6442C257.25 58.731 262.869 53.1271 269.799 53.1271C276.731 53.1271 282.349 58.731 282.349 65.6442C282.349 72.5545 276.731 78.1584 269.799 78.1584C262.869 78.1584 257.25 72.5545 257.25 65.6442Z" fill="white"/>
<path d="M269.799 53.4797C263.073 53.4797 257.602 58.9369 257.602 65.6441C257.602 72.3484 263.073 77.8056 269.799 77.8056C276.525 77.8056 281.996 72.3484 281.996 65.6441C281.996 58.9369 276.525 53.4797 269.799 53.4797ZM269.799 78.511C262.685 78.511 256.897 72.7392 256.897 65.6441C256.897 58.5475 262.685 52.7743 269.799 52.7743C276.914 52.7743 282.701 58.5475 282.701 65.6441C282.701 72.7392 276.914 78.511 269.799 78.511Z" fill="#2C2C2C"/>
<path d="M266.043 59.789C265.517 59.789 264.996 59.9625 264.462 60.3124C263.178 61.1547 262.544 62.1564 262.524 63.374C262.46 67.203 268.371 71.8602 269.772 72.9099C271.174 71.8179 277.165 66.9293 277.073 63.1115C277.048 61.9843 276.482 61.0672 275.346 60.311C274.617 59.8242 273.9 59.6676 273.164 59.8341C271.459 60.2179 270.266 62.1761 270.253 62.1959C270.163 62.3468 269.996 62.44 269.821 62.4386C269.644 62.4371 269.48 62.3412 269.392 62.1874C269.38 62.1691 268.254 60.2461 266.617 59.8581C266.424 59.813 266.232 59.789 266.043 59.789ZM269.778 74.0344L269.49 73.9412C269.161 73.7099 261.441 68.2019 261.526 63.357C261.551 61.8051 262.354 60.5 263.913 59.4772C264.869 58.8465 265.858 58.6476 266.853 58.886C268.245 59.219 269.288 60.342 269.833 61.0602C270.404 60.3322 271.5 59.1837 272.944 58.8592C273.948 58.6377 274.944 58.8409 275.901 59.4786C277.309 60.4168 278.04 61.6315 278.074 63.089C278.186 67.907 270.405 73.6929 270.074 73.9356L269.778 74.0344Z" fill="#2C2C2C"/>
<path d="M161.499 99.5553H147.074C145.274 99.5553 143.812 98.0937 143.812 96.292V95.3467C143.812 93.5451 145.274 92.0848 147.074 92.0848H161.499C163.301 92.0848 164.762 93.5451 164.762 95.3467V96.292C164.762 98.0937 163.301 99.5553 161.499 99.5553Z" fill="#FCCA19"/>
<path d="M170.971 152.213C170.777 152.213 170.619 152.055 170.619 151.86V146.726C170.619 146.533 170.777 146.373 170.971 146.373C171.166 146.373 171.324 146.533 171.324 146.726V151.86C171.324 152.055 171.166 152.213 170.971 152.213Z" fill="#2C2C2C"/>
<path d="M173.454 148.203L176.554 148.193L175.118 150.391L173.454 148.203Z" fill="white"/>
<path d="M174.164 148.553L175.097 149.779L175.901 148.547L174.164 148.553ZM175.124 150.744L174.837 150.604L173.174 148.416L173.137 148.048C173.196 147.928 173.319 147.85 173.453 147.85L176.554 147.841C176.684 147.841 176.803 147.911 176.865 148.025L176.849 148.387L175.413 150.585L175.124 150.744Z" fill="#2C2C2C"/>
<path d="M173.205 163.034C173.201 163.002 173.133 162.272 173.571 161.761C173.818 161.475 174.167 161.319 174.61 161.294C175.036 161.273 175.382 161.39 175.64 161.644C176.121 162.12 176.097 162.899 176.096 162.932L175.697 162.917C175.697 162.917 175.714 162.278 175.358 161.928C175.182 161.756 174.946 161.681 174.633 161.695C174.3 161.712 174.046 161.822 173.875 162.022C173.547 162.405 173.602 162.993 173.602 162.993L173.205 163.034Z" fill="#2C2C2C"/>
<path d="M172.957 163.298L172.823 163.432L172.394 166.067L172.531 166.17L176.938 166.122L177.075 165.988L176.676 163.463L176.537 163.298H172.957ZM172.533 166.571C172.236 166.571 171.997 166.331 171.997 166.036L172.425 163.401C172.422 163.138 172.662 162.899 172.957 162.899H176.537C176.832 162.899 177.072 163.138 177.072 163.432L177.471 165.956C177.474 166.283 177.234 166.522 176.941 166.522L172.533 166.571Z" fill="#2C2C2C"/>
<path d="M97.1375 132.451H134.672V175.103H97.1375V132.451Z" fill="#F3F3F3"/>
<path d="M126.857 170.871C126.857 168.861 128.492 167.23 130.51 167.23C132.526 167.23 134.161 168.861 134.161 170.871C134.161 172.883 132.526 174.514 130.51 174.514C128.492 174.514 126.857 172.883 126.857 170.871Z" fill="#FCCA19"/>
<path d="M129.416 169.223C129.274 169.223 129.131 169.271 128.986 169.366C128.629 169.6 128.453 169.876 128.445 170.214C128.429 171.274 130.048 172.574 130.501 172.919C131.181 172.392 132.593 171.092 132.572 170.136C132.564 169.827 132.407 169.576 132.093 169.366C131.895 169.232 131.7 169.193 131.5 169.235C131.106 169.323 130.78 169.744 130.687 169.898L130.514 169.994L130.343 169.893C130.343 169.893 130.023 169.349 129.57 169.241L129.416 169.223ZM130.503 173.368L130.388 173.333C130.291 173.264 128.022 171.644 128.046 170.207C128.055 169.736 128.296 169.34 128.766 169.033C129.058 168.841 129.358 168.774 129.664 168.854C130.051 168.945 130.347 169.237 130.519 169.452C130.7 169.235 131.01 168.934 131.411 168.845C131.719 168.777 132.023 168.838 132.315 169.033C132.74 169.316 132.962 169.684 132.972 170.127C133.005 171.558 130.718 173.258 130.621 173.33L130.503 173.368Z" fill="#2C2C2C"/>
<path d="M161.499 167.667H147.074C145.274 167.667 143.812 166.207 143.812 164.404V163.458C143.812 161.657 145.274 160.195 147.074 160.195H161.499C163.301 160.195 164.762 161.657 164.762 163.458V164.404C164.762 166.207 163.301 167.667 161.499 167.667Z" fill="#FCCA19"/>
<path d="M109.835 137.009H121.452L123.197 143.873L126.066 167.668L120.779 168.171L115.905 148.193L112.904 168.171L107.184 167.23L108.429 144.28L109.835 137.009Z" fill="#2C2C2C"/>
<path d="M121.452 137.009H109.835L109.829 135.799H121.452V137.009Z" fill="#FCCA19"/>
<path d="M186.837 79.5762H229.374C230.329 79.5762 231.107 81.0224 231.107 82.8057V122.717C231.107 124.499 230.329 125.947 229.374 125.947H186.837C185.879 125.947 185.103 124.499 185.103 122.717V82.8057C185.103 81.0224 185.879 79.5762 186.837 79.5762Z" fill="white"/>
<path d="M186.837 79.9289C186.183 79.9289 185.455 81.1098 185.455 82.8056V122.717C185.455 124.412 186.183 125.594 186.837 125.594H229.374C230.026 125.594 230.754 124.412 230.754 122.717V82.8056C230.754 81.1098 230.026 79.9289 229.374 79.9289H186.837ZM229.374 126.299H186.837C185.666 126.299 184.75 124.725 184.75 122.717V82.8056C184.75 80.7966 185.666 79.2235 186.837 79.2235H229.374C230.543 79.2235 231.459 80.7966 231.459 82.8056V122.717C231.459 124.725 230.543 126.299 229.374 126.299Z" fill="#2C2C2C"/>
<path d="M264.273 91.9326H293.953C294.621 91.9326 295.162 92.9428 295.162 94.1872V122.036C295.162 123.28 294.621 124.291 293.953 124.291H264.273C263.604 124.291 263.062 123.28 263.062 122.036V94.1872C263.062 92.9428 263.604 91.9326 264.273 91.9326Z" fill="white"/>
<path d="M264.273 92.2853C263.868 92.2853 263.415 93.0979 263.415 94.1871V122.036C263.415 123.125 263.868 123.938 264.273 123.938H293.953C294.358 123.938 294.809 123.125 294.809 122.036V94.1871C294.809 93.0979 294.358 92.2853 293.953 92.2853H264.273ZM293.953 124.643H264.273C263.397 124.643 262.71 123.498 262.71 122.036V94.1871C262.71 92.7255 263.397 91.5799 264.273 91.5799H293.953C294.829 91.5799 295.515 92.7255 295.515 94.1871V122.036C295.515 123.498 294.829 124.643 293.953 124.643Z" fill="#2C2C2C"/>
<path d="M244.834 134.823H268.821C269.36 134.823 269.799 135.64 269.799 136.645V159.151C269.799 160.158 269.36 160.974 268.821 160.974H244.834C244.293 160.974 243.856 160.158 243.856 159.151V136.645C243.856 135.64 244.293 134.823 244.834 134.823Z" fill="white"/>
<path d="M244.834 135.175C244.579 135.175 244.209 135.748 244.209 136.645V159.151C244.209 160.049 244.579 160.621 244.834 160.621H268.821C269.077 160.621 269.446 160.049 269.446 159.151V136.645C269.446 135.748 269.077 135.175 268.821 135.175H244.834ZM268.821 161.327H244.834C244.075 161.327 243.504 160.392 243.504 159.151V136.645C243.504 135.405 244.075 134.47 244.834 134.47H268.821C269.58 134.47 270.152 135.405 270.152 136.645V159.151C270.152 160.392 269.58 161.327 268.821 161.327Z" fill="#2C2C2C"/>
<path d="M73.2965 185.268H95.5203C96.0197 185.268 96.426 186.024 96.426 186.955V207.807C96.426 208.739 96.0197 209.495 95.5203 209.495H73.2965C72.7957 209.495 72.3907 208.739 72.3907 207.807V186.955C72.3907 186.024 72.7957 185.268 73.2965 185.268Z" fill="white"/>
<path d="M73.2967 185.621C73.0766 185.621 72.7437 186.152 72.7437 186.955V207.807C72.7437 208.61 73.0766 209.142 73.2967 209.142H95.5205C95.7406 209.142 96.0736 208.61 96.0736 207.807V186.955C96.0736 186.152 95.7406 185.621 95.5205 185.621H73.2967ZM95.5205 209.848H73.2967C72.5786 209.848 72.0383 208.97 72.0383 207.807V186.955C72.0383 185.792 72.5786 184.915 73.2967 184.915H95.5205C96.2386 184.915 96.779 185.792 96.779 186.955V207.807C96.779 208.97 96.2386 209.848 95.5205 209.848Z" fill="#2C2C2C"/>
<path d="M218.346 97.6775L195.236 97.583C194.96 97.5815 194.737 97.3572 194.738 97.0821C194.74 96.8056 194.963 96.5827 195.238 96.5827L218.348 96.6772C218.624 96.6786 218.848 96.9029 218.847 97.178C218.846 97.4532 218.621 97.6775 218.346 97.6775Z" fill="#2C2C2C"/>
<path d="M213.048 114.417L212.936 114.399H202.098C201.821 114.399 201.597 114.175 201.597 113.9C201.597 113.623 201.821 113.399 202.098 113.399H212.93C213.031 113.324 213.244 113.149 213.678 112.758C214.199 110.798 219.048 92.5561 219.269 91.8479C219.542 90.9788 220.48 90.7869 220.96 90.8109L226.081 90.5837C226.358 90.5146 226.59 90.7855 226.602 91.0606C226.613 91.3357 226.4 91.5699 226.125 91.5812L220.958 91.8084C220.906 91.8055 220.332 91.7971 220.223 92.1456C220.045 92.7155 216.47 106.14 214.607 113.157L214.458 113.399C213.715 114.077 213.34 114.417 213.048 114.417Z" fill="#2C2C2C"/>
<path d="M214.573 110.162L198.966 110.073C198.746 110.072 198.552 109.927 198.489 109.716L194.767 97.3207C194.689 97.0555 194.839 96.7775 195.103 96.6971C195.368 96.6223 195.646 96.7705 195.726 97.0343L199.34 109.076L214.575 109.162C214.852 109.163 215.075 109.389 215.074 109.666C215.072 109.941 214.848 110.162 214.573 110.162Z" fill="#2C2C2C"/>
<path d="M201.945 110.055C201.723 110.055 201.518 109.905 201.46 109.677L198.32 97.2995C198.252 97.0329 198.414 96.7606 198.682 96.6914C198.956 96.6265 199.221 96.7874 199.289 97.054L202.431 109.433C202.499 109.7 202.335 109.97 202.068 110.04L201.945 110.055Z" fill="#2C2C2C"/>
<path d="M211.974 110.055L211.886 110.047C211.615 109.999 211.433 109.738 211.483 109.467L213.63 97.4872C213.678 97.2149 213.933 97.0343 214.21 97.0837C214.482 97.1316 214.664 97.3912 214.615 97.6635L212.466 109.643C212.424 109.886 212.212 110.055 211.974 110.055Z" fill="#2C2C2C"/>
<path d="M208.781 109.87C208.505 109.867 208.28 109.634 208.286 109.359L208.558 97.3135C208.564 97.0355 208.79 96.7985 209.069 96.8239C209.345 96.8309 209.563 97.0595 209.558 97.3346L209.286 109.38C209.279 109.654 209.052 109.874 208.781 109.87Z" fill="#2C2C2C"/>
<path d="M204.898 110.107C204.649 110.107 204.434 109.922 204.402 109.67L202.861 97.387C202.826 97.1119 203.02 96.8621 203.294 96.8283C203.566 96.8001 203.818 96.9877 203.853 97.2628L205.394 109.546C205.429 109.819 205.234 110.069 204.96 110.103L204.898 110.107Z" fill="#2C2C2C"/>
<path d="M217.211 101.665L196.401 101.533C196.125 101.532 195.903 101.306 195.904 101.031C195.906 100.755 196.13 100.533 196.404 100.533L217.214 100.664C217.492 100.666 217.713 100.891 217.712 101.167C217.711 101.443 217.486 101.665 217.211 101.665Z" fill="#2C2C2C"/>
<path d="M215.96 106.069L197.884 105.906C197.607 105.903 197.386 105.677 197.389 105.4C197.392 105.123 197.62 104.963 197.892 104.905L215.964 105.069C216.241 105.072 216.462 105.297 216.459 105.573C216.456 105.849 216.233 106.069 215.96 106.069Z" fill="#2C2C2C"/>
<path d="M204.404 114.938C203.947 114.938 203.575 115.31 203.575 115.768C203.575 116.225 203.947 116.597 204.404 116.597C204.861 116.597 205.234 116.225 205.234 115.768C205.234 115.31 204.861 114.938 204.404 114.938ZM204.404 117.597C203.395 117.597 202.574 116.776 202.574 115.768C202.574 114.759 203.395 113.938 204.404 113.938C205.413 113.938 206.234 114.759 206.234 115.768C206.234 116.776 205.413 117.597 204.404 117.597Z" fill="#2C2C2C"/>
<path d="M210.992 114.938C210.533 114.938 210.161 115.31 210.161 115.768C210.161 116.225 210.533 116.597 210.992 116.597C211.447 116.597 211.82 116.225 211.82 115.768C211.82 115.31 211.447 114.938 210.992 114.938ZM210.992 117.597C209.982 117.597 209.16 116.776 209.16 115.768C209.16 114.759 209.982 113.938 210.992 113.938C212 113.938 212.82 114.759 212.82 115.768C212.82 116.776 212 117.597 210.992 117.597Z" fill="#2C2C2C"/>
<path d="M227.143 90.5937C226.883 90.5937 226.67 90.8054 226.67 91.0678C226.67 91.3288 226.883 91.5404 227.143 91.5404C227.404 91.5404 227.615 91.3288 227.615 91.0678C227.615 90.8054 227.404 90.5937 227.143 90.5937ZM227.143 92.5407C226.332 92.5407 225.67 91.879 225.67 91.0678C225.67 90.2551 226.332 89.5934 227.143 89.5934C227.955 89.5934 228.616 90.2551 228.616 91.0678C228.616 91.879 227.955 92.5407 227.143 92.5407Z" fill="#2C2C2C"/>
<path d="M287.834 118.651H272.05V102.865H287.834V118.651Z" fill="#FCCA19"/>
<path d="M280.939 118.651H278.4V102.865H280.939V118.651Z" fill="#2C2C2C"/>
<path d="M275.299 98.5381L275.214 98.5437C274.821 98.5959 274.581 99.1532 274.45 99.6132C274.214 100.431 274.28 101.023 274.653 101.418C275.467 102.278 277.582 102.17 278.874 101.976C277.803 100.371 276.217 98.5381 275.299 98.5381ZM277.168 103.084C275.987 103.084 274.695 102.869 273.949 102.082C273.331 101.426 273.185 100.505 273.52 99.3437C273.827 98.2743 274.354 97.6817 275.086 97.5844C277.071 97.329 279.599 101.274 280.083 102.069L280.433 102.644L279.775 102.793C279.553 102.844 278.422 103.084 277.168 103.084Z" fill="#2C2C2C"/>
<path d="M280.105 101.975C281.399 102.168 283.515 102.277 284.326 101.416C284.699 101.021 284.765 100.431 284.529 99.6132C284.397 99.1532 284.158 98.5959 283.765 98.5437C282.86 98.4182 281.21 100.32 280.105 101.975ZM281.811 103.084C280.556 103.084 279.426 102.844 279.203 102.793L278.546 102.644L278.896 102.069C279.381 101.274 281.922 97.329 283.893 97.5844C284.625 97.6817 285.152 98.2743 285.459 99.3437C285.794 100.505 285.648 101.426 285.03 102.082C284.284 102.869 282.992 103.084 281.811 103.084Z" fill="#2C2C2C"/>
<path d="M27.4438 199.794C27.4438 193.661 32.4156 188.689 38.5486 188.689C44.6816 188.689 49.6549 193.661 49.6549 199.794C49.6549 205.927 44.6816 210.9 38.5486 210.9C32.4156 210.9 27.4438 205.927 27.4438 199.794Z" fill="white"/>
<path d="M38.5484 189.042C32.62 189.042 27.7963 193.865 27.7963 199.794C27.7963 205.724 32.62 210.548 38.5484 210.548C44.4782 210.548 49.302 205.724 49.302 199.794C49.302 193.865 44.4782 189.042 38.5484 189.042ZM38.5484 211.253C32.2306 211.253 27.0909 206.112 27.0909 199.794C27.0909 193.477 32.2306 188.337 38.5484 188.337C44.8662 188.337 50.0074 193.477 50.0074 199.794C50.0074 206.112 44.8662 211.253 38.5484 211.253Z" fill="#2C2C2C"/>
<path d="M44.3037 198.892H39.3502V193.865C39.3502 193.422 38.9918 193.064 38.5488 193.064C38.1072 193.064 37.7475 193.422 37.7475 193.865V198.892H32.8462C32.4032 198.892 32.0434 199.249 32.0434 199.692C32.0434 200.136 32.4032 200.495 32.8462 200.495H37.7475V205.577C37.7475 206.02 38.1072 206.377 38.5488 206.377C38.9918 206.377 39.3502 206.02 39.3502 205.577V200.495H44.3037C44.7467 200.495 45.1051 200.136 45.1051 199.692C45.1051 199.249 44.7467 198.892 44.3037 198.892Z" fill="#2C2C2C"/>
<path d="M249.818 152.803H260.06C260.775 152.803 261.423 152.351 261.671 151.678L263.827 145.827C263.876 145.624 263.821 145.359 263.659 145.152C263.498 144.946 263.254 144.827 262.993 144.827H257.986L257.884 140.889C257.869 140.319 257.567 139.807 257.074 139.519L256.826 139.374C256.698 139.298 256.585 139.35 256.543 139.374C256.502 139.399 256.403 139.474 256.406 139.621L256.447 142.262L253.427 146.265L249.818 146.378V152.803ZM260.06 153.803H248.818V145.408L252.918 145.281L255.441 141.935L255.405 139.638C255.398 139.169 255.635 138.748 256.039 138.512C256.445 138.274 256.929 138.276 257.333 138.512L257.581 138.656C258.372 139.122 258.859 139.947 258.885 140.865L258.961 143.827H262.993C263.566 143.827 264.096 144.085 264.448 144.538C264.8 144.991 264.922 145.568 264.781 146.122L262.608 152.024C262.217 153.088 261.193 153.803 260.06 153.803Z" fill="#2C2C2C"/>
<path d="M84.4088 188.583L87.064 193.964L93.0009 194.826L88.7048 199.015L89.7193 204.928L84.4088 202.136L79.0984 204.928L80.1128 199.015L75.8167 194.826L81.7536 193.964L84.4088 188.583Z" fill="#FCCA19"/>
<path d="M247.867 183.454C247.822 183.454 247.777 183.449 247.732 183.437C247.304 183.324 247.097 182.693 247.272 182.029C247.428 181.432 247.837 181.011 248.23 181.011C248.276 181.011 248.321 181.016 248.365 181.029C248.794 181.142 249.001 181.771 248.826 182.437C248.668 183.032 248.261 183.454 247.867 183.454Z" fill="url(#paint2_linear_401_2867)"/>
<path d="M191.232 24.481H90.1693V21.4801H191.232V24.481Z" fill="#2C2C2C"/>
<path d="M288.82 70.7021L288.373 70.4806C287.814 70.2041 287.495 70.0616 287.495 70.0616L287.038 69.8584L287.445 68.9442L287.9 69.1473C287.9 69.1473 288.229 69.2941 288.816 69.5847L289.265 69.8076L288.82 70.7021Z" fill="#0041EF"/>
<path d="M293.951 73.7014L293.531 73.4319C292.938 73.0509 292.372 72.7025 291.842 72.3879L291.413 72.1311L291.924 71.2733L292.354 71.5272C292.893 71.8489 293.467 72.203 294.071 72.591L294.492 72.8619L293.951 73.7014ZM298.776 77.1989L298.383 76.8885C297.849 76.468 297.322 76.0659 296.803 75.685L296.4 75.3887L296.993 74.5831L297.395 74.8794C297.921 75.2674 298.458 75.6751 299.002 76.104L299.394 76.4116L298.776 77.1989ZM303.204 81.1676L302.848 80.8177C302.37 80.3479 301.889 79.8936 301.408 79.4562L301.037 79.119L301.711 78.3797L302.081 78.7169C302.572 79.1642 303.061 79.6269 303.548 80.1052L303.905 80.4565L303.204 81.1676ZM307.14 85.6146L306.828 85.2224C306.413 84.7018 305.991 84.1939 305.563 83.7001L305.235 83.3234L305.99 82.6673L306.319 83.044C306.755 83.5491 307.188 84.0683 307.611 84.6002L307.922 84.991L307.14 85.6146ZM310.429 90.5441L310.176 90.1124C309.842 89.5396 309.496 88.9795 309.139 88.4307L308.865 88.0117L309.703 87.4657L309.976 87.8847C310.341 88.4476 310.695 89.0218 311.038 89.6087L311.291 90.0391L310.429 90.5441ZM312.903 95.9138L312.727 95.4468C312.491 94.8261 312.24 94.2194 311.973 93.624L311.77 93.1669L312.682 92.7592L312.886 93.2149C313.16 93.8286 313.42 94.4536 313.661 95.0913L313.839 95.5597L312.903 95.9138ZM314.423 101.617L314.33 101.126C314.208 100.474 314.067 99.8332 313.908 99.204L313.788 98.7186L314.756 98.4745L314.878 98.9585C315.042 99.6103 315.187 100.269 315.314 100.941L315.405 101.433L314.423 101.617ZM314.955 107.512C314.955 107.512 314.887 105.934 314.854 105.384L314.797 104.531L315.794 104.462L315.954 107.473L314.955 107.512ZM315.927 113.511L314.928 113.475C314.928 113.475 314.987 111.662 314.994 110.989L315 110.489L316 110.499L315.994 111C315.987 111.68 315.97 112.35 315.946 113.013L315.927 113.511ZM315.376 119.529L314.385 119.396L314.451 118.901C314.538 118.256 314.613 117.6 314.68 116.933L314.729 116.435L315.725 116.532L315.674 117.029C315.609 117.71 315.53 118.376 315.443 119.032L315.376 119.529ZM314.191 125.459L313.222 125.214L313.343 124.729C313.501 124.101 313.651 123.459 313.789 122.802L313.891 122.312L314.87 122.518L314.767 123.009C314.626 123.677 314.475 124.333 314.314 124.975L314.191 125.459ZM312.253 131.201L311.324 130.825L311.514 130.363C311.758 129.762 311.99 129.145 312.212 128.514L312.378 128.042L313.321 128.373L313.154 128.845C312.927 129.492 312.689 130.123 312.439 130.737L312.253 131.201ZM309.454 136.587L308.602 136.065L308.861 135.639C309.2 135.088 309.526 134.519 309.842 133.931L310.079 133.489L310.959 133.962L310.723 134.402C310.399 135.007 310.062 135.593 309.716 136.16L309.454 136.587ZM305.762 141.415L305.017 140.749L305.348 140.375C305.781 139.893 306.203 139.391 306.614 138.87L306.923 138.478L307.708 139.097L307.398 139.489C306.973 140.027 306.539 140.543 306.094 141.043L305.762 141.415ZM301.25 145.493L300.636 144.704L301.032 144.396C301.546 143.999 302.054 143.581 302.552 143.145L302.927 142.816L303.586 143.568L303.209 143.897C302.696 144.347 302.174 144.775 301.643 145.187L301.25 145.493ZM296.079 148.692L295.613 147.808L296.055 147.575C296.633 147.27 297.208 146.949 297.776 146.61L298.205 146.353L298.719 147.211L298.288 147.468C297.706 147.818 297.116 148.146 296.52 148.46L296.079 148.692ZM290.461 151.005L290.141 150.06L290.613 149.897C291.231 149.689 291.851 149.461 292.467 149.217L292.933 149.033L293.301 149.962L292.837 150.146C292.203 150.398 291.568 150.631 290.935 150.845L290.461 151.005ZM284.575 152.483L284.387 151.502L284.878 151.408C285.516 151.286 286.162 151.146 286.812 150.991L287.299 150.875L287.53 151.847L287.044 151.963C286.381 152.121 285.72 152.263 285.066 152.389L284.575 152.483Z" fill="#2C2C2C"/>
<path d="M279.489 153.133L279.4 152.138L281.378 151.945L281.485 152.941L279.489 153.133Z" fill="#0041EF"/>
<path d="M254.013 74.9826L253.796 74.0063L254.284 73.8976C255.561 73.6126 256.326 73.583 256.357 73.5816L256.856 73.5661L256.89 74.5635L256.392 74.5819C256.392 74.5819 255.678 74.6101 254.501 74.8725L254.013 74.9826ZM248.577 77.1581L248.116 76.2721L248.557 76.0407C249.199 75.7063 249.814 75.4171 250.399 75.1674L250.859 74.9713L251.251 75.8897L250.792 76.0873C250.231 76.3271 249.638 76.605 249.02 76.9281L248.577 77.1581ZM243.744 80.5159L243.107 79.7442L243.492 79.4253C244.033 78.9795 244.572 78.5661 245.101 78.1838L245.507 77.8931L246.09 78.7044L245.685 78.9964C245.173 79.3647 244.654 79.764 244.129 80.1971L243.744 80.5159ZM239.589 84.7146L238.834 84.0586L239.161 83.6819C239.615 83.1585 240.07 82.6576 240.523 82.185L240.868 81.8238L241.591 82.5151L241.245 82.8763C240.802 83.3376 240.36 83.8244 239.916 84.3379L239.589 84.7146ZM236.123 89.5101L235.281 88.9726L235.549 88.5522C235.922 87.9695 236.298 87.4094 236.678 86.8732L236.966 86.4641L237.783 87.0411L237.493 87.4503C237.125 87.9751 236.757 88.5197 236.393 89.0897L236.123 89.5101Z" fill="#2C2C2C"/>
<path d="M9.24674 136.259L8.45948 135.644L8.76848 135.249C9.24394 134.643 9.68271 134.121 10.0665 133.687L10.3966 133.311L11.1457 133.973L10.8156 134.348C10.4432 134.772 10.0156 135.277 9.5543 135.867L9.24674 136.259ZM6.02999 141.232L5.1595 140.741L5.40358 140.305C5.74924 139.693 6.09632 139.113 6.43916 138.565L6.70579 138.142L7.55231 138.674L7.28567 139.097C6.94989 139.631 6.61126 140.196 6.27548 140.796L6.02999 141.232ZM3.57512 146.623L2.64111 146.263L2.8203 145.798C3.06861 145.151 3.32679 144.529 3.59203 143.927L3.79381 143.47L4.70945 143.872L4.50767 144.329C4.24808 144.917 3.99555 145.527 3.7543 146.156L3.57512 146.623ZM1.92301 152.309L0.94809 152.089L1.05814 151.6C1.21051 150.93 1.37558 150.277 1.55194 149.639L1.68459 149.158L2.64818 149.423L2.51556 149.906C2.34344 150.528 2.1812 151.167 2.03306 151.822L1.92301 152.309ZM1.10189 158.172L0.105814 158.093L0.145322 157.594C0.200345 156.911 0.270887 156.239 0.355538 155.583L0.41902 155.087L1.41085 155.214L1.34737 155.709C1.26413 156.352 1.19642 157.007 1.14139 157.674L1.10189 158.172ZM0.0959629 164.154L0.0691305 163.655C0.0324483 162.97 0.011291 162.297 0.0042367 161.634L0 161.135L1.00031 161.125L1.00454 161.626C1.0116 162.274 1.03134 162.932 1.06803 163.6L1.09482 164.101L0.0959629 164.154ZM0.950914 170.163L0.847925 169.672C0.711072 169.016 0.588351 168.351 0.483948 167.681L0.406344 167.186L1.39535 167.034L1.47155 167.526C1.57454 168.18 1.69302 168.828 1.82705 169.467L1.93007 169.957L0.950914 170.163ZM2.70883 175.97L2.5353 175.502C2.30251 174.872 2.08384 174.235 1.87786 173.586L1.72688 173.109L2.68062 172.81L2.83159 173.285C3.03194 173.919 3.24639 174.542 3.47354 175.154L3.64566 175.623L2.70883 175.97ZM5.24558 181.472L5.01277 181.031C4.70238 180.441 4.40047 179.839 4.10701 179.223L3.89256 178.773L4.79408 178.341L5.00994 178.794C5.29635 179.394 5.59263 179.985 5.89738 180.565L6.13015 181.007L5.24558 181.472ZM8.42985 186.625L8.14768 186.213C7.7724 185.665 7.40136 185.104 7.03736 184.527L6.77069 184.104L7.61438 183.569L7.88246 183.992C8.24082 184.559 8.60481 185.111 8.97305 185.649L9.25522 186.062L8.42985 186.625ZM12.1446 191.403L11.8216 191.024C11.3983 190.523 10.9708 190.001 10.5433 189.459L10.2329 189.068L11.016 188.446L11.3263 188.84C11.7482 189.373 12.1686 189.884 12.5848 190.376L12.9079 190.757L12.1446 191.403ZM16.3095 195.797L15.9525 195.448C15.4968 195.007 15.0214 194.528 14.5276 194.019L14.1805 193.659L14.8986 192.965L15.2471 193.325C15.7324 193.826 16.2008 194.296 16.6495 194.733L17.0079 195.081L16.3095 195.797ZM20.9413 199.742L20.5378 199.447C20.5378 199.447 19.9368 199.009 18.9421 198.167L18.5598 197.845L19.2046 197.082L19.5869 197.404C20.542 198.209 21.1275 198.64 21.1275 198.64L21.5311 198.934L20.9413 199.742Z" fill="#2C2C2C"/>
<path d="M257.751 117.88H256.75V117.713L256.596 117.668L256.115 117.532L256.383 116.569L256.865 116.703C257.466 116.869 257.751 117.015 257.751 117.379V117.88ZM250.613 118.623L250.232 117.699L250.695 117.508C251.366 117.231 252.025 117.009 252.653 116.847L253.136 116.723L253.385 117.69L252.9 117.815C252.319 117.964 251.706 118.173 251.074 118.433L250.613 118.623ZM245.604 121.676L245.013 120.871L245.417 120.576C245.997 120.15 246.553 119.767 247.089 119.424L247.511 119.155L248.05 119.997L247.629 120.267C247.11 120.6 246.57 120.968 246.009 121.38L245.604 121.676ZM241.454 125.758L240.652 125.16L240.951 124.759C241.358 124.214 241.808 123.687 242.293 123.191L242.642 122.834L243.357 123.533L243.007 123.891C242.554 124.354 242.131 124.846 241.753 125.357L241.454 125.758ZM239.215 131.068L238.243 130.834L238.36 130.347C238.522 129.673 238.727 129.011 238.968 128.378L239.146 127.911L240.08 128.266L239.902 128.733C239.676 129.327 239.484 129.949 239.332 130.581L239.215 131.068ZM237.956 136.959L237.917 136.46C237.877 135.922 237.852 135.359 237.852 134.779L237.86 133.922L238.861 133.929L238.852 134.779C238.852 135.333 238.875 135.869 238.914 136.386L238.952 136.884L237.956 136.959ZM239.352 142.932L239.17 142.466C239.157 142.435 238.873 141.703 238.57 140.488L238.449 140.005L239.419 139.762L239.541 140.246C239.827 141.393 240.101 142.103 240.101 142.103L240.283 142.568L239.352 142.932Z" fill="#2C2C2C"/>
<path d="M215.178 194.856L216.164 201.173C216.164 201.173 218.209 200.582 219.817 198.584C220.979 197.14 235.575 193.936 235.575 193.936L231.365 191.501C231.365 191.501 225.771 190.975 223.403 191.565C221.033 192.158 218.599 193.759 218.599 193.759L215.178 194.856Z" fill="#FEB3A2"/>
<path d="M203.888 166.245C203.888 166.245 195.621 167.917 190.876 170.434C183.262 174.474 169.674 201.726 172.037 207.249C178.342 221.982 216.446 201.687 216.446 201.687L215.425 194.63L218.86 193.888L223.319 191.565C223.319 191.565 221.088 179.122 218.86 176.522C216.633 173.922 213.687 171.183 212.166 170.2C211.942 169.923 212.588 172.279 210.713 172.205C208.839 172.13 206.249 171.833 204.729 170.176C202.562 167.815 203.888 166.245 203.888 166.245Z" fill="#2C2C2C"/>
<path d="M185.637 204.335L185.423 204.263C185.289 204.162 185.245 203.98 185.32 203.829L186.522 201.353L184.903 201.615C184.752 201.635 184.596 201.562 184.528 201.42C184.462 201.278 184.494 201.11 184.611 201.006L187.327 198.558C187.327 198.558 190.925 193.823 193.809 188.896C196.306 184.626 198.932 180.349 198.958 180.307C199.059 180.139 199.276 180.088 199.444 180.191C199.609 180.293 199.661 180.51 199.559 180.677C199.533 180.719 196.913 184.988 194.417 189.252C191.511 194.218 187.879 198.985 187.842 199.032L185.97 200.728L187.08 200.547C187.212 200.526 187.341 200.579 187.419 200.684L187.454 201.05L186.724 202.555L189.087 200.47L189.235 200.39L215.004 194.039L215.288 194.091L215.439 194.338L216.268 201.034C216.292 201.229 216.155 201.405 215.963 201.429C215.749 201.449 215.592 201.315 215.568 201.123L214.787 194.82L189.487 201.056L185.87 204.248L185.637 204.335Z" fill="#09030F"/>
<path d="M69.4437 232.063C69.4408 236.827 65.5751 240.692 60.8092 240.688C56.0434 240.687 52.1805 236.823 52.1819 232.056C52.1833 227.289 56.049 223.425 60.8149 223.427C65.5822 223.43 69.4451 227.295 69.4437 232.063Z" fill="#DFDFDF"/>
<path d="M36.7004 44.6223C36.7004 46.9728 34.7929 48.8789 32.4425 48.8774C30.0906 48.8774 28.1859 46.97 28.1859 44.6195C28.1873 42.2676 30.0934 40.3629 32.4453 40.3643C34.7958 40.3657 36.7018 42.2718 36.7004 44.6223Z" fill="#DFDFDF"/>
<path d="M249.318 34.3118C249.317 36.6637 247.41 38.5697 245.06 38.5683C242.708 38.5669 240.803 36.6608 240.803 34.3103C240.805 31.9599 242.712 30.0538 245.063 30.0552C247.413 30.0552 249.318 31.9613 249.318 34.3118Z" fill="#FCCA19"/>
<path d="M125.23 257.424C125.23 259.776 123.323 261.681 120.972 261.681C118.622 261.679 116.716 259.772 116.716 257.422C116.717 255.071 118.623 253.166 120.975 253.168C123.326 253.168 125.232 255.074 125.23 257.424Z" fill="#FCCA19"/>
<path d="M14.9241 81.9253C13.976 81.9253 13.0843 82.2936 12.4141 82.9637C11.7426 83.6339 11.373 84.5255 11.373 85.4736C11.373 86.4231 11.7412 87.3162 12.4127 87.9864C13.0829 88.6579 13.9746 89.0276 14.9241 89.0276C16.8823 89.0276 18.4752 87.4361 18.4766 85.4778C18.4766 83.5196 16.8823 81.9253 14.9241 81.9253ZM14.9241 90.4384C13.5993 90.4384 12.3507 89.9221 11.4139 88.9838C10.4771 88.0456 9.96069 86.7998 9.9621 85.4736C9.9621 84.1488 10.4799 82.903 11.4167 81.9662C12.3535 81.0294 13.6007 80.5145 14.9241 80.5145C17.6597 80.5145 19.8874 82.7436 19.8874 85.4778C19.886 88.2149 17.6569 90.4384 14.9241 90.4384Z" fill="#FCCA19"/>
<path d="M231.637 62.0929C228.125 62.0915 225.265 64.9499 225.262 68.4629C225.261 71.9774 228.121 74.8358 231.634 74.8372C235.147 74.8386 238.007 71.9802 238.008 68.4672C238.01 64.9527 235.15 62.0943 231.637 62.0929ZM231.634 76.248C227.342 76.2466 223.85 72.7548 223.852 68.4629C223.854 64.1725 227.348 60.6807 231.637 60.6821C235.928 60.6835 239.42 64.1754 239.419 68.4672C239.418 72.7576 235.924 76.2495 231.634 76.248Z" fill="white"/>
<path d="M205.452 36.39L203.294 34.3076C205.429 32.0982 206.606 29.1932 206.606 26.126C206.606 23.0701 205.442 20.1807 203.328 17.9925L205.486 15.91C208.142 18.6598 209.605 22.2871 209.605 26.126C209.605 29.9749 208.129 33.6205 205.452 36.39Z" fill="#FCCA19"/>
<path d="M213.968 43.9634L211.774 41.9162C215.785 37.6216 217.993 32.0149 217.993 26.126C217.993 20.127 215.697 14.4328 211.53 10.0916L213.693 8.01339C218.401 12.9161 220.992 19.3482 220.992 26.126C220.992 32.7767 218.498 39.1115 213.968 43.9634Z" fill="#FCCA19"/>
<path d="M222.599 51.6612L220.391 49.631C226.303 43.2045 229.557 34.8565 229.557 26.1261C229.557 17.1108 226.116 8.57089 219.866 2.08096L222.026 -4.57764e-05C228.818 7.05281 232.556 16.3306 232.556 26.1261C232.556 35.6099 229.021 44.6789 222.599 51.6612Z" fill="#FCCA19"/>
<path d="M212.497 168.422L212.296 168.358C209.903 166.698 208.244 162.558 208.175 162.382C208.103 162.201 208.191 161.995 208.373 161.925C208.558 161.853 208.757 161.94 208.831 162.123C208.847 162.165 210.481 166.24 212.698 167.78C212.857 167.89 212.898 168.11 212.787 168.271L212.497 168.422Z" fill="#09030F"/>
<path d="M276.031 162.777L275.907 162.293C275.725 161.576 275.531 160.939 275.355 160.405L275.197 159.933L276.147 159.617L276.303 160.092C276.488 160.644 276.687 161.302 276.876 162.046L276.999 162.53L276.031 162.777ZM276.712 168.61L276.705 168.109C276.698 167.467 276.662 166.811 276.595 166.157L276.546 165.66L277.54 165.56L277.59 166.058C277.659 166.74 277.697 167.426 277.706 168.099L277.711 168.597L276.712 168.61ZM276.663 174.644L275.713 174.332L275.87 173.856C276.07 173.25 276.235 172.619 276.362 171.983L276.461 171.492L277.442 171.688L277.343 172.178C277.209 172.855 277.033 173.525 276.82 174.17L276.663 174.644ZM273.417 179.881L272.67 179.218L273.002 178.844C273.432 178.36 273.828 177.848 274.184 177.319L274.462 176.904L275.292 177.46L275.014 177.875C274.636 178.442 274.209 178.991 273.75 179.509L273.417 179.881ZM268.337 183.371L267.92 182.463L268.373 182.254C268.965 181.98 269.537 181.671 270.071 181.334L270.493 181.064L271.029 181.91L270.606 182.177C270.035 182.539 269.424 182.87 268.792 183.163L268.337 183.371ZM262.362 184.787L262.259 183.793L262.756 183.741C263.411 183.673 264.06 183.571 264.683 183.446L265.173 183.344L265.373 184.324L264.884 184.424C264.23 184.559 263.548 184.664 262.861 184.735L262.362 184.787ZM259.277 184.835L258.778 184.799C257.532 184.709 256.76 184.552 256.728 184.545L256.239 184.445L256.44 183.466L256.929 183.568C256.929 183.568 257.674 183.717 258.849 183.802L259.349 183.837L259.277 184.835Z" fill="#2C2C2C"/>
<path d="M191.37 14.6361H89.4758C90.3138 10.8282 93.7083 8.18993 98.0185 8.355L183.107 8.34511C187.592 8.34511 190.679 11.4913 191.37 14.6361Z" fill="#DFDFDF"/>
<path d="M177.13 10.1085C176.918 10.1085 176.746 10.2806 176.746 10.4937V12.4872C176.746 12.6989 176.918 12.871 177.13 12.871H182.688C182.9 12.871 183.072 12.6989 183.072 12.4872V10.4937C183.072 10.2806 182.9 10.1085 182.688 10.1085H177.13ZM182.688 13.2618H177.13C176.702 13.2618 176.355 12.9133 176.355 12.4872V10.4937C176.355 10.0662 176.702 9.71913 177.13 9.71913H182.688C183.115 9.71913 183.462 10.0662 183.462 10.4937V12.4872C183.462 12.9133 183.115 13.2618 182.688 13.2618Z" fill="white"/>
<path d="M181.374 12.6059H177.408C177.155 12.6059 176.958 12.3929 176.958 12.1403V10.8423C176.958 10.587 177.155 10.3768 177.408 10.3768H179.963L181.374 12.6059Z" fill="white"/>
<path d="M183.873 11.2119V11.6591L183.738 11.8016H183.27V11.0708H183.738L183.873 11.2119Z" fill="white"/>
<path d="M101.574 10.9255L101.031 11.4983C100.533 11.0243 99.8573 10.735 99.1138 10.735C98.3589 10.735 97.6719 11.0356 97.1724 11.5266L96.6208 10.9608C97.2655 10.3287 98.1445 9.94358 99.1138 9.94358C100.066 9.94358 100.932 10.316 101.574 10.9255Z" fill="white"/>
<path d="M100.762 11.7791L100.216 12.359C99.9277 12.0853 99.5397 11.9188 99.1136 11.9188C98.6819 11.9188 98.2869 12.0909 97.9991 12.3759L97.4404 11.8017C97.8721 11.3827 98.4618 11.1217 99.1136 11.1217C99.7542 11.1217 100.334 11.3728 100.762 11.7791Z" fill="white"/>
<path d="M99.935 12.6524L99.1139 13.5173L98.2815 12.6651C98.4974 12.4535 98.7922 12.3251 99.1139 12.3251C99.4327 12.3251 99.722 12.4493 99.935 12.6524Z" fill="white"/>
<path d="M108.069 13.5173H109.156V9.66985H108.069V13.5173Z" fill="white"/>
<path d="M106.452 13.5173H107.54V10.5206H106.452V13.5173Z" fill="white"/>
<path d="M104.953 13.5173H106.04V11.2416H104.953V13.5173Z" fill="white"/>
<path d="M103.476 13.5173H104.563V12.3801H103.476V13.5173Z" fill="white"/>
<defs>
<linearGradient id="paint0_linear_401_2867" x1="144.42" y1="151.899" x2="50.7628" y2="276.833" gradientUnits="userSpaceOnUse">
<stop stop-color="#5E95F6"/>
<stop offset="1" stop-color="#4A89F4"/>
</linearGradient>
<linearGradient id="paint1_linear_401_2867" x1="194.457" y1="61.9507" x2="84.9737" y2="143.281" gradientUnits="userSpaceOnUse">
<stop stop-color="#5E95F6"/>
<stop offset="1" stop-color="#4486F0"/>
</linearGradient>
<linearGradient id="paint2_linear_401_2867" x1="247.272" y1="182.028" x2="248.826" y2="182.436" gradientUnits="userSpaceOnUse">
<stop stop-color="#898989"/>
<stop offset="1" stop-color="#656C95"/>
</linearGradient>
</defs>
</svg>
