<svg width="265" height="349" viewBox="0 0 265 349" fill="none" xmlns="http://www.w3.org/2000/svg">
<path d="M188.474 141.264C188.474 141.264 205.798 142.973 215.665 142.762C225.533 142.551 230.427 143.07 233.008 137.911C235.567 132.793 230.422 130.086 222.502 129.942C214.582 129.799 188.474 141.264 188.474 141.264Z" fill="#FCCA19"/>
<path d="M185.393 142.78C185.393 142.78 188.087 131.179 187.786 122.553C187.483 113.928 184.043 99.9995 193.3 100.153C201.233 100.285 197.881 116.354 195.044 123.022C193.155 127.455 185.393 142.78 185.393 142.78Z" fill="#FCCA19"/>
<path d="M211.319 103.329C213.44 96.8259 217.04 87.8761 218.145 83.8411C219.251 79.8044 221.629 70.5065 212.84 67.9089C208.572 66.6481 205.856 76.1001 206.561 84.1286C207.319 92.7839 209.199 109.831 211.319 103.329Z" fill="#FCCA19"/>
<path d="M231.103 85.2573C231.103 85.2573 238.728 81.1954 245.994 77.0237C253.261 72.8502 267.303 64.3081 264.677 57.361C261.912 50.0409 253.107 54.4114 249.278 58.3931C245.447 62.3748 231.103 85.2573 231.103 85.2573Z" fill="#FCCA19"/>
<path d="M211.101 107.108C211.145 106.823 215.539 78.4819 213.708 68.5324L213.384 68.3086L213.165 68.6374C214.982 78.4906 210.602 106.735 210.559 107.02L210.639 107.267L210.786 107.342L211.101 107.108Z" fill="#2C2C2C"/>
<path d="M151.112 171.424L151.035 171.324C150.921 171.119 150.995 170.861 151.197 170.747C151.262 170.712 157.606 167.16 165.573 161.35C172.914 155.994 183.175 147.57 190.356 137.846C196.15 130.002 200.433 122.918 204.209 116.666C209.658 107.651 214.363 99.8669 221.813 92.4195C231.719 82.5154 261.939 55.3352 262.243 55.0615C262.417 54.907 262.684 54.9228 262.838 55.0948C262.993 55.2703 262.979 55.537 262.805 55.6931C262.499 55.9669 232.297 83.1313 222.407 93.0196C215.03 100.393 210.348 108.139 204.93 117.106C201.143 123.373 196.85 130.474 191.033 138.35C183.784 148.163 173.45 156.651 166.056 162.043C158.051 167.881 151.67 171.454 151.607 171.489C151.441 171.581 151.241 171.549 151.112 171.424Z" fill="#2C2C2C"/>
<path d="M161.419 154.208C160.576 150.014 159.608 143.74 159.148 137.875L164.345 144.644C163.923 148.015 163.595 150.676 163.444 151.942C163.173 154.178 162.552 156.717 161.903 158.969C161.912 157.591 161.78 156.007 161.419 154.208ZM158.893 130.432L165.186 137.946C164.933 139.957 164.692 141.891 164.471 143.66L159.058 136.603C158.912 134.418 158.846 132.316 158.893 130.432ZM160.356 120.889L165.707 133.81C165.572 134.88 165.436 135.948 165.304 136.997L158.931 129.388C158.974 128.549 159.042 127.762 159.138 127.042C159.374 125.297 159.755 123.08 160.356 120.889ZM166.712 112.194C167.34 112.13 167.916 112.14 168.443 112.227L168.414 112.325C168.391 112.509 167.137 122.438 165.882 132.409L160.666 119.817C160.953 118.894 161.28 117.99 161.657 117.146C163.026 114.061 164.725 112.395 166.712 112.194ZM170.741 113.357L171.124 113.775C173.132 116.252 173.432 121.517 172.016 129.421C171.867 130.25 171.705 131.08 171.532 131.906L166.011 136.979C166.123 136.084 166.238 135.177 166.352 134.266L166.476 133.841L166.422 133.712C167.725 123.351 169.082 112.607 169.106 112.414C169.729 112.582 170.272 112.904 170.741 113.357ZM167.609 146.401C166.408 150.339 164.277 155.395 162.533 159.301C163.206 156.986 163.855 154.35 164.135 152.026C164.379 150.005 165.077 144.419 165.875 138.056L171.279 133.079C170.13 138.236 168.657 143.008 167.872 145.55C167.773 145.868 167.685 146.153 167.609 146.401ZM160.3 165.751C160.34 165.697 160.664 165.205 161.013 164.277C162.589 160.95 166.467 152.53 168.277 146.608C168.351 146.361 168.44 146.078 168.537 145.758C170.546 139.261 176.654 119.485 171.664 113.329C170.498 111.892 168.808 111.273 166.642 111.495C161.256 112.044 159.197 121.412 158.447 126.947C157.421 134.525 159.497 148.183 160.734 154.348C161.452 157.915 161.225 160.625 160.805 162.466C160.43 163.586 160.118 164.438 159.96 164.859C159.8 165.193 159.701 165.398 159.701 165.398L159.773 165.807C159.996 165.948 160.198 165.903 160.3 165.751Z" fill="#6A8EC8"/>
<path d="M245.452 115.55L233.818 110.247C239.996 108.904 246.89 107.725 254.007 107.09L254.262 106.787L253.956 106.537C240.812 107.707 228.422 110.729 219.891 113.228L227.16 107.275L227.244 107.156C232.649 104.536 237.419 102.398 239.5 101.917C244.151 100.843 249.858 99.8716 252.697 101.908C252.863 102.026 253.014 102.154 253.158 102.289C254.041 103.119 254.535 104.289 254.659 105.84C254.884 108.599 252.891 111.283 248.736 113.81C247.757 114.407 246.651 114.991 245.452 115.55ZM242.417 116.838L229.53 111.231C230.739 110.94 231.982 110.652 233.257 110.368L233.338 110.626L233.415 110.678L244.778 115.858C244.021 116.195 243.231 116.523 242.417 116.838ZM236.67 118.707C235.72 118.961 234.479 119.153 233.032 119.291L219.306 113.982C222.026 113.172 225.175 112.301 228.638 111.449L241.668 117.121C240.065 117.713 238.379 118.247 236.67 118.707ZM204.908 118.869C207.301 117.939 212.106 116.153 218.434 114.243L231.762 119.398C223.237 120.009 209.353 119.17 204.908 118.869ZM225.204 108.153L218.504 113.639L218.351 113.684C213.614 115.114 209.724 116.473 207.044 117.464C211.202 115.266 218.485 111.461 225.204 108.153ZM255.222 105.795C255.066 103.848 254.327 102.389 253.03 101.461C250.021 99.301 244.437 100.207 239.372 101.376C233.166 102.807 204.551 118.15 203.336 118.804L203.208 118.947L203.004 119.032L202.854 119.397L202.918 119.488L203.225 119.544C203.225 119.544 203.403 119.469 203.711 119.343C206.188 119.526 223.554 120.752 232.958 119.86L233.311 119.997L233.677 119.841C234.913 119.647 235.973 119.469 236.819 119.243C238.192 118.875 240.2 118.28 242.41 117.441L242.655 117.548L243.027 117.407L243.034 117.201C243.829 116.886 244.645 116.544 245.461 116.167C245.619 116.241 245.788 116.179 245.854 116.041C246.946 115.465 248.015 114.903 249.033 114.284C253.383 111.637 255.466 108.781 255.222 105.795Z" fill="#2C2C2C"/>
<path d="M185.407 144.141C185.434 144.06 188.051 135.871 190.34 126.441C191.159 123.061 191.835 119.959 192.365 117.14L192.594 117.034L197.719 110.412L197.672 110.014L197.284 110.06L192.542 116.186C193.858 108.912 194.162 103.611 193.448 100.367L193.117 100.152L192.906 100.492C193.679 104.001 193.117 109.776 191.999 115.986L187.573 110.718L187.181 110.686L187.152 111.086L191.868 116.702C189.503 129.46 184.949 143.748 184.879 143.963L184.951 144.258L185.056 144.321L185.407 144.141Z" fill="#2C2C2C"/>
<path d="M233.157 134.824L232.872 134.539C226.969 134.626 216.82 135.957 207.739 137.338L213.432 132.44L213.469 132.033L213.074 131.995L207.012 137.194L206.915 137.464C197.171 138.961 188.861 140.476 188.701 140.505L188.474 140.842L188.556 141L188.799 141.076C188.926 141.053 194.235 140.086 201.312 138.936L208.5 142.78L208.878 142.654L208.755 142.265L202.201 138.793C203.935 138.514 205.764 138.225 207.638 137.938L216.487 142.75L216.866 142.629L216.747 142.238L208.581 137.796C217.444 136.46 227.165 135.205 232.879 135.118L233.157 134.824Z" fill="#2C2C2C"/>
<path d="M146.05 22.3849C25.2604 -42.8973 -59.2382 92.8103 -140.207 92.3659C-223.387 91.9111 -251.843 163.153 -183.921 240.027C-117.795 314.866 -24.7027 344.2 34.9168 343.588C133.482 342.575 227.793 252.861 186.906 197.524C150.008 147.582 225.826 65.5022 146.05 22.3849Z" fill="#F3F3F3"/>
<path d="M-108.994 228.029C-150.158 281.383 -42.6304 316.703 32.2474 288.63C101.103 262.811 153.494 201.489 162.669 184.358C186.612 139.645 183.431 107.718 156.487 91.9766C126.815 74.641 67.0081 70.4547 28.9771 112.637C-1.63751 146.59 0.226135 170.615 -15.8694 181.834C-49.9715 205.604 -91.7421 205.672 -108.994 228.029Z" fill="#FCCA19"/>
<path d="M-142.53 91.3953C-179.656 91.3953 -207.422 105.688 -218.789 130.682C-232.466 160.755 -220.107 201.955 -185.727 240.89C-121.18 313.993 -28.6614 346.468 35.248 346.468C35.8894 346.468 36.5239 346.466 37.16 346.459C108.088 345.731 172.434 301.259 193.665 258.684C204.867 236.224 204.199 215.427 191.732 198.539C175.732 176.87 180.272 148.881 184.664 121.817C190.782 84.091 197.11 45.0827 150.28 19.7544C73.603 -21.7167 10.6296 17.043 -44.9323 51.2379C-78.6343 71.9787 -110.5 91.5932 -141.736 91.397C-141.999 91.397 -142.267 91.3953 -142.53 91.3953ZM35.2532 348.22C-29.0558 348.22 -122.126 315.568 -187.041 242.049C-221.891 202.58 -234.356 160.677 -220.386 129.957C-208.64 104.129 -179.949 89.3756 -141.725 89.6454L-141.327 89.6471C-110.685 89.6471 -79.1898 70.2639 -45.8524 49.7455C10.1161 15.3018 73.5486 -23.7346 151.116 18.213C199.04 44.1333 192.611 83.767 186.393 122.096C181.859 150.034 177.58 176.424 193.141 197.501C206.026 214.95 206.75 236.378 195.235 259.467C173.768 302.511 108.779 347.475 37.1775 348.211C36.5413 348.218 35.8946 348.22 35.2532 348.22Z" fill="#DFDFDF"/>
<path d="M144.389 281.965H-167.02C-170.662 281.965 -173.613 279.016 -173.613 275.377V43.0562C-173.613 39.4151 -170.662 36.4655 -167.02 36.4655H144.389C148.031 36.4655 150.981 39.4151 150.981 43.0562V275.377C150.981 279.016 148.031 281.965 144.389 281.965Z" fill="white"/>
<path d="M-167.104 36.8277C-170.493 36.8277 -173.252 39.59 -173.252 42.9846V275.448C-173.252 278.841 -170.493 281.603 -167.104 281.603H143.959C147.348 281.603 150.106 278.841 150.106 275.448V42.9846C150.106 39.59 147.348 36.8277 143.959 36.8277H-167.104ZM143.959 282.479H-167.104C-170.976 282.479 -174.127 279.324 -174.127 275.448V42.9846C-174.127 39.1065 -170.976 35.9519 -167.104 35.9519H143.959C147.831 35.9519 150.981 39.1065 150.981 42.9846V275.448C150.981 279.324 147.831 282.479 143.959 282.479Z" fill="#2C2C2C"/>
<path d="M-2.07129 176.678H103.73V179.759H-2.07129V176.678Z" fill="#DFDFDF"/>
<path d="M-2.07129 182.327H103.73V185.409H-2.07129V182.327Z" fill="#DFDFDF"/>
<path d="M-2.07129 188.544L29.7718 188.491V191.519L-2.07129 191.572V188.544Z" fill="#DFDFDF"/>
<path d="M-216.952 123.777H-171.361C-170.336 123.777 -169.504 125.06 -169.504 126.639V162.001C-169.504 163.581 -170.336 164.865 -171.361 164.865H-216.952C-217.979 164.865 -218.809 163.581 -218.809 162.001V126.639C-218.809 125.06 -217.979 123.777 -216.952 123.777Z" fill="white"/>
<path d="M-217.02 124.139C-217.791 124.139 -218.443 125.237 -218.443 126.538V161.589C-218.443 162.89 -217.791 163.99 -217.02 163.99H-171.293C-170.522 163.99 -169.871 162.89 -169.871 161.589V126.538C-169.871 125.237 -170.522 124.139 -171.293 124.139H-217.02ZM-171.293 164.865H-217.02C-218.312 164.865 -219.323 163.426 -219.323 161.589V126.538C-219.323 124.701 -218.312 123.264 -217.02 123.264H-171.293C-170.003 123.264 -168.99 124.701 -168.99 126.538V161.589C-168.99 163.426 -170.003 164.865 -171.293 164.865Z" fill="#2C2C2C"/>
<path d="M78.0448 120.182H178.72C180.985 120.182 182.824 122.105 182.824 124.475V177.52C182.824 179.891 180.985 181.814 178.72 181.814H78.0448C75.7782 181.814 73.9412 179.891 73.9412 177.52V124.475C73.9412 122.105 75.7782 120.182 78.0448 120.182Z" fill="white"/>
<path d="M78.468 120.549C76.4518 120.549 74.8148 122.282 74.8148 124.412V177.584C74.8148 179.714 76.4518 181.447 78.468 181.447H178.811C180.827 181.447 182.464 179.714 182.464 177.584V124.412C182.464 122.282 180.827 120.549 178.811 120.549H78.468ZM178.811 182.327H78.468C75.9713 182.327 73.9412 180.199 73.9412 177.584V124.412C73.9412 121.796 75.9713 119.668 78.468 119.668H178.811C181.307 119.668 183.338 121.796 183.338 124.412V177.584C183.338 180.199 181.307 182.327 178.811 182.327Z" fill="#282728"/>
<path d="M165.064 170.515H135.359C133.21 170.515 131.464 168.772 131.464 166.62V136.917C131.464 134.766 133.21 133.022 135.359 133.022H165.064C167.215 133.022 168.957 134.766 168.957 136.917V166.62C168.957 168.772 167.215 170.515 165.064 170.515Z" fill="#F3F3F3"/>
<path d="M142.795 145.862C142.777 145.699 142.412 141.811 144.743 139.102C146.049 137.587 147.91 136.756 150.28 136.632C152.54 136.512 154.38 137.134 155.746 138.475C158.31 140.998 158.176 145.144 158.169 145.319L156.406 145.251C156.407 145.216 156.512 141.69 154.5 139.718C153.504 138.742 152.094 138.296 150.373 138.386C148.508 138.482 147.068 139.106 146.088 140.238C144.247 142.366 144.545 145.655 144.549 145.686L142.795 145.862Z" fill="#2C2C2C"/>
<path d="M141.08 147.1C140.564 147.1 140.144 147.522 140.144 148.039L137.824 162.316C137.836 162.691 138.256 163.113 138.772 163.113L162.677 162.851C163.203 162.851 163.623 162.429 163.623 161.914L161.447 148.175C161.436 147.522 161.016 147.1 160.5 147.1H141.08ZM138.783 164.865C137.29 164.865 136.087 163.658 136.087 162.175L138.407 147.897C138.394 146.555 139.6 145.348 141.08 145.348H160.5C161.982 145.348 163.186 146.555 163.186 148.039L165.362 161.775C165.372 163.395 164.169 164.602 162.687 164.602L138.783 164.865Z" fill="#2C2C2C"/>
<path d="M148.162 161.783L144.818 153.839L146.38 153.161L148.622 158.495L156.344 148.944L157.658 150.038L148.162 161.783Z" fill="#2C2C2C"/>
<path d="M-119.685 264.663L-59.2548 256.799L-54.458 294.132L-114.886 301.996L-119.685 264.663Z" fill="#FDE180"/>
<path d="M-83.7331 259.572L-58.2618 256.286L-53.4308 293.573L-78.902 296.86L-83.7331 259.572Z" fill="#E69104"/>
<path d="M-74.4888 258.785L-72.8655 268.538L-71.0055 266.782L-68.9965 268.612L-67.392 266.7L-65.2441 267.815L-66.7114 257.826L-74.4888 258.785Z" fill="#FCCA19"/>
<path d="M-124.146 112.992H-14.559C-11.9187 112.992 -9.77521 115.134 -9.77521 117.772V245.342C-9.77521 247.984 -11.9187 250.122 -14.559 250.122H-124.146C-126.788 250.122 -128.93 247.984 -128.93 245.342V117.772C-128.93 115.134 -126.788 112.992 -124.146 112.992Z" fill="#F3F3F3"/>
<path d="M-5.10162 206.467H54.8892C56.3339 206.467 57.5064 207.822 57.5064 209.494V290.237C57.5064 291.91 56.3339 293.265 54.8892 293.265H-5.10162C-6.54803 293.265 -7.7206 291.91 -7.7206 290.237V209.494C-7.7206 207.822 -6.54803 206.467 -5.10162 206.467Z" fill="white"/>
<path d="M-5.16966 206.826C-6.3748 206.826 -7.35474 207.983 -7.35474 209.404V289.814C-7.35474 291.234 -6.3748 292.392 -5.16966 292.392H54.9569C56.162 292.392 57.1401 291.234 57.1401 289.814V209.404C57.1401 207.983 56.162 206.826 54.9569 206.826H-5.16966ZM54.9569 293.265H-5.16966C-6.85861 293.265 -8.23439 291.716 -8.23439 289.814V209.404C-8.23439 207.501 -6.85861 205.953 -5.16966 205.953H54.9569C56.6458 205.953 58.0198 207.501 58.0198 209.404V289.814C58.0198 291.716 56.6458 293.265 54.9569 293.265Z" fill="#2C2C2C"/>
<path d="M46.7263 198.763H82.1535C83.0095 198.763 83.6999 199.555 83.6999 200.535V247.836C83.6999 248.815 83.0095 249.609 82.1535 249.609H46.7263C45.8739 249.609 45.18 248.815 45.18 247.836V200.535C45.18 199.555 45.8739 198.763 46.7263 198.763Z" fill="#F3F3F3"/>
<path d="M94.4889 198.763H129.918C130.77 198.763 131.464 199.555 131.464 200.535V247.836C131.464 248.815 130.77 249.609 129.918 249.609H94.4889C93.6365 249.609 92.9443 248.815 92.9443 247.836V200.535C92.9443 199.555 93.6365 198.763 94.4889 198.763Z" fill="#F3F3F3"/>
<path d="M62.1175 209.276C62.1175 209.276 64.2725 211.327 67.2647 211.567C70.257 211.809 71.8145 209.035 71.8145 209.035C71.8145 209.035 74.8068 209.518 76.6025 210.963C78.3982 212.412 83.1862 218.68 83.1862 218.68L78.8765 223.385L74.3285 220.489L76.0015 236.769H59.6035L59.9627 220.489L57.3278 223.747L51.3431 221.215C51.3431 221.215 54.4563 214.341 56.012 212.652C57.5695 210.963 62.1175 209.276 62.1175 209.276Z" fill="#DFDFDF"/>
<path d="M-63.7684 137.638L-33.1675 138.279L-47.996 127.401C-52.9765 131.125 -60.5592 135.727 -63.7684 137.638ZM-31.7879 139.185L-65.3262 138.481C-65.5238 138.477 -65.6932 138.344 -65.7426 138.155C-65.7937 137.966 -65.7108 137.766 -65.5414 137.666C-57.2847 132.828 -44.7834 124.831 -44.1817 122.636C-43.8959 121.597 -44.1323 120.473 -44.8151 119.627C-45.429 118.863 -46.3147 118.458 -47.2568 118.492C-49.3474 118.586 -50.2578 121.224 -50.2666 121.252C-50.3425 121.48 -50.5912 121.606 -50.8241 121.529C-51.0552 121.452 -51.1805 121.203 -51.1029 120.974C-51.0588 120.842 -49.9879 117.738 -47.2956 117.617C-46.0818 117.567 -44.9174 118.096 -44.1253 119.078C-43.2679 120.143 -42.9715 121.559 -43.3296 122.866C-43.5695 123.74 -45.108 125.183 -47.2674 126.847L-31.5268 138.395C-31.3715 138.509 -31.3081 138.707 -31.3698 138.889C-31.4316 139.066 -31.5991 139.185 -31.7879 139.185Z" fill="#2C2C2C"/>
<path d="M-55.3023 130.454C-55.3023 130.454 -51.6811 134.531 -48.2417 134.249C-43.6291 133.869 -41.8368 130.454 -41.8368 130.454C-41.8368 130.454 -36.0842 132.061 -33.1553 134.405C-30.2283 136.751 -22.6152 157.16 -22.6152 157.16L-31.0904 161.189L-34.6608 149.901L-27.2243 219.423L-62.793 219.82L-61.8103 149.901L-66.1292 167.634L-69.336 169.624L-71.2542 173.533L-75.2985 172.348L-74.4278 168.438L-76.0294 164.882C-76.0294 164.882 -69.2643 139.877 -66.7272 137.141C-64.1901 134.405 -55.3023 130.454 -55.3023 130.454Z" fill="#898989"/>
<path d="M-84.3426 137.638L-54.1961 138.279L-68.8035 127.401C-73.7115 131.125 -81.1795 135.727 -84.3426 137.638ZM-52.8387 139.185L-85.8771 138.481C-86.0701 138.477 -86.2387 138.344 -86.2873 138.155C-86.336 137.966 -86.2543 137.766 -86.0875 137.666C-77.9556 132.828 -65.6405 124.831 -65.0461 122.636C-64.7645 121.597 -64.9974 120.473 -65.67 119.627C-66.2748 118.863 -67.1438 118.442 -68.0753 118.492C-70.1365 118.586 -71.0333 121.224 -71.0403 121.252C-71.1167 121.48 -71.3618 121.606 -71.5912 121.529C-71.8189 121.452 -71.9423 121.203 -71.8658 120.974C-71.8224 120.842 -70.7657 117.738 -68.1153 117.617C-66.9178 117.567 -65.7725 118.094 -64.9922 119.078C-64.1475 120.143 -63.8538 121.559 -64.2066 122.866C-64.4447 123.74 -65.9585 125.183 -68.0858 126.847L-52.5798 138.395C-52.4286 138.509 -52.366 138.707 -52.4268 138.889C-52.4876 139.066 -52.6528 139.185 -52.8387 139.185Z" fill="#2C2C2C"/>
<path d="M-76.278 130.454L-68.9122 142.157L-62.7594 130.454C-62.7594 130.454 -56.9823 132.059 -54.0437 134.405C-51.1034 136.751 -40.5585 164.624 -40.5585 164.624L-41.7504 167.724L-40.0775 171.941L-43.146 174.306L-45.9354 170.226L-49.469 169.067L-55.5534 149.901L-51.4685 176.313L-54.6564 179.227L-54.5142 182.639L-81.0036 183.868L-80.4401 179.25L-83.1839 176.313L-82.81 149.901L-87.1459 167.635L-90.3671 169.625L-92.2928 173.534L-96.3531 172.349L-95.4772 168.438L-97.0869 164.883C-97.0869 164.883 -90.2934 139.877 -87.7462 137.141C-85.1991 134.405 -76.278 130.454 -76.278 130.454Z" fill="#FCCA19"/>
<path d="M-26.7237 244.473C-26.7237 235.679 -19.5963 228.551 -10.8022 228.551C-2.00989 228.551 5.11938 235.679 5.11938 244.473C5.11938 253.266 -2.00989 260.394 -10.8022 260.394C-19.5963 260.394 -26.7237 253.266 -26.7237 244.473Z" fill="#DFDFDF"/>
<path d="M39.5307 282.222C39.5307 277.826 42.9804 274.262 47.2347 274.262C51.489 274.262 54.9387 277.826 54.9387 282.222C54.9387 286.619 51.489 290.183 47.2347 290.183C42.9804 290.183 39.5307 286.619 39.5307 282.222Z" fill="#DFDFDF"/>
<path d="M-106.6 258.854L-106.845 258.6C-106.834 258.055 -106.484 245.213 -100.397 244.501C-99.2626 244.37 -98.2476 244.692 -97.3622 245.458C-93.8028 248.533 -93.5019 257.773 -93.4914 258.165L-93.7311 258.42L-93.9866 258.179C-93.9884 258.084 -94.2928 248.766 -97.6859 245.832C-98.4629 245.16 -99.3623 244.881 -100.339 244.993C-106.001 245.655 -106.346 258.481 -106.35 258.611L-106.6 258.854Z" fill="#2C2C2C"/>
<path d="M-111.279 253.204L-111.981 301.996L-78.5974 297.675L-79.6765 253.381L-111.279 253.204Z" fill="#898989"/>
<path d="M-117.21 253.204L-114.036 253.243L-114.949 297.122L-118.658 298.401L-117.21 253.204Z" fill="#B4B4B4"/>
<path d="M-114.082 253.721L-110.954 253.718L-111.718 301.996L-115.062 296.893L-114.082 253.721Z" fill="#2C2C2C"/>
<path d="M-118.658 298.322L-114.595 296.86L-111.468 301.996L-118.658 298.322Z" fill="#B4B4B4"/>
<path d="M-101.464 257.826L-101.709 257.573C-101.697 257.027 -101.347 244.186 -95.2584 243.476C-94.1298 243.338 -93.1115 243.665 -92.2262 244.431C-88.669 247.506 -88.3664 256.746 -88.3559 257.138L-88.5956 257.393L-88.851 257.151C-88.8528 257.059 -89.1572 247.737 -92.5499 244.805C-93.3267 244.134 -94.2191 243.858 -95.2006 243.968C-100.866 244.629 -101.211 257.456 -101.214 257.583L-101.464 257.826Z" fill="#2C2C2C"/>
<path d="M-184.912 320.406L-189.931 337.948L-195.697 335.197L-192.949 315.863L-184.912 320.406Z" fill="#FF9583"/>
<path d="M-196.011 333.326C-196.714 333.265 -199.284 337.474 -198.692 339.81C-198.344 341.18 -195.992 340.77 -192.953 341.127C-189.917 341.483 -187.469 342.622 -185.375 342.568C-183.281 342.516 -176.695 341.844 -176.695 341.844L-176.916 340.076C-176.916 340.076 -180.18 340.011 -181.506 339.07C-182.831 338.127 -188.335 333.866 -188.335 333.866C-188.532 334.111 -189.979 335.198 -191.524 335.869C-193.068 336.539 -193.257 336.367 -193.98 335.975C-195.277 335.271 -194.897 333.418 -196.011 333.326Z" fill="#282728"/>
<path d="M-140.821 316.62L-140.229 334.866L-147.009 334.069L-150.501 314.836L-140.821 316.62Z" fill="#FF9583"/>
<path d="M-148.505 330.846C-149.219 330.892 -151.188 335.675 -150.255 338.023C-149.709 339.4 -147.41 338.614 -144.312 338.525C-141.212 338.435 -138.596 339.25 -136.503 338.876C-134.41 338.504 -127.903 336.801 -127.903 336.801L-128.379 334.99C-128.379 334.99 -131.66 335.42 -133.127 334.638C-134.592 333.856 -140.728 330.244 -140.728 330.244C-140.889 330.529 -142.186 331.885 -143.638 332.819C-145.089 333.753 -145.302 333.605 -146.085 333.304C-147.487 332.766 -147.375 330.775 -148.505 330.846Z" fill="#282728"/>
<path d="M-106.427 138.154L-76.281 138.795L-90.8899 127.917C-95.7961 131.639 -103.266 136.241 -106.427 138.154ZM-74.9237 139.699L-107.961 138.996C-108.156 138.993 -108.323 138.858 -108.372 138.669C-108.422 138.48 -108.34 138.28 -108.173 138.182C-100.04 133.342 -87.7252 125.346 -87.1308 123.153C-86.8493 122.114 -87.0822 120.988 -87.7547 120.142C-88.3613 119.38 -89.2337 118.97 -90.16 119.007C-92.2125 119.101 -93.1162 121.741 -93.1249 121.767C-93.2013 121.997 -93.4516 122.123 -93.6758 122.044C-93.9035 121.967 -94.0251 121.72 -93.9504 121.49C-93.9069 121.357 -92.8521 118.255 -90.2 118.133C-88.9991 118.07 -87.8573 118.611 -87.077 119.595C-86.2323 120.66 -85.9386 122.076 -86.2932 123.382C-86.5295 124.256 -88.0432 125.698 -90.1704 127.364L-74.6665 138.909C-74.5136 139.023 -74.451 139.222 -74.5119 139.403C-74.5727 139.581 -74.7378 139.699 -74.9237 139.699Z" fill="#2C2C2C"/>
<path d="M-97.3999 131.286L-94.6737 128.4C-94.6737 128.4 -92.5812 129.737 -90.2096 129.637C-88.9773 129.584 -86.3056 128.894 -86.3056 128.894L-84.3904 131.589C-84.3904 131.589 -78.5553 132.18 -75.615 134.529C-72.6746 136.875 -62.1298 164.781 -62.1298 164.781L-63.3217 167.885L-61.6488 172.109L-64.7173 174.477L-67.5066 170.392L-71.0403 169.231L-77.1264 150.043L-76.656 172.016L-67.5839 232.52L-112.377 232.66L-102.719 172.142L-104.381 150.043L-108.719 167.798L-111.938 169.789L-113.864 173.704L-117.924 172.516L-117.05 168.602L-118.658 165.042C-118.658 165.042 -111.865 140.006 -109.317 137.266C-106.77 134.529 -97.3999 131.286 -97.3999 131.286Z" fill="#DFDFDF"/>
<path d="M-82.9772 274.262L-83.2193 274.013C-83.2124 273.706 -83.0135 266.469 -79.5065 266.062C-78.8477 265.98 -78.2441 266.172 -77.7236 266.618C-75.6917 268.362 -75.5205 273.55 -75.5153 273.769L-75.7522 274.02L-76.0047 273.783C-76.0064 273.732 -76.1742 268.588 -78.0435 266.987C-78.462 266.628 -78.9272 266.479 -79.4494 266.544C-82.5362 266.903 -82.7282 273.953 -82.7299 274.023L-82.9772 274.262Z" fill="#2C2C2C"/>
<path d="M-85.387 271.18L-85.7874 298.914L-66.7843 296.457L-67.399 271.282L-85.387 271.18Z" fill="#FCCA19"/>
<path d="M-89.0909 271.18L-87.3282 271.203L-87.8361 296.132L-89.8962 296.86L-89.0909 271.18Z" fill="#EAA800"/>
<path d="M-87.351 271.182L-85.7874 271.18L-86.1697 298.914L-87.8418 295.982L-87.351 271.182Z" fill="#E69104"/>
<path d="M-89.8962 296.71L-87.5764 295.833L-85.7874 298.914L-89.8962 296.71Z" fill="#FDE180"/>
<path d="M-79.8961 273.748L-80.1381 273.499C-80.1312 273.191 -79.9324 265.953 -76.4262 265.547C-75.7537 265.47 -75.1624 265.66 -74.642 266.106C-72.6122 267.848 -72.4411 273.036 -72.4342 273.256L-72.6728 273.506L-72.9234 273.27C-72.9252 273.218 -73.0946 268.074 -74.9636 266.471C-75.3802 266.113 -75.8436 265.969 -76.3691 266.031C-79.4535 266.389 -79.6472 273.438 -79.6489 273.51L-79.8961 273.748Z" fill="#2C2C2C"/>
<path d="M-142.53 223.522C-142.53 223.522 -141.339 234.293 -140.737 237.709C-140.135 241.127 -140.189 272.354 -139.939 280.26C-139.687 288.166 -140.443 317.413 -140.443 317.413L-137.148 320.227L-152.593 322.987C-152.593 322.987 -155.627 321.758 -154.662 319.498C-153.697 317.236 -151.695 316.97 -152.32 313.785C-152.944 310.605 -156.039 302.978 -155.401 298.765C-154.764 294.555 -153.156 287.01 -153.801 282.991C-154.446 278.97 -159.543 248.051 -159.152 247.69C-166.112 284.121 -183.981 325.108 -183.981 325.108C-183.981 325.108 -188.615 320.926 -190.67 321.491C-192.729 322.06 -194.685 322.639 -194.685 322.639C-194.685 322.639 -195.591 321.21 -194.962 319.146C-194.332 317.081 -191.827 314.185 -190.973 310.955C-190.119 307.728 -190.013 307.742 -190.013 307.742C-190.013 307.742 -190.091 299.141 -189.365 296.135C-188.638 293.127 -185.389 281.861 -184.619 276.354C-183.851 270.847 -181.541 253.924 -181.988 245.704C-182.585 234.711 -179.199 219.523 -179.199 219.523C-179.199 219.523 -173.638 220.698 -169.832 219.523C-166.025 218.35 -162.071 222.346 -157.079 221.923C-152.085 221.499 -142.53 223.522 -142.53 223.522Z" fill="#2C2C2C"/>
<path d="M-153.167 143.808L-156.322 146.476L-159.233 151.595C-159.233 151.595 -157.319 154.42 -154.58 155.724C-151.84 157.026 -148.763 156.57 -148.763 156.57L-147.933 150.99L-153.167 143.808Z" fill="#FEB3A2"/>
<path d="M-150.156 139.239C-150.156 139.239 -151.787 134.646 -154.047 136.657C-156.307 138.668 -151.327 152.301 -146.89 152.533C-142.452 152.764 -137.42 145.671 -135.893 142.338C-134.365 139.005 -132.551 135.346 -136.2 132.508C-143.679 126.687 -150.156 139.239 -150.156 139.239Z" fill="#FEB3A2"/>
<path d="M-156.613 146.376L-153.724 144.376C-153.724 144.376 -155.998 136.921 -153.726 136.384C-151.458 135.846 -151.279 138.349 -150.253 139.804C-148.882 141.752 -149.355 134.567 -144.208 133.261C-138.765 131.879 -137.122 136.295 -135.974 137.588C-134.457 139.297 -131.297 140.395 -128.73 138.877C-126.165 137.362 -125.38 132.994 -127.907 128.475C-130.432 123.954 -132.164 126.508 -133.797 125.526C-135.427 124.543 -132.083 121.461 -137.532 120.318C-142.7 119.233 -144.486 124.973 -147.074 125.242C-149.661 125.512 -150.097 124.277 -151.65 124.623C-154.913 125.357 -156.919 125.202 -158.333 131.654C-159.799 138.343 -156.613 146.376 -156.613 146.376Z" fill="#2C2C2C"/>
<path d="M-101.341 176.164C-101.341 176.164 -106.351 179.138 -107.12 179.506C-107.886 179.874 -110.289 181.25 -110.289 181.25L-115.576 194.14C-115.576 194.14 -112.797 193.571 -111.527 193.472C-110.259 193.371 -108.989 193.538 -108.054 192.87C-107.12 192.202 -103.745 190.097 -103.244 189.864C-102.744 189.629 -99.8378 188.794 -99.6046 188.526C-99.3714 188.259 -97.3169 186.658 -97.5342 185.387C-97.5836 185.085 -95.2624 184.74 -95.6298 183.226C-95.9973 181.711 -96.9318 182.146 -96.9318 182.146L-96.3647 181.411C-96.3647 181.411 -93.5258 181.142 -93.4922 180.107C-93.4587 179.071 -94.5275 178.637 -94.5275 178.637L-101.341 176.164Z" fill="#F1A599"/>
<path d="M-100.729 171.621L-94.175 176.4C-93.9903 176.535 -93.9502 176.794 -94.0844 176.979L-104.168 190.888C-104.302 191.073 -104.56 191.114 -104.744 190.979L-111.298 186.2C-111.481 186.065 -111.523 185.807 -111.389 185.622L-101.305 171.712C-101.171 171.527 -100.913 171.487 -100.729 171.621Z" fill="#2C2C2C"/>
<path d="M-100.722 172.133L-94.6275 176.746C-94.4524 176.878 -94.5408 177.311 -94.5408 177.311L-104.148 190.892C-104.274 191.072 -104.521 191.113 -104.696 190.981L-110.792 186.367C-110.967 186.237 -111.007 185.984 -110.878 185.802L-101.271 172.223C-101.145 172.041 -100.899 172.001 -100.722 172.133Z" fill="#E8F2F9"/>
<path d="M-100.909 172.639L-100.991 172.677L-110.848 185.843L-104.571 190.459L-104.429 190.437L-94.614 177.326L-94.6211 177.103L-100.847 172.658L-100.909 172.639ZM-104.513 191.059L-104.922 190.929L-111.179 186.454C-111.329 186.347 -111.428 186.19 -111.458 186.007C-111.489 185.827 -111.442 185.646 -111.332 185.501L-101.476 172.34C-101.368 172.193 -101.204 172.094 -101.021 172.063C-100.825 172.036 -100.647 172.082 -100.494 172.186L-94.2404 176.66C-93.9291 176.88 -94.0056 177.36 -94.0359 177.502L-94.0892 177.612L-103.945 190.775C-104.079 190.96 -104.294 191.059 -104.513 191.059Z" fill="#2C2C2C"/>
<path d="M-97.8239 174.11L-97.0865 174.652C-97.3268 174.985 -97.7062 175.283 -97.9912 175.06C-98.263 174.846 -98.026 174.19 -97.8239 174.11Z" fill="#0041EF"/>
<path d="M-97.6007 174.696L-97.1548 174.623L-97.0871 175.062L-97.5358 175.137L-97.6007 174.696Z" fill="black"/>
<path d="M-122.767 189.749L-117.051 186.834L-111.256 182.041L-109.77 181.3L-105.313 181.745L-102.737 185.203C-102.737 185.203 -103.187 186.571 -106.947 184.661C-108.098 184.076 -109.572 188.07 -109.572 188.07L-113.385 190.54L-114.178 194.147L-119.627 198.249L-122.767 189.749Z" fill="#FEB3A2"/>
<path d="M-158.974 150.998C-158.974 150.998 -156.375 155.089 -153.779 155.446C-151.184 155.804 -147.466 156.147 -147.928 155.844C-148.394 155.537 -148.22 153.654 -148.22 153.654C-148.22 153.654 -142.173 156.417 -139.635 159.476C-137.101 162.532 -136.32 165.267 -134.954 169.235C-133.588 173.2 -130.402 191.938 -130.402 191.938L-119.465 186.585L-114.035 196.353C-114.035 196.353 -129.733 208.733 -133.141 209.105C-136.551 209.476 -140.01 206.077 -140.01 206.077L-141.616 213.269L-140.994 220.368L-140.178 224.204C-140.178 224.204 -149.185 226.777 -154.294 224.586C-159.403 222.392 -160.441 221.045 -166.191 220.629C-171.943 220.212 -173.037 220.598 -177.962 220.64C-182.883 220.684 -182.209 217.464 -182.209 217.464L-180.092 215.338L-181.402 212.712L-181.572 209.224C-181.572 209.224 -196.978 208.807 -198.18 198.576C-199.38 188.343 -187.591 168.911 -187.591 168.911C-187.591 168.911 -184.178 162.826 -180.204 158.675C-176.23 154.525 -158.974 150.998 -158.974 150.998Z" fill="#FCCA19"/>
<path d="M-140.332 202.871L-140.419 202.863C-140.638 202.811 -140.781 202.577 -140.733 202.339C-139.634 196.775 -139.509 174.771 -139.507 174.549C-139.506 174.304 -139.357 174.15 -139.096 174.11C-138.87 174.112 -138.686 174.311 -138.688 174.554C-138.693 175.462 -138.814 196.87 -139.932 202.522C-139.973 202.728 -140.143 202.871 -140.332 202.871Z" fill="#09030F"/>
<path d="M-89.3832 235.228H-52.9177V256.799H-89.3832V235.228Z" fill="#DFDFDF"/>
<path d="M-89.3832 235.228H-78.5977V256.799H-89.3832V235.228Z" fill="#ABABAB"/>
<path d="M-100.255 329.611C-97.6939 329.611 -95.6075 331.915 -95.6075 334.747C-95.6075 337.578 -97.6939 339.882 -100.255 339.882C-102.818 339.882 -104.905 337.578 -104.905 334.747C-104.905 331.915 -102.818 329.611 -100.255 329.611ZM-60.2648 329.611C-57.7016 329.611 -55.617 331.915 -55.617 334.747C-55.617 337.578 -57.7016 339.882 -60.2648 339.882C-62.828 339.882 -64.9127 337.578 -64.9127 334.747C-64.9127 331.915 -62.828 329.611 -60.2648 329.611ZM-124.784 328.538C-124.863 328.789 -124.814 329.062 -124.657 329.275C-124.499 329.486 -124.248 329.611 -123.984 329.611H-104.353C-105.704 330.859 -106.581 332.686 -106.581 334.747C-106.581 338.495 -103.744 341.543 -100.255 341.543C-96.7685 341.543 -93.9327 338.495 -93.9327 334.747C-93.9327 332.686 -94.8088 330.859 -96.1599 329.611H-64.3603C-65.7131 330.859 -66.5892 332.686 -66.5892 334.747C-66.5892 338.495 -63.7516 341.543 -60.2648 341.543C-56.7763 341.543 -53.9404 338.495 -53.9404 334.747C-53.9404 332.686 -54.8165 330.859 -56.1693 329.611H-49.1342C-48.6698 329.611 -48.2951 329.24 -48.2951 328.78C-48.2951 328.322 -48.6698 327.95 -49.1342 327.95H-122.849L-119.564 317.37C-118.627 314.351 -116.259 312.192 -113.386 311.735L-68.9852 304.675C-68.5296 304.601 -68.2182 304.176 -68.2904 303.723C-68.3642 303.268 -68.8023 302.958 -69.2509 303.035L-113.652 310.095C-117.161 310.653 -120.039 313.253 -121.165 316.882L-124.784 328.538Z" fill="#282728"/>
<path d="M-146.265 223.721C-146.265 222.493 -145.39 221.491 -144.312 221.491C-143.235 221.491 -142.358 222.493 -142.358 223.721C-142.358 224.952 -143.235 225.952 -144.312 225.952C-145.39 225.952 -146.265 224.952 -146.265 223.721ZM-130.32 241.71H-122.578L-120.166 258.536L-127.511 258.959L-130.32 241.71ZM-120.777 300.296L-121.824 293.868L-115.25 292.838L-113.645 304.044L-115.684 304.379C-116.753 304.556 -117.86 304.291 -118.778 303.63C-119.827 302.877 -120.555 301.662 -120.777 300.296ZM-40.0412 291.907L-42.0331 292.235L-41.1369 281.235L-35.6427 280.376L-36.8662 288.427C-37.141 290.241 -38.4187 291.639 -40.0412 291.907ZM-30.5004 246.535L-31.5488 253.44L-38.9088 253.862L-37.9199 241.71H-34.1322C-33.1223 241.71 -32.1789 242.159 -31.4788 242.975C-30.6596 243.93 -30.3026 245.228 -30.5004 246.535ZM-118.495 258.44L-120.891 241.71H-109.539L-107.781 257.824L-118.495 258.44ZM-118.257 260.099L-107.599 259.487L-106.085 273.369L-116.212 274.356L-118.257 260.099ZM-113.839 290.925L-115.976 276.012L-105.905 275.03L-104.333 289.438L-113.839 290.925ZM-102.931 302.276L-112 303.77L-113.603 292.581L-104.151 291.1L-102.931 302.276ZM-90.8909 300.292L-101.284 302.006L-102.501 290.843L-91.5805 289.133L-90.8909 300.292ZM-79.3985 298.396L-89.2369 300.019L-89.9247 288.873L-79.5822 287.254L-79.3985 298.396ZM-66.1522 296.213L-77.7339 298.123L-77.9177 286.995L-66.1522 285.151V296.213ZM-54.903 294.357L-64.4842 295.938V284.89L-54.3674 283.306L-54.903 294.357ZM-42.8312 281.5L-43.7274 292.516L-53.2227 294.08L-52.6871 283.043L-42.8312 281.5ZM-42.6912 279.786L-52.6031 281.338L-52.043 269.78L-41.795 268.781L-42.6912 279.786ZM-39.0453 255.544L-31.8061 255.127L-33.5021 266.294L-39.973 266.925L-39.0453 255.544ZM-40.7256 255.641L-41.6585 267.088L-51.9625 268.093L-51.3884 256.253L-40.7256 255.641ZM-50.683 241.71H-39.5914L-40.5891 253.959L-51.3062 254.576L-50.683 241.71ZM-64.4842 241.71H-52.3511L-52.9794 254.671L-64.4842 255.334V241.71ZM-78.672 241.71H-66.1522V255.429L-78.4305 256.135L-78.672 241.71ZM-92.8372 241.71H-80.3401L-80.0968 256.232L-91.8991 256.911L-92.8372 241.71ZM-106.113 257.728L-107.862 241.71H-94.5087L-93.5636 257.005L-106.113 257.728ZM-104.424 273.207L-105.933 259.391L-93.4603 258.673L-92.6342 272.057L-104.424 273.207ZM-91.6838 287.458L-102.683 289.18L-104.244 274.868L-92.5309 273.727L-91.6838 287.458ZM-79.6102 285.567L-90.028 287.198L-90.8699 273.565L-79.8273 272.488L-79.6102 285.567ZM-66.1522 283.459L-77.9457 285.306L-78.1627 272.325L-66.1522 271.155V283.459ZM-53.7198 269.944L-54.2852 281.601L-64.4842 283.197V270.992L-53.7198 269.944ZM-64.4842 257.007L-53.0617 256.349L-53.6376 268.256L-64.4842 269.314V257.007ZM-79.8553 270.812L-90.9731 271.896L-91.7958 258.577L-80.0705 257.903L-79.8553 270.812ZM-78.4043 257.807L-66.1522 257.104V269.475L-78.1907 270.65L-78.4043 257.807ZM-35.3802 278.641L-40.9986 279.521L-40.1095 268.618L-33.7612 267.997L-35.3802 278.641ZM-124.596 276.852L-117.639 276.173L-115.488 291.185L-122.093 292.218L-124.596 276.852ZM-127.241 260.617L-119.928 260.196L-117.875 274.518L-124.866 275.2L-127.241 260.617ZM-147.933 223.721C-147.933 225.873 -146.309 227.623 -144.312 227.623C-142.581 227.623 -141.135 226.306 -140.778 224.557H-139.161C-136.637 224.557 -134.477 226.567 -134.025 229.34L-122.423 300.564C-122.127 302.392 -121.176 303.963 -119.753 304.989C-118.735 305.72 -117.55 306.105 -116.345 306.105C-116.036 306.105 -115.722 306.078 -115.414 306.027L-39.7699 293.556C-37.4315 293.172 -35.6024 291.211 -35.2174 288.678L-33.9047 280.041C-33.6159 279.872 -33.4426 279.544 -33.4969 279.193C-33.5231 279.027 -33.6071 278.89 -33.7139 278.774L-28.8515 246.786C-28.5785 244.998 -29.0773 243.211 -30.215 241.885C-31.2354 240.694 -32.6287 240.039 -34.1322 240.039H-130.595L-132.38 229.07C-132.965 225.487 -135.816 222.886 -139.161 222.886H-140.778C-141.135 221.135 -142.581 219.82 -144.312 219.82C-146.309 219.82 -147.933 221.57 -147.933 223.721Z" fill="#2C2C2C"/>
<path d="M-159.093 217.766L-159.22 217.746L-181.742 210.946C-181.975 210.875 -182.104 210.63 -182.034 210.399C-181.964 210.168 -181.721 210.037 -181.49 210.107L-159.25 216.823L-151.087 206.556L-173.234 194.804L-183.86 197.346C-184.07 197.396 -184.287 197.284 -184.368 197.081C-184.448 196.88 -184.368 196.648 -184.179 196.54L-175.779 191.702L-170.314 171.352C-170.251 171.119 -170.009 170.983 -169.778 171.042C-169.545 171.105 -169.405 171.345 -169.47 171.58L-174.981 192.105L-175.186 192.371L-181.122 195.79L-173.276 193.914L-172.97 193.953L-150.212 206.031L-149.988 206.329L-150.074 206.689L-158.751 217.599L-159.093 217.766Z" fill="#09030F"/>
<path d="M127.869 288.675L150.644 332.298L154.063 326.19C154.063 326.19 150.19 314.264 149.108 310.017C148.027 305.77 139.43 284.324 138.338 282.706C137.244 281.085 127.869 288.675 127.869 288.675Z" fill="#FEB3A2"/>
<path d="M161.253 335.398L159.373 328.904L153.837 323.053L148.105 329.908C148.105 329.908 150.007 331.942 148.119 335.921C146.232 339.903 141.736 344.111 141.736 344.111L154.115 338.86L155.26 332.04L157.813 330.095L160.18 335.58L161.253 335.398Z" fill="#FCCA19"/>
<path d="M87.295 289.483L92.8882 337.948L98.2142 333.487C98.2142 333.487 98.8646 321.064 99.3708 316.746C99.877 312.429 99.5291 289.518 99.0949 287.634C98.6572 285.746 87.295 289.483 87.295 289.483Z" fill="#FEB3A2"/>
<path d="M102.163 345.097L102.703 338.294L99.4624 330.757L91.4248 335.117C91.4248 335.117 92.5262 337.728 89.2539 340.786C85.9834 343.845 80.1043 346.165 80.1043 346.165L93.9978 345.746L97.5815 339.742L100.758 338.844L101.06 344.877L102.163 345.097Z" fill="#FCCA19"/>
<path d="M25.7064 198.249C25.7064 198.249 29.6675 200.629 30.2741 200.922C30.8807 201.216 32.7809 202.317 32.7809 202.317L36.9623 212.63C36.9623 212.63 34.7632 212.175 33.7598 212.095C32.7581 212.016 31.7531 212.148 31.0154 211.614C30.2742 211.08 27.6065 209.395 27.2115 209.208C26.8147 209.02 24.5177 208.353 24.3324 208.139C24.1471 207.925 22.5232 206.644 22.6962 205.627C22.7347 205.386 20.8991 205.11 21.1911 203.898C21.4812 202.686 22.2189 203.035 22.2189 203.035L21.7715 202.446C21.7715 202.446 19.5252 202.233 19.5007 201.404C19.4727 200.576 20.317 200.227 20.317 200.227L25.7064 198.249Z" fill="#F1A599"/>
<path d="M25.3385 194.654L20.0872 198.458L20.0138 198.92L28.0952 209.989L28.5581 210.062L33.8094 206.257L33.881 205.798L25.8014 194.727L25.3385 194.654Z" fill="#2C2C2C"/>
<path d="M25.3873 195.167L20.5958 198.814L20.5276 199.26L28.0781 209.991L28.5095 210.062L33.2993 206.415L33.3676 205.969L25.8188 195.238L25.3873 195.167Z" fill="#F3F3F3"/>
<path d="M25.4481 195.136L20.5012 198.742L20.4959 198.922L28.2956 209.557L28.4088 209.576L33.3769 205.944L25.5631 195.152L25.4481 195.136ZM27.9118 209.832L20.0803 199.154L20.0378 199.066C20.0148 198.95 19.9529 198.559 20.2005 198.382L25.1687 194.754L25.5878 194.654L25.9486 194.876L33.7802 205.553L33.881 205.963L33.6581 206.326L28.6864 209.956L28.3593 210.062C28.1877 210.062 28.0161 209.981 27.9118 209.832Z" fill="#2C2C2C"/>
<path d="M22.8057 196.708L22.0682 196.979C22.3105 197.146 22.6876 197.295 22.9735 197.183C23.2449 197.077 23.0066 196.749 22.8057 196.708Z" fill="#2C2C2C"/>
<path d="M23.0956 196.781L22.6524 196.708L22.582 197.149L23.0287 197.222L23.0956 196.781Z" fill="black"/>
<path d="M43.1252 208.757L38.5818 206.372L33.9743 202.449L32.7946 201.844L29.2521 202.208L27.2037 205.038C27.2037 205.038 27.5615 206.156 30.5499 204.593C31.4655 204.115 32.6365 207.382 32.6365 207.382L35.6682 209.403L36.2972 212.356L40.6302 215.711L43.1252 208.757Z" fill="#FEB3A2"/>
<path d="M89.7083 160.243L96.0263 171.229C96.0263 171.229 96.1295 174.369 91.1574 174.996C86.1871 175.624 83.9066 173.95 83.9066 173.95L83.7001 167.253L89.7083 160.243Z" fill="#FEB3A2"/>
<path d="M87.5987 156.729C87.5987 156.729 88.2083 153.944 91.1646 154.355C94.1193 154.768 87.6985 168.377 83.623 169.821C79.5492 171.265 75.2688 163.635 74.0463 160.438C72.8255 157.243 70.4786 151.987 75.3703 150.646C80.262 149.306 87.5987 156.729 87.5987 156.729Z" fill="#FEB3A2"/>
<path d="M108.482 217.766L82.1308 222.041L80.1043 318.852C80.1043 318.852 81.0042 324.655 98.348 325.877C115.69 327.1 128.079 324.045 135.06 315.189C142.043 306.333 147.899 290.144 147.899 290.144L108.482 217.766Z" fill="#2C2C2C"/>
<path d="M95.5852 171.028C95.5852 171.028 92.8115 175.573 90.0379 175.447C87.2661 175.321 83.6093 173.678 83.6093 173.678C83.6093 173.678 78.0656 178.349 75.0384 182.262C72.0147 186.175 68.8354 195.469 66.5689 198.749C64.299 202.031 65.315 209.169 58.5069 205.636C51.7006 202.101 51.6778 202.592 49.6596 207.389C48.9864 208.992 39.646 204.37 39.646 204.37L34.3944 211.672C34.3944 211.672 46.2198 218.035 47.1309 219.464C51.7985 226.766 50.4624 227.579 57.1446 226.696C63.8233 225.813 67.3542 227.959 70.126 223.161C72.8979 218.366 79.8284 209.025 79.8284 209.025L82.9797 222.151C82.9797 222.151 106.55 221.52 109.07 217.986C111.59 214.451 112.347 215.462 111.212 211.045C110.078 206.626 112.599 202.585 112.599 202.585L118.292 206.277C118.292 206.277 121.193 207.403 122.2 215.103C123.209 222.804 124.893 218.699 129.682 221.35C132.969 223.168 136 230.092 136 230.092L143.151 228.843C143.151 228.843 139.867 220.693 140.323 220.434C144.104 218.287 145.716 219.21 142.819 212.773C139.919 206.335 136.044 205.617 132.387 201.45C128.732 197.285 116.758 183.147 116.758 183.147C116.758 183.147 111.97 177.843 109.45 176.078C106.928 174.31 95.5852 171.028 95.5852 171.028Z" fill="#FCCA19"/>
<path d="M87.2831 157.928C85.2542 157.639 85.6207 155.44 82.4974 153.471C80.5605 152.249 72.7973 155.689 71.9912 152.538C71.1817 149.386 75.1823 143.072 80.3676 141.995C88.1412 140.383 89.6751 147.24 94.9959 150.13C100.107 152.907 99.8164 151.021 104.434 154.172C109.054 157.324 114.019 163.627 113.442 167.713C112.866 171.799 111.942 178.219 111.942 178.219C111.942 178.219 108.129 174.367 104.434 173.549C100.741 172.732 95.8906 171.448 95.8906 171.448L90.0746 161.694C90.0746 161.694 92.3381 156.385 90.6062 154.634C88.8743 152.883 89.3086 158.22 87.2831 157.928Z" fill="#2C2C2C"/>
<path d="M71.8954 153.699C71.8954 153.699 73.0411 158.407 73.6465 159.798C74.2555 161.191 76.8127 165.768 77.5536 166.697C78.2946 167.622 81.8654 170.543 83.2136 169.879C84.5599 169.216 84.157 174.189 84.157 174.189C84.157 174.189 78.9686 177.173 77.756 178.763C76.5434 180.355 75.2639 181.814 75.2639 181.814C75.2639 181.814 70.0774 177.504 68.9316 171.404C67.7859 165.302 68.5286 155.291 68.5286 155.291C68.5286 155.291 69.4808 151.516 70.6142 151.046C71.7511 150.575 71.8954 153.699 71.8954 153.699Z" fill="#2C2C2C"/>
<path d="M114.076 160.243L113.698 160.03C113.67 159.983 110.83 155.341 106.818 152.866C105.382 151.982 104.048 151.791 102.502 151.571C99.7342 151.177 96.596 150.729 91.9319 146.173C85.7647 140.155 81.4636 142.588 81.2856 142.695C81.0777 142.815 80.8045 142.751 80.6812 142.544C80.5561 142.335 80.6231 142.068 80.8292 141.941C81.0319 141.82 85.8564 139.015 92.5468 145.546C97.0066 149.901 99.9915 150.325 102.626 150.701C104.201 150.926 105.686 151.137 107.283 152.119C111.478 154.708 114.335 159.378 114.453 159.575C114.578 159.784 114.511 160.053 114.303 160.179L114.076 160.243Z" fill="#2C2C2C"/>
<path d="M125.382 218.793C124.166 218.714 123.312 218.305 122.818 217.576C122.182 216.633 122.374 215.463 122.478 215.031C122.156 214.275 120.725 210.795 120.725 208.505C120.725 206.551 121.451 205.427 121.854 204.957C121.771 204.845 121.639 204.714 121.436 204.637C120.974 204.46 120.3 204.616 119.485 205.081C116.689 206.677 112.916 203.267 112.759 203.12L103.861 194.377C103.689 194.207 103.686 193.931 103.854 193.758C104.019 193.587 104.295 193.582 104.466 193.749L113.352 202.482C113.376 202.504 116.805 205.607 119.056 204.319C120.133 203.705 121.044 203.543 121.767 203.828C122.392 204.078 122.707 204.621 122.796 204.903C122.849 205.072 122.794 205.259 122.657 205.371C122.615 205.406 121.592 206.306 121.592 208.505C121.592 210.845 123.314 214.78 123.332 214.82L123.349 215.129C123.349 215.129 122.997 216.29 123.538 217.087C123.874 217.58 124.502 217.861 125.409 217.919C125.649 217.935 125.831 218.143 125.814 218.384C125.8 218.615 125.609 218.793 125.382 218.793Z" fill="#09030F"/>
<path d="M79.6619 209.548C79.4947 209.548 79.3364 209.452 79.2625 209.29C79.2361 209.233 76.6583 203.589 75.7609 201.451C74.9867 199.597 75.958 197.562 77.0806 195.206C77.392 194.555 77.7176 193.873 78.0185 193.164C79.3188 190.113 79.2238 185.905 79.222 185.864C79.2149 185.62 79.412 185.413 79.6548 185.409C79.8924 185.405 80.0947 185.6 80.1018 185.839C80.1071 186.02 80.2021 190.285 78.8261 193.513C78.5217 194.234 78.1909 194.927 77.8724 195.591C76.843 197.753 75.9527 199.622 76.5721 201.106C77.4624 203.231 80.0366 208.864 80.063 208.921C80.1633 209.143 80.0666 209.405 79.8466 209.507L79.6619 209.548Z" fill="#09030F"/>
<path d="M84.6407 170.001C84.4593 170.001 84.2883 169.876 84.2318 169.68C84.1633 169.442 84.2882 169.185 84.5141 169.113C88.0652 167.947 88.4931 164.779 88.4965 164.748C88.5273 164.499 88.7464 164.323 88.9774 164.355C89.2102 164.388 89.3761 164.615 89.3453 164.864C89.3282 165.018 88.8387 168.644 84.7691 169.979L84.6407 170.001Z" fill="#09030F"/>
<path d="M49.7395 218.793C49.5033 218.796 49.3053 218.606 49.2983 218.372C49.2914 218.103 49.1332 211.8 50.4255 209.29C51.2905 207.609 52.013 206.61 52.4594 206.479L52.6523 206.467C52.687 206.472 56.0514 207.019 59.6259 208.054C61.2291 208.521 61.8944 208.141 62.5388 207.775C63.2491 207.371 63.9839 206.957 65.4672 208.013C68.2809 210.017 66.9539 211.956 66.94 211.975C66.8011 212.171 66.5302 212.215 66.3339 212.079C66.1394 211.941 66.0942 211.674 66.2297 211.478C66.2696 211.417 67.0407 210.197 64.9617 208.718C63.9317 207.983 63.6104 208.165 62.9677 208.529C62.2816 208.919 61.3402 209.453 59.3845 208.886C56.2997 207.994 53.3713 207.468 52.6714 207.349C52.5411 207.481 52.0634 208.006 51.1985 209.685C50.0069 212.001 50.165 218.283 50.1667 218.347C50.1737 218.587 49.9774 218.789 49.7395 218.793Z" fill="#09030F"/>
<path d="M47.3048 210.062L47.1422 210.031L38.7811 206.785C38.5548 206.697 38.4453 206.446 38.5337 206.223C38.6255 206.002 38.8889 205.898 39.1098 205.981L47.4691 209.229C47.6953 209.317 47.8067 209.568 47.7166 209.789C47.6477 209.958 47.4815 210.062 47.3048 210.062Z" fill="#09030F"/>
<path d="M46.2703 212.63L46.09 212.591L38.2594 208.941C38.0322 208.834 37.9276 208.547 38.0268 208.302C38.1242 208.053 38.3893 207.939 38.6201 208.05L46.4489 211.699C46.6761 211.806 46.7825 212.092 46.6833 212.338C46.6094 212.521 46.4453 212.63 46.2703 212.63Z" fill="#09030F"/>
<path d="M44.7591 214.684L44.5641 214.635L37.701 210.886C37.4959 210.774 37.4168 210.509 37.5244 210.296C37.632 210.082 37.8875 210.001 38.0926 210.11L44.9557 213.857C45.1608 213.971 45.2398 214.236 45.1323 214.449L44.7591 214.684Z" fill="#09030F"/>
<path d="M140.809 227.524C140.647 227.524 140.493 227.422 140.427 227.251L138.174 221.467C138.085 221.24 138.184 220.977 138.396 220.881C138.606 220.788 138.849 220.893 138.937 221.12L141.19 226.905C141.279 227.131 141.18 227.394 140.968 227.49L140.809 227.524Z" fill="#09030F"/>
<path d="M138.253 228.038C138.089 228.038 137.935 227.919 137.876 227.727L136.11 221.992C136.036 221.748 136.144 221.478 136.352 221.39C136.562 221.3 136.788 221.428 136.865 221.672L138.631 227.407C138.706 227.652 138.597 227.921 138.389 228.009L138.253 228.038Z" fill="#09030F"/>
<path d="M136.677 228.038C136.518 228.038 136.364 227.951 136.287 227.801L133.567 222.507C133.457 222.293 133.542 222.031 133.757 221.921C133.974 221.813 134.237 221.899 134.345 222.111L137.067 227.405C137.175 227.62 137.09 227.881 136.875 227.991L136.677 228.038Z" fill="#09030F"/>
<path d="M156.54 291.21L156.117 297.398L156.754 297.887L165.362 296.367L156.54 291.21Z" fill="#DFDFDF"/>
<path d="M179.229 271.095L182.034 275.282L182.722 275.289L187.961 270.153L179.229 271.095Z" fill="#FDE180"/>
<path d="M187.96 270.306L163.424 244.473L161.767 246.194L179.595 272.207L187.96 270.306Z" fill="#E69104"/>
<path d="M150.18 255.772L149.966 255.659C149.766 255.346 145.052 247.972 145.961 244.612C146.127 243.992 146.479 243.533 147.001 243.253C150.622 241.308 158.845 248.831 159.193 249.152L159.198 249.49L158.845 249.497C158.762 249.419 150.55 241.895 147.245 243.67C146.842 243.888 146.58 244.235 146.446 244.732C145.592 247.896 150.347 255.332 150.396 255.407L150.313 255.736L150.18 255.772Z" fill="#2C2C2C"/>
<path d="M142.764 259.179L161.934 243.959C161.934 243.959 162.266 244.45 162.848 245.311C166.797 251.135 182.18 273.892 182.824 275.56L161.02 288.129L142.764 259.179Z" fill="#FFCC00"/>
<path d="M157.244 250.426C157.077 250.197 157.125 249.877 157.353 249.709C157.584 249.54 157.905 249.59 158.072 249.818C158.239 250.047 158.191 250.368 157.963 250.537C157.732 250.704 157.411 250.655 157.244 250.426Z" fill="#E69104"/>
<path d="M148.512 257.103C148.345 256.874 148.394 256.553 148.623 256.386C148.852 256.217 149.172 256.266 149.34 256.495C149.508 256.724 149.46 257.046 149.231 257.213C149.002 257.381 148.68 257.332 148.512 257.103Z" fill="#1E23C8"/>
<path d="M148.703 256.799L148.48 256.659C148.254 256.198 142.97 245.289 146.604 243.246C150.204 241.223 157.355 249.614 157.658 249.97L157.627 250.32L157.278 250.29C157.206 250.205 150.086 241.853 146.848 243.678C144.166 245.184 147.44 253.403 148.925 256.442L148.813 256.775L148.703 256.799Z" fill="#2C2C2C"/>
<path d="M125.077 281.965L121.706 285.723L121.85 286.393L127.869 290.183L125.077 281.965Z" fill="#898989"/>
<path d="M128.026 290.183L146.872 260.563L144.85 259.367L124.274 282.568L128.026 290.183Z" fill="#2C2C2C"/>
<path d="M141.327 257.313L141.206 257.28L141.118 256.941C141.175 256.845 146.718 247.168 144.21 244.445C143.903 244.112 143.499 243.946 142.979 243.94C139.611 243.938 133.412 250.235 133.35 250.299L133.007 250.301L133.005 249.953C133.266 249.684 139.484 243.406 142.986 243.446C143.636 243.456 144.169 243.679 144.565 244.11C147.321 247.099 141.776 256.781 141.539 257.191L141.327 257.313Z" fill="#2C2C2C"/>
<path d="M128.1 243.959L147.386 258.909C147.386 258.909 146.988 259.346 146.288 260.114C141.55 265.308 123.041 285.569 121.571 286.588L104.244 268.464L128.1 243.959Z" fill="#B4B4B4"/>
<path d="M130.951 249.095C130.951 248.811 131.296 248.582 131.722 248.582C132.148 248.582 132.491 248.811 132.491 249.095C132.491 249.379 132.148 249.609 131.722 249.609C131.296 249.609 130.951 249.379 130.951 249.095Z" fill="#2C2C2C"/>
<path d="M139.802 255.955C139.984 255.738 140.309 255.71 140.526 255.892C140.743 256.074 140.772 256.399 140.588 256.616C140.406 256.833 140.081 256.862 139.864 256.678C139.647 256.496 139.62 256.171 139.802 255.955Z" fill="#E69104"/>
<path d="M140.485 256.286L140.338 256.239L140.284 255.9C140.349 255.813 146.803 247.14 144.259 244.472C142.163 242.278 134.938 247.282 132.328 249.395L131.978 249.364L132.011 249.023C132.409 248.7 141.786 241.162 144.621 244.141C147.444 247.1 140.961 255.818 140.685 256.188L140.485 256.286Z" fill="#2C2C2C"/>
<path d="M165.362 296.346V254.745L157.179 256.103L156.117 292.375L165.362 296.346Z" fill="#2C2C2C"/>
<path d="M152.282 257.313L152.045 257.105C152.022 256.975 149.805 243.976 145.541 243.443C145.01 243.378 144.519 243.54 144.042 243.941C141.047 246.449 140.174 256.979 140.166 257.084L139.904 257.313L139.682 257.044C139.718 256.603 140.582 246.198 143.736 243.554C144.311 243.071 144.949 242.867 145.597 242.95C150.219 243.524 152.429 256.471 152.522 257.021L152.323 257.309L152.282 257.313Z" fill="#2C2C2C"/>
<path d="M130.803 254.874L159.199 253.718C159.199 253.718 159.171 254.411 159.122 255.623C158.785 263.83 157.441 295.871 156.894 297.887L127.869 294.732L130.803 254.874Z" fill="#898989"/>
<path d="M149.954 257.056C149.954 256.631 150.299 256.286 150.723 256.286C151.149 256.286 151.494 256.631 151.494 257.056C151.494 257.481 151.149 257.826 150.723 257.826C150.299 257.826 149.954 257.481 149.954 257.056Z" fill="#2C2C2C"/>
<path d="M137.627 257.056C137.627 256.631 137.858 256.286 138.142 256.286C138.426 256.286 138.655 256.631 138.655 257.056C138.655 257.481 138.426 257.826 138.142 257.826C137.858 257.826 137.627 257.481 137.627 257.056Z" fill="#2C2C2C"/>
<path d="M138.385 257.313C138.208 257.284 138.121 257.153 138.145 257.016C138.251 256.418 140.758 242.342 145.427 242.951C150.068 243.536 150.947 256.494 150.981 257.045L150.747 257.313L150.497 257.078C150.489 256.947 149.613 243.985 145.37 243.45L145.136 243.436C141.059 243.436 138.646 256.966 138.622 257.107L138.385 257.313Z" fill="#2C2C2C"/>
<path d="M144.711 243.516L144.28 241.544C144.28 241.544 145.202 240.745 145.574 240.953C146.043 241.215 145.897 243.819 145.897 243.819L144.711 243.516ZM147.042 246.97C147.929 246.67 149.928 240.822 149.953 240.121C150.046 237.867 144.617 233.711 144.237 232.993C143.852 232.284 142.648 229.065 142.648 229.065L136.601 230.083L139.354 234.47C139.354 234.47 140.208 238.292 140.161 239.126C140.118 239.95 141.958 243.489 141.958 243.489C141.958 243.489 140.174 243.099 140.168 243.938C140.158 244.79 142.377 245.369 142.377 245.369C142.377 245.369 143.6 247.951 144.608 248.063C145.613 248.173 145.553 246.548 145.553 246.548C145.553 246.548 146.687 247.091 147.042 246.97Z" fill="#FEB3A2"/>
<path d="M64.1827 141.24H-2.5851V127.886H64.1827V141.24Z" fill="#F3F3F3"/>
<path d="M49.8024 139.699C49.5209 139.699 49.2888 139.502 49.2888 139.259V129.353C49.2888 129.11 49.5209 128.913 49.8024 128.913C50.0859 128.913 50.3159 129.11 50.3159 129.353V139.259C50.3159 139.502 50.0859 139.699 49.8024 139.699Z" fill="#2C2C2C"/>
<path d="M54.4251 132.527L60.5883 132.508L57.7323 136.617L54.4251 132.527Z" fill="white"/>
<path d="M55.1752 132.893L57.4442 135.924L59.4025 132.879L55.1752 132.893ZM57.4789 137.131L57.1248 136.956L53.9565 132.722L53.9113 132.259C53.9842 132.109 54.1353 132.014 54.3002 132.014L60.2062 131.995C60.3659 131.995 60.5117 132.083 60.5881 132.224L60.569 132.676L57.8331 136.93L57.4789 137.131Z" fill="#2C2C2C"/>
<path d="M31.841 170.001H3.04941C-0.0624847 170.001 -2.5851 167.462 -2.5851 164.331V161.292C-2.5851 158.159 -0.0624847 155.62 3.04941 155.62H31.841C34.9546 155.62 37.4756 158.159 37.4756 161.292V164.331C37.4756 167.462 34.9546 170.001 31.841 170.001Z" fill="#FCCA19"/>
<path d="M17.0275 222.147C17.0275 222.147 18.8674 230.536 24.0197 230.944C29.1738 231.354 31.2767 222.147 31.2767 222.147C31.2767 222.147 33.209 220.991 36.3011 223.442C31.5661 234.535 37.0897 241.666 37.0897 241.666L39.0166 269.126H10.7687L11.3903 241.552C11.3903 241.552 16.5196 238.353 12.6691 223.781C14.8732 222.147 17.0275 222.147 17.0275 222.147Z" fill="#FCCA19"/>
<path d="M47.2497 280.003C47.2497 280.003 45.826 277.451 43.8983 278.752C39.6692 281.609 47.2213 287.101 47.2213 287.101C47.2213 287.101 54.6532 281.467 50.6961 278.752C48.7567 277.42 47.2497 280.003 47.2497 280.003Z" fill="white"/>
<path d="M44.8793 278.387C44.5352 278.387 44.1894 278.503 43.8453 278.735C43.0196 279.294 42.6119 279.96 42.5978 280.773C42.5555 283.325 46.409 286.417 47.2171 287.038C48.027 286.392 51.9282 283.145 51.87 280.603C51.8524 279.85 51.4888 279.238 50.7548 278.734C50.289 278.414 49.8108 278.307 49.3362 278.416C48.2387 278.668 47.4641 279.977 47.4641 279.977L47.2507 280.1L47.0336 279.971C47.0336 279.971 46.3066 278.69 45.248 278.431L44.8793 278.387ZM47.2207 287.615L47.0759 287.57C46.8712 287.419 42.0473 283.869 42.0984 280.764C42.1143 279.783 42.6102 278.955 43.5701 278.305C44.1576 277.908 44.7628 277.785 45.368 277.932C46.2679 278.153 46.933 278.931 47.2542 279.385C47.5894 278.928 48.2917 278.129 49.2269 277.913C49.8338 277.768 50.446 277.902 51.0336 278.307C51.8999 278.901 52.3499 279.67 52.3693 280.592C52.4398 283.681 47.5771 287.408 47.3689 287.566L47.2207 287.615Z" fill="#2C2C2C"/>
<path d="M-0.530563 81.6621H-31.8601L-29.4079 49.819H-3.36185L-0.530563 81.6621Z" fill="white"/>
<path d="M-14.0776 108.883H-18.313C-25.7957 108.883 -31.8601 102.782 -31.8601 95.2531V81.6621H-0.530563V95.2531C-0.530563 102.782 -6.59673 108.883 -14.0776 108.883Z" fill="#DFDFDF"/>
<path d="M-31.7523 81.6621H-63.1894L-55.6797 49.819H-29.2919L-31.7523 81.6621Z" fill="#898989"/>
<path d="M-45.4079 108.883H-49.6413C-57.1236 108.883 -63.1894 102.782 -63.1894 95.2531V81.6621H-31.8601V95.2531C-31.8601 102.782 -37.9257 108.883 -45.4079 108.883Z" fill="#282728"/>
<path d="M-63.2569 81.6621H-94.5187L-81.3968 49.819H-55.9988L-63.2569 81.6621Z" fill="white"/>
<path d="M-76.7363 108.883H-80.9699C-88.4526 108.883 -94.5187 102.782 -94.5187 95.2531V81.6621H-63.1894V95.2531C-63.1894 102.782 -69.2536 108.883 -76.7363 108.883Z" fill="#DFDFDF"/>
<path d="M-94.4047 81.6621H-125.848L-108.196 49.819H-81.165L-94.4047 81.6621Z" fill="#898989"/>
<path d="M-108.067 108.883H-112.3C-119.782 108.883 -125.848 102.782 -125.848 95.2531V81.6621H-94.5187V95.2531C-94.5187 102.782 -100.584 108.883 -108.067 108.883Z" fill="#282728"/>
<path d="M-125.89 81.6621H-157.178L-134.735 49.819H-108.386L-125.89 81.6621Z" fill="white"/>
<path d="M-139.396 108.883H-143.629C-151.114 108.883 -157.178 102.782 -157.178 95.2531V81.6621H-125.848V95.2531C-125.848 102.782 -131.915 108.883 -139.396 108.883Z" fill="#DFDFDF"/>
<path d="M-156.31 81.6621H-187.48L-160.827 49.819H-134.579L-156.31 81.6621Z" fill="#898989"/>
<path d="M-169.698 108.883H-173.932C-181.414 108.883 -187.48 102.782 -187.48 95.2531V81.6621H-156.15V95.2531C-156.15 102.782 -162.216 108.883 -169.698 108.883Z" fill="#282728"/>
<path d="M-0.160187 81.6621H30.7988L23.4047 49.819H-2.5851L-0.160187 81.6621Z" fill="#898989"/>
<path d="M13.0181 108.883H17.2517C24.7326 108.883 30.7988 102.782 30.7988 95.2531L30.7988 81.6621H-0.530563V95.2531C-0.530563 102.782 5.53368 108.883 13.0181 108.883Z" fill="#282728"/>
<path d="M30.8636 81.6621H62.1286L49.0078 49.819H23.6087L30.8636 81.6621Z" fill="white"/>
<path d="M44.3475 108.883H48.5809C56.0649 108.883 62.1289 102.782 62.1289 95.2531L62.1286 81.6621H30.7988L30.7988 95.2531C30.7988 102.782 36.8653 108.883 44.3475 108.883Z" fill="#DFDFDF"/>
<path d="M62.3751 81.6621H93.4582L76.0081 49.819H49.2888L62.3751 81.6621Z" fill="#898989"/>
<path d="M75.6768 108.883H79.9102C87.3925 108.883 93.4583 102.782 93.4583 95.2531L93.4582 81.6621H62.1286L62.1289 95.2531C62.1289 102.782 68.1946 108.883 75.6768 108.883Z" fill="#282728"/>
<path d="M93.4988 81.6621H124.787L102.346 49.819H75.9956L93.4988 81.6621Z" fill="white"/>
<path d="M107.005 108.883H111.241C118.721 108.883 124.788 102.782 124.788 95.2531L124.787 81.6621H93.4582L93.4583 95.2531C93.4583 102.782 99.5243 108.883 107.005 108.883Z" fill="#DFDFDF"/>
<path d="M125.432 81.6621H156.631L128.975 49.819H102.703L125.432 81.6621Z" fill="#898989"/>
<path d="M138.849 108.883H143.083C150.567 108.883 156.631 102.782 156.631 95.2531L156.631 81.6621H125.301V95.2531C125.301 102.782 131.367 108.883 138.849 108.883Z" fill="#282728"/>
<path d="M-19.0201 243.735V253.204H-5.42856C-4.25323 253.204 -3.20345 252.465 -2.79694 251.351L-0.0697937 243.873C0.202393 242.787 -0.610626 241.734 -1.7188 241.734H-7.4364L-7.54945 237.325C-7.5742 236.379 -8.07974 235.515 -8.88745 235.038L-9.20029 234.853C-9.86484 234.46 -10.6973 234.953 -10.6849 235.729L-10.6372 238.884L-14.142 243.582L-19.0201 243.735Z" fill="white"/>
<path d="M-18.2948 252.467H-5.47429C-4.57602 252.467 -3.76341 251.896 -3.45583 251.045L-0.755737 243.658C-0.694565 243.397 -0.764511 243.062 -0.968979 242.799C-1.16995 242.537 -1.47754 242.385 -1.80609 242.385H-8.0625L-8.19008 237.422C-8.2093 236.7 -8.58859 236.051 -9.20724 235.684L-9.51657 235.503C-9.67909 235.406 -9.82242 235.471 -9.87659 235.503C-9.93076 235.534 -10.0565 235.63 -10.0531 235.82L-10.0024 239.152L-13.7754 244.2L-18.2948 244.343V252.467ZM-5.47429 253.718H-19.5338V243.131L-14.4064 242.971L-11.2467 238.741L-11.2921 235.839C-11.3008 235.25 -11.0055 234.719 -10.5005 234.423C-9.99715 234.127 -9.39423 234.127 -8.89091 234.423L-8.58159 234.607C-7.5907 235.192 -6.98254 236.233 -6.95284 237.388L-6.85667 241.136H-1.80609C-1.09132 241.136 -0.430695 241.463 0.00970459 242.03C0.448349 242.6 0.600372 243.327 0.425613 244.027L-2.29189 251.478C-2.78122 252.816 -4.05873 253.718 -5.47429 253.718Z" fill="#2C2C2C"/>
<path d="M188.801 197.735H222.045C222.791 197.735 223.399 198.873 223.399 200.276V231.66C223.399 233.063 222.791 234.201 222.045 234.201H188.801C188.053 234.201 187.447 233.063 187.447 231.66V200.276C187.447 198.873 188.053 197.735 188.801 197.735Z" fill="white"/>
<path d="M188.73 198.603C188.356 198.603 187.808 199.414 187.808 200.685V231.765C187.808 233.035 188.356 233.846 188.73 233.846H222.115C222.49 233.846 223.037 233.035 223.037 231.765V200.685C223.037 199.414 222.49 198.603 222.115 198.603H188.73ZM222.115 234.714H188.73C187.705 234.714 186.933 233.445 186.933 231.765V200.685C186.933 199.005 187.705 197.735 188.73 197.735H222.115C223.139 197.735 223.912 199.005 223.912 200.685V231.765C223.912 233.445 223.139 234.714 222.115 234.714Z" fill="#2C2C2C"/>
<path d="M205.422 202.871L209.391 210.988L218.262 212.288L211.844 218.605L213.358 227.524L205.422 223.312L197.487 227.524L199.003 218.605L192.582 212.288L201.454 210.988L205.422 202.871Z" fill="#FCCA19"/>
<path d="M192.475 139.891L191.892 139.677C190.488 139.165 189.597 138.984 189.597 138.984L188.988 138.862L189.231 137.644L189.841 137.764C189.88 137.772 190.814 137.962 192.316 138.509L192.899 138.723L192.475 139.891ZM198.888 143.361L198.372 143.015C197.663 142.535 196.967 142.108 196.301 141.729L195.761 141.424L196.373 140.342L196.914 140.649C197.606 141.042 198.325 141.486 199.066 141.984L199.582 142.331L198.888 143.361ZM204.345 148.212L203.921 147.758C203.348 147.144 202.771 146.572 202.193 146.037L201.735 145.616L202.577 144.704L203.034 145.125C203.633 145.678 204.235 146.272 204.827 146.909L205.253 147.363L204.345 148.212ZM208.612 154.144L208.293 153.609C207.868 152.892 207.426 152.206 206.975 151.555L206.621 151.045L207.643 150.336L207.995 150.849C208.463 151.522 208.917 152.231 209.361 152.974L209.678 153.509L208.612 154.144ZM211.579 160.827L211.38 160.24C211.127 159.498 210.843 158.752 210.521 158.005L211.66 157.503C211.995 158.291 212.294 159.068 212.557 159.838L212.755 160.426L211.579 160.827ZM212.91 167.992L212.857 167.373C212.792 166.58 212.696 165.774 212.563 164.956L212.461 164.344L213.686 164.142L213.788 164.755C213.928 165.605 214.028 166.445 214.096 167.271L214.147 167.891L212.91 167.992ZM213.728 175.466L212.499 175.279L212.592 174.665C212.711 173.879 212.806 173.07 212.868 172.242L212.915 171.621L214.154 171.714L214.107 172.335C214.042 173.197 213.945 174.035 213.821 174.852L213.728 175.466ZM211.7 182.767L210.537 182.333L210.752 181.751C211.022 181.025 211.283 180.25 211.525 179.432L211.7 178.836L212.892 179.19L212.715 179.785C212.464 180.632 212.196 181.432 211.916 182.182L211.7 182.767ZM208.239 189.518L207.196 188.841L207.535 188.32C207.755 187.978 208.209 187.252 208.758 186.217L209.049 185.668L210.146 186.248L209.857 186.799C209.284 187.876 208.809 188.639 208.576 188.997L208.239 189.518Z" fill="#2C2C2C"/>
<path d="M160.448 214.16L159.968 213.747C159.325 213.193 158.694 212.587 158.091 211.94L157.658 211.476L158.553 210.575L158.987 211.039C159.557 211.651 160.155 212.227 160.763 212.749L161.243 213.162L160.448 214.16ZM167.188 217.923L166.603 217.701C165.798 217.395 165.009 217.039 164.253 216.648L163.695 216.358L164.253 215.199L164.808 215.49C165.524 215.861 166.271 216.197 167.032 216.486L167.617 216.709L167.188 217.923ZM178.552 219.184L178.405 217.898L179.022 217.821C180.486 217.64 181.393 217.395 181.393 217.395L181.996 217.231L182.311 218.483L181.71 218.649C181.671 218.66 180.729 218.914 179.169 219.107L178.552 219.184ZM174.706 219.306L174.085 219.272C173.227 219.221 172.375 219.129 171.548 219.001L170.933 218.905L171.118 217.624L171.735 217.719C172.522 217.843 173.336 217.931 174.154 217.978L174.776 218.015L174.706 219.306Z" fill="#2C2C2C"/>
<path d="M-189.565 56.8586L-189.867 55.6566L-189.259 55.5061C-187.943 55.1842 -187.034 55.0617 -186.705 55.025L-186.081 54.955L-185.939 56.1868L-186.563 56.2568C-186.8 56.2848 -187.677 56.395 -188.956 56.7099L-189.565 56.8586ZM-196.378 59.6354L-196.97 58.5418L-196.416 58.2496C-195.622 57.8297 -194.85 57.4658 -194.109 57.1474L-193.535 56.8989L-193.034 58.0344L-193.608 58.2829C-194.32 58.5891 -195.062 58.9408 -195.824 59.3432L-196.378 59.6354ZM-202.343 63.9115L-203.176 62.9824L-202.704 62.5731C-202.047 61.9957 -201.385 61.4637 -200.726 60.9703L-200.226 60.5977L-199.468 61.5862L-199.969 61.9607C-200.603 62.4348 -201.239 62.9475 -201.873 63.5004L-202.343 63.9115ZM-207.168 69.4177L-208.189 68.6951L-207.824 68.1912C-207.314 67.4896 -206.793 66.8265 -206.261 66.1948L-205.859 65.7207L-204.896 66.5133L-205.298 66.9909C-205.81 67.5963 -206.313 68.2367 -206.802 68.9138L-207.168 69.4177ZM-210.736 75.811L-211.88 75.3018L-211.622 74.7349C-211.264 73.9528 -210.89 73.2005 -210.502 72.4761L-210.208 71.9285L-209.099 72.5076L-209.393 73.057C-209.769 73.7569 -210.13 74.4865 -210.479 75.2458L-210.736 75.811ZM-213.083 82.7484L-214.302 82.4474L-214.15 81.8455C-213.948 81.0494 -213.716 80.2429 -213.448 79.424L-213.257 78.8326L-212.061 79.2123L-212.254 79.802C-212.511 80.5946 -212.738 81.3766 -212.931 82.1465L-213.083 82.7484ZM-213.958 89.9867L-215.214 89.9552L-215.197 89.3359C-215.177 88.5118 -215.124 87.6702 -215.035 86.8146L-214.972 86.1987L-213.723 86.3247L-213.787 86.9406C-213.872 87.7647 -213.923 88.573 -213.942 89.3673L-213.958 89.9867ZM-214.364 97.477L-214.493 96.8699C-214.667 96.0616 -214.812 95.2305 -214.927 94.3801L-215.011 93.7643L-213.765 93.6015L-213.684 94.2156C-213.572 95.0362 -213.432 95.8341 -213.266 96.611L-213.135 97.2181L-214.364 97.477ZM-211.811 104.605L-212.072 104.042C-212.419 103.296 -212.748 102.52 -213.057 101.713L-213.278 101.132L-212.102 100.696L-211.882 101.277C-211.585 102.056 -211.266 102.805 -210.933 103.526L-210.671 104.089L-211.811 104.605ZM-207.819 111.051L-208.189 110.552C-208.665 109.908 -209.149 109.214 -209.627 108.468L-209.964 107.944L-208.903 107.279L-208.568 107.804C-208.104 108.524 -207.636 109.198 -207.176 109.821L-206.805 110.321L-207.819 111.051ZM-202.556 116.587L-203.039 116.193C-203.071 116.167 -203.808 115.565 -204.915 114.422L-205.349 113.976L-204.442 113.117L-204.008 113.565C-202.958 114.648 -202.242 115.236 -202.242 115.236L-201.758 115.63L-202.556 116.587Z" fill="#2C2C2C"/>
<path d="M213.64 29.2804C213.639 36.0871 208.232 41.605 201.566 41.6015C194.901 41.5997 189.5 36.0783 189.501 29.2698C189.505 22.463 194.911 16.947 201.576 16.9487C208.241 16.9523 213.644 22.4736 213.64 29.2804Z" fill="#DFDFDF"/>
<path d="M78.05 22.601C78.0483 25.4365 75.7487 27.7343 72.9114 27.7343C70.0759 27.7325 67.7781 25.4329 67.7781 22.5956C67.7798 19.7601 70.0812 17.4623 72.9149 17.4623C75.7522 17.4641 78.0518 19.7637 78.05 22.601Z" fill="#FCCA19"/>
<path d="M-31.8599 313.297C-31.8617 316.133 -34.163 318.433 -36.9986 318.431C-39.8341 318.429 -42.1319 316.129 -42.1319 313.291C-42.1301 310.455 -39.8306 308.157 -36.995 308.159C-34.1577 308.159 -31.8599 310.459 -31.8599 313.297Z" fill="#DFDFDF"/>
<path d="M68.8054 309.889C67.2231 309.889 65.7335 310.483 64.614 311.563C63.4927 312.642 62.8768 314.077 62.8768 315.604C62.8751 317.132 63.4909 318.567 64.6104 319.648C65.7299 320.727 67.2196 321.323 68.8036 321.323C72.0713 321.323 74.7321 318.761 74.7339 315.61C74.7357 314.082 74.1181 312.646 72.9986 311.566C71.8791 310.485 70.3876 309.891 68.8054 309.889ZM68.8036 322.54C66.8832 322.54 65.075 321.817 63.7169 320.508C62.3607 319.197 61.615 317.455 61.615 315.604C61.6168 313.753 62.3643 312.011 63.7223 310.701C65.0803 309.393 66.8867 308.673 68.8054 308.673C70.7258 308.674 72.5322 309.397 73.8902 310.706C75.2482 312.016 75.9958 313.758 75.9958 315.61C75.994 319.432 72.7654 322.54 68.8036 322.54Z" fill="#2C2C2C"/>
<path d="M-202.408 243.416C-203.714 244.702 -205.53 245.516 -207.51 245.516C-209.448 245.516 -211.243 244.762 -212.611 243.416C-213.978 242.05 -214.713 240.238 -214.713 238.321C-214.713 236.385 -213.978 234.569 -212.611 233.224C-211.243 231.859 -209.429 231.103 -207.51 231.103C-203.53 231.103 -200.285 234.345 -200.306 238.321C-200.306 240.298 -201.123 242.114 -202.408 243.416ZM-200.959 231.777C-202.713 230.043 -205.041 229.065 -207.51 229.065C-209.979 229.065 -212.305 230.024 -214.06 231.777C-215.795 233.529 -216.755 235.833 -216.755 238.321C-216.774 240.788 -215.795 243.111 -214.06 244.844C-212.305 246.597 -209.979 247.554 -207.51 247.554C-205.041 247.554 -202.713 246.597 -200.959 244.844C-199.224 243.111 -198.266 240.788 -198.266 238.321C-198.245 235.855 -199.224 233.529 -200.959 231.777Z" fill="#FCCA19"/>
<path d="M-148.391 152.539L-148.629 152.474C-152.107 150.417 -153.504 146.101 -153.563 145.918C-153.636 145.684 -153.499 145.439 -153.257 145.367C-153.012 145.297 -152.759 145.429 -152.686 145.661C-152.673 145.701 -151.329 149.846 -148.152 151.724C-147.936 151.851 -147.868 152.122 -148.001 152.329L-148.391 152.539Z" fill="#09030F"/>
<path d="M-203.424 137.49C-204.633 137.49 -205.617 138.473 -205.617 139.68V151.53C-205.617 152.737 -204.633 153.72 -203.424 153.72H-184.89C-183.681 153.72 -182.697 152.737 -182.697 151.53V139.68C-182.697 138.473 -183.681 137.49 -184.89 137.49H-203.424ZM-184.89 154.593H-203.424C-205.111 154.593 -206.483 153.219 -206.483 151.53V139.68C-206.483 137.991 -205.111 136.617 -203.424 136.617H-184.89C-183.202 136.617 -181.83 137.991 -181.83 139.68V151.53C-181.83 153.219 -183.202 154.593 -184.89 154.593Z" fill="#2C2C2C"/>
<path d="M-206.042 141.24C-206.286 141.24 -206.483 141.031 -206.483 140.775C-206.485 140.514 -206.287 140.304 -206.044 140.302L-182.271 140.212C-182.028 140.212 -181.83 140.42 -181.83 140.677C-181.829 140.938 -182.026 141.148 -182.269 141.15L-206.042 141.24Z" fill="#2C2C2C"/>
<path d="M-206.042 151.512C-206.284 151.512 -206.481 151.304 -206.483 151.046C-206.483 150.787 -206.287 150.578 -206.044 150.576L-182.271 150.484C-182.028 150.484 -181.832 150.694 -181.83 150.95C-181.83 151.208 -182.026 151.42 -182.269 151.42L-206.042 151.512Z" fill="#2C2C2C"/>
<path d="M-200.919 137.644C-201.18 137.629 -201.361 137.423 -201.347 137.182L-201.091 132.906L-200.919 132.583L-200.564 132.508L-184.219 136.365C-183.986 136.419 -183.842 136.654 -183.897 136.89C-183.95 137.123 -184.179 137.27 -184.413 137.216L-200.263 133.474L-200.489 137.235C-200.502 137.467 -200.692 137.644 -200.919 137.644Z" fill="#2C2C2C"/>
<path d="M-184.33 137.131L-184.524 137.085L-196.743 131.06L-196.862 133.642C-196.875 133.895 -197.074 134.126 -197.327 134.075C-197.575 134.064 -197.764 133.851 -197.751 133.6L-197.6 130.328L-197.384 129.959L-196.962 129.94L-184.136 136.266C-183.915 136.375 -183.822 136.646 -183.929 136.874C-184.006 137.036 -184.164 137.131 -184.33 137.131Z" fill="#2C2C2C"/>
<path d="M150.543 50.3326H-173.175C-173.417 50.3326 -173.613 50.1025 -173.613 49.819C-173.613 49.5355 -173.417 49.3054 -173.175 49.3054H150.543C150.783 49.3054 150.981 49.5355 150.981 49.819C150.981 50.1025 150.783 50.3326 150.543 50.3326Z" fill="#2C2C2C"/>
<path d="M-163.342 40.9924C-164.566 40.9924 -165.562 42.0713 -165.562 43.3981C-165.562 44.7249 -164.566 45.8057 -163.342 45.8057C-162.117 45.8057 -161.119 44.7249 -161.119 43.3981C-161.119 42.0713 -162.117 40.9924 -163.342 40.9924ZM-163.342 46.7374C-165.041 46.7374 -166.422 45.2392 -166.422 43.3981C-166.422 41.557 -165.041 40.0607 -163.342 40.0607C-161.642 40.0607 -160.259 41.557 -160.259 43.3981C-160.259 45.2392 -161.642 46.7374 -163.342 46.7374Z" fill="#2C2C2C"/>
<path d="M-156.151 43.3991C-156.151 41.5566 -154.655 40.0607 -152.812 40.0607C-150.968 40.0607 -149.474 41.5566 -149.474 43.3991C-149.474 45.2432 -150.968 46.7374 -152.812 46.7374C-154.655 46.7374 -156.151 45.2432 -156.151 43.3991Z" fill="#2C2C2C"/>
<path d="M-142.54 40.9415C-143.895 40.9415 -144.998 42.0443 -144.998 43.3991C-144.998 44.7538 -143.895 45.8566 -142.54 45.8566C-141.186 45.8566 -140.083 44.7538 -140.083 43.3991C-140.083 42.0443 -141.186 40.9415 -142.54 40.9415ZM-142.54 46.7374C-144.381 46.7374 -145.879 45.24 -145.879 43.3991C-145.879 41.5581 -144.381 40.0607 -142.54 40.0607C-140.701 40.0607 -139.202 41.5581 -139.202 43.3991C-139.202 45.24 -140.701 46.7374 -142.54 46.7374Z" fill="#2C2C2C"/>
<path d="M110.997 46.2238H-104.353C-105.729 46.2238 -106.845 45.1293 -106.845 43.7805V43.0176C-106.845 41.6688 -105.729 40.5743 -104.353 40.5743H110.997C112.373 40.5743 113.489 41.6688 113.489 43.0176V43.7805C113.489 45.1293 112.373 46.2238 110.997 46.2238Z" fill="#DFDFDF"/>
<path d="M-152.229 209.035L-143.987 212.735L-138.6 214.946L-136.634 220.842L-138.672 225.965L-144.963 230.092L-145.007 227.842C-145.007 227.842 -141.323 225.493 -141.461 224.085C-141.912 219.441 -146.316 221.136 -146.316 221.136C-146.316 221.136 -147.409 222.905 -149.593 221.946C-150.859 221.392 -153.234 217.747 -153.234 217.747L-157.691 215.636L-152.229 209.035Z" fill="#FEB3A2"/>
</svg>
