<svg width="30" height="22" viewBox="0 0 30 22" fill="none" xmlns="http://www.w3.org/2000/svg">
<path fill-rule="evenodd" clip-rule="evenodd" d="M0 20.2812C0 19.332 0.807986 18.5625 1.80469 18.5625H12.6328C13.6295 18.5625 14.4375 19.332 14.4375 20.2812C14.4375 21.2305 13.6295 22 12.6328 22H1.80469C0.807986 22 0 21.2305 0 20.2812Z" fill="#2C2C2C"/>
<path fill-rule="evenodd" clip-rule="evenodd" d="M0 11C0 9.86091 0.820811 8.9375 1.83333 8.9375H20.1667C21.1792 8.9375 22 9.86091 22 11C22 12.1391 21.1792 13.0625 20.1667 13.0625H1.83333C0.820811 13.0625 0 12.1391 0 11Z" fill="#2C2C2C"/>
<path fill-rule="evenodd" clip-rule="evenodd" d="M0 1.71875C0 0.76951 0.827223 0 1.84766 0H27.7148C28.7353 0 29.5625 0.76951 29.5625 1.71875C29.5625 2.66799 28.7353 3.4375 27.7148 3.4375H1.84766C0.827223 3.4375 0 2.66799 0 1.71875Z" fill="#2C2C2C"/>
</svg>
