<svg width="87" height="74" viewBox="0 0 87 74" fill="none" xmlns="http://www.w3.org/2000/svg">
<path fill-rule="evenodd" clip-rule="evenodd" d="M61.4084 27.1633C62.2615 25.9717 62.9412 24.6651 63.4271 23.2826C62.8727 23.5097 62.2512 23.5097 61.6968 23.2826C61.4212 23.172 61.1701 23.0081 60.9579 22.8003C60.7457 22.5926 60.5766 22.345 60.4603 22.0717C60.3439 21.7985 60.2827 21.505 60.2799 21.208C60.2772 20.911 60.3331 20.6164 60.4444 20.3411C60.7575 19.5584 61.0459 18.7756 61.2684 18.0094C61.4977 17.3344 61.6875 16.6466 61.8369 15.9495C62.0636 14.7908 62.1081 13.6038 61.9687 12.4313L61.6803 12.1594C60.3044 14.4088 49.4449 26.8255 51.7931 30.1707C51.7101 29.9266 51.6684 29.6705 51.6695 29.4127C51.6695 28.8117 51.9082 28.2354 52.3331 27.8105C52.7581 27.3856 53.3344 27.1469 53.9353 27.1469L61.4084 27.1633ZM40.7358 37.5285H63.1058C76.4124 37.5285 73.1166 54.2544 67.8022 65.254C67.3464 66.1519 66.7938 66.9973 66.1543 67.7752C62.9848 68.6535 59.7035 69.0616 56.4154 68.9864H40.9583C40.8993 68.9864 40.8427 68.963 40.801 68.9213C40.7593 68.8795 40.7358 68.8229 40.7358 68.7639V37.5285Z" fill="#FCCA19"/>
<path d="M53.9683 31.6949C53.3674 31.6949 52.7911 31.4562 52.3661 31.0313C51.9412 30.6063 51.7025 30.03 51.7025 29.4291C51.7025 28.8281 51.9412 28.2518 52.3661 27.8269C52.7911 27.402 53.3674 27.1632 53.9683 27.1632H77.7636C78.2406 27.1661 78.7159 27.2214 79.1808 27.328C81.545 28.0014 83.5653 29.5476 84.833 31.6537C86.1773 33.6506 86.9286 35.9874 87 38.3935C86.9989 39.0058 86.9326 39.6162 86.8022 40.2144C81.8009 62.4031 79.3044 73.485 56.4566 73.485H40.9583C39.6975 73.485 38.4882 72.9841 37.5967 72.0926C36.7051 71.201 36.2042 69.9918 36.2042 68.7309V29.4291C36.2019 29.0749 36.2836 28.7252 36.4426 28.4087C36.6016 28.0922 36.8333 27.8178 37.1188 27.6082C38.6348 26.2652 51.5295 14.6806 51.3976 10.7834C51.307 7.85838 51.4718 5.67495 52.2216 3.9694C53.1279 1.90956 54.6934 0.67365 57.1652 0.105133C57.8058 -0.0350443 58.4691 -0.0350443 59.1097 0.105133C60.7576 0.459426 62.3478 1.753 63.5837 3.62334C64.7372 5.42297 65.5733 7.40728 66.0555 9.4898C66.6622 11.9171 66.7353 14.447 66.2697 16.9052C66.0866 17.7634 65.8556 18.6106 65.5776 19.443C65.3057 20.2669 64.9761 21.1568 64.6218 22.0548C64.5275 22.3487 64.374 22.6201 64.1707 22.8523C63.9674 23.0844 63.7186 23.2724 63.4398 23.4047C63.161 23.537 62.858 23.6107 62.5496 23.6213C62.2411 23.6318 61.9338 23.579 61.6466 23.4662C61.3594 23.3533 61.0983 23.1828 60.8796 22.9651C60.6609 22.7474 60.4891 22.4871 60.3749 22.2004C60.2607 21.9137 60.2065 21.6067 60.2156 21.2982C60.2247 20.9897 60.297 20.6864 60.428 20.407C60.7411 19.6242 61.0295 18.8415 61.2519 18.0752C61.4812 17.4002 61.671 16.7124 61.8204 16.0154C62.1482 14.207 62.0807 12.349 61.6227 10.5692C61.2687 9.00884 60.6501 7.52071 59.7936 6.16933C59.1921 5.263 58.6071 4.66152 58.1457 4.57089C57.7602 4.61299 57.391 4.74922 57.0706 4.96762C56.7502 5.18601 56.4884 5.47987 56.3083 5.82326C55.8799 6.81199 55.7892 8.41043 55.8634 10.6927C56.0364 16.1554 43.8916 27.5587 40.6864 30.4672V68.8051C40.6864 68.8641 40.7099 68.9207 40.7516 68.9624C40.7933 69.0041 40.8499 69.0275 40.9089 69.0275H56.4072C75.6461 69.0275 77.879 59.1403 82.3447 39.2999C82.3968 39.0284 82.4216 38.7523 82.4189 38.4759C82.3546 36.9513 81.8636 35.4754 81.0017 34.2162C80.3681 33.0926 79.3453 32.2397 78.1262 31.8185C77.985 31.7909 77.8415 31.7772 77.6977 31.7773L53.9683 31.6949Z" fill="#2C2C2C"/>
<path d="M20.928 31.695H9.1622C7.93477 31.6971 6.75824 32.1857 5.89032 33.0536C5.0224 33.9215 4.53384 35.0981 4.53166 36.3255V68.4096H20.928C22.1555 68.4053 23.3317 67.9163 24.2004 67.0491C25.0692 66.1819 25.5603 65.0066 25.5668 63.7791V36.3255C25.5603 35.098 25.0692 33.9227 24.2004 33.0555C23.3317 32.1883 22.1555 31.6993 20.928 31.695ZM9.1622 27.1633H20.928C23.3574 27.1676 25.6862 28.1341 27.4048 29.8512C29.1234 31.5682 30.0919 33.8961 30.0984 36.3255V63.7791C30.0919 66.2085 29.1234 68.5364 27.4048 70.2534C25.6862 71.9705 23.3574 72.9369 20.928 72.9413H0V36.3255C0.00218168 33.8962 0.968186 31.567 2.68596 29.8492C4.40373 28.1315 6.7329 27.1655 9.1622 27.1633Z" fill="#2C2C2C"/>
</svg>
