<svg width="16" height="16" viewBox="0 0 16 16" fill="none" xmlns="http://www.w3.org/2000/svg">
<path fill-rule="evenodd" clip-rule="evenodd" d="M4.69006 7.97607C4.24955 7.97607 3.89246 7.61897 3.89246 7.17847L3.89246 3.98807C3.89246 1.78556 5.67795 6.69901e-05 7.88046 6.71661e-05C10.083 6.68653e-05 11.8685 1.78556 11.8685 3.98807L11.8685 7.17847C11.8685 7.61898 11.5114 7.97607 11.0709 7.97607C10.6304 7.97607 10.2733 7.61898 10.2733 7.17847L10.2733 3.98807C10.2733 2.66656 9.20197 1.59527 7.88046 1.59527C6.55895 1.59527 5.48766 2.66656 5.48766 3.98807L5.48766 7.17847C5.48766 7.61897 5.13056 7.97607 4.69006 7.97607Z" fill="#2C2C2C"/>
<path fill-rule="evenodd" clip-rule="evenodd" d="M4.38645 3.98828C4.40299 3.98828 4.41959 3.98829 4.43624 3.98829L11.3765 3.98828C12.0305 3.98825 12.5969 3.98821 13.0541 4.04759C13.5456 4.11142 14.0175 4.25484 14.4146 4.62027C14.8118 4.98569 14.9939 5.44401 15.0983 5.92853C15.1955 6.37928 15.2425 6.94366 15.2968 7.59546L15.7107 12.5632C15.712 12.5784 15.7133 12.5937 15.7145 12.6089C15.745 12.9733 15.7743 13.3243 15.7585 13.6145C15.7407 13.9398 15.6623 14.3186 15.3669 14.6396C15.0715 14.9606 14.7005 15.0703 14.3778 15.115C14.0899 15.1548 13.7378 15.1548 13.372 15.1547C13.3568 15.1547 13.3415 15.1547 13.3262 15.1547H2.43671C2.42141 15.1547 2.40613 15.1547 2.39088 15.1547C2.02512 15.1548 1.67296 15.1548 1.38506 15.115C1.06237 15.0703 0.691363 14.9606 0.395999 14.6396C0.100636 14.3186 0.0221803 13.9398 0.00443743 13.6145C-0.0113924 13.3243 0.0179199 12.9733 0.0483631 12.6089C0.0496329 12.5937 0.0509046 12.5784 0.0521751 12.5632L0.462015 7.6451C0.463398 7.62851 0.464776 7.61196 0.466148 7.59548C0.520428 6.94367 0.567427 6.37929 0.664574 5.92853C0.768996 5.44401 0.951115 4.98569 1.34826 4.62027C1.7454 4.25484 2.21726 4.11142 2.70877 4.04759C3.16605 3.98821 3.73238 3.98825 4.38645 3.98828ZM2.91419 5.62951C2.59456 5.67102 2.48913 5.73825 2.42838 5.79415C2.36763 5.85005 2.29188 5.94952 2.22397 6.2646C2.15125 6.60204 2.11135 7.06185 2.05171 7.77758L1.64187 12.6957C1.60623 13.1233 1.5882 13.3614 1.59727 13.5276C1.59739 13.5298 1.59751 13.5319 1.59763 13.534C1.59969 13.5343 1.60178 13.5345 1.60392 13.5348C1.76885 13.5577 2.00761 13.5595 2.43671 13.5595H13.3262C13.7553 13.5595 13.9941 13.5577 14.159 13.5348C14.1611 13.5345 14.1632 13.5343 14.1653 13.534C14.1654 13.5319 14.1655 13.5298 14.1656 13.5276C14.1747 13.3614 14.1567 13.1233 14.121 12.6957L13.7112 7.77758C13.6516 7.06185 13.6117 6.60204 13.5389 6.2646C13.471 5.94952 13.3953 5.85005 13.3345 5.79415C13.2738 5.73825 13.1684 5.67102 12.8487 5.62951C12.5064 5.58506 12.0449 5.58349 11.3267 5.58349H4.43624C3.71803 5.58349 3.2565 5.58506 2.91419 5.62951Z" fill="#2C2C2C"/>
</svg>
