<svg width="11" height="8" viewBox="0 0 11 8" fill="none" xmlns="http://www.w3.org/2000/svg">
<path fill-rule="evenodd" clip-rule="evenodd" d="M10.6042 0.246652C10.1375 -0.12956 9.44385 -0.0685638 9.05493 0.382891L5.09719 4.97701C4.71581 5.41972 4.5014 5.66482 4.33022 5.81543C4.328 5.81738 4.32582 5.81929 4.32368 5.82116C4.32137 5.81949 4.31902 5.81778 4.31663 5.81603C4.13206 5.68102 3.89559 5.45571 3.47434 5.04821L1.87781 3.50385C1.44824 3.08831 0.751758 3.08831 0.322183 3.50385C-0.107393 3.91939 -0.107393 4.59312 0.322183 5.00866L1.91871 6.55302C1.9337 6.56752 1.94866 6.582 1.9636 6.59646C2.32275 6.944 2.66826 7.27835 2.98972 7.51348C3.34983 7.77688 3.82141 8.02456 4.42576 7.99805C5.03011 7.97153 5.47658 7.68356 5.81055 7.38971C6.10869 7.12739 6.42147 6.76417 6.74661 6.3866C6.76015 6.37089 6.7737 6.35515 6.78728 6.33939L10.745 1.74528C11.1339 1.29382 11.0709 0.622865 10.6042 0.246652Z" fill="white"/>
</svg>
