<svg width="34" height="34" viewBox="0 0 34 34" fill="none" xmlns="http://www.w3.org/2000/svg">
<circle cx="17" cy="17" r="17" fill="#F3F3F3"/>
<path fill-rule="evenodd" clip-rule="evenodd" d="M19.3962 20.5552C19.729 20.2544 20.1643 20.0623 20.6507 20.0623C21.6812 20.0623 22.5197 20.9008 22.5197 21.9313C22.5197 22.9618 21.6812 23.8003 20.6507 23.8003C19.6202 23.8003 18.7817 22.9618 18.7817 21.9313C18.7817 21.7905 18.8009 21.6497 18.8329 21.5153L14.2757 18.8526C13.9301 19.1727 13.4756 19.3711 12.97 19.3711C11.9075 19.3711 11.0498 18.5134 11.0498 17.4509C11.0498 16.3884 11.9075 15.5307 12.97 15.5307C13.4756 15.5307 13.9301 15.7291 14.2757 16.0492L18.7881 13.4185C18.7561 13.2713 18.7305 13.1241 18.7305 12.9705C18.7305 11.908 19.5882 11.0503 20.6507 11.0503C21.7132 11.0503 22.5709 11.908 22.5709 12.9705C22.5709 14.033 21.7132 14.8907 20.6507 14.8907C20.1451 14.8907 19.6906 14.6922 19.345 14.3722L14.8326 17.0029C14.8646 17.1501 14.8902 17.2973 14.8902 17.4509C14.8902 17.6045 14.8646 17.7517 14.8326 17.8989L19.3962 20.5552ZM21.2899 12.9701C21.2899 12.6181 21.0019 12.3301 20.6498 12.3301C20.2978 12.3301 20.0098 12.6181 20.0098 12.9701C20.0098 13.3222 20.2978 13.6102 20.6498 13.6102C21.0019 13.6102 21.2899 13.3222 21.2899 12.9701ZM12.9701 18.0907C12.6181 18.0907 12.3301 17.8026 12.3301 17.4506C12.3301 17.0986 12.6181 16.8105 12.9701 16.8105C13.3222 16.8105 13.6102 17.0986 13.6102 17.4506C13.6102 17.8026 13.3222 18.0907 12.9701 18.0907ZM20.0098 21.9438C20.0098 22.2958 20.2978 22.5838 20.6498 22.5838C21.0019 22.5838 21.2899 22.2958 21.2899 21.9438C21.2899 21.5917 21.0019 21.3037 20.6498 21.3037C20.2978 21.3037 20.0098 21.5917 20.0098 21.9438Z" fill="#898989"/>
</svg>
