<svg width="12" height="12" viewBox="0 0 12 12" fill="none" xmlns="http://www.w3.org/2000/svg">
<path fill-rule="evenodd" clip-rule="evenodd" d="M12 6C12 9.31371 9.31371 12 6 12C2.68629 12 0 9.31371 0 6C0 2.68629 2.68629 0 6 0C9.31371 0 12 2.68629 12 6ZM6 10.8C8.65097 10.8 10.8 8.65097 10.8 6C10.8 3.34903 8.65097 1.2 6 1.2C3.34903 1.2 1.2 3.34903 1.2 6C1.2 8.65097 3.34903 10.8 6 10.8Z" fill="#898989"/>
<path fill-rule="evenodd" clip-rule="evenodd" d="M6.00002 3.30005C6.3314 3.30005 6.60002 3.56868 6.60002 3.90005V5.40005H8.70002C9.0314 5.40005 9.30002 5.66868 9.30002 6.00005C9.30002 6.33142 9.0314 6.60005 8.70002 6.60005H6.15002C5.73581 6.60005 5.40002 6.26426 5.40002 5.85005V3.90005C5.40002 3.56868 5.66865 3.30005 6.00002 3.30005Z" fill="#898989"/>
</svg>
