<svg width="13" height="12" viewBox="0 0 13 12" fill="none" xmlns="http://www.w3.org/2000/svg">
<path fill-rule="evenodd" clip-rule="evenodd" d="M2.16668 6.5C1.76781 6.5 1.44446 6.17665 1.44446 5.77778L1.44446 0.722222C1.44446 0.32335 1.76781 -2.82681e-08 2.16668 -6.31387e-08C2.56555 -9.80092e-08 2.8889 0.32335 2.8889 0.722222L2.8889 5.77778C2.8889 6.17665 2.56555 6.5 2.16668 6.5Z" fill="white"/>
<path fill-rule="evenodd" clip-rule="evenodd" d="M6.49999 3.61133C6.10112 3.61133 5.77777 3.28798 5.77777 2.88911L5.77777 0.722439C5.77777 0.323567 6.10112 0.000216895 6.49999 0.000216814C6.89886 0.000216732 7.22221 0.323567 7.22221 0.722439L7.22222 2.88911C7.22222 3.28798 6.89887 3.61133 6.49999 3.61133Z" fill="white"/>
<path fill-rule="evenodd" clip-rule="evenodd" d="M2.16668 11.5557C1.76781 11.5557 1.44446 11.2323 1.44446 10.8334L1.44446 8.66678C1.44446 8.2679 1.76781 7.94455 2.16668 7.94455C2.56555 7.94455 2.8889 8.2679 2.8889 8.66677L2.8889 10.8334C2.8889 11.2323 2.56555 11.5557 2.16668 11.5557Z" fill="white"/>
<path fill-rule="evenodd" clip-rule="evenodd" d="M10.8333 11.5557C10.4344 11.5557 10.1111 11.2323 10.1111 10.8334L10.1111 9.389C10.1111 8.99013 10.4344 8.66678 10.8333 8.66678C11.2322 8.66677 11.5555 8.99012 11.5555 9.389L11.5555 10.8334C11.5555 11.2323 11.2322 11.5557 10.8333 11.5557Z" fill="white"/>
<path fill-rule="evenodd" clip-rule="evenodd" d="M6.49999 11.5557C6.10112 11.5557 5.77777 11.2323 5.77777 10.8334L5.77777 5.77789C5.77777 5.37901 6.10112 5.05566 6.49999 5.05566C6.89886 5.05566 7.22221 5.37901 7.22221 5.77789L7.22222 10.8334C7.22222 11.2323 6.89887 11.5557 6.49999 11.5557Z" fill="white"/>
<path fill-rule="evenodd" clip-rule="evenodd" d="M4.33331 2.88873C4.33331 2.48985 4.65666 2.1665 5.05554 2.1665L7.94442 2.1665C8.3433 2.1665 8.66665 2.48985 8.66665 2.88873C8.66665 3.2876 8.3433 3.61095 7.94442 3.61095L5.05554 3.61095C4.65666 3.61095 4.33331 3.2876 4.33331 2.88873Z" fill="white"/>
<path fill-rule="evenodd" clip-rule="evenodd" d="M0 8.66656C0 8.26769 0.32335 7.94434 0.722222 7.94434L3.61111 7.94434C4.00998 7.94434 4.33333 8.26769 4.33333 8.66656C4.33333 9.06543 4.00998 9.38878 3.61111 9.38878H0.722222C0.32335 9.38878 0 9.06543 0 8.66656Z" fill="white"/>
<path fill-rule="evenodd" clip-rule="evenodd" d="M8.66669 9.38873C8.66669 8.98985 8.99004 8.6665 9.38891 8.6665H12.2778C12.6767 8.6665 13 8.98985 13 9.38873C13 9.7876 12.6767 10.1109 12.2778 10.1109H9.38891C8.99004 10.1109 8.66669 9.7876 8.66669 9.38873Z" fill="white"/>
<path fill-rule="evenodd" clip-rule="evenodd" d="M10.8333 7.22217C10.4344 7.22217 10.1111 6.89882 10.1111 6.49995L10.1111 0.722168C10.1111 0.323296 10.4344 -5.43842e-05 10.8333 -5.44147e-05C11.2322 -5.44452e-05 11.5555 0.323295 11.5555 0.722168L11.5555 6.49995C11.5555 6.89882 11.2322 7.22217 10.8333 7.22217Z" fill="white"/>
</svg>
