<svg width="19" height="20" viewBox="0 0 19 20" fill="none" xmlns="http://www.w3.org/2000/svg">
<path fill-rule="evenodd" clip-rule="evenodd" d="M2.35649 5.67771e-06C2.37098 8.53874e-06 2.38549 1.13998e-05 2.40001 1.13998e-05H6.10001C6.11454 1.13998e-05 6.12905 8.53874e-06 6.14354 5.67771e-06C6.48279 -6.09841e-05 6.8125 -0.000125739 7.08443 0.0364345C7.39099 0.0776507 7.74081 0.178068 8.03138 0.468641C8.32196 0.759213 8.42237 1.10903 8.46359 1.4156C8.50015 1.68753 8.50008 2.01723 8.50002 2.35648C8.50001 2.37098 8.50001 2.38549 8.50001 2.40001V6.10001C8.50001 6.11454 8.50001 6.12905 8.50002 6.14354C8.50008 6.4828 8.50015 6.8125 8.46359 7.08443C8.42237 7.39099 8.32196 7.74081 8.03138 8.03138C7.74081 8.32196 7.39099 8.42237 7.08443 8.46359C6.8125 8.50015 6.4828 8.50008 6.14354 8.50002C6.12905 8.50001 6.11454 8.50001 6.10001 8.50001H2.40001C2.38549 8.50001 2.37098 8.50001 2.35648 8.50002C2.01723 8.50008 1.68753 8.50015 1.4156 8.46359C1.10903 8.42237 0.759213 8.32196 0.468641 8.03138C0.178068 7.74081 0.0776507 7.39099 0.0364345 7.08443C-0.000125739 6.8125 -6.09841e-05 6.48279 5.67771e-06 6.14354C8.53874e-06 6.12905 1.13998e-05 6.11454 1.13998e-05 6.10001V2.40001C1.13998e-05 2.38549 8.53874e-06 2.37098 5.67771e-06 2.35649C-6.09841e-05 2.01723 -0.000125739 1.68753 0.0364345 1.4156C0.0776507 1.10903 0.178068 0.759213 0.468641 0.468641C0.759213 0.178068 1.10903 0.0776507 1.4156 0.0364345C1.68753 -0.000125739 2.01723 -6.09841e-05 2.35649 5.67771e-06ZM1.62297 1.62297C1.6227 1.62487 1.62243 1.62681 1.62217 1.62879C1.60171 1.78095 1.60001 2.00027 1.60001 2.40001V6.10001C1.60001 6.49975 1.60171 6.71908 1.62217 6.87123C1.62243 6.87321 1.6227 6.87516 1.62297 6.87706C1.62487 6.87732 1.62681 6.87759 1.62879 6.87786C1.78095 6.89831 2.00027 6.90001 2.40001 6.90001H6.10001C6.49975 6.90001 6.71908 6.89831 6.87123 6.87786C6.87321 6.87759 6.87516 6.87732 6.87706 6.87706C6.87732 6.87515 6.87759 6.87321 6.87786 6.87123C6.89831 6.71908 6.90001 6.49975 6.90001 6.10001V2.40001C6.90001 2.00027 6.89831 1.78095 6.87786 1.62879C6.87759 1.62681 6.87732 1.62487 6.87706 1.62297C6.87516 1.6227 6.87321 1.62243 6.87123 1.62217C6.71908 1.60171 6.49975 1.60001 6.10001 1.60001H2.40001C2.00027 1.60001 1.78095 1.60171 1.62879 1.62217C1.62681 1.62243 1.62487 1.6227 1.62297 1.62297Z" fill="#000"/>
<path fill-rule="evenodd" clip-rule="evenodd" d="M2.35649 11.5C2.37098 11.5 2.38549 11.5 2.40001 11.5H6.10001C6.11454 11.5 6.12905 11.5 6.14354 11.5C6.48279 11.4999 6.8125 11.4999 7.08443 11.5364C7.39099 11.5777 7.74081 11.6781 8.03138 11.9686C8.32196 12.2592 8.42237 12.609 8.46359 12.9156C8.50015 13.1875 8.50008 13.5172 8.50002 13.8565C8.50001 13.871 8.50001 13.8855 8.50001 13.9V17.6C8.50001 17.6145 8.50001 17.629 8.50002 17.6435C8.50008 17.9828 8.50015 18.3125 8.46359 18.5844C8.42237 18.891 8.32196 19.2408 8.03138 19.5314C7.74081 19.822 7.39099 19.9224 7.08443 19.9636C6.8125 20.0001 6.4828 20.0001 6.14354 20C6.12905 20 6.11454 20 6.10001 20H2.40001C2.38549 20 2.37098 20 2.35648 20C2.01723 20.0001 1.68753 20.0001 1.4156 19.9636C1.10903 19.9224 0.759213 19.822 0.468641 19.5314C0.178068 19.2408 0.0776507 18.891 0.0364345 18.5844C-0.000125739 18.3125 -6.09841e-05 17.9828 5.67771e-06 17.6435C8.53874e-06 17.629 1.13998e-05 17.6145 1.13998e-05 17.6V13.9C1.13998e-05 13.8855 8.53874e-06 13.871 5.67771e-06 13.8565C-6.09841e-05 13.5172 -0.000125739 13.1875 0.0364345 12.9156C0.0776507 12.609 0.178068 12.2592 0.468641 11.9686C0.759213 11.6781 1.10903 11.5777 1.4156 11.5364C1.68753 11.4999 2.01723 11.4999 2.35649 11.5ZM1.62297 13.123C1.6227 13.1249 1.62243 13.1268 1.62217 13.1288C1.60171 13.2809 1.60001 13.5003 1.60001 13.9V17.6C1.60001 17.9998 1.60171 18.2191 1.62217 18.3712C1.62243 18.3732 1.6227 18.3752 1.62297 18.3771C1.62487 18.3773 1.62681 18.3776 1.62879 18.3779C1.78095 18.3983 2.00027 18.4 2.40001 18.4H6.10001C6.49975 18.4 6.71908 18.3983 6.87123 18.3779C6.87321 18.3776 6.87516 18.3773 6.87706 18.3771C6.87732 18.3752 6.87759 18.3732 6.87786 18.3712C6.89831 18.2191 6.90001 17.9998 6.90001 17.6V13.9C6.90001 13.5003 6.89831 13.2809 6.87786 13.1288C6.87759 13.1268 6.87732 13.1249 6.87706 13.123C6.87516 13.1227 6.87321 13.1224 6.87123 13.1222C6.71908 13.1017 6.49975 13.1 6.10001 13.1H2.40001C2.00027 13.1 1.78095 13.1017 1.62879 13.1222C1.62681 13.1224 1.62487 13.1227 1.62297 13.123Z" fill="#000"/>
<path fill-rule="evenodd" clip-rule="evenodd" d="M12.8565 11.5C12.871 11.5 12.8855 11.5 12.9 11.5H16.6C16.6145 11.5 16.629 11.5 16.6435 11.5C16.9828 11.4999 17.3125 11.4999 17.5844 11.5364C17.891 11.5777 18.2408 11.6781 18.5314 11.9686C18.822 12.2592 18.9224 12.609 18.9636 12.9156C19.0001 13.1875 19.0001 13.5172 19 13.8565C19 13.871 19 13.8855 19 13.9V17.6C19 17.6145 19 17.629 19 17.6435C19.0001 17.9828 19.0001 18.3125 18.9636 18.5844C18.9224 18.891 18.822 19.2408 18.5314 19.5314C18.2408 19.822 17.891 19.9224 17.5844 19.9636C17.3125 20.0001 16.9828 20.0001 16.6435 20C16.629 20 16.6145 20 16.6 20H12.9C12.8855 20 12.871 20 12.8565 20C12.5172 20.0001 12.1875 20.0001 11.9156 19.9636C11.609 19.9224 11.2592 19.822 10.9686 19.5314C10.6781 19.2408 10.5777 18.891 10.5364 18.5844C10.4999 18.3125 10.4999 17.9828 10.5 17.6435C10.5 17.629 10.5 17.6145 10.5 17.6V13.9C10.5 13.8855 10.5 13.871 10.5 13.8565C10.4999 13.5172 10.4999 13.1875 10.5364 12.9156C10.5777 12.609 10.6781 12.2592 10.9686 11.9686C11.2592 11.6781 11.609 11.5777 11.9156 11.5364C12.1875 11.4999 12.5172 11.4999 12.8565 11.5ZM12.123 13.123C12.1227 13.1249 12.1224 13.1268 12.1222 13.1288C12.1017 13.2809 12.1 13.5003 12.1 13.9V17.6C12.1 17.9998 12.1017 18.2191 12.1222 18.3712C12.1224 18.3732 12.1227 18.3752 12.123 18.3771C12.1249 18.3773 12.1268 18.3776 12.1288 18.3779C12.2809 18.3983 12.5003 18.4 12.9 18.4H16.6C16.9998 18.4 17.2191 18.3983 17.3712 18.3779C17.3732 18.3776 17.3752 18.3773 17.3771 18.3771C17.3773 18.3752 17.3776 18.3732 17.3779 18.3712C17.3983 18.2191 17.4 17.9998 17.4 17.6V13.9C17.4 13.5003 17.3983 13.2809 17.3779 13.1288C17.3776 13.1268 17.3773 13.1249 17.3771 13.123C17.3752 13.1227 17.3732 13.1224 17.3712 13.1222C17.2191 13.1017 16.9998 13.1 16.6 13.1H12.9C12.5003 13.1 12.2809 13.1017 12.1288 13.1222C12.1268 13.1224 12.1249 13.1227 12.123 13.123Z" fill="#000"/>
<path fill-rule="evenodd" clip-rule="evenodd" d="M12.8565 5.67771e-06C12.871 8.53874e-06 12.8855 1.13998e-05 12.9 1.13998e-05H16.6C16.6145 1.13998e-05 16.629 8.53874e-06 16.6435 5.67771e-06C16.9828 -6.09841e-05 17.3125 -0.000125739 17.5844 0.0364345C17.891 0.0776507 18.2408 0.178068 18.5314 0.468641C18.822 0.759213 18.9224 1.10903 18.9636 1.4156C19.0001 1.68753 19.0001 2.01723 19 2.35648C19 2.37098 19 2.38549 19 2.40001V6.10001C19 6.11454 19 6.12905 19 6.14354C19.0001 6.4828 19.0001 6.8125 18.9636 7.08443C18.9224 7.39099 18.822 7.74081 18.5314 8.03138C18.2408 8.32196 17.891 8.42237 17.5844 8.46359C17.3125 8.50015 16.9828 8.50008 16.6435 8.50002C16.629 8.50001 16.6145 8.50001 16.6 8.50001H12.9C12.8855 8.50001 12.871 8.50001 12.8565 8.50002C12.5172 8.50008 12.1875 8.50015 11.9156 8.46359C11.609 8.42237 11.2592 8.32196 10.9686 8.03138C10.6781 7.74081 10.5777 7.39099 10.5364 7.08443C10.4999 6.8125 10.4999 6.48279 10.5 6.14354C10.5 6.12905 10.5 6.11454 10.5 6.10001V2.40001C10.5 2.38549 10.5 2.37098 10.5 2.35649C10.4999 2.01723 10.4999 1.68753 10.5364 1.4156C10.5777 1.10903 10.6781 0.759213 10.9686 0.468641C11.2592 0.178068 11.609 0.0776507 11.9156 0.0364345C12.1875 -0.000125739 12.5172 -6.09841e-05 12.8565 5.67771e-06ZM12.123 1.62297C12.1227 1.62487 12.1224 1.62681 12.1222 1.62879C12.1017 1.78095 12.1 2.00027 12.1 2.40001V6.10001C12.1 6.49975 12.1017 6.71908 12.1222 6.87123C12.1224 6.87321 12.1227 6.87516 12.123 6.87706C12.1249 6.87732 12.1268 6.87759 12.1288 6.87786C12.2809 6.89831 12.5003 6.90001 12.9 6.90001H16.6C16.9998 6.90001 17.2191 6.89831 17.3712 6.87786C17.3732 6.87759 17.3752 6.87732 17.3771 6.87706C17.3773 6.87515 17.3776 6.87321 17.3779 6.87123C17.3983 6.71908 17.4 6.49975 17.4 6.10001V2.40001C17.4 2.00027 17.3983 1.78095 17.3779 1.62879C17.3776 1.62681 17.3773 1.62487 17.3771 1.62297C17.3752 1.6227 17.3732 1.62243 17.3712 1.62217C17.2191 1.60171 16.9998 1.60001 16.6 1.60001H12.9C12.5003 1.60001 12.2809 1.60171 12.1288 1.62217C12.1268 1.62243 12.1249 1.6227 12.123 1.62297Z" fill="#000"/>
</svg>
