<svg width="25" height="20" viewBox="0 0 25 20" fill="none" xmlns="http://www.w3.org/2000/svg">
<path fill-rule="evenodd" clip-rule="evenodd" d="M10.1794 4.32586e-06C10.1916 6.50568e-06 10.2038 8.6855e-06 10.216 8.6855e-06L23.0205 4.32586e-06C23.3055 -4.64639e-05 23.5824 -9.58008e-05 23.8109 0.0277595C24.0684 0.0591623 24.3622 0.135671 24.6063 0.357058C24.8504 0.578446 24.9347 0.844976 24.9693 1.07855C25.0001 1.28573 25 1.53694 24.9999 1.79542V3.80458C25 4.06306 25.0001 4.31427 24.9693 4.52145C24.9347 4.75502 24.8504 5.02155 24.6063 5.24294C24.3622 5.46433 24.0684 5.54084 23.8109 5.57224C23.5824 5.6001 23.3055 5.60005 23.0205 5.6C23.0083 5.59999 22.9961 5.59999 22.9839 5.59999H10.216C10.2038 5.59999 10.1916 5.59999 10.1794 5.6C9.89442 5.60005 9.61747 5.6001 9.38905 5.57224C9.13154 5.54084 8.83769 5.46433 8.59361 5.24294C8.34953 5.02155 8.26518 4.75502 8.23056 4.52145C8.19985 4.31427 8.1999 4.06307 8.19996 3.80459C8.19996 3.79355 8.19996 3.78249 8.19996 3.77143V1.82857C8.19996 1.81751 8.19996 1.80645 8.19996 1.79541C8.1999 1.53693 8.19985 1.28573 8.23056 1.07855C8.26518 0.844976 8.34953 0.578446 8.59361 0.357058C8.83769 0.135671 9.13154 0.0591623 9.38905 0.0277595C9.61747 -9.58008e-05 9.89442 -4.64639e-05 10.1794 4.32586e-06ZM9.56324 1.23654C9.56302 1.23799 9.56279 1.23947 9.56257 1.24098C9.54539 1.35691 9.54396 1.52401 9.54396 1.82857V3.77143C9.54396 4.07599 9.54539 4.24309 9.56257 4.35902C9.56279 4.36053 9.56302 4.36201 9.56324 4.36346C9.56484 4.36366 9.56647 4.36386 9.56813 4.36407C9.69594 4.37965 9.88018 4.38095 10.216 4.38095H22.9839C23.3197 4.38095 23.504 4.37965 23.6318 4.36407C23.6334 4.36386 23.6351 4.36366 23.6367 4.36346C23.6369 4.36201 23.6371 4.36053 23.6373 4.35902C23.6545 4.24309 23.6559 4.07599 23.6559 3.77143V1.82857C23.6559 1.52401 23.6545 1.35691 23.6373 1.24098C23.6371 1.23947 23.6369 1.23799 23.6367 1.23654C23.6351 1.23634 23.6334 1.23614 23.6318 1.23593C23.504 1.22035 23.3197 1.21905 22.9839 1.21905H10.216C9.88018 1.21905 9.69594 1.22035 9.56813 1.23593C9.56647 1.23614 9.56484 1.23634 9.56324 1.23654Z" fill="#000"/>
<path fill-rule="evenodd" clip-rule="evenodd" d="M10.1794 7.2002C10.1916 7.2002 10.2038 7.2002 10.216 7.2002L23.0205 7.2002C23.3055 7.20015 23.5824 7.2001 23.8109 7.22795C24.0684 7.25936 24.3622 7.33587 24.6063 7.55725C24.8504 7.77864 24.9347 8.04517 24.9693 8.27874C25.0001 8.48593 25 8.73713 24.9999 8.99562V11.0048C25 11.2633 25.0001 11.5145 24.9693 11.7216C24.9347 11.9552 24.8504 12.2217 24.6063 12.4431C24.3622 12.6645 24.0684 12.741 23.8109 12.7724C23.5824 12.8003 23.3055 12.8002 23.0205 12.8002C23.0083 12.8002 22.9961 12.8002 22.9839 12.8002H10.216C10.2038 12.8002 10.1916 12.8002 10.1794 12.8002C9.89442 12.8002 9.61747 12.8003 9.38905 12.7724C9.13154 12.741 8.83769 12.6645 8.59361 12.4431C8.34953 12.2217 8.26518 11.9552 8.23056 11.7216C8.19985 11.5145 8.1999 11.2633 8.19996 11.0048C8.19996 10.9937 8.19996 10.9827 8.19996 10.9716V9.02877C8.19996 9.0177 8.19996 9.00665 8.19996 8.99561C8.1999 8.73713 8.19985 8.48593 8.23056 8.27874C8.26518 8.04517 8.34953 7.77864 8.59361 7.55725C8.83769 7.33587 9.13154 7.25936 9.38905 7.22795C9.61747 7.2001 9.89442 7.20015 10.1794 7.2002ZM9.56324 8.43674C9.56302 8.43819 9.56279 8.43967 9.56257 8.44118C9.54539 8.5571 9.54396 8.72421 9.54396 9.02877V10.9716C9.54396 11.2762 9.54539 11.4433 9.56257 11.5592C9.56279 11.5607 9.56302 11.5622 9.56324 11.5637C9.56484 11.5639 9.56647 11.5641 9.56813 11.5643C9.69594 11.5798 9.88018 11.5811 10.216 11.5811H22.9839C23.3197 11.5811 23.504 11.5798 23.6318 11.5643C23.6334 11.5641 23.6351 11.5639 23.6367 11.5637C23.6369 11.5622 23.6371 11.5607 23.6373 11.5592C23.6545 11.4433 23.6559 11.2762 23.6559 10.9716V9.02877C23.6559 8.72421 23.6545 8.5571 23.6373 8.44118C23.6371 8.43967 23.6369 8.43819 23.6367 8.43674C23.6351 8.43653 23.6334 8.43633 23.6318 8.43613C23.504 8.42054 23.3197 8.41925 22.9839 8.41925H10.216C9.88018 8.41925 9.69594 8.42054 9.56813 8.43613C9.56647 8.43633 9.56484 8.43653 9.56324 8.43674Z" fill="#000"/>
<path fill-rule="evenodd" clip-rule="evenodd" d="M10.1794 14.3999C10.1916 14.3999 10.2038 14.3999 10.216 14.3999L23.0205 14.3999C23.3055 14.3999 23.5824 14.3998 23.8109 14.4277C24.0684 14.4591 24.3622 14.5356 24.6063 14.757C24.8504 14.9783 24.9347 15.2449 24.9693 15.4784C25.0001 15.6856 25 15.9368 24.9999 16.1953V18.2045C25 18.463 25.0001 18.7142 24.9693 18.9214C24.9347 19.1549 24.8504 19.4215 24.6063 19.6428C24.3622 19.8642 24.0684 19.9407 23.8109 19.9721C23.5824 20 23.3055 19.9999 23.0205 19.9999C23.0083 19.9999 22.9961 19.9999 22.9839 19.9999H10.216C10.2038 19.9999 10.1916 19.9999 10.1794 19.9999C9.89442 19.9999 9.61747 20 9.38905 19.9721C9.13154 19.9407 8.83769 19.8642 8.59361 19.6428C8.34953 19.4215 8.26518 19.1549 8.23056 18.9214C8.19985 18.7142 8.1999 18.463 8.19996 18.2045C8.19996 18.1934 8.19996 18.1824 8.19996 18.1713V16.2285C8.19996 16.2174 8.19996 16.2064 8.19996 16.1953C8.1999 15.9368 8.19985 15.6856 8.23056 15.4784C8.26518 15.2449 8.34953 14.9783 8.59361 14.757C8.83769 14.5356 9.13154 14.4591 9.38905 14.4277C9.61747 14.3998 9.89442 14.3999 10.1794 14.3999ZM9.56324 15.6364C9.56302 15.6379 9.56279 15.6394 9.56257 15.6409C9.54539 15.7568 9.54396 15.9239 9.54396 16.2285V18.1713C9.54396 18.4759 9.54539 18.643 9.56257 18.7589C9.56279 18.7604 9.56302 18.7619 9.56324 18.7634C9.56484 18.7636 9.56647 18.7638 9.56813 18.764C9.69594 18.7796 9.88018 18.7808 10.216 18.7808H22.9839C23.3197 18.7808 23.504 18.7796 23.6318 18.764C23.6334 18.7638 23.6351 18.7636 23.6367 18.7634C23.6369 18.7619 23.6371 18.7604 23.6373 18.7589C23.6545 18.643 23.6559 18.4759 23.6559 18.1713V16.2285C23.6559 15.9239 23.6545 15.7568 23.6373 15.6409C23.6371 15.6394 23.6369 15.6379 23.6367 15.6364C23.6351 15.6362 23.6334 15.636 23.6318 15.6358C23.504 15.6202 23.3197 15.619 22.9839 15.619H10.216C9.88018 15.619 9.69594 15.6202 9.56813 15.6358C9.56647 15.636 9.56484 15.6362 9.56324 15.6364Z" fill="#000"/>
<path fill-rule="evenodd" clip-rule="evenodd" d="M1.5525 3.7406e-06C1.56205 5.62551e-06 1.57161 7.51041e-06 1.58118 7.51041e-06H4.01882C4.02839 7.51041e-06 4.03795 5.62551e-06 4.0475 3.7406e-06C4.27101 -4.01777e-05 4.48822 -8.284e-05 4.66737 0.0240038C4.86934 0.051158 5.09981 0.117315 5.29125 0.308751C5.48269 0.500186 5.54884 0.730656 5.576 0.932625C5.60008 1.11178 5.60004 1.32899 5.6 1.5525C5.59999 1.56205 5.59999 1.57161 5.59999 1.58118V4.01882C5.59999 4.02839 5.59999 4.03795 5.6 4.0475C5.60004 4.27101 5.60008 4.48822 5.576 4.66737C5.54884 4.86934 5.48269 5.09981 5.29125 5.29125C5.09981 5.48269 4.86934 5.54884 4.66737 5.576C4.48822 5.60008 4.27101 5.60004 4.0475 5.6C4.03795 5.59999 4.02839 5.59999 4.01882 5.59999H1.58118C1.57161 5.59999 1.56205 5.59999 1.5525 5.6C1.32899 5.60004 1.11178 5.60008 0.932625 5.576C0.730656 5.54884 0.500186 5.48269 0.308751 5.29125C0.117315 5.09981 0.051158 4.86934 0.0240038 4.66737C-8.284e-05 4.48822 -4.01777e-05 4.27101 3.7406e-06 4.0475C5.62551e-06 4.03795 7.51041e-06 4.02839 7.51041e-06 4.01882V1.58118C7.51041e-06 1.57161 5.62551e-06 1.56205 3.7406e-06 1.5525C-4.01777e-05 1.32899 -8.284e-05 1.11178 0.0240038 0.932625C0.051158 0.730656 0.117315 0.500186 0.308751 0.308751C0.500186 0.117315 0.730656 0.051158 0.932625 0.0240038C1.11178 -8.284e-05 1.32899 -4.01777e-05 1.5525 3.7406e-06ZM1.06925 1.06925L1.06872 1.07308C1.05524 1.17333 1.05412 1.31782 1.05412 1.58118V4.01882C1.05412 4.28218 1.05524 4.42667 1.06872 4.52692L1.06925 4.53076L1.07308 4.53128C1.17333 4.54476 1.31782 4.54588 1.58118 4.54588H4.01882C4.28218 4.54588 4.42667 4.54476 4.52692 4.53128L4.53076 4.53075L4.53128 4.52692C4.54476 4.42667 4.54588 4.28218 4.54588 4.01882V1.58118C4.54588 1.31782 4.54476 1.17333 4.53128 1.07308L4.53076 1.06925L4.52692 1.06872C4.42667 1.05524 4.28218 1.05412 4.01882 1.05412H1.58118C1.31782 1.05412 1.17333 1.05524 1.07308 1.06872L1.06925 1.06925Z" fill="#000"/>
<path fill-rule="evenodd" clip-rule="evenodd" d="M1.5525 7.2002C1.56205 7.2002 1.57161 7.2002 1.58118 7.2002H4.01882C4.02839 7.2002 4.03795 7.2002 4.0475 7.2002C4.27101 7.20016 4.48822 7.20011 4.66737 7.2242C4.86934 7.25135 5.09981 7.31751 5.29125 7.50895C5.48269 7.70038 5.54884 7.93085 5.576 8.13282C5.60008 8.31197 5.60004 8.52919 5.6 8.7527C5.59999 8.76225 5.59999 8.77181 5.59999 8.78138V11.219C5.59999 11.2286 5.59999 11.2381 5.6 11.2477C5.60004 11.4712 5.60008 11.6884 5.576 11.8676C5.54884 12.0695 5.48269 12.3 5.29125 12.4914C5.09981 12.6829 4.86934 12.749 4.66737 12.7762C4.48822 12.8003 4.27101 12.8002 4.0475 12.8002C4.03795 12.8002 4.02839 12.8002 4.01882 12.8002H1.58118C1.57161 12.8002 1.56205 12.8002 1.5525 12.8002C1.32899 12.8002 1.11178 12.8003 0.932625 12.7762C0.730656 12.749 0.500186 12.6829 0.308751 12.4914C0.117315 12.3 0.051158 12.0695 0.0240038 11.8676C-8.284e-05 11.6884 -4.01777e-05 11.4712 3.7406e-06 11.2477C5.62551e-06 11.2381 7.51041e-06 11.2286 7.51041e-06 11.219V8.78138C7.51041e-06 8.77181 5.62551e-06 8.76225 3.7406e-06 8.7527C-4.01777e-05 8.52919 -8.284e-05 8.31198 0.0240038 8.13282C0.051158 7.93085 0.117315 7.70038 0.308751 7.50895C0.500186 7.31751 0.730656 7.25135 0.932625 7.2242C1.11178 7.20011 1.32899 7.20016 1.5525 7.2002ZM1.06925 8.26944L1.06872 8.27328C1.05524 8.37352 1.05412 8.51802 1.05412 8.78138V11.219C1.05412 11.4824 1.05524 11.6269 1.06872 11.7271L1.06925 11.731L1.07308 11.7315C1.17333 11.745 1.31782 11.7461 1.58118 11.7461H4.01882C4.28218 11.7461 4.42667 11.745 4.52692 11.7315L4.53076 11.7309L4.53128 11.7271C4.54476 11.6269 4.54588 11.4824 4.54588 11.219V8.78138C4.54588 8.51802 4.54476 8.37352 4.53128 8.27328L4.53076 8.26944L4.52692 8.26891C4.42667 8.25544 4.28218 8.25432 4.01882 8.25432H1.58118C1.31782 8.25432 1.17333 8.25544 1.07308 8.26891L1.06925 8.26944Z" fill="#000"/>
<path fill-rule="evenodd" clip-rule="evenodd" d="M1.5525 14.3999C1.56205 14.3999 1.57161 14.3999 1.58118 14.3999H4.01882C4.02839 14.3999 4.03795 14.3999 4.0475 14.3999C4.27101 14.3999 4.48822 14.3998 4.66737 14.4239C4.86934 14.4511 5.09981 14.5172 5.29125 14.7087C5.48269 14.9001 5.54884 15.1306 5.576 15.3325C5.60008 15.5117 5.60004 15.7289 5.6 15.9524C5.59999 15.962 5.59999 15.9715 5.59999 15.9811V18.4187C5.59999 18.4283 5.59999 18.4379 5.6 18.4474C5.60004 18.6709 5.60008 18.8881 5.576 19.0673C5.54884 19.2692 5.48269 19.4997 5.29125 19.6912C5.09981 19.8826 4.86934 19.9487 4.66737 19.9759C4.48822 20 4.27101 19.9999 4.0475 19.9999C4.03795 19.9999 4.02839 19.9999 4.01882 19.9999H1.58118C1.57161 19.9999 1.56205 19.9999 1.5525 19.9999C1.32899 19.9999 1.11178 20 0.932625 19.9759C0.730656 19.9487 0.500186 19.8826 0.308751 19.6912C0.117315 19.4997 0.051158 19.2692 0.0240038 19.0673C-8.284e-05 18.8881 -4.01777e-05 18.6709 3.7406e-06 18.4474C5.62551e-06 18.4379 7.51041e-06 18.4283 7.51041e-06 18.4187V15.9811C7.51041e-06 15.9715 5.62551e-06 15.962 3.7406e-06 15.9524C-4.01777e-05 15.7289 -8.284e-05 15.5117 0.0240038 15.3325C0.051158 15.1306 0.117315 14.9001 0.308751 14.7087C0.500186 14.5172 0.730656 14.4511 0.932625 14.4239C1.11178 14.3998 1.32899 14.3999 1.5525 14.3999ZM1.06925 15.4691L1.06872 15.473C1.05524 15.5732 1.05412 15.7177 1.05412 15.9811V18.4187C1.05412 18.6821 1.05524 18.8266 1.06872 18.9268L1.06925 18.9307L1.07308 18.9312C1.17333 18.9447 1.31782 18.9458 1.58118 18.9458H4.01882C4.28218 18.9458 4.42667 18.9447 4.52692 18.9312L4.53076 18.9307L4.53128 18.9268C4.54476 18.8266 4.54588 18.6821 4.54588 18.4187V15.9811C4.54588 15.7177 4.54476 15.5732 4.53128 15.473L4.53076 15.4691L4.52692 15.4686C4.42667 15.4551 4.28218 15.454 4.01882 15.454H1.58118C1.31782 15.454 1.17333 15.4551 1.07308 15.4686L1.06925 15.4691Z" fill="#000"/>
</svg>
