<svg width="35" height="31" viewBox="0 0 35 31" fill="none" xmlns="http://www.w3.org/2000/svg">
<path fill-rule="evenodd" clip-rule="evenodd" d="M12.8271 2.17414e-05C12.8514 3.28278e-05 12.8759 4.41196e-05 12.9007 4.41196e-05H21.5438C21.5685 4.41196e-05 21.593 3.28278e-05 21.6173 2.17414e-05C21.968 -0.000138602 22.2744 -0.000279032 22.5703 0.0336059C24.0991 0.208714 25.4702 1.05615 26.3106 2.34524C26.4732 2.59468 26.6101 2.86882 26.7668 3.18253C26.7776 3.20428 26.7886 3.22622 26.7996 3.24836L28.2134 6.07581C28.4625 6.57414 28.9719 6.88893 29.529 6.88893C32.2437 6.88893 34.4444 9.08963 34.4444 11.8043V20.5059C34.4445 22.1597 34.4445 23.5245 34.3374 24.6287C34.2259 25.7783 33.9857 26.8258 33.3885 27.7762C32.8379 28.6525 32.0969 29.3935 31.2207 29.9441C30.2702 30.5413 29.2227 30.7815 28.0731 30.893C26.9689 31.0001 25.6042 31.0001 23.9503 31H10.4941C8.84028 31.0001 7.47557 31.0001 6.37135 30.893C5.22172 30.7815 4.17422 30.5413 3.22378 29.9441C2.34749 29.3935 1.60651 28.6525 1.0559 27.7762C0.458703 26.8258 0.21853 25.7783 0.107035 24.6287C-5.56119e-05 23.5244 -2.99508e-05 22.1597 1.05019e-06 20.5058L2.28202e-06 11.8043C2.28202e-06 9.08963 2.2007 6.88893 4.9154 6.88893C5.47255 6.88893 5.98189 6.57414 6.23106 6.07581L7.64478 3.24836C7.65584 3.22623 7.6668 3.2043 7.67765 3.18256C7.83434 2.86884 7.97125 2.59469 8.13386 2.34524C8.97418 1.05615 10.3454 0.208714 11.8742 0.0336059C12.17 -0.000279032 12.4764 -0.000138602 12.8271 2.17414e-05ZM12.9007 3.44449C12.4355 3.44449 12.3405 3.44716 12.2661 3.45567C11.7565 3.51404 11.2995 3.79652 11.0194 4.22622C10.9785 4.28891 10.9336 4.37268 10.7256 4.78876L9.31186 7.61621C8.47923 9.28147 6.77721 10.3334 4.9154 10.3334C4.10301 10.3334 3.44444 10.9919 3.44444 11.8043V20.4207C3.44444 22.181 3.44634 23.3779 3.53539 24.2962C3.62188 25.188 3.77767 25.6338 3.97239 25.9437C4.2477 26.3818 4.61819 26.7523 5.05633 27.0276C5.36624 27.2224 5.81207 27.3781 6.70384 27.4646C7.62212 27.5537 8.81898 27.5556 10.5794 27.5556H23.8651C25.6254 27.5556 26.8223 27.5537 27.7406 27.4646C28.6324 27.3781 29.0782 27.2224 29.3881 27.0276C29.8262 26.7523 30.1967 26.3818 30.472 25.9437C30.6668 25.6338 30.8225 25.188 30.909 24.2962C30.9981 23.3779 31 22.181 31 20.4207V11.8043C31 10.9919 30.3414 10.3334 29.529 10.3334C27.6672 10.3334 25.9652 9.28147 25.1326 7.61621L23.7188 4.78876C23.5108 4.37268 23.4659 4.28891 23.4251 4.22622C23.145 3.79652 22.6879 3.51404 22.1783 3.45567C22.1039 3.44716 22.009 3.44449 21.5438 3.44449H12.9007Z" fill="#898989"/>
<path fill-rule="evenodd" clip-rule="evenodd" d="M17.2221 20.6668C19.1244 20.6668 20.6666 19.1247 20.6666 17.2224C20.6666 15.3201 19.1244 13.7779 17.2221 13.7779C15.3198 13.7779 13.7777 15.3201 13.7777 17.2224C13.7777 19.1247 15.3198 20.6668 17.2221 20.6668ZM17.2221 24.1113C21.0268 24.1113 24.111 21.027 24.111 17.2224C24.111 13.4178 21.0268 10.3335 17.2221 10.3335C13.4175 10.3335 10.3333 13.4178 10.3333 17.2224C10.3333 21.027 13.4175 24.1113 17.2221 24.1113Z" fill="#898989"/>
</svg>
